<svg width="225" height="219" viewBox="0 0 225 219" fill="none" xmlns="http://www.w3.org/2000/svg">
<path fill-rule="evenodd" clip-rule="evenodd" d="M39.1066 4.98828L20.8594 21.8957L44.8789 51.3934L49.9751 47.7703L52.0636 53.4576L54.1581 50.4927L60.8105 51.6934L59.4463 44.9193L60.2479 44.9178L39.1066 4.98828Z" fill="#BC6A54" stroke="#BC6A54" stroke-width="0.0762" stroke-miterlimit="22.9256"/>
<path fill-rule="evenodd" clip-rule="evenodd" d="M51.2422 250.354L73.2741 212.978L58.7838 205.691L56.0166 222.536L52.099 221.592L51.2422 250.354Z" fill="#FEFEFE" stroke="#FEFEFE" stroke-width="0.0762" stroke-miterlimit="22.9256"/>
<path fill-rule="evenodd" clip-rule="evenodd" d="M182.053 2.02734L169.766 9.79611L189.645 31.5992L201.744 24.3948L182.053 2.02734Z" fill="#BD9977"/>
<path d="M182.053 2.02734L169.766 9.79611L189.645 31.5992L201.744 24.3948L182.053 2.02734Z" stroke="#BD9977" stroke-width="0.0762" stroke-miterlimit="22.9256"/>
<path fill-rule="evenodd" clip-rule="evenodd" d="M26.6127 145.111L21.2109 154.997L26.1771 161.721L48.1543 163.91L68.9487 150.603L64.757 144.781L50.1279 154.671L26.6127 145.111Z" fill="#CFAB78" stroke="#CFAB78" stroke-width="0.0762" stroke-miterlimit="22.9256"/>
<path fill-rule="evenodd" clip-rule="evenodd" d="M26.6176 145.111L50.1328 154.671L64.7619 144.781L67.3762 148.412L97.0368 142.39L114.405 107.798L58.8855 82.4062L53.3705 99.1026L57.6094 97.6337L68.3927 114.502L26.7128 132.103L23.4428 130.499L20.6719 142.694L26.6176 145.111Z" fill="#EDCFA5" stroke="#EDCFA5" stroke-width="0.0762" stroke-miterlimit="22.9256"/>
<path fill-rule="evenodd" clip-rule="evenodd" d="M91.2068 54.4062L106.282 73.4744L85.9908 94.8034L58.8828 82.4053L65.6411 61.8872L91.2068 54.4062Z" fill="#E8C48A" stroke="#E8C48A" stroke-width="0.2" stroke-miterlimit="22.9256"/>
<path fill-rule="evenodd" clip-rule="evenodd" d="M52.0598 53.461L42.668 66.7558L14.7031 106.22C27.1485 107.585 40.0449 105.422 53.0073 100.183L58.8791 82.406L65.6374 61.8879L63.0136 62.6557L60.8066 51.6968L54.1543 50.4961L52.0598 53.461V53.461Z" fill="#D69F4B" stroke="#D69F4B" stroke-width="0.0762" stroke-miterlimit="22.9256"/>
<path fill-rule="evenodd" clip-rule="evenodd" d="M148.321 1.33833L98.7456 63.9388L106.283 73.4728L85.9922 94.8019L106.629 104.241L197.241 81.4843L205.078 48.5141L154.705 -6.72266L148.321 1.33833Z" fill="#BC6A54" stroke="#BC6A54" stroke-width="0.0762" stroke-miterlimit="22.9256"/>
<path fill-rule="evenodd" clip-rule="evenodd" d="M61.0938 155.631L99.6201 191.65L132.658 193.89L165.696 196.129L224.093 142.895L219.985 75.7734L197.24 81.4856L106.629 104.242L114.403 107.797L97.035 142.389L67.3744 148.411L68.9519 150.602L61.0938 155.631Z" fill="#A65C49" stroke="#A65C49" stroke-width="0.0762" stroke-miterlimit="22.9256"/>
<path d="M74.7478 77.1499C78.0775 77.1499 80.7768 74.5551 80.7768 71.3542C80.7768 68.1534 78.0775 65.5586 74.7478 65.5586C71.418 65.5586 68.7188 68.1534 68.7188 71.3542C68.7188 74.5551 71.418 77.1499 74.7478 77.1499Z" fill="#532124" stroke="#532124" stroke-width="0.0762" stroke-miterlimit="22.9256"/>
<path d="M73.431 71.7309C74.6441 71.7309 75.6276 70.7856 75.6276 69.6194C75.6276 68.4532 74.6441 67.5078 73.431 67.5078C72.2178 67.5078 71.2344 68.4532 71.2344 69.6194C71.2344 70.7856 72.2178 71.7309 73.431 71.7309Z" fill="#FEFEFE" stroke="#FEFEFE" stroke-width="0.0762" stroke-miterlimit="22.9256"/>
<path fill-rule="evenodd" clip-rule="evenodd" d="M80.9824 199.783L51.2404 250.709L50.8516 263.499L70.0568 249.523L91.2221 234.248L82.841 199.352L80.9824 199.783Z" fill="#7D88A3"/>
<path d="M51.2152 250.693L80.9572 199.767L81.0137 199.797L51.2717 250.723L51.211 250.707L51.2152 250.693V250.693ZM51.211 250.707L51.2113 250.699L51.2152 250.693L51.211 250.707V250.707ZM50.8222 263.497L51.211 250.707L51.2758 250.709L50.887 263.499L50.8743 263.522L50.8222 263.497ZM50.8743 263.522L50.8203 263.562L50.8222 263.497L50.8743 263.522ZM70.0795 249.546L50.8743 263.522L50.835 263.473L70.0402 249.496L70.0403 249.496L70.0795 249.546ZM70.0402 249.496L70.0403 249.496L70.0443 249.493L70.0402 249.496ZM91.2447 234.271L70.0794 249.546L70.0403 249.496L91.2056 234.222L91.2566 234.24L91.2447 234.271V234.271ZM91.2566 234.24L91.2613 234.259L91.2447 234.271L91.2566 234.24V234.24ZM82.8756 199.343L91.2566 234.24L91.1936 234.253L82.8125 199.357L82.8364 199.32L82.8756 199.343V199.343ZM82.8364 199.32L82.8682 199.312L82.8756 199.343L82.8364 199.32ZM80.9778 199.752L82.8364 199.32L82.8517 199.38L80.9931 199.812L80.9572 199.767L80.9778 199.752ZM80.9572 199.767L80.9641 199.755L80.9778 199.752L80.9572 199.767Z" fill="#7D88A3"/>
<path fill-rule="evenodd" clip-rule="evenodd" d="M82.8393 199.35L91.2203 234.247L70.0551 249.522L77.1649 265.001L46.1792 268.071L33.3984 280.632L33.441 287.851L142.242 278.797L124.696 193.352L90.7772 197.345L82.8393 199.35Z" fill="#41415B"/>
<path d="M91.19 234.253L82.809 199.356L82.872 199.343L91.2531 234.239L91.2411 234.271L91.19 234.253V234.253ZM91.2531 234.239L91.2577 234.259L91.2411 234.271L91.2531 234.239V234.239ZM70.0368 249.496L91.202 234.221L91.2411 234.271L70.0758 249.545L70.0266 249.533L70.0368 249.496ZM70.0266 249.533L70.0163 249.511L70.0368 249.496L70.0266 249.533ZM77.1365 265.012L70.0266 249.533L70.086 249.508L77.1958 264.987L77.1695 265.031L77.1365 265.012V265.012ZM77.1958 264.987L77.2137 265.026L77.1695 265.031L77.1958 264.987ZM46.1771 268.04L77.1628 264.969L77.1695 265.031L46.1838 268.101L46.1572 268.049L46.1771 268.04V268.04ZM46.1572 268.049L46.1653 268.041L46.1771 268.04L46.1572 268.049ZM33.3764 280.61L46.1572 268.049L46.2037 268.092L33.4229 280.653L33.3673 280.631L33.3764 280.61ZM33.3673 280.631L33.3672 280.619L33.3764 280.61L33.3673 280.631ZM33.4099 287.85L33.3673 280.631L33.4321 280.631L33.4747 287.85L33.4451 287.881L33.4099 287.85ZM33.4451 287.881L33.41 287.883L33.4099 287.85L33.4451 287.881ZM142.247 278.827L33.4451 287.881L33.4394 287.819L142.241 278.765L142.275 278.79L142.247 278.827ZM142.275 278.79L142.282 278.824L142.247 278.827L142.275 278.79V278.79ZM124.729 193.345L142.275 278.79L142.212 278.802L124.665 193.357L124.693 193.32L124.729 193.345V193.345ZM124.693 193.32L124.723 193.316L124.729 193.345L124.693 193.32ZM90.7745 197.314L124.693 193.32L124.701 193.381L90.7824 197.375L90.7702 197.314L90.7745 197.314V197.314ZM90.7702 197.314L90.7723 197.314L90.7745 197.314L90.7702 197.314ZM82.8322 199.32L90.7702 197.314L90.7867 197.374L82.8488 199.379L82.809 199.356L82.8322 199.32ZM82.809 199.356L82.802 199.327L82.8322 199.32L82.809 199.356Z" fill="#41415B"/>
<path fill-rule="evenodd" clip-rule="evenodd" d="M114.492 200.29L133.318 274.439L179.799 256.169L148.93 194.808L132.657 193.891L114.492 200.29Z" fill="#2B2C44"/>
<path d="M114.492 200.29L133.318 274.439L179.799 256.169L148.93 194.808L132.657 193.891L114.492 200.29Z" stroke="#2B2C44" stroke-width="0.0762" stroke-miterlimit="22.9256"/>
<path fill-rule="evenodd" clip-rule="evenodd" d="M42.6727 66.7556L52.0645 53.4607L49.9759 47.7734L41.4453 53.8383L42.6727 66.7556Z" fill="#532124" stroke="#532124" stroke-width="0.0762" stroke-miterlimit="22.9256"/>
<path fill-rule="evenodd" clip-rule="evenodd" d="M10.6797 103.925L16.1235 126.908L26.7105 132.102L68.3904 114.501C64.796 108.878 61.2014 103.256 57.6072 97.6328C44.4646 102.746 22.8409 105.104 10.6797 103.925V103.925Z" fill="#532124"/>
<path d="M10.6797 103.925L16.1235 126.908L26.7105 132.102L68.3904 114.501C64.796 108.878 61.2014 103.256 57.6072 97.6328C44.4646 102.746 22.8409 105.104 10.6797 103.925V103.925Z" stroke="#532124" stroke-width="0.0762" stroke-miterlimit="22.9256"/>
<path fill-rule="evenodd" clip-rule="evenodd" d="M31.1484 112.712L31.8728 118.405L52.9051 112.932L50.8031 107.789L31.1484 112.712Z" fill="#FEFEFE"/>
<path d="M31.1484 112.712L31.8728 118.405L52.9051 112.932L50.8031 107.789L31.1484 112.712Z" stroke="#FEFEFE" stroke-width="0.0762" stroke-miterlimit="22.9256"/>
<path d="M22.0597 142.936L20.0683 143.791L19.2742 142.451L22.9126 126.438L25.6981 126.923L22.0597 142.936V142.936ZM20.0683 143.791L19.0625 143.383L19.2742 142.451L20.0683 143.791ZM50.7265 153.572L51.0126 155.628L49.5292 155.768L20.0683 143.791L21.2656 141.595L50.7265 153.572ZM51.0126 155.628L50.3257 156.092L49.5292 155.768L51.0126 155.628ZM73.8661 137.067L75.6355 138.982L51.0126 155.628L49.2432 153.713L73.8661 137.067Z" fill="#532124"/>
<path fill-rule="evenodd" clip-rule="evenodd" d="M50.9523 199.59L41.2846 195.18L2.46875 250.118L31.2263 264.732L50.9523 199.59Z" fill="#2B2C44" stroke="#2B2C44" stroke-width="0.0762" stroke-miterlimit="22.9256"/>
<path fill-rule="evenodd" clip-rule="evenodd" d="M44.1008 217.297L28.2188 266.481L36.6983 291.287L59.02 272.859L55.5846 219.838L44.1008 217.297Z" fill="#BA2308"/>
<path d="M44.1008 217.297L28.2188 266.481L36.6983 291.287L59.02 272.859L55.5846 219.838L44.1008 217.297Z" stroke="#BA2308" stroke-width="0.0762" stroke-miterlimit="22.9256"/>
<path fill-rule="evenodd" clip-rule="evenodd" d="M49.5445 197.367L41.5234 218.372L58.2089 222.536L62.2241 198.093L49.5445 197.367Z" fill="#91200C"/>
<path d="M49.5445 197.367L41.5234 218.372L58.2089 222.536L62.2241 198.093L49.5445 197.367Z" stroke="#91200C" stroke-width="0.0762" stroke-miterlimit="22.9256"/>
<path fill-rule="evenodd" clip-rule="evenodd" d="M99.6209 191.649L61.0945 155.629L48.1582 163.907L33.1022 162.408L17.0781 184.715L96.6557 224.732L132.659 193.888L99.6209 191.649Z" fill="#BC6A54" stroke="#BC6A54" stroke-width="0.0762" stroke-miterlimit="22.9256"/>
<path fill-rule="evenodd" clip-rule="evenodd" d="M57.4857 51.0948L60.8118 51.6951L93.6703 44.8588L96.4289 52.8777L91.2083 54.4053L98.7456 63.9394L148.321 1.33892L33.5312 -9L57.4857 51.0948Z" fill="#D9937B" stroke="#D9937B" stroke-width="0.0762" stroke-miterlimit="22.9256"/>
<path fill-rule="evenodd" clip-rule="evenodd" d="M63.0165 62.6545L59.4453 44.9215L93.6679 44.8594L96.4267 52.8782L63.0165 62.6545Z" fill="#532124"/>
<path d="M63.0165 62.6545L59.4453 44.9215L93.6679 44.8594L96.4267 52.8782L63.0165 62.6545Z" stroke="#532124" stroke-width="0.0762" stroke-miterlimit="22.9256"/>
</svg>
