<svg width="244" height="219" viewBox="0 0 244 219" fill="none" xmlns="http://www.w3.org/2000/svg">
<path fill-rule="evenodd" clip-rule="evenodd" d="M33.1453 245.857L66.9052 258.93L79.9221 205.87L55.6729 190.562L26.6797 243.345L33.1453 245.857Z" fill="#2B2C44"/>
<path d="M66.8915 258.956L33.1317 245.884L33.1544 245.825L66.9142 258.898L66.9334 258.934L66.8915 258.956V258.956ZM66.9334 258.934L66.9249 258.969L66.8915 258.956L66.9334 258.934ZM79.9503 205.875L66.9334 258.934L66.8724 258.92L79.8893 205.86L79.9366 205.841L79.9503 205.875ZM79.9366 205.841L79.9557 205.853L79.9503 205.875L79.9366 205.841V205.841ZM55.6874 190.533L79.9366 205.841L79.9029 205.894L55.6538 190.586L55.6431 190.545L55.6874 190.533ZM55.6431 190.545L55.6591 190.516L55.6874 190.533L55.6431 190.545V190.545ZM26.6499 243.327L55.6431 190.545L55.6981 190.575L26.7049 243.357L26.6661 243.371L26.6499 243.327V243.327ZM26.6661 243.371L26.6328 243.359L26.6499 243.327L26.6661 243.371V243.371ZM33.1317 245.884L26.6661 243.371L26.6888 243.313L33.1544 245.825L33.1317 245.884Z" fill="#2B2C44"/>
<path fill-rule="evenodd" clip-rule="evenodd" d="M116.023 256.563L119.026 246.044L104.304 213.383L93.4427 214.401L89.6391 212L78.3047 237.133L96.4938 246.503L116.023 256.563Z" fill="#7D88A3"/>
<path d="M119.054 246.051L116.051 256.57L115.991 256.553L118.993 246.034L119.052 246.03L119.054 246.051V246.051ZM119.052 246.03L119.057 246.04L119.054 246.051L119.052 246.03ZM104.33 213.369L119.052 246.03L118.995 246.055L104.273 213.395L104.299 213.351L104.33 213.369ZM104.299 213.351L104.321 213.349L104.33 213.369L104.299 213.351V213.351ZM93.4374 214.369L104.299 213.351L104.305 213.413L93.4434 214.431L93.4236 214.426L93.4374 214.369ZM93.4434 214.431L93.4326 214.432L93.4236 214.426L93.4434 214.431V214.431ZM89.6536 211.972L93.4572 214.373L93.4236 214.426L89.62 212.025L89.6082 211.986L89.6536 211.972ZM89.6082 211.986L89.6231 211.953L89.6536 211.972L89.6082 211.986V211.986ZM78.2738 237.119L89.6082 211.986L89.6654 212.012L78.3309 237.144L78.2881 237.159L78.2738 237.119ZM78.2881 237.159L78.2617 237.146L78.2738 237.119L78.2881 237.159ZM96.4772 246.529L78.2881 237.159L78.3167 237.104L96.5059 246.474L96.4772 246.529ZM116.007 256.589L96.4772 246.529L96.5059 246.474L116.035 256.534L116.051 256.57L116.007 256.589V256.589ZM116.051 256.57L116.04 256.607L116.007 256.589L116.051 256.57V256.57Z" fill="#7D88A3"/>
<path fill-rule="evenodd" clip-rule="evenodd" d="M104.301 213.381L119.023 246.041L123.463 230.486L117.725 230.403L121.625 211.758L104.301 213.381Z" fill="#FEFEFE"/>
<path d="M118.994 246.055L104.272 213.394L104.33 213.368L119.052 246.029L119.054 246.05L118.994 246.055ZM119.054 246.05L119.03 246.134L118.994 246.055L119.054 246.05V246.05ZM123.494 230.495L119.054 246.05L118.992 246.033L123.432 230.478L123.463 230.455L123.494 230.495ZM123.463 230.455L123.505 230.456L123.494 230.495L123.463 230.455V230.455ZM117.726 230.372L123.463 230.455L123.462 230.519L117.725 230.435L117.695 230.397L117.726 230.372ZM117.725 230.435L117.687 230.435L117.695 230.397L117.725 230.435ZM121.657 211.765L117.757 230.41L117.695 230.397L121.594 211.752L121.623 211.727L121.657 211.765V211.765ZM121.623 211.727L121.666 211.723L121.657 211.765L121.623 211.727V211.727ZM104.298 213.35L121.623 211.727L121.629 211.79L104.304 213.413L104.272 213.394L104.298 213.35ZM104.272 213.394L104.254 213.354L104.298 213.35L104.272 213.394Z" fill="#FEFEFE"/>
<path fill-rule="evenodd" clip-rule="evenodd" d="M121.63 211.764L117.73 230.41L123.468 230.493L139.615 230.728L141.42 230.755L140.254 210.02L121.63 211.764Z" fill="#91200C"/>
<path d="M117.695 230.398L121.595 211.753L121.656 211.766L117.756 230.411L117.725 230.436L117.695 230.398V230.398ZM117.725 230.436L117.688 230.435L117.695 230.398L117.725 230.436V230.436ZM123.463 230.519L117.725 230.436L117.726 230.373L123.464 230.457L123.463 230.519ZM139.61 230.754L123.463 230.519L123.464 230.457L139.611 230.692L139.61 230.754ZM141.415 230.781L139.61 230.754L139.611 230.692L141.416 230.718L141.447 230.748L141.415 230.781ZM141.447 230.748L141.449 230.781L141.415 230.781L141.447 230.748ZM140.281 210.013L141.447 230.748L141.384 230.751L140.218 210.016L140.246 209.983L140.281 210.013V210.013ZM140.246 209.983L140.279 209.98L140.281 210.013L140.246 209.983ZM121.623 211.728L140.246 209.983L140.252 210.046L121.629 211.79L121.595 211.753L121.623 211.728ZM121.595 211.753L121.6 211.73L121.623 211.728L121.595 211.753V211.753Z" fill="#91200C"/>
<path fill-rule="evenodd" clip-rule="evenodd" d="M140.252 210.017L141.418 230.752L139.613 230.726L143.529 246.993L166.125 192.855L154.807 197.029L153.719 208.756L140.252 210.017Z" fill="#FEFEFE"/>
<path d="M141.384 230.751L140.218 210.015L140.281 210.012L141.448 230.747L141.415 230.78L141.384 230.751V230.751ZM141.448 230.747L141.45 230.781L141.415 230.78L141.448 230.747V230.747ZM139.611 230.691L141.416 230.717L141.415 230.78L139.61 230.754L139.58 230.73L139.611 230.691ZM139.58 230.73L139.57 230.69L139.611 230.691L139.58 230.73V230.73ZM143.495 246.997L139.58 230.73L139.642 230.715L143.557 246.982L143.555 247.001L143.495 246.997V246.997ZM143.555 247.001L143.518 247.091L143.495 246.997L143.555 247.001V247.001ZM166.152 192.864L143.555 247.001L143.497 246.977L166.093 192.84L166.112 192.822L166.152 192.864ZM166.112 192.822L166.18 192.797L166.152 192.864L166.112 192.822ZM154.794 196.995L166.112 192.822L166.134 192.882L154.816 197.055L154.773 197.022L154.794 196.995ZM154.773 197.022L154.775 197.002L154.794 196.995L154.773 197.022ZM153.685 208.749L154.773 197.022L154.836 197.028L153.748 208.755L153.719 208.783L153.685 208.749ZM153.748 208.755L153.746 208.781L153.719 208.783L153.748 208.755V208.755ZM140.247 209.982L153.713 208.72L153.719 208.783L140.253 210.045L140.218 210.015L140.247 209.982ZM140.218 210.015L140.216 209.985L140.247 209.982L140.218 210.015Z" fill="#FEFEFE"/>
<path fill-rule="evenodd" clip-rule="evenodd" d="M166.124 192.854L143.527 246.991L146.218 258.169L161.436 243.701L179.957 226.093L167.856 192.215L166.124 192.854Z" fill="#7D88A3"/>
<path d="M143.496 246.976L166.093 192.839L166.151 192.863L143.554 247L143.495 246.995L143.496 246.976V246.976ZM143.495 246.995L143.492 246.986L143.496 246.976L143.495 246.995ZM146.185 258.173L143.495 246.995L143.556 246.981L146.246 258.159L146.237 258.189L146.185 258.173ZM146.237 258.189L146.198 258.226L146.185 258.173L146.237 258.189V258.189ZM161.455 243.721L146.237 258.189L146.194 258.143L161.412 243.676L161.455 243.721ZM179.976 226.113L161.455 243.721L161.412 243.676L179.933 226.068L179.984 226.08L179.976 226.113ZM179.984 226.08L179.991 226.099L179.976 226.113L179.984 226.08V226.08ZM167.883 192.202L179.984 226.08L179.925 226.101L167.824 192.222L167.843 192.183L167.883 192.202ZM167.843 192.183L167.873 192.172L167.883 192.202L167.843 192.183ZM166.111 192.822L167.843 192.183L167.865 192.241L166.133 192.88L166.093 192.839L166.111 192.822ZM166.093 192.839L166.098 192.826L166.111 192.822L166.093 192.839Z" fill="#7D88A3"/>
<path fill-rule="evenodd" clip-rule="evenodd" d="M167.858 192.214L179.958 226.092L161.437 243.7L170.058 258.348C159.188 263.24 156.229 264.572 148.588 268.011L150.788 277.15L145.164 282.127L146.545 294.917L186.003 287.698L188.974 287.155L188.951 285.757L188.761 274.602L188.705 271.284L187.242 185.066L167.858 192.214V192.214Z" fill="#41415B"/>
<path d="M179.926 226.1L167.826 192.222L167.885 192.201L179.985 226.079L179.978 226.112L179.926 226.1ZM179.985 226.079L179.992 226.099L179.978 226.112L179.985 226.079V226.079ZM161.413 243.675L179.934 226.067L179.978 226.112L161.456 243.721L161.408 243.714L161.413 243.675ZM161.408 243.714L161.395 243.692L161.413 243.675L161.408 243.714ZM170.029 258.362L161.408 243.714L161.462 243.682L170.083 258.33L170.069 258.374L170.029 258.362ZM170.083 258.33L170.1 258.36L170.069 258.374L170.083 258.33ZM148.617 268.001L148.556 268.016L148.573 267.98L149.276 267.664L149.954 267.358L150.609 267.064L151.244 266.778L151.86 266.501L152.46 266.231L153.047 265.966L153.623 265.707L154.189 265.452L154.749 265.201L155.305 264.951L155.858 264.701L156.412 264.452L156.968 264.202L157.529 263.949L158.097 263.694L158.675 263.434L159.264 263.168L159.868 262.897L160.488 262.618L161.126 262.33L161.786 262.034L162.468 261.726L163.177 261.407L163.913 261.076L164.68 260.731L165.479 260.371L166.313 259.996L167.184 259.604L168.094 259.194L169.046 258.766L170.043 258.317L170.069 258.374L169.072 258.823L168.12 259.251L167.21 259.661L166.339 260.053L165.505 260.428L164.706 260.788L163.939 261.133L163.203 261.464L162.494 261.783L161.811 262.09L161.152 262.387L160.513 262.675L159.894 262.954L159.29 263.225L158.701 263.491L158.123 263.751L157.555 264.006L156.994 264.259L156.438 264.509L155.884 264.758L155.33 265.007L154.775 265.257L154.215 265.509L153.649 265.764L153.073 266.023L152.486 266.287L151.886 266.558L151.269 266.835L150.635 267.121L149.98 267.415L149.302 267.721L148.599 268.037L148.617 268.001V268.001ZM148.556 268.016L148.55 267.991L148.573 267.98L148.556 268.016ZM150.755 277.155L148.556 268.016L148.617 268.001L150.816 277.14L150.807 277.171L150.755 277.155V277.155ZM150.816 277.14L150.821 277.159L150.807 277.171L150.816 277.14V277.14ZM145.141 282.101L150.765 277.124L150.807 277.171L145.183 282.148L145.131 282.128L145.141 282.101ZM145.131 282.128L145.129 282.112L145.141 282.101L145.131 282.128ZM146.512 294.918L145.131 282.128L145.193 282.121L146.574 294.911L146.549 294.945L146.512 294.918V294.918ZM146.549 294.945L146.515 294.951L146.512 294.918L146.549 294.945ZM186.006 287.726L146.549 294.945L146.537 294.884L185.995 287.665L186.006 287.726ZM188.978 287.183L186.006 287.726L185.995 287.665L188.966 287.122L189.003 287.152L188.978 287.183ZM189.003 287.152L189.004 287.178L188.978 287.183L189.003 287.152ZM188.98 285.754L189.003 287.152L188.941 287.153L188.917 285.755L188.98 285.754ZM188.79 274.599L188.98 285.754L188.917 285.755L188.728 274.6L188.79 274.599ZM188.734 271.281L188.79 274.599L188.728 274.6L188.671 271.282L188.734 271.281ZM187.271 185.063L188.734 271.281L188.671 271.282L187.209 185.065L187.229 185.035L187.271 185.063ZM187.229 185.035L187.27 185.02L187.271 185.063L187.229 185.035V185.035ZM167.844 192.182L187.229 185.035L187.251 185.093L167.866 192.241L167.826 192.222L167.844 192.182V192.182ZM167.826 192.222L167.815 192.193L167.844 192.182L167.826 192.222Z" fill="#41415B"/>
<path fill-rule="evenodd" clip-rule="evenodd" d="M78.3017 237.132L89.6361 211.999L79.922 205.867L63.72 271.91L61.6836 280.255L69.7051 281.341L110.124 286.81L111.779 279.821L109.947 277.84L111.439 272.613L111.045 272.358L88.0251 257.486L96.4909 246.502L78.3017 237.132Z" fill="#41415B"/>
<path d="M89.6644 212.011L78.33 237.144L78.2728 237.118L89.6072 211.986L89.6526 211.972L89.6644 212.011V212.011ZM89.6526 211.972L89.6754 211.987L89.6644 212.011L89.6526 211.972ZM79.9386 205.84L89.6526 211.972L89.619 212.025L79.9049 205.892L79.8912 205.859L79.9386 205.84V205.84ZM79.8912 205.859L79.9015 205.816L79.9386 205.84L79.8912 205.859ZM63.6892 271.901L79.8912 205.859L79.9523 205.874L63.7503 271.916L63.6892 271.901ZM61.6528 280.247L63.6892 271.901L63.7503 271.916L61.7138 280.262L61.6791 280.285L61.6528 280.247ZM61.6791 280.285L61.6445 280.28L61.6528 280.247L61.6791 280.285V280.285ZM69.7006 281.371L61.6791 280.285L61.6875 280.223L69.709 281.309L69.7006 281.371ZM110.119 286.84L69.7006 281.371L69.709 281.309L110.127 286.778L110.154 286.816L110.119 286.84V286.84ZM110.154 286.816L110.147 286.844L110.119 286.84L110.154 286.816ZM111.809 279.827L110.154 286.816L110.093 286.802L111.748 279.812L111.802 279.798L111.809 279.827ZM111.802 279.798L111.813 279.811L111.809 279.827L111.802 279.798ZM109.969 277.818L111.802 279.798L111.756 279.841L109.923 277.86L109.916 277.831L109.969 277.818ZM109.923 277.86L109.911 277.847L109.916 277.831L109.923 277.86V277.86ZM111.469 272.62L109.977 277.848L109.916 277.831L111.408 272.603L111.456 272.586L111.469 272.62ZM111.456 272.586L111.475 272.598L111.469 272.62L111.456 272.586V272.586ZM111.062 272.331L111.456 272.586L111.421 272.638L111.028 272.383L111.062 272.331ZM88.0418 257.459L111.062 272.331L111.028 272.383L88.0076 257.512L87.9998 257.466L88.0418 257.459V257.459ZM88.0076 257.512L87.9791 257.493L87.9998 257.466L88.0076 257.512V257.512ZM96.5155 246.52L88.0497 257.504L87.9998 257.466L96.4657 246.482L96.5049 246.473L96.5155 246.52ZM96.5049 246.473L96.5383 246.49L96.5155 246.52L96.5049 246.473ZM78.3157 237.103L96.5049 246.473L96.4762 246.529L78.2871 237.159L78.2728 237.118L78.3157 237.103V237.103ZM78.2871 237.159L78.2607 237.145L78.2728 237.118L78.2871 237.159Z" fill="#41415B"/>
<path fill-rule="evenodd" clip-rule="evenodd" d="M187.242 185.07L188.705 271.287L190.816 270.005L222.254 250.916L227.337 247.829L201.468 179.824L187.242 185.07Z" fill="#2B2C44"/>
<path d="M188.67 271.284L187.207 185.067L187.27 185.066L188.733 271.283L188.718 271.31L188.67 271.284ZM188.718 271.31L188.671 271.339L188.67 271.284L188.718 271.31ZM190.829 270.029L188.718 271.31L188.685 271.257L190.796 269.976L190.829 270.029ZM222.267 250.94L190.829 270.029L190.796 269.976L222.234 250.886L222.267 250.94ZM227.35 247.853L222.267 250.94L222.234 250.886L227.318 247.8L227.363 247.815L227.35 247.853ZM227.363 247.815L227.373 247.839L227.35 247.853L227.363 247.815ZM201.494 179.81L227.363 247.815L227.305 247.837L201.435 179.832L201.454 179.792L201.494 179.81ZM201.454 179.792L201.483 179.781L201.494 179.81L201.454 179.792V179.792ZM187.228 185.037L201.454 179.792L201.475 179.85L187.25 185.096L187.207 185.067L187.228 185.037V185.037ZM187.207 185.067L187.207 185.045L187.228 185.037L187.207 185.067Z" fill="#2B2C44"/>
<path fill-rule="evenodd" clip-rule="evenodd" d="M175.956 102.459L249.15 88.9213L253.963 30.5098L195.565 -9.65625L168.263 50.5463L157.711 62.4603L175.112 64.448L185.915 73.8711L171.92 100.076L175.956 102.459Z" fill="#BC6A54"/>
<path d="M249.152 88.9475L175.958 102.485L175.947 102.424L249.141 88.8865L249.177 88.9196L249.152 88.9475V88.9475ZM249.177 88.9196L249.175 88.9432L249.152 88.9475L249.177 88.9196V88.9196ZM253.99 30.508L249.177 88.9196L249.116 88.9144L253.928 30.5028L253.976 30.4798L253.99 30.508ZM253.976 30.4798L253.991 30.4901L253.99 30.508L253.976 30.4798ZM195.579 -9.68617L253.976 30.4798L253.941 30.5309L195.544 -9.63505L195.533 -9.67354L195.579 -9.68617V-9.68617ZM195.533 -9.67354L195.548 -9.70703L195.579 -9.68617L195.533 -9.67354ZM168.231 50.529L195.533 -9.67354L195.59 -9.64771L168.287 50.5548L168.282 50.5625L168.231 50.529ZM168.287 50.5548L168.285 50.5588L168.282 50.5625L168.287 50.5548ZM157.684 62.4353L168.236 50.5213L168.282 50.5625L157.73 62.4765L157.704 62.4867L157.684 62.4353ZM157.704 62.4867L157.645 62.4799L157.684 62.4353L157.704 62.4867ZM175.105 64.4744L157.704 62.4867L157.711 62.4252L175.112 64.4128L175.129 64.4202L175.105 64.4744ZM175.112 64.4128L175.122 64.414L175.129 64.4202L175.112 64.4128ZM185.891 73.8902L175.088 64.4671L175.129 64.4202L185.931 73.8433L185.938 73.8814L185.891 73.8902ZM185.931 73.8433L185.95 73.8595L185.938 73.8814L185.931 73.8433V73.8433ZM171.889 100.057L185.884 73.8522L185.938 73.8814L171.943 100.087L171.901 100.099L171.889 100.057V100.057ZM171.901 100.099L171.875 100.084L171.889 100.057L171.901 100.099ZM175.936 102.481L171.901 100.099L171.932 100.045L175.968 102.428L175.958 102.485L175.936 102.481V102.481ZM175.958 102.485L175.946 102.487L175.936 102.481L175.958 102.485V102.485Z" fill="#BC6A54"/>
<path fill-rule="evenodd" clip-rule="evenodd" d="M97.6982 94.4859L114.933 81.3942L118.765 66.3441L118.79 66.1659L94.2143 63.0352L82.6953 74.6066L90.8007 99.7253L97.6982 94.4859Z" fill="#E8C48A"/>
<path d="M114.948 81.4167L97.7137 94.5084L97.6758 94.4588L114.911 81.3672L114.96 81.3996L114.948 81.4167V81.4167ZM114.96 81.3996L114.957 81.4101L114.948 81.4167L114.96 81.3996V81.3996ZM118.792 66.3495L114.96 81.3996L114.899 81.3842L118.731 66.3341L118.793 66.346L118.792 66.3495ZM118.793 66.346L118.792 66.3481L118.792 66.3495L118.793 66.346V66.346ZM118.817 66.1677L118.793 66.346L118.731 66.3377L118.755 66.1594L118.79 66.1327L118.817 66.1677ZM118.79 66.1327L118.821 66.1367L118.817 66.1677L118.79 66.1327V66.1327ZM94.2148 63.002L118.79 66.1327L118.782 66.1945L94.207 63.0638L94.1887 63.011L94.2148 63.002V63.002ZM94.1887 63.011L94.1995 63L94.2148 63.002L94.1887 63.011ZM82.6697 74.5824L94.1887 63.011L94.233 63.0548L82.714 74.6262L82.6621 74.6139L82.6697 74.5824ZM82.6621 74.6139L82.6562 74.5959L82.6697 74.5824L82.6621 74.6139ZM90.7675 99.7325L82.6621 74.6139L82.7216 74.5948L90.827 99.7134L90.8161 99.7477L90.7675 99.7325V99.7325ZM90.8161 99.7477L90.7811 99.7745L90.7675 99.7325L90.8161 99.7477V99.7477ZM97.7137 94.5084L90.8161 99.7477L90.7783 99.6982L97.6758 94.4588L97.7137 94.5084Z" fill="#E8C48A"/>
<path fill-rule="evenodd" clip-rule="evenodd" d="M185.995 73.8667L173.605 57.6602L148.586 62.2864L154.329 89.6405L172 100.072L185.995 73.8667Z" fill="#E8C48A"/>
<path d="M173.628 57.6403L186.018 73.8468L185.968 73.8846L173.578 57.6781L173.597 57.6285L173.628 57.6403V57.6403ZM173.597 57.6285L173.616 57.625L173.628 57.6403L173.597 57.6285V57.6285ZM148.578 62.2547L173.597 57.6285L173.609 57.6898L148.59 62.316L148.553 62.2918L148.578 62.2547ZM148.553 62.2918L148.547 62.2605L148.578 62.2547L148.553 62.2918ZM154.296 89.6458L148.553 62.2918L148.614 62.279L154.357 89.6331L154.311 89.6662L154.296 89.6458V89.6458ZM154.311 89.6662L154.299 89.6593L154.296 89.6458L154.311 89.6662V89.6662ZM171.982 100.098L154.311 89.6662L154.343 89.6127L172.014 100.044L172.026 100.086L171.982 100.098ZM172.026 100.086L172.01 100.114L171.982 100.098L172.026 100.086ZM186.02 73.8803L172.026 100.086L171.971 100.056L185.965 73.8511L186.018 73.8468L186.02 73.8803V73.8803ZM186.018 73.8468L186.03 73.8627L186.02 73.8803L186.018 73.8468Z" fill="#E8C48A"/>
<path fill-rule="evenodd" clip-rule="evenodd" d="M20.3438 50.9302L31.6871 57.6456L45.1701 33.4259L34.4132 26.6406L20.3438 50.9302Z" fill="#BD9977"/>
<path d="M31.6705 57.6687L20.3271 50.9534L20.3587 50.8999L31.7021 57.6153L31.7133 57.6571L31.6705 57.6687ZM31.7133 57.6571L31.6978 57.6849L31.6705 57.6687L31.7133 57.6571ZM45.1963 33.4374L31.7133 57.6571L31.6593 57.6269L45.1423 33.4072L45.1857 33.3961L45.1963 33.4374V33.4374ZM45.1857 33.3961L45.2106 33.4117L45.1963 33.4374L45.1857 33.3961V33.3961ZM34.4288 26.6108L45.1857 33.3961L45.1528 33.4485L34.3959 26.6632L34.3856 26.6215L34.4288 26.6108ZM34.3856 26.6215L34.4016 26.5938L34.4288 26.6108L34.3856 26.6215ZM20.3162 50.9111L34.3856 26.6215L34.4391 26.6526L20.3696 50.9422L20.3271 50.9534L20.3162 50.9111ZM20.3271 50.9534L20.3008 50.9378L20.3162 50.9111L20.3271 50.9534Z" fill="#BD9977"/>
<path fill-rule="evenodd" clip-rule="evenodd" d="M215.527 4.01576L221.944 -4.75391L243.509 11.2174L238.277 19.6631L215.527 4.01576Z" fill="#BD9977"/>
<path d="M221.966 -4.73896L215.549 4.03071L215.499 3.99393L221.916 -4.77574L221.959 -4.78226L221.966 -4.73896ZM221.916 -4.77574L221.934 -4.80078L221.959 -4.78226L221.916 -4.77574ZM243.488 11.2389L221.923 -4.73244L221.959 -4.78226L243.525 11.1891L243.533 11.2304L243.488 11.2389ZM243.525 11.1891L243.548 11.206L243.533 11.2304L243.525 11.1891ZM238.248 19.6433L243.48 11.1975L243.533 11.2304L238.3 19.6761L238.256 19.6852L238.248 19.6433ZM238.3 19.6761L238.283 19.7036L238.256 19.6852L238.3 19.6761ZM215.542 3.98677L238.291 19.6341L238.256 19.6852L215.507 4.03789L215.499 3.99393L215.542 3.98677ZM215.507 4.03789L215.48 4.01975L215.499 3.99393L215.507 4.03789Z" fill="#BD9977"/>
<path fill-rule="evenodd" clip-rule="evenodd" d="M159.698 70.7266C162.751 70.7266 165.227 73.023 165.227 75.8558C165.227 78.6886 162.751 80.985 159.698 80.985C156.644 80.985 154.168 78.6886 154.168 75.8558C154.168 73.023 156.644 70.7266 159.698 70.7266Z" fill="#532124"/>
<path d="M165.254 75.8516H165.192L165.185 75.5894L165.164 75.3307L165.129 75.0756L165.08 74.8245L165.019 74.5781L164.945 74.3363L164.859 74.0995L164.76 73.868L164.65 73.6423L164.529 73.4224L164.396 73.2089L164.253 73.0021L164.1 72.8022L163.937 72.6096L163.764 72.4247L163.582 72.2474L163.391 72.0787L163.192 71.9184L162.984 71.767L162.769 71.6247L162.546 71.492L162.315 71.3693L162.078 71.2566L161.835 71.1545L161.585 71.0632L161.329 70.9829L161.068 70.9141L160.802 70.8571L160.531 70.8123L160.256 70.7798L159.977 70.7601L159.694 70.7535V70.6914L159.98 70.6981L160.262 70.718L160.54 70.7507L160.814 70.7961L161.083 70.8536L161.346 70.9231L161.605 71.0043L161.857 71.0966L162.104 71.2L162.343 71.3137L162.576 71.438L162.802 71.572L163.02 71.7159L163.23 71.8691L163.432 72.0312L163.625 72.202L163.809 72.3811L163.984 72.5684L164.149 72.7633L164.304 72.9656L164.449 73.175L164.583 73.3911L164.705 73.6136L164.817 73.8422L164.917 74.0768L165.004 74.3165L165.079 74.5614L165.141 74.8112L165.19 75.0654L165.225 75.3239L165.247 75.586L165.254 75.8516V75.8516ZM159.694 81.0119V80.9498L159.977 80.9431L160.256 80.9235L160.531 80.891L160.802 80.8461L161.068 80.7891L161.329 80.7204L161.585 80.6401L161.835 80.5488L162.078 80.4468L162.315 80.334L162.546 80.2113L162.769 80.0786L162.984 79.9363L163.192 79.785L163.391 79.6246L163.582 79.4559L163.764 79.2786L163.937 79.0937L164.1 78.9011L164.253 78.7012L164.396 78.4944L164.529 78.2809L164.65 78.061L164.76 77.8353L164.859 77.6039L164.945 77.367L165.019 77.1252L165.08 76.8787L165.129 76.6277L165.164 76.3728L165.185 76.1139L165.192 75.8516H165.254L165.247 76.1173L165.225 76.3795L165.19 76.6379L165.141 76.892L165.079 77.1419L165.004 77.3868L164.917 77.6266L164.817 77.8611L164.705 78.0897L164.583 78.3122L164.449 78.5283L164.304 78.7377L164.149 78.94L163.984 79.1349L163.809 79.3222L163.625 79.5012L163.432 79.6721L163.23 79.8343L163.02 79.9874L162.802 80.1312L162.576 80.2653L162.343 80.3896L162.104 80.5034L161.857 80.6067L161.605 80.699L161.346 80.7801L161.083 80.8496L160.814 80.9072L160.54 80.9525L160.262 80.9853L159.98 81.0052L159.694 81.0119V81.0119ZM154.133 75.8516H154.195L154.202 76.1139L154.223 76.3728L154.259 76.6277L154.307 76.8787L154.368 77.1252L154.442 77.367L154.528 77.6039L154.627 77.8353L154.737 78.061L154.858 78.2809L154.991 78.4944L155.134 78.7012L155.287 78.9011L155.45 79.0937L155.623 79.2786L155.805 79.4559L155.996 79.6246L156.195 79.785L156.403 79.9363L156.619 80.0786L156.842 80.2113L157.072 80.334L157.309 80.4468L157.553 80.5488L157.802 80.6401L158.058 80.7204L158.319 80.7891L158.585 80.8461L158.856 80.891L159.131 80.9235L159.41 80.9431L159.694 80.9498V81.0119L159.408 81.0052L159.125 80.9853L158.847 80.9525L158.573 80.9072L158.304 80.8496L158.041 80.7801L157.782 80.699L157.53 80.6067L157.283 80.5034L157.044 80.3896L156.811 80.2653L156.585 80.1312L156.367 79.9874L156.157 79.8343L155.956 79.6721L155.762 79.5012L155.578 79.3222L155.403 79.1349L155.238 78.94L155.083 78.7377L154.938 78.5283L154.805 78.3122L154.682 78.0897L154.57 77.8611L154.471 77.6266L154.383 77.3868L154.308 77.1419L154.246 76.892L154.197 76.6379L154.162 76.3795L154.14 76.1173L154.133 75.8516V75.8516ZM159.694 70.6914V70.7535L159.41 70.7601L159.131 70.7798L158.856 70.8123L158.585 70.8571L158.319 70.9141L158.058 70.9829L157.802 71.0632L157.553 71.1545L157.309 71.2566L157.072 71.3693L156.842 71.492L156.619 71.6247L156.403 71.767L156.195 71.9184L155.996 72.0787L155.805 72.2474L155.623 72.4247L155.45 72.6096L155.287 72.8022L155.134 73.0021L154.991 73.2089L154.858 73.4224L154.737 73.6423L154.627 73.868L154.528 74.0995L154.442 74.3363L154.368 74.5781L154.307 74.8245L154.259 75.0756L154.223 75.3307L154.202 75.5894L154.195 75.8516H154.133L154.14 75.586L154.162 75.3239L154.197 75.0654L154.246 74.8112L154.308 74.5614L154.383 74.3165L154.471 74.0768L154.57 73.8422L154.682 73.6136L154.805 73.3911L154.938 73.175L155.083 72.9656L155.238 72.7633L155.403 72.5684L155.578 72.3811L155.762 72.202L155.956 72.0312L156.157 71.8691L156.367 71.7159L156.585 71.572L156.811 71.438L157.044 71.3137L157.283 71.2L157.53 71.0966L157.782 71.0043L158.041 70.9231L158.304 70.8536L158.573 70.7961L158.847 70.7507L159.125 70.718L159.408 70.6981L159.694 70.6914V70.6914Z" fill="#532124"/>
<path fill-rule="evenodd" clip-rule="evenodd" d="M105.233 73.5234C107.867 73.5234 110.002 75.5037 110.002 77.9466C110.002 80.3894 107.867 82.3697 105.233 82.3697C102.6 82.3697 100.465 80.3894 100.465 77.9466C100.465 75.5037 102.6 73.5234 105.233 73.5234Z" fill="#532124"/>
<path d="M110.029 77.9426H109.966L109.96 77.7168L109.942 77.4937L109.912 77.274L109.87 77.0578L109.818 76.8455L109.754 76.6372L109.679 76.4331L109.595 76.2337L109.5 76.0393L109.395 75.8498L109.281 75.666L109.158 75.4878L109.026 75.3155L108.885 75.1497L108.737 74.9903L108.58 74.8377L108.415 74.6922L108.243 74.5541L108.064 74.4237L107.879 74.3012L107.686 74.1869L107.488 74.0811L107.284 73.9841L107.074 73.8959L106.859 73.8173L106.639 73.7482L106.414 73.689L106.184 73.6398L105.951 73.6012L105.714 73.5732L105.473 73.5562L105.229 73.5506V73.4883L105.476 73.4941L105.72 73.5114L105.96 73.5397L106.196 73.5788L106.428 73.6285L106.656 73.6885L106.879 73.7583L107.097 73.838L107.309 73.9272L107.516 74.0256L107.717 74.1326L107.912 74.2485L108.1 74.3726L108.281 74.5048L108.455 74.6447L108.622 74.7921L108.781 74.9468L108.932 75.1085L109.075 75.2767L109.208 75.4513L109.333 75.632L109.449 75.8185L109.555 76.0106L109.651 76.2079L109.737 76.4105L109.813 76.6174L109.877 76.8288L109.931 77.0445L109.973 77.2638L110.004 77.487L110.023 77.7134L110.029 77.9426V77.9426ZM105.229 82.3968V82.3345L105.473 82.3289L105.714 82.3119L105.951 82.2839L106.184 82.2453L106.414 82.1961L106.639 82.1369L106.859 82.0678L107.074 81.9892L107.284 81.901L107.488 81.804L107.686 81.6982L107.879 81.584L108.064 81.4614L108.243 81.331L108.415 81.1929L108.58 81.0474L108.737 80.8948L108.885 80.7354L109.026 80.5696L109.158 80.3973L109.281 80.2191L109.395 80.0353L109.5 79.8458L109.595 79.6513L109.679 79.4521L109.754 79.248L109.818 79.0396L109.87 78.8274L109.912 78.6111L109.942 78.3915L109.96 78.1685L109.966 77.9426H110.029L110.023 78.1719L110.004 78.3983L109.973 78.6213L109.931 78.8407L109.877 79.0563L109.813 79.2678L109.737 79.4748L109.651 79.6772L109.555 79.8745L109.449 80.0666L109.333 80.2531L109.208 80.4338L109.075 80.6084L108.932 80.7766L108.781 80.9383L108.622 81.093L108.455 81.2404L108.281 81.3803L108.1 81.5125L107.912 81.6367L107.717 81.7525L107.516 81.8595L107.309 81.9579L107.097 82.0471L106.879 82.1268L106.656 82.1966L106.428 82.2566L106.196 82.3063L105.96 82.3454L105.72 82.3737L105.476 82.391L105.229 82.3968V82.3968ZM100.43 77.9426H100.492L100.498 78.1685L100.517 78.3915L100.547 78.6111L100.588 78.8274L100.641 79.0396L100.705 79.248L100.779 79.4521L100.864 79.6513L100.959 79.8458L101.063 80.0353L101.177 80.2191L101.3 80.3973L101.432 80.5696L101.573 80.7354L101.722 80.8948L101.879 81.0474L102.043 81.1929L102.215 81.331L102.394 81.4614L102.58 81.584L102.772 81.6982L102.97 81.804L103.175 81.901L103.385 81.9892L103.6 82.0678L103.82 82.1369L104.045 82.1961L104.274 82.2453L104.507 82.2839L104.745 82.3119L104.985 82.3289L105.229 82.3345V82.3968L104.982 82.391L104.739 82.3737L104.499 82.3454L104.262 82.3063L104.03 82.2566L103.803 82.1966L103.58 82.1268L103.362 82.0471L103.149 81.9579L102.942 81.8595L102.741 81.7525L102.547 81.6367L102.358 81.5125L102.177 81.3803L102.003 81.2404L101.836 81.093L101.677 80.9383L101.526 80.7766L101.384 80.6084L101.25 80.4338L101.125 80.2531L101.009 80.0666L100.903 79.8745L100.807 79.6772L100.721 79.4748L100.646 79.2678L100.581 79.0563L100.527 78.8407L100.485 78.6213L100.454 78.3983L100.436 78.1719L100.43 77.9426V77.9426ZM105.229 73.4883V73.5506L104.985 73.5562L104.745 73.5732L104.507 73.6012L104.274 73.6398L104.045 73.689L103.82 73.7482L103.6 73.8173L103.385 73.8959L103.175 73.9841L102.97 74.0811L102.772 74.1869L102.58 74.3012L102.394 74.4237L102.215 74.5541L102.043 74.6922L101.879 74.8377L101.722 74.9903L101.573 75.1497L101.432 75.3155L101.3 75.4878L101.177 75.666L101.063 75.8498L100.959 76.0393L100.864 76.2337L100.779 76.4331L100.705 76.6372L100.641 76.8455L100.588 77.0578L100.547 77.274L100.517 77.4937L100.498 77.7168L100.492 77.9426H100.43L100.436 77.7134L100.454 77.487L100.485 77.2638L100.527 77.0445L100.581 76.8288L100.646 76.6174L100.721 76.4105L100.807 76.2079L100.903 76.0106L101.009 75.8185L101.125 75.632L101.25 75.4513L101.384 75.2767L101.526 75.1085L101.677 74.9468L101.836 74.7921L102.003 74.6447L102.177 74.5048L102.358 74.3726L102.547 74.2485L102.741 74.1326L102.942 74.0256L103.149 73.9272L103.362 73.838L103.58 73.7583L103.803 73.6885L104.03 73.6285L104.262 73.5788L104.499 73.5397L104.739 73.5114L104.982 73.4941L105.229 73.4883V73.4883Z" fill="#532124"/>
<path fill-rule="evenodd" clip-rule="evenodd" d="M148.501 62.2849L151.799 48.8023L162.619 48.4271L168.258 50.5405L195.561 -9.66216L199.796 -19L48.3477 7.10828L55.7912 14.1965L98.456 54.8255L103.593 51.8393L114.678 51.1058L118.704 66.1645L118.679 66.3426L119.631 62.6042L148.501 62.2849Z" fill="#D9937B"/>
<path d="M148.501 62.2849L151.799 48.8023L162.619 48.4271L168.258 50.5405L195.561 -9.66216L199.796 -19L48.3477 7.10828L55.7912 14.1965L98.456 54.8255L103.593 51.8393L114.678 51.1058L118.704 66.1645L118.679 66.3426L119.631 62.6042L148.501 62.2849Z" stroke="#D9937B" stroke-width="0.0762" stroke-miterlimit="22.9256"/>
<path fill-rule="evenodd" clip-rule="evenodd" d="M138.617 127.148L139.646 132.715L158.164 125.876L155.935 120.945L138.617 127.148Z" fill="#D8DFD8"/>
<path d="M139.612 132.717L138.583 127.15L138.644 127.139L139.673 132.705L139.653 132.74L139.612 132.717ZM139.653 132.74L139.618 132.753L139.612 132.717L139.653 132.74V132.74ZM158.171 125.901L139.653 132.74L139.631 132.682L158.149 125.843L158.189 125.859L158.171 125.901ZM158.189 125.859L158.202 125.889L158.171 125.901L158.189 125.859ZM155.96 120.929L158.189 125.859L158.132 125.885L155.903 120.954L155.921 120.912L155.96 120.929ZM155.921 120.912L155.948 120.902L155.96 120.929L155.921 120.912V120.912ZM138.603 127.115L155.921 120.912L155.942 120.971L138.624 127.173L138.583 127.15L138.603 127.115V127.115ZM138.583 127.15L138.578 127.124L138.603 127.115L138.583 127.15Z" fill="#D8DFD8"/>
<path fill-rule="evenodd" clip-rule="evenodd" d="M249.231 88.9213L176.037 102.459L198.826 115.911L180.369 159.912L158.914 153.594L155.023 198.935L246.799 164.781L264.393 86.1172L249.231 88.9213Z" fill="#A65C49"/>
<path d="M176.027 102.424L249.221 88.8869L249.233 88.9479L176.038 102.485L176.017 102.481L176.027 102.424ZM176.017 102.481L175.945 102.439L176.027 102.424L176.017 102.481ZM198.806 115.933L176.017 102.481L176.048 102.428L198.837 115.88L198.85 115.919L198.806 115.933V115.933ZM198.837 115.88L198.861 115.894L198.85 115.919L198.837 115.88ZM180.336 159.896L198.793 115.895L198.85 115.919L180.394 159.92L180.356 159.937L180.336 159.896ZM180.394 159.92L180.383 159.945L180.356 159.937L180.394 159.92ZM158.919 153.56L180.374 159.878L180.356 159.937L158.901 153.62L158.879 153.588L158.919 153.56V153.56ZM158.879 153.588L158.882 153.55L158.919 153.56L158.879 153.588ZM154.989 198.928L158.879 153.588L158.941 153.593L155.05 198.933L155.03 198.96L154.989 198.928ZM155.03 198.96L154.984 198.977L154.989 198.928L155.03 198.96ZM246.805 164.806L155.03 198.96L155.009 198.901L246.784 164.748L246.825 164.784L246.805 164.806ZM246.825 164.784L246.821 164.801L246.805 164.806L246.825 164.784ZM264.419 86.12L246.825 164.784L246.764 164.771L264.358 86.1064L264.383 86.0827L264.419 86.12ZM264.383 86.0827L264.429 86.0742L264.419 86.12L264.383 86.0827V86.0827ZM249.221 88.8869L264.383 86.0827L264.394 86.1437L249.233 88.9479L249.221 88.8869Z" fill="#A65C49"/>
<path fill-rule="evenodd" clip-rule="evenodd" d="M90.7959 99.7229L82.6906 74.6041L94.2096 63.0326L89.6274 61.5468L90.1846 59.6799L98.5373 54.8244L55.8723 14.1953L1 112.764L79.8158 134.313L73.0751 113.184L90.7959 99.7229Z" fill="#A65C49"/>
<path d="M90.7959 99.7229L82.6906 74.6041L94.2096 63.0326L89.6274 61.5468L90.1846 59.6799L98.5373 54.8244L55.8723 14.1953L1 112.764L79.8158 134.313L73.0751 113.184L90.7959 99.7229Z" stroke="#A65C49" stroke-width="0.0762" stroke-miterlimit="22.9256"/>
<path fill-rule="evenodd" clip-rule="evenodd" d="M19.4141 117.746L5.51172 158.931L95.1473 216.038L153.958 210.477L155.02 198.93L158.583 157.409L83.0805 144.546L79.8167 134.315L19.4141 117.746Z" fill="#BC6A54"/>
<path d="M5.48048 158.92L19.3829 117.735L19.4415 117.755L5.53916 158.939L5.49326 158.956L5.48048 158.92ZM5.49326 158.956L5.47266 158.943L5.48048 158.92L5.49326 158.956V158.956ZM95.1288 216.063L5.49326 158.956L5.5264 158.903L95.1619 216.011L95.1482 216.068L95.1288 216.063ZM95.1482 216.068L95.1377 216.069L95.1288 216.063L95.1482 216.068ZM153.959 210.507L95.1482 216.068L95.1425 216.006L153.954 210.445L153.987 210.479L153.959 210.507ZM153.987 210.479L153.985 210.504L153.959 210.507L153.987 210.479ZM155.049 198.931L153.987 210.479L153.926 210.473L154.988 198.925L155.049 198.931V198.931V198.931ZM155.049 198.931V198.931L155.049 198.935L155.049 198.931V198.931ZM158.612 157.41L155.049 198.931L154.988 198.926L158.55 157.405L158.586 157.377L158.612 157.41ZM158.586 157.377L158.614 157.382L158.612 157.41L158.586 157.377ZM83.0838 144.514L158.586 157.377L158.576 157.438L83.0734 144.576L83.0491 144.554L83.0838 144.514V144.514ZM83.0734 144.576L83.0548 144.572L83.0491 144.554L83.0734 144.576V144.576ZM79.8442 134.304L83.1081 144.535L83.0491 144.554L79.7853 134.323L79.823 134.284L79.8442 134.304ZM79.823 134.284L79.8391 134.288L79.8442 134.304L79.823 134.284ZM19.4204 117.715L79.823 134.284L79.8065 134.344L19.404 117.775L19.3829 117.735L19.4204 117.715V117.715ZM19.3829 117.735L19.3923 117.707L19.4204 117.715L19.3829 117.735Z" fill="#BC6A54"/>
<path fill-rule="evenodd" clip-rule="evenodd" d="M92.3074 52.5864L89.6328 61.5478L117.61 70.6196L122.772 50.5703L92.3074 52.5864Z" fill="#532124"/>
<path d="M89.5986 61.5376L92.2732 52.5762L92.333 52.5942L89.6583 61.5555L89.6189 61.5761L89.5986 61.5376V61.5376ZM89.6189 61.5761L89.5898 61.5668L89.5986 61.5376L89.6189 61.5761V61.5761ZM117.596 70.648L89.6189 61.5761L89.638 61.5169L117.615 70.5888L117.636 70.6262L117.596 70.648V70.648ZM117.636 70.6262L117.628 70.6581L117.596 70.648L117.636 70.6262V70.6262ZM122.797 50.5769L117.636 70.6262L117.576 70.6105L122.737 50.5612L122.765 50.538L122.797 50.5769ZM122.765 50.538L122.808 50.5352L122.797 50.5769L122.765 50.538ZM92.301 52.5541L122.765 50.538L122.769 50.6001L92.3052 52.6162L92.2732 52.5762L92.301 52.5541ZM92.2732 52.5762L92.2794 52.5556L92.301 52.5541L92.2732 52.5762V52.5762Z" fill="#532124"/>
<path fill-rule="evenodd" clip-rule="evenodd" d="M149.631 66.7102L146.078 49.0059L175.53 47.9844L178.122 55.9582L149.631 66.7102Z" fill="#532124"/>
<path d="M146.107 48.9964L149.661 66.7007L149.6 66.7129L146.046 49.0087L146.076 48.9715L146.107 48.9964ZM146.046 49.0087L146.039 48.9728L146.076 48.9715L146.046 49.0087V49.0087ZM175.53 48.0121L146.078 49.0336L146.076 48.9715L175.528 47.95L175.559 47.9714L175.53 48.0121V48.0121ZM175.528 47.95L175.551 47.9492L175.559 47.9714L175.528 47.95V47.95ZM178.091 55.9645L175.499 47.9907L175.559 47.9714L178.15 55.9452L178.131 55.9839L178.091 55.9645ZM178.15 55.9452L178.159 55.9733L178.131 55.9839L178.15 55.9452ZM149.619 66.6777L178.109 55.9257L178.131 55.9839L149.641 66.7359L149.6 66.7129L149.619 66.6777ZM149.641 66.7359L149.607 66.7488L149.6 66.7129L149.641 66.7359Z" fill="#532124"/>
<path fill-rule="evenodd" clip-rule="evenodd" d="M149.905 134.824L134.826 145.827C121.058 128.193 87.5812 130.232 103.406 112.562C104.705 113.285 105.786 111.586 107.081 112.208L108.495 106.657L114.927 81.3945L90.7952 99.7257L73.0742 113.187L83.0788 144.547L108.435 158.167L121.587 162.008L133.791 156.707L144.658 167.108L161.864 162.888L161.848 164.661L180.364 159.908L198.821 115.907L171.996 100.072L154.324 89.6407L156.413 109.068L167.456 125.06L149.905 134.824V134.824Z" fill="#EDCFA5"/>
<path d="M149.905 134.824L134.826 145.827C121.058 128.193 87.5812 130.232 103.406 112.562C104.705 113.285 105.786 111.586 107.081 112.208L108.495 106.657L114.927 81.3945L90.7952 99.7257L73.0742 113.187L83.0788 144.547L108.435 158.167L121.587 162.008L133.791 156.707L144.658 167.108L161.864 162.888L161.848 164.661L180.364 159.908L198.821 115.907L171.996 100.072L154.324 89.6407L156.413 109.068L167.456 125.06L149.905 134.824V134.824Z" stroke="#EDCFA5" stroke-width="0.0762" stroke-miterlimit="22.9256"/>
<path fill-rule="evenodd" clip-rule="evenodd" d="M105.699 117.65L133.578 125.411L159.451 114.05L154.327 89.6431L148.584 62.2891L119.714 62.6084L105.699 117.65Z" fill="#D69F4B"/>
<path d="M133.568 125.437L105.69 117.676L105.706 117.616L133.585 125.377L133.589 125.435L133.568 125.437V125.437ZM133.589 125.435L133.578 125.44L133.568 125.437L133.589 125.435V125.435ZM159.463 114.075L133.589 125.435L133.564 125.378L159.438 114.018L159.481 114.04L159.463 114.075V114.075ZM159.481 114.04L159.486 114.065L159.463 114.075L159.481 114.04ZM154.357 89.633L159.481 114.04L159.42 114.053L154.295 89.6458L154.357 89.633ZM148.614 62.2789L154.357 89.633L154.295 89.6458L148.553 62.2917L148.583 62.2542L148.614 62.2789V62.2789ZM148.583 62.2542L148.608 62.2539L148.614 62.2789L148.583 62.2542V62.2542ZM119.713 62.5735L148.583 62.2542L148.584 62.3165L119.713 62.6359L119.683 62.597L119.713 62.5735ZM119.683 62.597L119.689 62.5738L119.713 62.5735L119.683 62.597V62.597ZM105.668 117.638L119.683 62.597L119.743 62.6124L105.728 117.654L105.69 117.676L105.668 117.638ZM105.69 117.676L105.66 117.668L105.668 117.638L105.69 117.676Z" fill="#D69F4B"/>
<path fill-rule="evenodd" clip-rule="evenodd" d="M103.469 74.7461C104.481 74.7461 105.301 75.5664 105.301 76.5783C105.301 77.5903 104.481 78.4106 103.469 78.4106C102.457 78.4106 101.637 77.5903 101.637 76.5783C101.637 75.5664 102.457 74.7461 103.469 74.7461Z" fill="#FEFEFE"/>
<path d="M103.469 74.7461C104.481 74.7461 105.301 75.5664 105.301 76.5783C105.301 77.5903 104.481 78.4106 103.469 78.4106C102.457 78.4106 101.637 77.5903 101.637 76.5783C101.637 75.5664 102.457 74.7461 103.469 74.7461Z" stroke="#FEFEFE" stroke-width="0.0762" stroke-miterlimit="22.9256"/>
<path fill-rule="evenodd" clip-rule="evenodd" d="M157.648 72C158.786 72 159.709 72.923 159.709 74.0617C159.709 75.2005 158.786 76.1235 157.648 76.1235C156.509 76.1235 155.586 75.2005 155.586 74.0617C155.586 72.923 156.509 72 157.648 72Z" fill="#FEFEFE"/>
<path d="M157.648 72C158.786 72 159.709 72.923 159.709 74.0617C159.709 75.2005 158.786 76.1235 157.648 76.1235C156.509 76.1235 155.586 75.2005 155.586 74.0617C155.586 72.923 156.509 72 157.648 72Z" stroke="#FEFEFE" stroke-width="0.0762" stroke-miterlimit="22.9256"/>
<path fill-rule="evenodd" clip-rule="evenodd" d="M133.796 156.706L121.667 161.017L111.189 153.246L106.99 157.448L104.473 159.967L121.118 172.047L147.121 172.887L157.966 167.35L162.085 165.247L162.112 162.261L162.128 160.487L144.005 166.526L133.796 156.706Z" fill="#CFAB78"/>
<path d="M121.654 160.985L133.782 156.675L133.803 156.734L121.674 161.044L121.645 161.039L121.654 160.985V160.985ZM121.674 161.044L121.659 161.049L121.645 161.039L121.674 161.044V161.044ZM111.204 153.219L121.682 160.99L121.645 161.039L111.167 153.269L111.164 153.222L111.204 153.219ZM111.164 153.222L111.183 153.203L111.204 153.219L111.164 153.222V153.222ZM106.965 157.424L111.164 153.222L111.208 153.266L107.009 157.467L106.965 157.424ZM104.448 159.943L106.965 157.424L107.009 157.467L104.491 159.987L104.451 159.99L104.448 159.943ZM104.451 159.99L104.422 159.968L104.448 159.943L104.451 159.99ZM121.097 172.07L104.451 159.99L104.488 159.94L121.133 172.02L121.114 172.076L121.097 172.07ZM121.114 172.076L121.105 172.076L121.097 172.07L121.114 172.076ZM147.117 172.916L121.114 172.076L121.116 172.014L147.119 172.854L147.132 172.913L147.117 172.916ZM147.132 172.913L147.125 172.916L147.117 172.916L147.132 172.913ZM157.976 167.376L147.132 172.913L147.104 172.857L157.948 167.32L157.976 167.376ZM162.096 165.272L157.976 167.376L157.948 167.32L162.068 165.217L162.113 165.245L162.096 165.272V165.272ZM162.113 165.245L162.113 165.264L162.096 165.272L162.113 165.245ZM162.14 162.259L162.113 165.245L162.051 165.244L162.078 162.258L162.14 162.259ZM162.156 160.485L162.14 162.259L162.078 162.258L162.094 160.484L162.115 160.455L162.156 160.485V160.485ZM162.115 160.455L162.156 160.441L162.156 160.485L162.115 160.455ZM143.992 166.495L162.115 160.455L162.135 160.514L144.011 166.554L143.98 166.547L143.992 166.495V166.495ZM144.011 166.554L143.994 166.56L143.98 166.547L144.011 166.554ZM133.814 156.682L144.023 166.502L143.98 166.547L133.771 156.727L133.782 156.675L133.814 156.682ZM133.782 156.675L133.8 156.669L133.814 156.682L133.782 156.675V156.675Z" fill="#CFAB78"/>
<path d="M132.574 156.59L133.75 144.246L136.184 144.477L135.007 156.822L132.942 157.584L132.574 156.59ZM132.942 157.584L132.518 157.176L132.574 156.59L132.942 157.584ZM143.151 167.404L132.942 157.584L134.639 155.828L144.848 165.648L144.396 167.68L143.151 167.404ZM144.396 167.68L143.689 167.922L143.151 167.404L144.396 167.68ZM165.623 160.414L144.396 167.68L143.603 165.372L164.83 158.106L165.623 160.414ZM121.252 159.867L133.38 155.557L134.2 157.855L122.072 162.165L120.931 161.994L121.252 159.867ZM122.072 162.165L121.455 162.385L120.931 161.994L122.072 162.165V162.165ZM99.0282 142.641L122.393 160.038L120.931 161.994L97.5664 144.596L99.0282 142.641Z" fill="#532124"/>
<path fill-rule="evenodd" clip-rule="evenodd" d="M101.571 109.259L94.7461 124.39C109.695 132.952 119.075 138.816 134.846 145.827L173.731 124.664C170.034 118.887 166.338 113.109 162.642 107.332C141.839 118.788 123.599 120.247 101.571 109.259V109.259Z" fill="#532124"/>
<path d="M94.6711 124.355L101.496 109.224L101.643 109.292L94.8188 124.422L94.7048 124.459L94.6711 124.355ZM94.7048 124.459L94.6406 124.423L94.6711 124.355L94.7048 124.459ZM134.807 145.754L134.884 145.897L134.812 145.9L133.352 145.246L131.926 144.597L130.534 143.954L129.173 143.316L127.84 142.682L126.534 142.05L125.252 141.422L123.992 140.795L122.752 140.169L121.53 139.544L120.323 138.918L119.13 138.291L117.948 137.663L116.775 137.032L115.609 136.398L114.447 135.76L113.288 135.118L112.129 134.47L110.969 133.816L109.804 133.156L108.633 132.489L107.453 131.813L106.262 131.129L105.059 130.435L103.84 129.731L102.605 129.016L101.349 128.29L100.073 127.551L98.772 126.799L97.4452 126.034L96.0901 125.254L94.7048 124.459L94.7851 124.318L96.1707 125.113L97.5258 125.893L98.8528 126.658L100.154 127.41L101.43 128.149L102.686 128.875L103.921 129.59L105.14 130.294L106.343 130.987L107.533 131.671L108.713 132.347L109.884 133.014L111.048 133.674L112.209 134.328L113.367 134.975L114.525 135.617L115.687 136.255L116.852 136.888L118.024 137.519L119.206 138.147L120.398 138.773L121.604 139.399L122.825 140.024L124.064 140.649L125.323 141.276L126.604 141.904L127.91 142.535L129.242 143.169L130.602 143.806L131.994 144.449L133.418 145.097L134.878 145.751L134.807 145.754V145.754ZM134.884 145.897L134.849 145.916L134.812 145.9L134.884 145.897ZM173.768 124.734L134.884 145.897L134.807 145.754L173.691 124.591L173.798 124.619L173.768 124.734V124.734ZM173.798 124.619L173.845 124.692L173.768 124.734L173.798 124.619ZM162.68 107.402L162.602 107.259L162.709 107.287L163.055 107.828L163.402 108.37L163.748 108.911L164.095 109.453L164.442 109.995L164.788 110.536L165.135 111.078L165.481 111.62L165.828 112.161L166.174 112.703L166.521 113.244L166.867 113.786L167.214 114.328L167.56 114.869L167.907 115.411L168.253 115.953L168.6 116.494L168.946 117.036L169.293 117.578L169.639 118.119L169.986 118.661L170.332 119.202L170.679 119.744L171.025 120.286L171.372 120.827L171.719 121.369L172.065 121.91L172.412 122.452L172.758 122.994L173.105 123.535L173.451 124.077L173.798 124.619L173.661 124.707L173.315 124.165L172.968 123.624L172.622 123.082L172.275 122.54L171.929 121.999L171.582 121.457L171.236 120.915L170.889 120.374L170.543 119.832L170.196 119.291L169.849 118.749L169.503 118.207L169.156 117.666L168.81 117.124L168.463 116.582L168.117 116.041L167.77 115.499L167.424 114.958L167.077 114.416L166.731 113.874L166.384 113.333L166.038 112.791L165.691 112.249L165.345 111.708L164.998 111.166L164.652 110.624L164.305 110.083L163.959 109.541L163.612 109L163.266 108.458L162.919 107.916L162.573 107.375L162.68 107.402ZM162.602 107.259L162.668 107.223L162.709 107.287L162.602 107.259V107.259ZM101.643 109.292L101.496 109.224L101.605 109.185L103.658 110.178L105.689 111.098L107.701 111.946L109.693 112.723L111.668 113.429L113.627 114.064L115.57 114.629L117.499 115.124L119.415 115.55L121.319 115.907L123.212 116.195L125.096 116.416L126.972 116.569L128.841 116.656L130.703 116.676L132.562 116.629L134.416 116.517L136.268 116.34L138.119 116.098L139.969 115.792L141.821 115.422L143.676 114.988L145.533 114.491L147.396 113.932L149.264 113.311L151.139 112.628L153.022 111.884L154.915 111.079L156.818 110.213L158.733 109.288L160.66 108.303L162.602 107.259L162.68 107.402L160.735 108.448L158.805 109.434L156.887 110.361L154.98 111.228L153.084 112.034L151.196 112.78L149.317 113.465L147.444 114.088L145.577 114.648L143.715 115.146L141.856 115.581L139.998 115.952L138.142 116.259L136.286 116.502L134.428 116.68L132.568 116.792L130.705 116.839L128.836 116.819L126.962 116.732L125.08 116.578L123.191 116.357L121.292 116.067L119.382 115.709L117.461 115.282L115.527 114.786L113.579 114.22L111.616 113.583L109.637 112.876L107.64 112.097L105.625 111.248L103.59 110.325L101.533 109.331L101.643 109.292V109.292ZM101.496 109.224L101.53 109.147L101.605 109.185L101.496 109.224V109.224Z" fill="#532124"/>
<path fill-rule="evenodd" clip-rule="evenodd" d="M139.293 125.521L140.349 131.588L159.358 124.135L157.07 118.762L139.293 125.521Z" fill="#FEFEFE"/>
<path d="M140.267 131.6L139.211 125.534L139.37 125.506L140.427 131.572L140.376 131.662L140.267 131.6ZM140.376 131.662L140.284 131.698L140.267 131.6L140.376 131.662V131.662ZM159.385 124.209L140.376 131.662L140.317 131.51L159.326 124.057L159.43 124.101L159.385 124.209V124.209ZM159.43 124.101L159.463 124.178L159.385 124.209L159.43 124.101ZM157.142 118.728L159.43 124.101L159.281 124.165L156.993 118.792L157.039 118.684L157.142 118.728V118.728ZM157.039 118.684L157.112 118.656L157.142 118.728L157.039 118.684ZM139.262 125.443L157.039 118.684L157.096 118.836L139.319 125.596L139.211 125.534L139.262 125.443ZM139.211 125.534L139.199 125.467L139.262 125.443L139.211 125.534Z" fill="#FEFEFE"/>
</svg>
