<svg width="590" height="473" viewBox="0 0 590 473" fill="none" xmlns="http://www.w3.org/2000/svg">
<path d="M443.622 110.705C524.046 110.705 589.244 97.3394 589.244 80.8524C589.244 64.3654 524.046 51 443.622 51C363.197 51 298 64.3654 298 80.8524C298 97.3394 363.197 110.705 443.622 110.705Z" fill="#D8E4F0"/>
<path d="M332.998 69.6776C413.423 69.6776 478.62 56.3122 478.62 39.8252C478.62 23.3381 413.423 9.97278 332.998 9.97278C252.574 9.97278 187.377 23.3381 187.377 39.8252C187.377 56.3122 252.574 69.6776 332.998 69.6776Z" fill="#D8E4F0"/>
<path d="M145.622 147.595C226.046 147.595 291.244 134.229 291.244 117.742C291.244 101.255 226.046 87.89 145.622 87.89C65.1971 87.89 0 101.255 0 117.742C0 134.229 65.1971 147.595 145.622 147.595Z" fill="#D8E4F0"/>
<path d="M457.556 347.492H31.9084V369.508H457.556V347.492Z" fill="#7D8EAD" stroke="#7D8EAD" stroke-width="0.0762" stroke-miterlimit="22.9256"/>
<path d="M468.04 369.508H21.4247V403.581H468.04V369.508Z" fill="#A7B7D4" stroke="#A7B7D4" stroke-width="0.0762" stroke-miterlimit="22.9256"/>
<path d="M468.04 129.426H21.4247V163.499H468.04V129.426Z" fill="#7D8EAD" stroke="#7D8EAD" stroke-width="0.0762" stroke-miterlimit="22.9256"/>
<path fill-rule="evenodd" clip-rule="evenodd" d="M244.732 1L436.588 129.427H52.8778L244.732 1Z" fill="#A7B7D4" stroke="#A7B7D4" stroke-width="0.0762" stroke-miterlimit="22.9256"/>
<path fill-rule="evenodd" clip-rule="evenodd" d="M244.732 26.1611L398.999 129.426H90.4661L244.732 26.1611Z" fill="#687999" stroke="#687999" stroke-width="0.0762" stroke-miterlimit="22.9256"/>
<path d="M434.491 163.496H54.9736V347.489H434.491V163.496Z" fill="#A7B7D4" stroke="#A7B7D4" stroke-width="0.0762" stroke-miterlimit="22.9256"/>
<path fill-rule="evenodd" clip-rule="evenodd" d="M416.161 163.499H355.878V173.455H361.251V187.871H369.377V339.361H362.3V347.492H369.377H402.662H409.739V339.361H402.662V187.871H410.788V173.455H416.161V163.499Z" fill="#EEF6F8" stroke="#EEF6F8" stroke-width="0.0762" stroke-miterlimit="22.9256"/>
<path fill-rule="evenodd" clip-rule="evenodd" d="M322.329 163.499H262.047V173.455H267.42V187.871H275.545V339.361H268.468V347.492H275.545H308.831H315.908V339.361H308.831V187.871H316.956V173.455H322.329V163.499Z" fill="#EEF6F8" stroke="#EEF6F8" stroke-width="0.0762" stroke-miterlimit="22.9256"/>
<path fill-rule="evenodd" clip-rule="evenodd" d="M228.498 163.499H168.215V173.455H173.588V187.871H181.713V339.361H174.636V347.492H181.713H214.999H222.076V339.361H214.999V187.871H223.125V173.455H228.498V163.499Z" fill="#EEF6F8" stroke="#EEF6F8" stroke-width="0.0762" stroke-miterlimit="22.9256"/>
<path fill-rule="evenodd" clip-rule="evenodd" d="M134.666 163.499H74.3835V173.455H79.7565V187.871H87.8818V339.361H80.8049V347.492H87.8818H121.168H128.245V339.361H121.168V187.871H129.293V173.455H134.666V163.499Z" fill="#EEF6F8" stroke="#EEF6F8" stroke-width="0.0762" stroke-miterlimit="22.9256"/>
<path fill-rule="evenodd" clip-rule="evenodd" d="M234.573 112.17H243.115V61.6508H242.193V60.0844H217.816L224.187 73.2015L231.826 88.9274H232.136L229.492 95.0509H203.606L200.962 88.9274H201.272L208.911 73.2015L215.282 60.0844H214.429V57.4757H242.193V51.2826H247.272V57.4757H275.036V60.0844H274.183L280.554 73.2015L288.193 88.9274H288.503L285.859 95.0509H259.973L257.329 88.9274H257.639L265.278 73.2015L271.649 60.0844H247.272V61.6508H246.35V112.17H254.892V114.953H257.675V119.407H231.79V114.953H234.573V112.17ZM272.916 60.0844L269.007 68.1333L266.545 73.2015L262.635 81.2502L260.174 86.3187L258.906 88.9274H286.926L285.658 86.3187L283.027 80.9011L279.287 73.2015L276.656 67.7839L272.916 60.0844ZM216.549 60.0844L212.64 68.1333L210.178 73.2015L206.268 81.2502L203.807 86.3187L202.54 88.9274H230.559L229.291 86.3187L226.66 80.9011L222.92 73.2015L220.289 67.7839L216.549 60.0844Z" fill="#EEF6F8"/>
<path fill-rule="evenodd" clip-rule="evenodd" d="M508.912 403.184L498.212 458.886L569.656 450.454L562.805 395.196L535.563 398.411L534.419 389.184L527.892 391.823L528.807 399.209L511.922 401.202L511.946 402.629L508.912 403.184ZM511.729 389.811L515.364 389.382L513.827 385.113L511.671 386.422L511.729 389.811Z" fill="#82493E"/>
<path d="M498.179 458.879L508.88 403.177L508.942 403.189L498.242 458.891L498.214 458.916L498.179 458.879ZM498.214 458.916L498.171 458.921L498.179 458.879L498.214 458.916ZM569.658 450.484L498.214 458.916L498.207 458.853L569.651 450.421L569.687 450.449L569.658 450.484ZM569.687 450.449L569.691 450.48L569.658 450.484L569.687 450.449ZM562.836 395.191L569.687 450.449L569.623 450.456L562.772 395.199L562.8 395.163L562.836 395.191ZM562.8 395.163L562.832 395.16L562.836 395.191L562.8 395.163ZM535.559 398.379L562.8 395.163L562.808 395.227L535.566 398.442L535.531 398.414L535.559 398.379ZM535.566 398.442L535.534 398.446L535.531 398.414L535.566 398.442ZM534.45 389.179L535.594 398.406L535.531 398.414L534.386 389.186L534.406 389.153L534.45 389.179ZM534.406 389.153L534.445 389.137L534.45 389.179L534.406 389.153ZM527.879 391.792L534.406 389.153L534.43 389.212L527.903 391.852L527.859 391.826L527.879 391.792ZM527.859 391.826L527.856 391.802L527.879 391.792L527.859 391.826ZM528.775 399.211L527.859 391.826L527.922 391.818L528.838 399.204L528.81 399.239L528.775 399.211ZM528.838 399.204L528.842 399.236L528.81 399.239L528.838 399.204ZM511.917 401.169L528.803 399.176L528.81 399.239L511.925 401.232L511.889 401.201L511.917 401.169ZM511.889 401.201L511.889 401.172L511.917 401.169L511.889 401.201ZM511.913 402.628L511.889 401.201L511.953 401.2L511.977 402.627L511.951 402.659L511.913 402.628ZM511.977 402.627L511.978 402.654L511.951 402.659L511.977 402.627ZM508.905 403.151L511.94 402.596L511.951 402.659L508.917 403.214L508.88 403.177L508.905 403.151ZM508.88 403.177L508.884 403.155L508.905 403.151L508.88 403.177ZM515.366 389.412L511.732 389.841L511.724 389.778L515.359 389.349L515.393 389.37L515.366 389.412ZM515.393 389.37L515.406 389.408L515.366 389.412L515.393 389.37ZM513.856 385.102L515.393 389.37L515.332 389.391L513.795 385.123L513.809 385.085L513.856 385.102ZM513.809 385.085L513.842 385.065L513.856 385.102L513.809 385.085ZM511.654 386.394L513.809 385.085L513.842 385.139L511.687 386.448L511.638 386.422L511.654 386.394ZM511.638 386.422L511.638 386.403L511.654 386.394L511.638 386.422ZM511.696 389.81L511.638 386.422L511.702 386.421L511.76 389.809L511.732 389.841L511.696 389.81ZM511.732 389.841L511.697 389.845L511.696 389.81L511.732 389.841Z" fill="#82493E"/>
<path fill-rule="evenodd" clip-rule="evenodd" d="M494.812 463.169L453.333 463.937L454.395 472.93L493.71 472.916L494.812 463.169Z" fill="#BD9977"/>
<path d="M494.812 463.169L453.333 463.937L454.395 472.93L493.71 472.916L494.812 463.169Z" stroke="#BD9977" stroke-width="0.0762" stroke-miterlimit="22.9256"/>
<path fill-rule="evenodd" clip-rule="evenodd" d="M437.749 461.782L390.562 459.095L391.225 471.85L434.974 472.907L437.749 461.782Z" fill="#BD9977"/>
<path d="M437.749 461.782L390.562 459.095L391.225 471.85L434.974 472.907L437.749 461.782Z" stroke="#BD9977" stroke-width="0.0762" stroke-miterlimit="22.9256"/>
<path fill-rule="evenodd" clip-rule="evenodd" d="M441.337 461.986L449.117 410.102L434.649 395.138L386.968 396.259L385.657 458.816L441.337 461.986Z" fill="#2B2C44"/>
<path d="M441.337 461.986L449.117 410.102L434.649 395.138L386.968 396.259L385.657 458.816L441.337 461.986Z" stroke="#2B2C44" stroke-width="0.0762" stroke-miterlimit="22.9256"/>
<path fill-rule="evenodd" clip-rule="evenodd" d="M465.179 397.095L450.496 409.437L450.233 463.994L498.853 463.128L509.083 402.784L465.179 397.095Z" fill="#2B2C44"/>
<path d="M450.472 409.411L465.155 397.069L465.2 397.117L450.517 409.459L450.461 409.435L450.472 409.411ZM450.461 409.435L450.461 409.421L450.472 409.411L450.461 409.435ZM450.197 463.993L450.461 409.435L450.528 409.435L450.265 463.993L450.232 464.024L450.197 463.993ZM450.232 464.024L450.197 464.025L450.197 463.993L450.232 464.024ZM498.852 463.159L450.232 464.024L450.23 463.961L498.851 463.095L498.885 463.132L498.852 463.159ZM498.885 463.132L498.88 463.158L498.852 463.159L498.885 463.132ZM509.114 402.787L498.885 463.132L498.818 463.122L509.048 402.777L509.086 402.751L509.114 402.787ZM509.086 402.751L509.12 402.755L509.114 402.787L509.086 402.751ZM465.182 397.061L509.086 402.751L509.077 402.814L465.173 397.125L465.155 397.069L465.182 397.061ZM465.155 397.069L465.167 397.059L465.182 397.061L465.155 397.069Z" fill="#2B2C44"/>
<path fill-rule="evenodd" clip-rule="evenodd" d="M384.046 387.061L387.299 373.803L352.825 360.454L348.93 374.886L384.046 387.061Z" fill="#BD9977"/>
<path d="M387.329 373.81L384.077 387.068L384.014 387.053L387.267 373.795L387.31 373.773L387.329 373.81ZM387.31 373.773L387.336 373.783L387.329 373.81L387.31 373.773ZM352.836 360.424L387.31 373.773L387.286 373.832L352.813 360.483L352.793 360.445L352.836 360.424ZM352.793 360.445L352.803 360.411L352.836 360.424L352.793 360.445ZM348.899 374.877L352.793 360.445L352.855 360.462L348.961 374.893L348.919 374.915L348.899 374.877ZM348.919 374.915L348.891 374.905L348.899 374.877L348.919 374.915ZM384.035 387.09L348.919 374.915L348.94 374.855L384.056 387.03L384.077 387.068L384.035 387.09ZM384.077 387.068L384.068 387.102L384.035 387.09L384.077 387.068Z" fill="#BD9977"/>
<path fill-rule="evenodd" clip-rule="evenodd" d="M352.825 360.454L387.298 373.803L400.59 319.621L375.828 303.99L346.222 357.889L352.825 360.454Z" fill="#2B2C44"/>
<path d="M387.286 373.832L352.813 360.483L352.836 360.424L387.31 373.773L387.329 373.81L387.286 373.832ZM387.329 373.81L387.321 373.845L387.286 373.832L387.329 373.81ZM400.621 319.628L387.329 373.81L387.267 373.795L400.559 319.613L400.607 319.594L400.621 319.628ZM400.607 319.594L400.627 319.606L400.621 319.628L400.607 319.594ZM375.845 303.963L400.607 319.594L400.573 319.648L375.811 304.016L375.8 303.974L375.845 303.963ZM375.8 303.974L375.817 303.944L375.845 303.963L375.8 303.974ZM346.194 357.873L375.8 303.974L375.856 304.005L346.25 357.904L346.21 357.918L346.194 357.873ZM346.21 357.918L346.176 357.905L346.194 357.873L346.21 357.918ZM352.813 360.483L346.21 357.918L346.234 357.858L352.836 360.424L352.813 360.483Z" fill="#2B2C44"/>
<path fill-rule="evenodd" clip-rule="evenodd" d="M545.929 365.621L513.826 385.113L515.363 389.382L517.723 395.935L527.891 391.823L534.419 389.184L551.481 382.284L545.929 365.621Z" fill="#BD9977"/>
<path d="M513.809 385.085L545.912 365.592L545.945 365.647L513.842 385.139L513.795 385.123L513.809 385.085ZM513.795 385.123L513.787 385.099L513.809 385.085L513.795 385.123ZM515.332 389.391L513.795 385.123L513.856 385.101L515.393 389.37L515.332 389.391ZM517.692 395.945L515.332 389.391L515.393 389.37L517.752 395.923L517.734 395.963L517.692 395.945ZM517.734 395.963L517.703 395.976L517.692 395.945L517.734 395.963ZM527.903 391.852L517.734 395.963L517.71 395.904L527.879 391.792L527.903 391.852ZM534.43 389.212L527.903 391.852L527.879 391.792L534.406 389.153L534.43 389.212ZM551.492 382.313L534.43 389.212L534.406 389.153L551.468 382.253L551.511 382.273L551.492 382.313ZM551.511 382.273L551.52 382.301L551.492 382.313L551.511 382.273ZM545.959 365.609L551.511 382.273L551.45 382.293L545.898 365.629L545.912 365.592L545.959 365.609ZM545.912 365.592L545.946 365.571L545.959 365.609L545.912 365.592Z" fill="#BD9977"/>
<path fill-rule="evenodd" clip-rule="evenodd" d="M445.053 344.763L431.251 393.116L449.664 413.02L472.952 392.412L461.541 345.003L445.053 344.763Z" fill="#BA2308"/>
<path d="M431.219 393.107L445.021 344.754L445.083 344.771L431.281 393.125L431.226 393.137L431.219 393.107ZM431.226 393.137L431.214 393.124L431.219 393.107L431.226 393.137ZM449.64 413.041L431.226 393.137L431.274 393.094L449.687 412.998L449.685 413.043L449.64 413.041ZM449.685 413.043L449.662 413.064L449.64 413.041L449.685 413.043ZM472.973 392.435L449.685 413.043L449.642 412.996L472.93 392.387L472.983 392.404L472.973 392.435ZM472.983 392.404L472.987 392.423L472.973 392.435L472.983 392.404ZM461.572 344.995L472.983 392.404L472.921 392.419L461.509 345.01L461.541 344.971L461.572 344.995ZM461.541 344.971L461.566 344.971L461.572 344.995L461.541 344.971ZM445.052 344.731L461.541 344.971L461.54 345.035L445.051 344.795L445.021 344.754L445.052 344.731ZM445.021 344.754L445.028 344.73L445.052 344.731L445.021 344.754Z" fill="#BA2308"/>
<path fill-rule="evenodd" clip-rule="evenodd" d="M437.453 371.389L440.519 360.648L425.486 327.297L414.395 328.336L410.511 325.884L398.937 351.548L417.511 361.116L437.453 371.389Z" fill="#7D88A3"/>
<path d="M440.549 360.655L437.483 371.397L437.421 371.379L440.487 360.638L440.547 360.633L440.549 360.655ZM440.547 360.633L440.552 360.644L440.549 360.655L440.547 360.633ZM425.514 327.282L440.547 360.633L440.489 360.659L425.456 327.309L425.482 327.264L425.514 327.282ZM425.482 327.264L425.505 327.262L425.514 327.282L425.482 327.264ZM414.391 328.303L425.482 327.264L425.488 327.327L414.397 328.366L414.377 328.361L414.391 328.303ZM414.397 328.366L414.386 328.367L414.377 328.361L414.397 328.366ZM410.527 325.856L414.411 328.308L414.377 328.361L410.493 325.91L410.481 325.87L410.527 325.856ZM410.481 325.87L410.496 325.836L410.527 325.856L410.481 325.87ZM398.907 351.534L410.481 325.87L410.539 325.896L398.965 351.56L398.921 351.576L398.907 351.534ZM398.921 351.576L398.894 351.562L398.907 351.534L398.921 351.576ZM417.495 361.144L398.921 351.576L398.95 351.519L417.524 361.087L417.495 361.144ZM437.437 371.416L417.495 361.144L417.524 361.087L437.466 371.36L437.483 371.397L437.437 371.416ZM437.483 371.397L437.472 371.434L437.437 371.416L437.483 371.397Z" fill="#7D88A3"/>
<path fill-rule="evenodd" clip-rule="evenodd" d="M425.484 327.295L440.518 360.646L445.051 344.763L439.193 344.677L443.175 325.638L425.484 327.295Z" fill="#FEFEFE"/>
<path d="M440.488 360.66L425.455 327.309L425.514 327.282L440.547 360.633L440.549 360.655L440.488 360.66ZM440.549 360.655L440.525 360.741L440.488 360.66L440.549 360.655ZM445.083 344.771L440.549 360.655L440.487 360.637L445.02 344.754L445.052 344.73L445.083 344.771ZM445.052 344.73L445.094 344.731L445.083 344.771L445.052 344.73ZM439.193 344.645L445.052 344.73L445.051 344.795L439.192 344.71L439.161 344.671L439.193 344.645ZM439.192 344.71L439.153 344.709L439.161 344.671L439.192 344.71ZM443.207 325.645L439.225 344.684L439.161 344.671L443.144 325.631L443.172 325.606L443.207 325.645ZM443.172 325.606L443.216 325.602L443.207 325.645L443.172 325.606ZM425.482 327.263L443.172 325.606L443.178 325.67L425.488 327.328L425.455 327.309L425.482 327.263ZM425.455 327.309L425.436 327.267L425.482 327.263L425.455 327.309Z" fill="#FEFEFE"/>
<path fill-rule="evenodd" clip-rule="evenodd" d="M443.178 325.64L439.196 344.68L445.055 344.765L461.543 345.005L463.387 345.032L462.196 323.859L443.178 325.64Z" fill="#91200C"/>
<path d="M439.162 344.671L443.144 325.631L443.207 325.644L439.224 344.684L439.193 344.709L439.162 344.671ZM439.193 344.709L439.154 344.709L439.162 344.671L439.193 344.709ZM445.051 344.794L439.193 344.709L439.194 344.646L445.052 344.731L445.051 344.794ZM461.54 345.035L445.051 344.794L445.052 344.731L461.541 344.971L461.54 345.035ZM463.383 345.062L461.54 345.035L461.541 344.971L463.384 344.998L463.416 345.028L463.383 345.062ZM463.416 345.028L463.417 345.062L463.383 345.062L463.416 345.028ZM462.225 323.854L463.416 345.028L463.352 345.031L462.161 323.858L462.19 323.824L462.225 323.854ZM462.19 323.824L462.223 323.821L462.225 323.854L462.19 323.824ZM443.172 325.606L462.19 323.824L462.196 323.888L443.179 325.67L443.144 325.631L443.172 325.606ZM443.144 325.631L443.149 325.608L443.172 325.606L443.144 325.631Z" fill="#91200C"/>
<path fill-rule="evenodd" clip-rule="evenodd" d="M462.194 323.858L463.385 345.032L461.542 345.005L465.54 361.616L488.615 306.333L477.057 310.595L475.946 322.57L462.194 323.858Z" fill="#FEFEFE"/>
<path d="M463.351 345.032L462.16 323.858L462.225 323.854L463.416 345.028L463.383 345.062L463.351 345.032ZM463.416 345.028L463.418 345.063L463.383 345.062L463.416 345.028ZM461.541 344.97L463.384 344.997L463.383 345.062L461.54 345.035L461.509 345.01L461.541 344.97ZM461.509 345.01L461.499 344.97L461.541 344.97L461.509 345.01ZM465.507 361.621L461.509 345.01L461.572 344.995L465.57 361.606L465.569 361.626L465.507 361.621ZM465.569 361.626L465.53 361.718L465.507 361.621L465.569 361.626ZM488.643 306.344L465.569 361.626L465.509 361.601L488.583 306.319L488.602 306.301L488.643 306.344ZM488.602 306.301L488.672 306.275L488.643 306.344L488.602 306.301ZM477.044 310.563L488.602 306.301L488.624 306.362L477.067 310.623L477.023 310.59L477.044 310.563ZM477.023 310.59L477.025 310.57L477.044 310.563L477.023 310.59ZM475.912 322.565L477.023 310.59L477.088 310.596L475.977 322.571L475.948 322.6L475.912 322.565ZM475.977 322.571L475.974 322.597L475.948 322.6L475.977 322.571ZM462.19 323.824L475.941 322.536L475.948 322.6L462.196 323.888L462.16 323.858L462.19 323.824ZM462.16 323.858L462.159 323.827L462.19 323.824L462.16 323.858Z" fill="#FEFEFE"/>
<path fill-rule="evenodd" clip-rule="evenodd" d="M488.614 306.333L465.54 361.615L468.287 373.03L483.827 358.256L502.74 340.276L490.383 305.681L488.614 306.333Z" fill="#7D88A3"/>
<path d="M465.509 361.601L488.583 306.319L488.643 306.344L465.568 361.626L465.507 361.621L465.509 361.601ZM465.507 361.621L465.505 361.611L465.509 361.601L465.507 361.621ZM468.255 373.035L465.507 361.621L465.57 361.606L468.317 373.02L468.308 373.051L468.255 373.035ZM468.308 373.051L468.268 373.089L468.255 373.035L468.308 373.051ZM483.848 358.277L468.308 373.051L468.264 373.005L483.803 358.231L483.848 358.277ZM502.76 340.297L483.848 358.277L483.803 358.231L502.716 340.251L502.768 340.263L502.76 340.297ZM502.768 340.263L502.775 340.283L502.76 340.297L502.768 340.263ZM490.412 305.668L502.768 340.263L502.708 340.284L490.352 305.69L490.371 305.649L490.412 305.668ZM490.371 305.649L490.401 305.638L490.412 305.668L490.371 305.649ZM488.602 306.302L490.371 305.649L490.393 305.709L488.624 306.361L488.583 306.319L488.602 306.302ZM488.583 306.319L488.589 306.306L488.602 306.302L488.583 306.319Z" fill="#7D88A3"/>
<path fill-rule="evenodd" clip-rule="evenodd" d="M490.383 305.681L502.739 340.275L483.827 358.256L492.63 373.213C481.53 378.209 478.509 379.569 470.706 383.08L472.952 392.413L467.209 397.495L468.62 410.555L508.912 403.184L511.946 402.629L511.922 401.202L511.729 389.811L511.671 386.422L510.177 298.382L490.383 305.681Z" fill="#41415B"/>
<path d="M502.708 340.285L490.352 305.69L490.412 305.668L502.769 340.263L502.761 340.297L502.708 340.285ZM502.769 340.263L502.775 340.283L502.761 340.297L502.769 340.263ZM483.804 358.231L502.716 340.251L502.761 340.297L483.848 358.277L483.798 358.27L483.804 358.231ZM483.798 358.27L483.785 358.249L483.804 358.231L483.798 358.27ZM492.601 373.228L483.798 358.27L483.853 358.238L492.657 373.196L492.642 373.241L492.601 373.228ZM492.657 373.196L492.675 373.226L492.642 373.241L492.657 373.196ZM470.736 383.071L470.674 383.086L470.692 383.05L471.41 382.727L472.102 382.415L472.771 382.114L473.419 381.823L474.048 381.539L474.661 381.263L475.261 380.994L475.848 380.729L476.427 380.469L476.999 380.212L477.566 379.956L478.131 379.702L478.696 379.447L479.264 379.192L479.837 378.934L480.418 378.673L481.007 378.407L481.609 378.136L482.226 377.859L482.858 377.574L483.511 377.281L484.184 376.978L484.881 376.664L485.605 376.338L486.357 376L487.139 375.648L487.955 375.28L488.807 374.897L489.696 374.497L490.626 374.078L491.598 373.641L492.616 373.183L492.642 373.241L491.625 373.699L490.653 374.136L489.723 374.555L488.833 374.955L487.982 375.338L487.166 375.706L486.383 376.058L485.631 376.396L484.908 376.722L484.21 377.036L483.537 377.339L482.885 377.632L482.252 377.917L481.636 378.194L481.034 378.465L480.444 378.731L479.864 378.992L479.291 379.25L478.723 379.505L478.157 379.76L477.592 380.014L477.025 380.27L476.453 380.527L475.875 380.787L475.287 381.052L474.688 381.321L474.075 381.597L473.445 381.881L472.797 382.172L472.129 382.473L471.436 382.785L470.718 383.108L470.736 383.071ZM470.674 383.086L470.668 383.061L470.692 383.05L470.674 383.086ZM472.92 392.419L470.674 383.086L470.736 383.071L472.983 392.404L472.973 392.435L472.92 392.419ZM472.983 392.404L472.987 392.422L472.973 392.435L472.983 392.404ZM467.187 397.469L472.93 392.387L472.973 392.435L467.23 397.517L467.177 397.497L467.187 397.469ZM467.177 397.497L467.175 397.48L467.187 397.469L467.177 397.497ZM468.587 410.557L467.177 397.497L467.24 397.49L468.651 410.55L468.625 410.585L468.587 410.557ZM468.625 410.585L468.591 410.591L468.587 410.557L468.625 410.585ZM508.917 403.214L468.625 410.585L468.613 410.522L508.905 403.151L508.917 403.214ZM511.951 402.659L508.917 403.214L508.905 403.151L511.94 402.596L511.977 402.627L511.951 402.659ZM511.977 402.627L511.978 402.654L511.951 402.659L511.977 402.627ZM511.953 401.2L511.977 402.627L511.913 402.628L511.889 401.201L511.953 401.2ZM511.76 389.809L511.953 401.2L511.889 401.201L511.696 389.81L511.76 389.809ZM511.702 386.42L511.76 389.809L511.696 389.81L511.638 386.421L511.702 386.42ZM510.208 298.38L511.702 386.42L511.638 386.421L510.144 298.381L510.165 298.351L510.208 298.38ZM510.165 298.351L510.208 298.335L510.208 298.38L510.165 298.351ZM490.371 305.649L510.165 298.351L510.188 298.41L490.393 305.709L490.352 305.69L490.371 305.649ZM490.352 305.69L490.341 305.66L490.371 305.649L490.352 305.69Z" fill="#41415B"/>
<path fill-rule="evenodd" clip-rule="evenodd" d="M398.935 351.547L410.51 325.883L400.59 319.621L384.045 387.06L381.966 395.582L390.157 396.69L431.43 402.275L433.121 395.138L431.25 393.116L432.773 387.778L432.371 387.518L408.864 372.331L417.509 361.115L398.935 351.547Z" fill="#41415B"/>
<path d="M410.539 325.896L398.965 351.56L398.906 351.534L410.481 325.87L410.527 325.856L410.539 325.896ZM410.527 325.856L410.55 325.871L410.539 325.896L410.527 325.856ZM400.607 319.594L410.527 325.856L410.493 325.91L400.573 319.648L400.559 319.613L400.607 319.594ZM400.559 319.613L400.57 319.57L400.607 319.594L400.559 319.613ZM384.014 387.053L400.559 319.613L400.621 319.628L384.077 387.068L384.014 387.053ZM381.935 395.574L384.014 387.053L384.077 387.068L381.997 395.59L381.962 395.614L381.935 395.574ZM381.962 395.614L381.927 395.609L381.935 395.574L381.962 395.614ZM390.153 396.722L381.962 395.614L381.97 395.55L390.162 396.659L390.153 396.722ZM431.426 402.307L390.153 396.722L390.162 396.659L431.435 402.244L431.462 402.283L431.426 402.307ZM431.462 402.283L431.455 402.311L431.426 402.307L431.462 402.283ZM433.152 395.146L431.462 402.283L431.399 402.268L433.09 395.131L433.144 395.117L433.152 395.146ZM433.144 395.117L433.156 395.129L433.152 395.146L433.144 395.117ZM431.273 393.094L433.144 395.117L433.097 395.16L431.226 393.137L431.219 393.107L431.273 393.094ZM431.226 393.137L431.214 393.124L431.219 393.107L431.226 393.137ZM432.804 387.787L431.281 393.124L431.219 393.107L432.743 387.769L432.791 387.751L432.804 387.787ZM432.791 387.751L432.811 387.764L432.804 387.787L432.791 387.751ZM432.389 387.491L432.791 387.751L432.756 387.805L432.354 387.545L432.389 387.491ZM408.882 372.305L432.389 387.491L432.354 387.545L408.847 372.358L408.839 372.312L408.882 372.305ZM408.847 372.358L408.818 372.34L408.839 372.312L408.847 372.358ZM417.535 361.135L408.89 372.351L408.839 372.312L417.484 361.096L417.524 361.087L417.535 361.135ZM417.524 361.087L417.558 361.104L417.535 361.135L417.524 361.087ZM398.95 351.519L417.524 361.087L417.495 361.143L398.921 351.576L398.906 351.534L398.95 351.519ZM398.921 351.576L398.894 351.562L398.906 351.534L398.921 351.576Z" fill="#41415B"/>
<path fill-rule="evenodd" clip-rule="evenodd" d="M510.178 298.382L511.672 386.423L513.827 385.114L545.93 365.621L551.121 362.469L524.704 293.026L510.178 298.382Z" fill="#2B2C44"/>
<path d="M511.638 386.422L510.144 298.381L510.208 298.38L511.702 386.421L511.687 386.448L511.638 386.422ZM511.687 386.448L511.639 386.477L511.638 386.422L511.687 386.448ZM513.842 385.139L511.687 386.448L511.654 386.394L513.809 385.085L513.842 385.139ZM545.945 365.647L513.842 385.139L513.809 385.085L545.912 365.592L545.945 365.647ZM551.136 362.495L545.945 365.647L545.912 365.592L551.103 362.44L551.149 362.456L551.136 362.495ZM551.149 362.456L551.159 362.481L551.136 362.495L551.149 362.456ZM524.733 293.013L551.149 362.456L551.09 362.479L524.673 293.035L524.692 292.994L524.733 293.013ZM524.692 292.994L524.722 292.983L524.733 293.013L524.692 292.994ZM510.165 298.351L524.692 292.994L524.714 293.054L510.187 298.41L510.144 298.381L510.165 298.351ZM510.144 298.381L510.144 298.359L510.165 298.351L510.144 298.381Z" fill="#2B2C44"/>
<path fill-rule="evenodd" clip-rule="evenodd" d="M498.651 214.021L573.394 200.198L578.308 140.551L518.675 99.5358L490.796 161.011L480.021 173.177L497.79 175.207L508.821 184.829L494.53 211.589L498.651 214.021Z" fill="#BC6A54"/>
<path d="M573.399 200.229L498.656 214.052L498.645 213.99L573.387 200.166L573.425 200.2L573.399 200.229ZM573.425 200.2L573.423 200.224L573.399 200.229L573.425 200.2ZM578.339 140.553L573.425 200.2L573.361 200.195L578.275 140.548L578.325 140.525L578.339 140.553ZM578.325 140.525L578.34 140.535L578.339 140.553L578.325 140.525ZM518.693 99.5093L578.325 140.525L578.289 140.577L518.657 99.5615L518.646 99.5222L518.693 99.5093ZM518.646 99.5222L518.662 99.488L518.693 99.5093L518.646 99.5222ZM490.766 160.998L518.646 99.5222L518.704 99.5486L490.824 161.024L490.819 161.032L490.766 160.998ZM490.824 161.024L490.822 161.028L490.819 161.032L490.824 161.024ZM479.996 173.156L490.771 160.99L490.819 161.032L480.044 173.198L480.016 173.208L479.996 173.156ZM480.016 173.208L479.956 173.202L479.996 173.156L480.016 173.208ZM497.786 175.238L480.016 173.208L480.024 173.146L497.793 175.175L497.81 175.183L497.786 175.238ZM497.793 175.175L497.803 175.177L497.81 175.183L497.793 175.175ZM508.799 184.853L497.769 175.231L497.81 175.183L508.841 184.805L508.848 184.844L508.799 184.853ZM508.841 184.805L508.86 184.822L508.848 184.844L508.841 184.805ZM494.502 211.574L508.792 184.814L508.848 184.844L494.557 211.603L494.514 211.616L494.502 211.574ZM494.514 211.616L494.487 211.6L494.502 211.574L494.514 211.616ZM498.635 214.048L494.514 211.616L494.546 211.561L498.667 213.994L498.656 214.052L498.635 214.048ZM498.656 214.052L498.645 214.054L498.635 214.048L498.656 214.052Z" fill="#BC6A54"/>
<path fill-rule="evenodd" clip-rule="evenodd" d="M418.74 205.886L436.339 192.517L440.252 177.149L440.277 176.967L415.183 173.77L403.42 185.586L411.697 211.236L418.74 205.886Z" fill="#E8C48A"/>
<path d="M436.357 192.541L418.758 205.91L418.719 205.859L436.318 192.491L436.368 192.524L436.357 192.541ZM436.368 192.524L436.366 192.534L436.357 192.541L436.368 192.524ZM440.281 177.155L436.368 192.524L436.306 192.508L440.22 177.14L440.282 177.152L440.281 177.155ZM440.282 177.152L440.282 177.154L440.281 177.155L440.282 177.152ZM440.307 176.97L440.282 177.152L440.219 177.143L440.244 176.961L440.28 176.934L440.307 176.97ZM440.28 176.934L440.312 176.938L440.307 176.97L440.28 176.934ZM415.185 173.737L440.28 176.934L440.272 176.997L415.177 173.8L415.158 173.746L415.185 173.737ZM415.158 173.746L415.169 173.735L415.185 173.737L415.158 173.746ZM403.395 185.562L415.158 173.746L415.203 173.791L403.441 185.607L403.388 185.595L403.395 185.562ZM403.388 185.595L403.382 185.576L403.395 185.562L403.388 185.595ZM411.664 211.244L403.388 185.595L403.448 185.575L411.725 211.225L411.714 211.26L411.664 211.244ZM411.714 211.26L411.678 211.287L411.664 211.244L411.714 211.26ZM418.758 205.91L411.714 211.26L411.676 211.209L418.719 205.859L418.758 205.91Z" fill="#E8C48A"/>
<path fill-rule="evenodd" clip-rule="evenodd" d="M508.906 184.831L496.254 168.282L470.706 173.006L476.57 200.939L494.615 211.591L508.906 184.831Z" fill="#E8C48A"/>
<path d="M496.277 168.261L508.929 184.81L508.878 184.849L496.226 168.299L496.246 168.249L496.277 168.261ZM496.246 168.249L496.265 168.245L496.277 168.261L496.246 168.249ZM470.697 172.973L496.246 168.249L496.257 168.311L470.709 173.035L470.672 173.011L470.697 172.973ZM470.672 173.011L470.665 172.979L470.697 172.973L470.672 173.011ZM476.536 200.943L470.672 173.011L470.734 172.998L476.599 200.93L476.551 200.964L476.536 200.943ZM476.551 200.964L476.539 200.957L476.536 200.943L476.551 200.964ZM494.596 211.616L476.551 200.964L476.584 200.909L494.629 211.561L494.641 211.604L494.596 211.616ZM494.641 211.604L494.625 211.633L494.596 211.616L494.641 211.604ZM508.931 184.844L494.641 211.604L494.585 211.574L508.875 184.814L508.929 184.81L508.931 184.844ZM508.929 184.81L508.941 184.826L508.931 184.844L508.929 184.81Z" fill="#E8C48A"/>
<path fill-rule="evenodd" clip-rule="evenodd" d="M339.753 161.408L351.336 168.265L365.104 143.533L354.12 136.604L339.753 161.408Z" fill="#BD9977"/>
<path d="M351.319 168.291L339.736 161.434L339.768 161.379L351.351 168.237L351.363 168.279L351.319 168.291ZM351.363 168.279L351.347 168.308L351.319 168.291L351.363 168.279ZM365.131 143.547L351.363 168.279L351.308 168.248L365.076 143.517L365.12 143.505L365.131 143.547ZM365.12 143.505L365.145 143.521L365.131 143.547L365.12 143.505ZM354.136 136.577L365.12 143.505L365.086 143.559L354.102 136.63L354.092 136.587L354.136 136.577ZM354.092 136.587L354.108 136.559L354.136 136.577L354.092 136.587ZM339.725 161.391L354.092 136.587L354.146 136.619L339.779 161.422L339.736 161.434L339.725 161.391ZM339.736 161.434L339.709 161.418L339.725 161.391L339.736 161.434Z" fill="#BD9977"/>
<path fill-rule="evenodd" clip-rule="evenodd" d="M539.06 113.5L545.613 104.545L567.634 120.854L562.291 129.478L539.06 113.5Z" fill="#BD9977"/>
<path d="M545.637 104.562L539.085 113.517L539.034 113.48L545.586 104.525L545.63 104.518L545.637 104.562ZM545.586 104.525L545.605 104.499L545.63 104.518L545.586 104.525ZM567.614 120.878L545.593 104.569L545.63 104.518L567.652 120.827L567.66 120.869L567.614 120.878ZM567.652 120.827L567.675 120.844L567.66 120.869L567.652 120.827ZM562.263 129.46L567.606 120.836L567.66 120.869L562.317 129.494L562.272 129.503L562.263 129.46ZM562.317 129.494L562.299 129.522L562.272 129.503L562.317 129.494ZM539.077 113.473L562.308 129.451L562.272 129.503L539.041 113.525L539.034 113.48L539.077 113.473ZM539.041 113.525L539.014 113.506L539.034 113.48L539.041 113.525Z" fill="#BD9977"/>
<path fill-rule="evenodd" clip-rule="evenodd" d="M482.049 181.622C485.168 181.622 487.696 183.967 487.696 186.86C487.696 189.753 485.168 192.098 482.049 192.098C478.931 192.098 476.403 189.753 476.403 186.86C476.403 183.967 478.931 181.622 482.049 181.622Z" fill="#532124"/>
<path d="M487.727 186.859H487.663L487.656 186.591L487.634 186.327L487.598 186.066L487.549 185.81L487.486 185.558L487.411 185.312L487.323 185.07L487.222 184.833L487.11 184.603L486.986 184.378L486.851 184.16L486.705 183.949L486.548 183.745L486.381 183.548L486.205 183.359L486.019 183.178L485.824 183.006L485.621 182.842L485.409 182.688L485.188 182.543L484.961 182.407L484.725 182.282L484.483 182.167L484.235 182.062L483.979 181.969L483.719 181.887L483.452 181.817L483.18 181.759L482.904 181.713L482.623 181.68L482.337 181.66L482.048 181.653V181.59L482.34 181.596L482.629 181.617L482.913 181.65L483.192 181.696L483.467 181.755L483.736 181.826L484 181.909L484.258 182.003L484.509 182.109L484.754 182.225L484.992 182.352L485.222 182.489L485.445 182.636L485.659 182.792L485.865 182.958L486.063 183.132L486.251 183.315L486.429 183.506L486.598 183.705L486.756 183.912L486.904 184.126L487.041 184.346L487.166 184.574L487.28 184.807L487.382 185.047L487.471 185.291L487.548 185.541L487.611 185.797L487.661 186.056L487.697 186.32L487.719 186.588L487.727 186.859ZM482.048 192.128V192.065L482.337 192.058L482.623 192.038L482.904 192.005L483.18 191.959L483.452 191.901L483.719 191.831L483.979 191.749L484.235 191.655L484.483 191.551L484.725 191.436L484.961 191.311L485.188 191.175L485.409 191.03L485.621 190.875L485.824 190.712L486.019 190.539L486.205 190.358L486.381 190.17L486.548 189.973L486.705 189.769L486.851 189.557L486.986 189.34L487.11 189.115L487.222 188.884L487.323 188.648L487.411 188.406L487.486 188.159L487.549 187.908L487.598 187.651L487.634 187.391L487.656 187.127L487.663 186.859H487.727L487.719 187.13L487.697 187.398L487.661 187.662L487.611 187.921L487.548 188.176L487.471 188.427L487.382 188.671L487.28 188.911L487.166 189.144L487.041 189.371L486.904 189.592L486.756 189.806L486.598 190.013L486.429 190.212L486.251 190.403L486.063 190.586L485.865 190.76L485.659 190.926L485.445 191.082L485.222 191.229L484.992 191.366L484.754 191.493L484.509 191.609L484.258 191.715L484 191.809L483.736 191.892L483.467 191.963L483.192 192.021L482.913 192.068L482.629 192.101L482.34 192.121L482.048 192.128ZM476.37 186.859H476.434L476.441 187.127L476.463 187.391L476.498 187.651L476.547 187.908L476.61 188.159L476.686 188.406L476.774 188.648L476.874 188.884L476.987 189.115L477.111 189.34L477.246 189.557L477.392 189.769L477.548 189.973L477.715 190.17L477.891 190.358L478.077 190.539L478.272 190.712L478.476 190.875L478.688 191.03L478.908 191.175L479.136 191.311L479.371 191.436L479.613 191.551L479.862 191.655L480.117 191.749L480.378 191.831L480.645 191.901L480.916 191.959L481.193 192.005L481.474 192.038L481.759 192.058L482.048 192.065V192.128L481.756 192.121L481.468 192.101L481.184 192.068L480.904 192.021L480.63 191.963L480.36 191.892L480.097 191.809L479.839 191.715L479.587 191.609L479.342 191.493L479.105 191.366L478.874 191.229L478.652 191.082L478.437 190.926L478.231 190.76L478.034 190.586L477.846 190.403L477.667 190.212L477.499 190.013L477.34 189.806L477.193 189.592L477.056 189.371L476.93 189.144L476.817 188.911L476.715 188.671L476.625 188.427L476.549 188.176L476.485 187.921L476.436 187.662L476.399 187.398L476.377 187.13L476.37 186.859ZM482.048 181.59V181.653L481.759 181.66L481.474 181.68L481.193 181.713L480.916 181.759L480.645 181.817L480.378 181.887L480.117 181.969L479.862 182.062L479.613 182.167L479.371 182.282L479.136 182.407L478.908 182.543L478.688 182.688L478.476 182.842L478.272 183.006L478.077 183.178L477.891 183.359L477.715 183.548L477.548 183.745L477.392 183.949L477.246 184.16L477.111 184.378L476.987 184.603L476.874 184.833L476.774 185.07L476.686 185.312L476.61 185.558L476.547 185.81L476.498 186.066L476.463 186.327L476.441 186.591L476.434 186.859H476.37L476.377 186.588L476.399 186.32L476.436 186.056L476.485 185.797L476.549 185.541L476.625 185.291L476.715 185.047L476.817 184.807L476.93 184.574L477.056 184.346L477.193 184.126L477.34 183.912L477.499 183.705L477.667 183.506L477.846 183.315L478.034 183.132L478.231 182.958L478.437 182.792L478.652 182.636L478.874 182.489L479.105 182.352L479.342 182.225L479.587 182.109L479.839 182.003L480.097 181.909L480.36 181.826L480.63 181.755L480.904 181.696L481.184 181.65L481.468 181.617L481.756 181.596L482.048 181.59Z" fill="#532124"/>
<path fill-rule="evenodd" clip-rule="evenodd" d="M426.436 184.478C429.126 184.478 431.306 186.5 431.306 188.995C431.306 191.489 429.126 193.512 426.436 193.512C423.747 193.512 421.567 191.489 421.567 188.995C421.567 186.5 423.747 184.478 426.436 184.478Z" fill="#532124"/>
<path d="M431.336 188.994H431.273L431.266 188.763L431.248 188.536L431.217 188.311L431.174 188.091L431.121 187.874L431.055 187.661L430.979 187.453L430.893 187.249L430.796 187.051L430.689 186.857L430.573 186.669L430.447 186.487L430.312 186.311L430.169 186.142L430.017 185.979L429.857 185.824L429.689 185.675L429.513 185.534L429.33 185.401L429.141 185.276L428.944 185.159L428.742 185.051L428.533 184.952L428.319 184.862L428.099 184.782L427.874 184.711L427.645 184.65L427.411 184.6L427.172 184.561L426.93 184.532L426.684 184.515L426.435 184.509V184.446L426.687 184.452L426.936 184.469L427.181 184.498L427.422 184.538L427.66 184.589L427.892 184.65L428.12 184.721L428.342 184.803L428.559 184.894L428.771 184.994L428.976 185.104L429.175 185.222L429.367 185.349L429.552 185.484L429.73 185.626L429.9 185.777L430.062 185.935L430.216 186.1L430.362 186.272L430.499 186.45L430.626 186.635L430.744 186.825L430.852 187.021L430.951 187.223L431.039 187.43L431.116 187.641L431.182 187.857L431.237 188.077L431.28 188.301L431.311 188.529L431.33 188.76L431.336 188.994ZM426.435 193.542V193.479L426.684 193.473L426.93 193.456L427.172 193.427L427.411 193.388L427.645 193.338L427.874 193.277L428.099 193.206L428.319 193.126L428.533 193.036L428.742 192.937L428.944 192.829L429.141 192.712L429.33 192.587L429.513 192.454L429.689 192.313L429.857 192.164L430.017 192.009L430.169 191.846L430.312 191.677L430.447 191.501L430.573 191.319L430.689 191.131L430.796 190.938L430.893 190.739L430.979 190.535L431.055 190.327L431.121 190.114L431.174 189.898L431.217 189.677L431.248 189.452L431.266 189.225L431.273 188.994H431.336L431.33 189.228L431.311 189.459L431.28 189.687L431.237 189.911L431.182 190.131L431.116 190.347L431.039 190.559L430.951 190.765L430.852 190.967L430.744 191.163L430.626 191.353L430.499 191.538L430.362 191.716L430.216 191.888L430.062 192.053L429.9 192.211L429.73 192.362L429.552 192.504L429.367 192.639L429.175 192.766L428.976 192.885L428.771 192.994L428.559 193.094L428.342 193.185L428.12 193.267L427.892 193.338L427.66 193.399L427.422 193.45L427.181 193.49L426.936 193.519L426.687 193.536L426.435 193.542ZM421.534 188.994H421.598L421.604 189.225L421.623 189.452L421.654 189.677L421.696 189.898L421.75 190.114L421.815 190.327L421.891 190.535L421.978 190.739L422.074 190.938L422.181 191.131L422.297 191.319L422.423 191.501L422.558 191.677L422.702 191.846L422.854 192.009L423.014 192.164L423.182 192.313L423.357 192.454L423.54 192.587L423.73 192.712L423.926 192.829L424.129 192.937L424.337 193.036L424.552 193.126L424.771 193.206L424.996 193.277L425.226 193.338L425.46 193.388L425.698 193.427L425.94 193.456L426.186 193.473L426.435 193.479V193.542L426.183 193.536L425.934 193.519L425.689 193.49L425.448 193.45L425.211 193.399L424.978 193.338L424.751 193.267L424.528 193.185L424.311 193.094L424.1 192.994L423.895 192.885L423.696 192.766L423.504 192.639L423.318 192.504L423.141 192.362L422.97 192.211L422.808 192.053L422.654 191.888L422.509 191.716L422.372 191.538L422.244 191.353L422.126 191.163L422.018 190.967L421.92 190.765L421.832 190.559L421.755 190.347L421.689 190.131L421.634 189.911L421.591 189.687L421.56 189.459L421.541 189.228L421.534 188.994ZM426.435 184.446V184.509L426.186 184.515L425.94 184.532L425.698 184.561L425.46 184.6L425.226 184.65L424.996 184.711L424.771 184.782L424.552 184.862L424.337 184.952L424.129 185.051L423.926 185.159L423.73 185.276L423.54 185.401L423.357 185.534L423.182 185.675L423.014 185.824L422.854 185.979L422.702 186.142L422.558 186.311L422.423 186.487L422.297 186.669L422.181 186.857L422.074 187.051L421.978 187.249L421.891 187.453L421.815 187.661L421.75 187.874L421.696 188.091L421.654 188.311L421.623 188.536L421.604 188.763L421.598 188.994H421.534L421.541 188.76L421.56 188.529L421.591 188.301L421.634 188.077L421.689 187.857L421.755 187.641L421.832 187.43L421.92 187.223L422.018 187.021L422.126 186.825L422.244 186.635L422.372 186.45L422.509 186.272L422.654 186.1L422.808 185.935L422.97 185.777L423.141 185.626L423.318 185.484L423.504 185.349L423.696 185.222L423.895 185.104L424.1 184.994L424.311 184.894L424.528 184.803L424.751 184.721L424.978 184.65L425.211 184.589L425.448 184.538L425.689 184.498L425.934 184.469L426.183 184.452L426.435 184.446Z" fill="#532124"/>
<path fill-rule="evenodd" clip-rule="evenodd" d="M470.62 173.004L473.988 159.236L485.036 158.853L490.795 161.011L518.675 99.5353L522.999 90L368.349 116.66L375.95 123.898L419.517 165.387L424.762 162.337L436.081 161.588L440.192 176.965L440.167 177.147L441.139 173.33L470.62 173.004Z" fill="#D9937B"/>
<path d="M470.62 173.004L473.988 159.236L485.036 158.853L490.795 161.011L518.675 99.5353L522.999 90L368.349 116.66L375.95 123.898L419.517 165.387L424.762 162.337L436.081 161.588L440.192 176.965L440.167 177.147L441.139 173.33L470.62 173.004Z" stroke="#D9937B" stroke-width="0.0762" stroke-miterlimit="22.9256"/>
<path fill-rule="evenodd" clip-rule="evenodd" d="M437.453 371.389L417.51 361.116L408.866 372.333L432.372 387.519L432.775 387.779L437.453 371.389Z" fill="#2B2C44"/>
<path d="M417.524 361.087L437.466 371.36L437.437 371.416L417.495 361.143L417.484 361.096L417.524 361.087ZM417.484 361.096L417.5 361.074L417.524 361.087L417.484 361.096ZM408.839 372.312L417.484 361.096L417.535 361.135L408.89 372.351L408.847 372.358L408.839 372.312ZM408.847 372.358L408.818 372.34L408.839 372.312L408.847 372.358ZM432.354 387.545L408.847 372.358L408.882 372.305L432.389 387.491L432.354 387.545ZM432.756 387.805L432.354 387.545L432.389 387.491L432.791 387.751L432.804 387.787L432.756 387.805ZM432.804 387.787L432.792 387.828L432.756 387.805L432.804 387.787ZM437.483 371.397L432.804 387.787L432.743 387.769L437.421 371.379L437.466 371.36L437.483 371.397ZM437.466 371.36L437.49 371.372L437.483 371.397L437.466 371.36Z" fill="#2B2C44"/>
<path fill-rule="evenodd" clip-rule="evenodd" d="M483.826 358.254L468.286 373.028L470.705 383.079C478.508 379.567 481.529 378.207 492.629 373.212L483.826 358.254Z" fill="#2B2C44"/>
<path d="M468.264 373.005L483.804 358.231L483.848 358.277L468.308 373.051L468.255 373.035L468.264 373.005ZM468.255 373.035L468.251 373.018L468.264 373.005L468.255 373.035ZM470.674 383.086L468.255 373.035L468.317 373.02L470.736 383.071L470.718 383.108L470.674 383.086ZM470.718 383.108L470.683 383.124L470.674 383.086L470.718 383.108ZM492.601 373.228L492.657 373.196L492.642 373.241L491.625 373.699L490.653 374.136L489.723 374.555L488.833 374.955L487.982 375.338L487.166 375.706L486.383 376.058L485.631 376.396L484.908 376.722L484.21 377.036L483.537 377.339L482.885 377.632L482.252 377.917L481.636 378.194L481.034 378.465L480.444 378.731L479.864 378.992L479.291 379.25L478.723 379.505L478.157 379.76L477.592 380.014L477.025 380.27L476.453 380.527L475.875 380.787L475.287 381.052L474.688 381.321L474.075 381.597L473.445 381.881L472.797 382.172L472.129 382.473L471.436 382.785L470.718 383.108L470.692 383.05L471.41 382.727L472.102 382.415L472.771 382.114L473.419 381.823L474.048 381.539L474.661 381.263L475.261 380.994L475.848 380.729L476.427 380.469L476.999 380.212L477.566 379.956L478.131 379.702L478.696 379.447L479.264 379.192L479.837 378.934L480.418 378.673L481.007 378.407L481.609 378.136L482.226 377.859L482.858 377.574L483.511 377.281L484.184 376.978L484.881 376.664L485.605 376.338L486.357 376L487.139 375.648L487.955 375.28L488.807 374.897L489.696 374.497L490.626 374.078L491.598 373.641L492.616 373.183L492.601 373.228ZM492.657 373.196L492.675 373.226L492.642 373.241L492.657 373.196ZM483.853 358.238L492.657 373.196L492.601 373.228L483.798 358.27L483.804 358.231L483.853 358.238ZM483.804 358.231L483.833 358.203L483.853 358.238L483.804 358.231Z" fill="#2B2C44"/>
<path fill-rule="evenodd" clip-rule="evenodd" d="M460.526 239.237L461.577 244.921L480.486 237.938L478.21 232.903L460.526 239.237Z" fill="#D8DFD8"/>
<path d="M461.544 244.925L460.494 239.241L460.556 239.229L461.607 244.914L461.586 244.949L461.544 244.925ZM461.586 244.949L461.551 244.962L461.544 244.925L461.586 244.949ZM480.496 237.966L461.586 244.949L461.564 244.89L480.474 237.906L480.514 237.923L480.496 237.966ZM480.514 237.923L480.528 237.954L480.496 237.966L480.514 237.923ZM478.238 232.888L480.514 237.923L480.456 237.949L478.18 232.914L478.198 232.871L478.238 232.888ZM478.198 232.871L478.226 232.861L478.238 232.888L478.198 232.871ZM460.514 239.205L478.198 232.871L478.219 232.931L460.536 239.265L460.494 239.241L460.514 239.205ZM460.494 239.241L460.489 239.214L460.514 239.205L460.494 239.241Z" fill="#D8DFD8"/>
<path fill-rule="evenodd" clip-rule="evenodd" d="M573.478 200.199L498.735 214.023L522.006 227.759L503.159 272.691L481.251 266.24L477.278 312.539L570.994 277.664L588.96 197.336L573.478 200.199Z" fill="#A65C49"/>
<path d="M498.728 213.99L573.47 200.167L573.482 200.229L498.74 214.052L498.718 214.049L498.728 213.99ZM498.718 214.049L498.645 214.006L498.728 213.99L498.718 214.049ZM521.989 227.785L498.718 214.049L498.75 213.994L522.021 227.731L522.034 227.77L521.989 227.785ZM522.021 227.731L522.045 227.745L522.034 227.77L522.021 227.731ZM503.129 272.677L521.976 227.746L522.034 227.77L503.187 272.702L503.149 272.72L503.129 272.677ZM503.187 272.702L503.176 272.728L503.149 272.72L503.187 272.702ZM481.258 266.208L503.167 272.659L503.149 272.72L481.24 266.269L481.218 266.236L481.258 266.208ZM481.218 266.236L481.221 266.197L481.258 266.208L481.218 266.236ZM477.245 312.535L481.218 266.236L481.281 266.241L477.308 312.54L477.287 312.567L477.245 312.535ZM477.287 312.567L477.241 312.585L477.245 312.535L477.287 312.567ZM571.003 277.692L477.287 312.567L477.265 312.508L570.981 277.632L571.023 277.669L571.003 277.692ZM571.023 277.669L571.02 277.686L571.003 277.692L571.023 277.669ZM588.989 197.341L571.023 277.669L570.961 277.655L588.928 197.327L588.953 197.303L588.989 197.341ZM588.953 197.303L589 197.294L588.989 197.341L588.953 197.303ZM573.47 200.167L588.953 197.303L588.964 197.365L573.482 200.229L573.47 200.167Z" fill="#A65C49"/>
<path fill-rule="evenodd" clip-rule="evenodd" d="M411.695 211.235L403.418 185.585L415.181 173.769L410.502 172.251L411.071 170.345L419.6 165.387L376.033 123.899L320 224.552L400.482 246.557L393.599 224.98L411.695 211.235Z" fill="#A65C49"/>
<path d="M411.695 211.235L403.418 185.585L415.181 173.769L410.502 172.251L411.071 170.345L419.6 165.387L376.033 123.899L320 224.552L400.482 246.557L393.599 224.98L411.695 211.235Z" stroke="#A65C49" stroke-width="0.0762" stroke-miterlimit="22.9256"/>
<path fill-rule="evenodd" clip-rule="evenodd" d="M338.804 229.639L324.608 271.694L416.139 330.009L476.194 324.331L477.278 312.539L480.916 270.141L403.817 257.006L400.484 246.558L338.804 229.639Z" fill="#BC6A54"/>
<path d="M324.576 271.683L338.773 229.627L338.833 229.647L324.636 271.703L324.589 271.72L324.576 271.683ZM324.589 271.72L324.568 271.706L324.576 271.683L324.589 271.72ZM416.12 330.035L324.589 271.72L324.623 271.666L416.154 329.981L416.14 330.039L416.12 330.035ZM416.14 330.039L416.129 330.041L416.12 330.035L416.14 330.039ZM476.195 324.361L416.14 330.039L416.134 329.976L476.189 324.297L476.224 324.332L476.195 324.361ZM476.224 324.332L476.221 324.358L476.195 324.361L476.224 324.332ZM477.308 312.54L476.224 324.332L476.161 324.326L477.245 312.534L477.308 312.54V312.54ZM477.308 312.54V312.54L477.307 312.544L477.308 312.54ZM480.946 270.142L477.308 312.54L477.245 312.535L480.883 270.136L480.92 270.108L480.946 270.142ZM480.92 270.108L480.948 270.113L480.946 270.142L480.92 270.108ZM403.821 256.973L480.92 270.108L480.909 270.17L403.81 257.035L403.785 257.014L403.821 256.973ZM403.81 257.035L403.791 257.032L403.785 257.014L403.81 257.035ZM400.513 246.547L403.845 256.994L403.785 257.014L400.452 246.567L400.491 246.526L400.513 246.547ZM400.491 246.526L400.507 246.531L400.513 246.547L400.491 246.526ZM338.811 229.607L400.491 246.526L400.474 246.587L338.794 229.668L338.773 229.627L338.811 229.607ZM338.773 229.627L338.782 229.599L338.811 229.607L338.773 229.627Z" fill="#BC6A54"/>
<path fill-rule="evenodd" clip-rule="evenodd" d="M413.235 163.102L410.503 172.253L439.072 181.516L444.343 161.043L413.235 163.102Z" fill="#532124"/>
<path d="M410.471 172.242L413.202 163.091L413.263 163.11L410.532 172.261L410.492 172.282L410.471 172.242ZM410.492 172.282L410.462 172.272L410.471 172.242L410.492 172.282ZM439.061 181.545L410.492 172.282L410.511 172.221L439.08 181.485L439.101 181.523L439.061 181.545ZM439.101 181.523L439.093 181.556L439.061 181.545L439.101 181.523ZM444.372 161.05L439.101 181.523L439.04 181.507L444.31 161.034L444.339 161.01L444.372 161.05ZM444.339 161.01L444.383 161.007L444.372 161.05L444.339 161.01ZM413.231 163.069L444.339 161.01L444.343 161.074L413.235 163.132L413.202 163.091L413.231 163.069ZM413.202 163.091L413.209 163.07L413.231 163.069L413.202 163.091Z" fill="#532124"/>
<path fill-rule="evenodd" clip-rule="evenodd" d="M471.776 177.519L468.148 159.44L498.223 158.397L500.869 166.54L471.776 177.519Z" fill="#532124"/>
<path d="M468.177 159.432L471.806 177.511L471.743 177.524L468.115 159.445L468.145 159.407L468.177 159.432ZM468.115 159.445L468.108 159.408L468.145 159.407L468.115 159.445ZM498.222 158.427L468.147 159.47L468.145 159.407L498.22 158.364L498.251 158.386L498.222 158.427ZM498.22 158.364L498.244 158.363L498.251 158.386L498.22 158.364ZM500.837 166.548L498.191 158.405L498.251 158.386L500.898 166.528L500.879 166.568L500.837 166.548ZM500.898 166.528L500.907 166.557L500.879 166.568L500.898 166.528ZM471.763 177.488L500.856 166.508L500.879 166.568L471.786 177.547L471.743 177.524L471.763 177.488ZM471.786 177.547L471.751 177.56L471.743 177.524L471.786 177.547Z" fill="#532124"/>
<path fill-rule="evenodd" clip-rule="evenodd" d="M472.055 247.075L456.657 258.311C442.598 240.304 408.413 242.386 424.573 224.342C425.899 225.081 427.003 223.346 428.326 223.981L429.769 218.313L436.338 192.516L411.695 211.235L393.599 224.98L403.816 257.004L429.708 270.911L443.138 274.834L455.6 269.421L466.697 280.042L484.267 275.732L484.251 277.544L503.158 272.689L522.005 227.758L494.613 211.588L476.568 200.936L478.701 220.775L489.977 237.104L472.055 247.075Z" fill="#EDCFA5"/>
<path d="M472.055 247.075L456.657 258.311C442.598 240.304 408.413 242.386 424.573 224.342C425.899 225.081 427.003 223.346 428.326 223.981L429.769 218.313L436.338 192.516L411.695 211.235L393.599 224.98L403.816 257.004L429.708 270.911L443.138 274.834L455.6 269.421L466.697 280.042L484.267 275.732L484.251 277.544L503.158 272.689L522.005 227.758L494.613 211.588L476.568 200.936L478.701 220.775L489.977 237.104L472.055 247.075V247.075Z" stroke="#EDCFA5" stroke-width="0.0762" stroke-miterlimit="22.9256"/>
<path fill-rule="evenodd" clip-rule="evenodd" d="M426.913 229.537L455.381 237.462L481.802 225.861L476.569 200.938L470.705 173.005L441.225 173.332L426.913 229.537Z" fill="#D69F4B"/>
<path d="M455.371 237.491L426.903 229.566L426.92 229.505L455.388 237.43L455.392 237.49L455.371 237.491ZM455.392 237.49L455.381 237.494L455.371 237.491L455.392 237.49ZM481.813 225.889L455.392 237.49L455.366 237.431L481.787 225.831L481.831 225.854L481.813 225.889ZM481.831 225.854L481.837 225.879L481.813 225.889L481.831 225.854ZM476.599 200.93L481.831 225.854L481.769 225.867L476.536 200.943L476.599 200.93ZM470.735 172.998L476.599 200.93L476.536 200.943L470.672 173.011L470.703 172.972L470.735 172.998ZM470.703 172.972L470.729 172.972L470.735 172.998L470.703 172.972ZM441.222 173.298L470.703 172.972L470.704 173.036L441.223 173.362L441.192 173.322L441.222 173.298ZM441.192 173.322L441.198 173.299L441.222 173.298L441.192 173.322ZM426.88 229.528L441.192 173.322L441.254 173.338L426.942 229.543L426.903 229.566L426.88 229.528ZM426.903 229.566L426.873 229.558L426.88 229.528L426.903 229.566Z" fill="#D69F4B"/>
<path fill-rule="evenodd" clip-rule="evenodd" d="M424.636 185.73C425.669 185.73 426.507 186.568 426.507 187.601C426.507 188.635 425.669 189.472 424.636 189.472C423.602 189.472 422.765 188.635 422.765 187.601C422.765 186.568 423.602 185.73 424.636 185.73Z" fill="#FEFEFE"/>
<path d="M424.636 185.73C425.669 185.73 426.507 186.568 426.507 187.601C426.507 188.635 425.669 189.472 424.636 189.472C423.602 189.472 422.765 188.635 422.765 187.601C422.765 186.568 423.602 185.73 424.636 185.73Z" stroke="#FEFEFE" stroke-width="0.0762" stroke-miterlimit="22.9256"/>
<path fill-rule="evenodd" clip-rule="evenodd" d="M479.962 182.925C481.124 182.925 482.067 183.868 482.067 185.031C482.067 186.194 481.124 187.136 479.962 187.136C478.799 187.136 477.856 186.194 477.856 185.031C477.856 183.868 478.799 182.925 479.962 182.925Z" fill="#FEFEFE"/>
<path d="M479.962 182.925C481.124 182.925 482.067 183.868 482.067 185.031C482.067 186.194 481.124 187.136 479.962 187.136C478.799 187.136 477.856 186.194 477.856 185.031C477.856 183.868 478.799 182.925 479.962 182.925Z" stroke="#FEFEFE" stroke-width="0.0762" stroke-miterlimit="22.9256"/>
<path fill-rule="evenodd" clip-rule="evenodd" d="M455.6 269.422L443.215 273.823L432.515 265.888L428.228 270.178L425.657 272.751L442.655 285.087L469.208 285.944L480.281 280.29L484.488 278.142L484.516 275.093L484.532 273.282L466.025 279.449L455.6 269.422Z" fill="#CFAB78"/>
<path d="M443.205 273.793L455.59 269.392L455.611 269.451L443.226 273.853L443.196 273.848L443.205 273.793ZM443.226 273.853L443.21 273.858L443.196 273.848L443.226 273.853ZM432.534 265.863L443.234 273.797L443.196 273.848L432.497 265.914L432.493 265.866L432.534 265.863ZM432.493 265.866L432.512 265.846L432.534 265.863L432.493 265.866ZM428.206 270.156L432.493 265.866L432.538 265.91L428.25 270.201L428.206 270.156ZM425.635 272.729L428.206 270.156L428.25 270.201L425.68 272.773L425.639 272.777L425.635 272.729ZM425.639 272.777L425.609 272.755L425.635 272.729L425.639 272.777ZM442.636 285.112L425.639 272.777L425.676 272.725L442.673 285.061L442.654 285.118L442.636 285.112ZM442.654 285.118L442.644 285.118L442.636 285.112L442.654 285.118ZM469.207 285.976L442.654 285.118L442.656 285.055L469.209 285.913L469.222 285.973L469.207 285.976ZM469.222 285.973L469.215 285.976L469.207 285.976L469.222 285.973ZM480.296 280.319L469.222 285.973L469.193 285.916L480.267 280.262L480.296 280.319ZM484.502 278.171L480.296 280.319L480.267 280.262L484.474 278.114L484.519 278.143L484.502 278.171ZM484.519 278.143L484.519 278.162L484.502 278.171L484.519 278.143ZM484.547 275.094L484.519 278.143L484.456 278.142L484.484 275.093L484.547 275.094ZM484.564 273.282L484.547 275.094L484.484 275.093L484.5 273.282L484.522 273.252L484.564 273.282ZM484.522 273.252L484.564 273.238L484.564 273.282L484.522 273.252ZM466.015 279.419L484.522 273.252L484.542 273.312L466.035 279.479L466.004 279.472L466.015 279.419ZM466.035 279.479L466.017 279.485L466.004 279.472L466.035 279.479ZM455.622 269.399L466.047 279.426L466.004 279.472L455.578 269.445L455.59 269.392L455.622 269.399ZM455.59 269.392L455.608 269.385L455.622 269.399L455.59 269.392Z" fill="#CFAB78"/>
<path d="M454.358 269.304L455.559 256.698L458.044 256.934L456.843 269.54L454.734 270.319L454.358 269.304ZM454.734 270.319L454.301 269.902L454.358 269.304L454.734 270.319ZM465.159 280.346L454.734 270.319L456.466 268.525L466.892 278.552L466.43 280.628L465.159 280.346ZM466.43 280.628L465.708 280.875L465.159 280.346L466.43 280.628ZM488.106 273.208L466.43 280.628L465.62 278.271L487.296 270.851L488.106 273.208ZM442.796 272.649L455.181 268.248L456.019 270.595L443.634 274.997L442.469 274.821L442.796 272.649ZM443.634 274.997L443.004 275.22L442.469 274.821L443.634 274.997ZM420.103 255.059L443.961 272.824L442.469 274.821L418.61 257.056L420.103 255.059Z" fill="#532124"/>
<path fill-rule="evenodd" clip-rule="evenodd" d="M422.696 220.971L415.727 236.421C430.992 245.164 440.57 251.152 456.676 258.311L496.382 236.701C492.607 230.802 488.833 224.902 485.059 219.003C463.816 230.701 445.191 232.19 422.696 220.971Z" fill="#532124"/>
<path d="M415.652 236.387L422.621 220.937L422.772 221.005L415.803 236.456L415.686 236.494L415.652 236.387ZM415.686 236.494L415.621 236.456L415.652 236.387L415.686 236.494ZM456.636 258.238L456.715 258.385L456.642 258.388L455.151 257.72L453.695 257.058L452.273 256.401L450.883 255.749L449.522 255.102L448.188 254.457L446.879 253.815L445.593 253.175L444.327 252.536L443.079 251.897L441.847 251.258L440.628 250.618L439.421 249.976L438.223 249.332L437.033 248.685L435.847 248.033L434.663 247.378L433.48 246.716L432.294 246.049L431.105 245.375L429.909 244.693L428.704 244.003L427.488 243.304L426.259 242.596L425.015 241.877L423.753 241.147L422.472 240.405L421.168 239.651L419.84 238.883L418.485 238.102L417.101 237.305L415.686 236.494L415.768 236.349L417.183 237.161L418.567 237.957L419.922 238.739L421.25 239.507L422.554 240.261L423.836 241.003L425.098 241.733L426.342 242.451L427.571 243.16L428.786 243.858L429.991 244.548L431.186 245.23L432.375 245.904L433.56 246.571L434.743 247.232L435.926 247.887L437.112 248.538L438.302 249.186L439.499 249.829L440.705 250.471L441.923 251.111L443.154 251.749L444.402 252.387L445.667 253.026L446.952 253.666L448.261 254.307L449.594 254.951L450.954 255.599L452.343 256.25L453.764 256.906L455.219 257.568L456.709 258.235L456.636 258.238ZM456.715 258.385L456.679 258.404L456.642 258.388L456.715 258.385ZM496.422 236.775L456.715 258.385L456.636 258.238L496.343 236.628L496.452 236.657L496.422 236.775ZM496.452 236.657L496.5 236.732L496.422 236.775L496.452 236.657ZM485.099 219.076L485.019 218.93L485.129 218.958L485.482 219.511L485.836 220.064L486.19 220.617L486.544 221.17L486.898 221.723L487.252 222.276L487.606 222.83L487.959 223.383L488.313 223.936L488.667 224.489L489.021 225.042L489.375 225.595L489.729 226.148L490.082 226.701L490.436 227.254L490.79 227.807L491.144 228.36L491.498 228.913L491.852 229.467L492.206 230.02L492.559 230.573L492.913 231.126L493.267 231.679L493.621 232.232L493.975 232.785L494.329 233.338L494.683 233.891L495.036 234.444L495.39 234.997L495.744 235.55L496.098 236.103L496.452 236.657L496.313 236.747L495.959 236.194L495.605 235.64L495.251 235.087L494.897 234.534L494.543 233.981L494.189 233.428L493.836 232.875L493.482 232.322L493.128 231.769L492.774 231.216L492.42 230.663L492.066 230.11L491.712 229.557L491.359 229.003L491.005 228.45L490.651 227.897L490.297 227.344L489.943 226.791L489.589 226.238L489.235 225.685L488.882 225.132L488.528 224.579L488.174 224.026L487.82 223.473L487.466 222.92L487.112 222.366L486.759 221.813L486.405 221.26L486.051 220.707L485.697 220.154L485.343 219.601L484.989 219.048L485.099 219.076ZM485.019 218.93L485.087 218.893L485.129 218.958L485.019 218.93ZM422.772 221.005L422.621 220.937L422.733 220.896L424.829 221.91L426.903 222.85L428.957 223.716L430.992 224.509L433.009 225.23L435.008 225.879L436.992 226.455L438.962 226.961L440.919 227.396L442.863 227.76L444.797 228.055L446.721 228.281L448.636 228.437L450.544 228.525L452.446 228.545L454.344 228.498L456.237 228.384L458.128 228.203L460.018 227.956L461.908 227.643L463.799 227.265L465.693 226.822L467.59 226.315L469.492 225.744L471.399 225.11L473.314 224.412L475.237 223.652L477.17 222.83L479.113 221.947L481.068 221.002L483.037 219.996L485.019 218.93L485.099 219.076L483.113 220.143L481.142 221.151L479.183 222.097L477.236 222.983L475.3 223.806L473.373 224.568L471.453 225.267L469.541 225.903L467.635 226.475L465.733 226.984L463.834 227.428L461.938 227.807L460.042 228.12L458.147 228.368L456.25 228.55L454.351 228.664L452.447 228.712L450.539 228.692L448.625 228.603L446.704 228.446L444.775 228.22L442.836 227.924L440.886 227.559L438.924 227.123L436.949 226.616L434.96 226.038L432.955 225.388L430.934 224.665L428.895 223.871L426.837 223.003L424.759 222.061L422.659 221.046L422.772 221.005ZM422.621 220.937L422.656 220.858L422.733 220.896L422.621 220.937Z" fill="#532124"/>
<path fill-rule="evenodd" clip-rule="evenodd" d="M461.213 237.574L462.292 243.769L481.703 236.158L479.366 230.671L461.213 237.574Z" fill="#FEFEFE"/>
<path d="M462.21 243.783L461.132 237.588L461.295 237.56L462.373 243.754L462.322 243.846L462.21 243.783ZM462.322 243.846L462.228 243.883L462.21 243.783L462.322 243.846ZM481.733 236.236L462.322 243.846L462.262 243.691L481.673 236.081L481.779 236.125L481.733 236.236ZM481.779 236.125L481.813 236.204L481.733 236.236L481.779 236.125ZM479.442 230.639L481.779 236.125L481.627 236.191L479.29 230.704L479.337 230.594L479.442 230.639ZM479.337 230.594L479.411 230.565L479.442 230.639L479.337 230.594ZM461.184 237.496L479.337 230.594L479.396 230.749L461.243 237.652L461.132 237.588L461.184 237.496ZM461.132 237.588L461.12 237.521L461.184 237.496L461.132 237.588Z" fill="#FEFEFE"/>
</svg>
