<svg width="242" height="345" viewBox="0 0 242 345" fill="none" xmlns="http://www.w3.org/2000/svg">
<path fill-rule="evenodd" clip-rule="evenodd" d="M157.616 335.326L120.454 336.015L121.406 344.071L156.629 344.059L157.616 335.326Z" fill="#BD9977"/>
<path d="M157.616 335.326L120.454 336.015L121.406 344.071L156.629 344.059L157.616 335.326Z" stroke="#BD9977" stroke-width="0.0762" stroke-miterlimit="22.9256"/>
<path fill-rule="evenodd" clip-rule="evenodd" d="M106.493 334.084L64.2175 331.677L64.8109 343.104L104.006 344.051L106.493 334.084Z" fill="#BD9977"/>
<path d="M106.493 334.084L64.2175 331.677L64.8109 343.104L104.006 344.051L106.493 334.084Z" stroke="#BD9977" stroke-width="0.0762" stroke-miterlimit="22.9256"/>
<path fill-rule="evenodd" clip-rule="evenodd" d="M109.708 334.267L116.677 287.783L103.715 274.377L60.9971 275.381L59.8225 331.426L109.708 334.267Z" fill="#2B2C44"/>
<path d="M109.708 334.267L116.677 287.783L103.715 274.377L60.9971 275.381L59.8225 331.426L109.708 334.267Z" stroke="#2B2C44" stroke-width="0.0762" stroke-miterlimit="22.9256"/>
<path fill-rule="evenodd" clip-rule="evenodd" d="M131.064 276.126L117.91 287.183L117.673 336.062L161.233 335.286L170.398 281.223L131.064 276.126Z" fill="#2B2C44"/>
<path d="M117.891 287.164L131.046 276.106L131.086 276.149L117.931 287.206L117.881 287.185L117.891 287.164ZM117.881 287.185L117.881 287.172L117.891 287.164L117.881 287.185ZM117.645 336.064L117.881 287.185L117.941 287.185L117.705 336.064L117.676 336.092L117.645 336.064ZM117.676 336.092L117.645 336.093L117.645 336.064L117.676 336.092ZM161.235 335.317L117.676 336.092L117.675 336.035L161.234 335.26L161.264 335.293L161.235 335.317ZM161.264 335.293L161.26 335.316L161.235 335.317L161.264 335.293ZM170.429 281.229L161.264 335.293L161.205 335.284L170.37 281.22L170.404 281.196L170.429 281.229ZM170.404 281.196L170.434 281.2L170.429 281.229L170.404 281.196ZM131.07 276.099L170.404 281.196L170.395 281.253L131.062 276.156L131.046 276.106L131.07 276.099ZM131.046 276.106L131.056 276.098L131.07 276.099L131.046 276.106Z" fill="#2B2C44"/>
<path fill-rule="evenodd" clip-rule="evenodd" d="M58.3794 267.14L61.2932 255.262L30.4077 243.303L26.9185 256.232L58.3794 267.14Z" fill="#BD9977"/>
<path d="M61.321 255.269L58.4071 267.147L58.3514 267.133L61.2653 255.256L61.3036 255.236L61.321 255.269ZM61.3036 255.236L61.327 255.245L61.321 255.269L61.3036 255.236ZM30.418 243.276L61.3036 255.236L61.2827 255.289L30.3972 243.329L30.3799 243.295L30.418 243.276ZM30.3799 243.295L30.3882 243.265L30.418 243.276L30.3799 243.295ZM26.8907 256.225L30.3799 243.295L30.4353 243.31L26.9461 256.239L26.9089 256.259L26.8907 256.225ZM26.9089 256.259L26.8838 256.25L26.8907 256.225L26.9089 256.259ZM58.3698 267.167L26.9089 256.259L26.9278 256.205L58.3887 267.113L58.4071 267.147L58.3698 267.167ZM58.4071 267.147L58.3997 267.177L58.3698 267.167L58.4071 267.147Z" fill="#BD9977"/>
<path fill-rule="evenodd" clip-rule="evenodd" d="M30.407 243.302L61.2925 255.261L73.2011 206.719L51.0166 192.715L24.4919 241.003L30.407 243.302Z" fill="#2B2C44"/>
<path d="M61.2828 255.288L30.3973 243.329L30.4181 243.275L61.3037 255.235L61.3211 255.268L61.2828 255.288ZM61.3211 255.268L61.3133 255.3L61.2828 255.288L61.3211 255.268ZM73.2297 206.726L61.3211 255.268L61.2654 255.255L73.174 206.713L73.2172 206.695L73.2297 206.726ZM73.2172 206.695L73.2346 206.706L73.2297 206.726L73.2172 206.695ZM51.0327 192.691L73.2172 206.695L73.1865 206.744L51.002 192.739L50.9922 192.702L51.0327 192.691ZM50.9922 192.702L51.0069 192.675L51.0327 192.691L50.9922 192.702ZM24.4675 240.99L50.9922 192.702L51.0425 192.729L24.5178 241.017L24.4822 241.03L24.4675 240.99ZM24.4822 241.03L24.4519 241.018L24.4675 240.99L24.4822 241.03ZM30.3973 243.329L24.4822 241.03L24.5031 240.977L30.4181 243.275L30.3973 243.329Z" fill="#2B2C44"/>
<path fill-rule="evenodd" clip-rule="evenodd" d="M113.034 229.243L100.669 272.563L117.166 290.395L138.03 271.932L127.806 229.458L113.034 229.243Z" fill="#BA2308"/>
<path d="M100.643 272.557L113.008 229.237L113.063 229.252L100.698 272.573L100.649 272.584L100.643 272.557ZM100.649 272.584L100.638 272.572L100.643 272.557L100.649 272.584ZM117.146 290.416L100.649 272.584L100.691 272.546L117.188 290.378L117.186 290.418L117.146 290.416ZM117.186 290.418L117.165 290.437L117.146 290.416L117.186 290.418ZM138.05 271.955L117.186 290.418L117.148 290.376L138.012 271.912L138.059 271.927L138.05 271.955ZM138.059 271.927L138.063 271.944L138.05 271.955L138.059 271.927ZM127.836 229.453L138.059 271.927L138.003 271.94L127.78 229.467L127.808 229.431L127.836 229.453ZM127.808 229.431L127.83 229.432L127.836 229.453L127.808 229.431ZM113.036 229.216L127.808 229.431L127.807 229.488L113.035 229.273L113.008 229.237L113.036 229.216ZM113.008 229.237L113.014 229.216L113.036 229.216L113.008 229.237Z" fill="#BA2308"/>
<path fill-rule="evenodd" clip-rule="evenodd" d="M106.226 253.099L108.973 243.475L95.5048 213.596L85.5683 214.527L82.0887 212.33L71.7192 235.323L88.3597 243.895L106.226 253.099Z" fill="#7D88A3"/>
<path d="M109.001 243.483L106.254 253.106L106.199 253.091L108.946 243.467L109 243.463L109.001 243.483ZM109 243.463L109.004 243.473L109.001 243.483L109 243.463ZM95.5311 213.584L109 243.463L108.947 243.487L95.4789 213.607L95.5022 213.567L95.5311 213.584ZM95.5022 213.567L95.5226 213.565L95.5311 213.584L95.5022 213.567ZM85.5657 214.498L95.5022 213.567L95.5077 213.624L85.5711 214.555L85.553 214.55L85.5657 214.498ZM85.5711 214.555L85.5614 214.556L85.553 214.55L85.5711 214.555ZM82.1041 212.306L85.5838 214.502L85.553 214.55L82.0734 212.354L82.0627 212.318L82.1041 212.306ZM82.0627 212.318L82.0762 212.288L82.1041 212.306L82.0627 212.318ZM71.6933 235.311L82.0627 212.318L82.1149 212.341L71.7455 235.334L71.7062 235.348L71.6933 235.311ZM71.7062 235.348L71.6821 235.336L71.6933 235.311L71.7062 235.348ZM88.3467 243.92L71.7062 235.348L71.7325 235.297L88.373 243.869L88.3467 243.92ZM106.213 253.124L88.3467 243.92L88.373 243.869L106.24 253.073L106.254 253.106L106.213 253.124ZM106.254 253.106L106.244 253.14L106.213 253.124L106.254 253.106Z" fill="#7D88A3"/>
<path fill-rule="evenodd" clip-rule="evenodd" d="M95.5042 213.595L108.973 243.475L113.034 229.244L107.786 229.168L111.354 212.11L95.5042 213.595Z" fill="#FEFEFE"/>
<path d="M108.947 243.487L95.4782 213.608L95.5315 213.584L109 243.463L109.001 243.483L108.947 243.487ZM109.001 243.483L108.979 243.56L108.947 243.487L109.001 243.483ZM113.063 229.253L109.001 243.483L108.945 243.467L113.007 229.237L113.035 229.216L113.063 229.253ZM113.035 229.216L113.074 229.216L113.063 229.253L113.035 229.216ZM107.787 229.139L113.035 229.216L113.035 229.274L107.786 229.197L107.758 229.162L107.787 229.139ZM107.786 229.197L107.751 229.197L107.758 229.162L107.786 229.197ZM111.383 212.117L107.815 229.174L107.758 229.162L111.326 212.105L111.351 212.082L111.383 212.117ZM111.351 212.082L111.391 212.078L111.383 212.117L111.351 212.082ZM95.5021 213.567L111.351 212.082L111.357 212.14L95.5075 213.625L95.4782 213.608L95.5021 213.567ZM95.4782 213.608L95.4614 213.571L95.5021 213.567L95.4782 213.608Z" fill="#FEFEFE"/>
<path fill-rule="evenodd" clip-rule="evenodd" d="M111.352 212.109L107.784 229.167L113.033 229.243L127.805 229.458L129.457 229.482L128.39 210.513L111.352 212.109Z" fill="#91200C"/>
<path d="M107.758 229.163L111.326 212.105L111.382 212.117L107.814 229.174L107.786 229.197L107.758 229.163ZM107.786 229.197L107.751 229.197L107.758 229.163L107.786 229.197ZM113.035 229.273L107.786 229.197L107.787 229.14L113.035 229.216L113.035 229.273ZM127.807 229.489L113.035 229.273L113.035 229.216L127.808 229.432L127.807 229.489ZM129.459 229.513L127.807 229.489L127.808 229.432L129.459 229.456L129.487 229.483L129.459 229.513ZM129.487 229.483L129.489 229.513L129.459 229.513L129.487 229.483ZM128.421 210.513L129.487 229.483L129.43 229.486L128.363 210.516L128.389 210.486L128.421 210.513ZM128.389 210.486L128.419 210.483L128.421 210.513L128.389 210.486ZM111.351 212.083L128.389 210.486L128.395 210.543L111.357 212.139L111.326 212.105L111.351 212.083ZM111.326 212.105L111.33 212.085L111.351 212.083L111.326 212.105Z" fill="#91200C"/>
<path fill-rule="evenodd" clip-rule="evenodd" d="M128.392 210.514L129.459 229.484L127.807 229.46L131.389 244.341L152.062 194.813L141.707 198.631L140.712 209.36L128.392 210.514Z" fill="#FEFEFE"/>
<path d="M129.43 229.486L128.363 210.516L128.421 210.513L129.488 229.483L129.459 229.513L129.43 229.486ZM129.488 229.483L129.49 229.514L129.459 229.513L129.488 229.483ZM127.808 229.431L129.459 229.455L129.459 229.513L127.807 229.489L127.779 229.467L127.808 229.431ZM127.779 229.467L127.77 229.431L127.808 229.431L127.779 229.467ZM131.361 244.349L127.779 229.467L127.836 229.453L131.418 244.335L131.416 244.353L131.361 244.349ZM131.416 244.353L131.382 244.436L131.361 244.349L131.416 244.353ZM152.089 194.825L131.416 244.353L131.363 244.331L152.035 194.803L152.052 194.787L152.089 194.825ZM152.052 194.787L152.115 194.764L152.089 194.825L152.052 194.787ZM141.698 198.605L152.052 194.787L152.072 194.841L141.718 198.659L141.679 198.63L141.698 198.605ZM141.679 198.63L141.68 198.611L141.698 198.605L141.679 198.63ZM140.683 209.358L141.679 198.63L141.737 198.635L140.741 209.363L140.715 209.389L140.683 209.358ZM140.741 209.363L140.739 209.387L140.715 209.389L140.741 209.363ZM128.389 210.486L140.709 209.331L140.715 209.389L128.395 210.544L128.363 210.516L128.389 210.486ZM128.363 210.516L128.361 210.488L128.389 210.486L128.363 210.516Z" fill="#FEFEFE"/>
<path fill-rule="evenodd" clip-rule="evenodd" d="M152.063 194.814L131.39 244.342L133.851 254.568L147.773 241.332L164.718 225.223L153.647 194.229L152.063 194.814Z" fill="#7D88A3"/>
<path d="M131.363 244.33L152.036 194.802L152.089 194.824L131.416 244.352L131.362 244.348L131.363 244.33ZM131.362 244.348L131.36 244.339L131.363 244.33L131.362 244.348ZM133.823 254.574L131.362 244.348L131.418 244.335L133.879 254.561L133.871 254.588L133.823 254.574ZM133.871 254.588L133.835 254.623L133.823 254.574L133.871 254.588ZM147.793 241.352L133.871 254.588L133.831 254.547L147.753 241.311L147.793 241.352ZM164.737 225.244L147.793 241.352L147.753 241.311L164.698 225.202L164.744 225.213L164.737 225.244ZM164.744 225.213L164.751 225.231L164.737 225.244L164.744 225.213ZM153.674 194.22L164.744 225.213L164.69 225.232L153.62 194.239L153.637 194.202L153.674 194.22ZM153.637 194.202L153.664 194.192L153.674 194.22L153.637 194.202ZM152.052 194.787L153.637 194.202L153.657 194.256L152.072 194.84L152.036 194.802L152.052 194.787ZM152.036 194.802L152.041 194.791L152.052 194.787L152.036 194.802Z" fill="#7D88A3"/>
<path fill-rule="evenodd" clip-rule="evenodd" d="M153.647 194.23L164.717 225.223L147.773 241.332L155.66 254.733C145.715 259.208 143.009 260.427 136.018 263.573L138.031 271.934L132.885 276.487L134.149 288.188L170.247 281.584L172.966 281.087L172.944 279.808L172.771 269.603L172.719 266.567L171.381 187.69L153.647 194.23Z" fill="#41415B"/>
<path d="M164.69 225.233L153.62 194.239L153.674 194.22L164.744 225.214L164.737 225.244L164.69 225.233ZM164.744 225.214L164.751 225.231L164.737 225.244L164.744 225.214ZM147.753 241.311L164.698 225.202L164.737 225.244L147.793 241.353L147.748 241.346L147.753 241.311ZM147.748 241.346L147.737 241.327L147.753 241.311L147.748 241.346ZM155.635 254.747L147.748 241.346L147.798 241.317L155.685 254.718L155.672 254.759L155.635 254.747ZM155.685 254.718L155.701 254.746L155.672 254.759L155.685 254.718ZM136.046 263.566L135.991 263.579L136.007 263.546L136.65 263.257L137.27 262.978L137.869 262.708L138.45 262.447L139.014 262.193L139.563 261.946L140.1 261.704L140.626 261.467L141.145 261.234L141.657 261.004L142.165 260.775L142.671 260.547L143.178 260.319L143.687 260.09L144.2 259.859L144.72 259.625L145.248 259.387L145.788 259.145L146.34 258.896L146.907 258.641L147.491 258.378L148.094 258.106L148.719 257.825L149.367 257.534L150.041 257.23L150.742 256.915L151.473 256.586L152.236 256.242L153.033 255.884L153.866 255.509L154.737 255.117L155.648 254.707L155.672 254.759L154.76 255.169L153.889 255.561L153.056 255.936L152.26 256.294L151.497 256.638L150.766 256.967L150.064 257.282L149.391 257.586L148.743 257.877L148.118 258.158L147.514 258.43L146.93 258.693L146.363 258.948L145.811 259.197L145.272 259.439L144.743 259.677L144.224 259.911L143.71 260.142L143.201 260.371L142.695 260.599L142.189 260.827L141.68 261.056L141.168 261.286L140.65 261.519L140.123 261.756L139.586 261.998L139.037 262.245L138.473 262.499L137.893 262.76L137.294 263.03L136.673 263.309L136.03 263.598L136.046 263.566ZM135.991 263.579L135.985 263.556L136.007 263.546L135.991 263.579ZM138.003 271.94L135.991 263.579L136.046 263.566L138.059 271.927L138.05 271.955L138.003 271.94ZM138.059 271.927L138.063 271.943L138.05 271.955L138.059 271.927ZM132.867 276.465L138.012 271.912L138.05 271.955L132.905 276.508L132.857 276.49L132.867 276.465ZM132.857 276.49L132.856 276.475L132.867 276.465L132.857 276.49ZM134.121 288.191L132.857 276.49L132.914 276.484L134.178 288.184L134.154 288.216L134.121 288.191ZM134.154 288.216L134.124 288.221L134.121 288.191L134.154 288.216ZM170.253 281.612L134.154 288.216L134.144 288.16L170.242 281.556L170.253 281.612ZM172.971 281.114L170.253 281.612L170.242 281.556L172.961 281.058L172.995 281.086L172.971 281.114ZM172.995 281.086L172.995 281.11L172.971 281.114L172.995 281.086ZM172.973 279.807L172.995 281.086L172.937 281.087L172.916 279.808L172.973 279.807ZM172.8 269.602L172.973 279.807L172.916 279.808L172.742 269.603L172.8 269.602ZM172.748 266.566L172.8 269.602L172.742 269.603L172.691 266.567L172.748 266.566ZM171.41 187.69L172.748 266.566L172.691 266.567L171.352 187.691L171.371 187.663L171.41 187.69ZM171.371 187.663L171.409 187.649L171.41 187.69L171.371 187.663ZM153.637 194.203L171.371 187.663L171.391 187.717L153.657 194.256L153.62 194.239L153.637 194.203ZM153.62 194.239L153.611 194.212L153.637 194.203L153.62 194.239Z" fill="#41415B"/>
<path fill-rule="evenodd" clip-rule="evenodd" d="M71.7188 235.323L82.0882 212.33L73.2011 206.72L58.3786 267.14L56.5156 274.774L63.8541 275.767L100.831 280.771L102.346 274.377L100.669 272.565L102.035 267.782L101.674 267.55L80.6142 253.944L88.3593 243.895L71.7188 235.323Z" fill="#41415B"/>
<path d="M82.1148 212.342L71.7453 235.335L71.6931 235.312L82.0626 212.319L82.104 212.306L82.1148 212.342ZM82.104 212.306L82.1249 212.32L82.1148 212.342L82.104 212.306ZM73.217 206.696L82.104 212.306L82.0733 212.355L73.1862 206.744L73.1737 206.713L73.217 206.696ZM73.1737 206.713L73.1832 206.675L73.217 206.696L73.1737 206.713ZM58.3513 267.133L73.1737 206.713L73.2295 206.727L58.407 267.147L58.3513 267.133V267.133ZM58.3513 267.133V267.133L58.3549 267.118L58.3513 267.133ZM56.4882 274.768L58.3513 267.133L58.407 267.147L56.544 274.782L56.5123 274.803L56.4882 274.768ZM56.5123 274.803L56.4807 274.799L56.4882 274.768L56.5123 274.803ZM63.8508 275.796L56.5123 274.803L56.5199 274.747L63.8584 275.74L63.8508 275.796ZM100.828 280.8L63.8508 275.796L63.8584 275.74L100.836 280.743L100.86 280.778L100.828 280.8ZM100.86 280.778L100.854 280.803L100.828 280.8L100.86 280.778ZM102.374 274.384L100.86 280.778L100.804 280.765L102.318 274.371L102.367 274.358L102.374 274.384ZM102.367 274.358L102.378 274.369L102.374 274.384L102.367 274.358ZM100.691 272.546L102.367 274.358L102.325 274.396L100.649 272.585L100.642 272.557L100.691 272.546ZM100.649 272.585L100.638 272.573L100.642 272.557L100.649 272.585ZM102.063 267.791L100.697 272.573L100.642 272.557L102.007 267.775L102.051 267.759L102.063 267.791ZM102.051 267.759L102.068 267.77L102.063 267.791L102.051 267.759ZM101.69 267.526L102.051 267.759L102.019 267.807L101.659 267.574L101.69 267.526ZM80.6303 253.92L101.69 267.526L101.659 267.574L80.5991 253.968L80.592 253.927L80.6303 253.92ZM80.5991 253.968L80.5731 253.952L80.592 253.927L80.5991 253.968ZM88.3825 243.913L80.6375 253.962L80.592 253.927L88.337 243.878L88.3729 243.87L88.3825 243.913ZM88.3729 243.87L88.4033 243.886L88.3825 243.913L88.3729 243.87ZM71.7324 235.298L88.3729 243.87L88.3466 243.921L71.7061 235.349L71.6931 235.312L71.7324 235.298ZM71.7061 235.349L71.682 235.336L71.6931 235.312L71.7061 235.349Z" fill="#41415B"/>
<path fill-rule="evenodd" clip-rule="evenodd" d="M106.226 253.098L88.3598 243.895L80.6147 253.944L101.675 267.549L102.035 267.782L106.226 253.098Z" fill="#2B2C44"/>
<path d="M88.3731 243.869L106.24 253.073L106.213 253.124L88.3468 243.92L88.3372 243.877L88.3731 243.869ZM88.3372 243.877L88.3518 243.858L88.3731 243.869L88.3372 243.877ZM80.5921 253.926L88.3372 243.877L88.3827 243.912L80.6376 253.961L80.5993 253.968L80.5921 253.926ZM80.5993 253.968L80.5732 253.951L80.5921 253.926L80.5993 253.968ZM101.659 267.573L80.5993 253.968L80.6305 253.92L101.69 267.525L101.659 267.573ZM102.02 267.806L101.659 267.573L101.69 267.525L102.051 267.758L102.063 267.79L102.02 267.806ZM102.063 267.79L102.052 267.827L102.02 267.806L102.063 267.79ZM106.254 253.106L102.063 267.79L102.008 267.774L106.199 253.091L106.24 253.073L106.254 253.106ZM106.24 253.073L106.26 253.084L106.254 253.106L106.24 253.073Z" fill="#2B2C44"/>
<path fill-rule="evenodd" clip-rule="evenodd" d="M147.773 241.331L133.851 254.567L136.018 263.572C143.008 260.426 145.715 259.207 155.66 254.732L147.773 241.331Z" fill="#2B2C44"/>
<path d="M133.831 254.547L147.753 241.311L147.793 241.352L133.871 254.588L133.823 254.574L133.831 254.547ZM133.823 254.574L133.819 254.558L133.831 254.547L133.823 254.574ZM135.99 263.579L133.823 254.574L133.879 254.561L136.046 263.566L136.03 263.598L135.99 263.579ZM136.03 263.598L135.998 263.612L135.99 263.579L136.03 263.598ZM155.635 254.747L155.685 254.718L155.672 254.758L154.76 255.169L153.889 255.561L153.056 255.936L152.259 256.294L151.496 256.638L150.765 256.966L150.064 257.282L149.39 257.585L148.742 257.877L148.118 258.158L147.514 258.43L146.93 258.693L146.363 258.948L145.811 259.196L145.272 259.439L144.743 259.677L144.223 259.911L143.71 260.142L143.201 260.371L142.695 260.599L142.188 260.827L141.68 261.055L141.168 261.286L140.65 261.519L140.123 261.756L139.586 261.998L139.037 262.245L138.473 262.499L137.893 262.76L137.293 263.03L136.673 263.309L136.03 263.598L136.006 263.546L136.65 263.257L137.27 262.978L137.869 262.708L138.45 262.447L139.013 262.193L139.563 261.946L140.1 261.704L140.626 261.467L141.144 261.234L141.657 261.003L142.165 260.775L142.671 260.547L143.178 260.319L143.686 260.09L144.2 259.859L144.72 259.625L145.248 259.387L145.787 259.144L146.339 258.896L146.906 258.641L147.491 258.378L148.094 258.106L148.719 257.825L149.367 257.533L150.04 257.23L150.742 256.914L151.473 256.586L152.236 256.242L153.033 255.883L153.866 255.509L154.737 255.117L155.648 254.706L155.635 254.747ZM155.685 254.718L155.701 254.745L155.672 254.758L155.685 254.718ZM147.798 241.317L155.685 254.718L155.635 254.747L147.748 241.346L147.753 241.311L147.798 241.317ZM147.753 241.311L147.779 241.286L147.798 241.317L147.753 241.311Z" fill="#2B2C44"/>
<path fill-rule="evenodd" clip-rule="evenodd" d="M161.054 112.111L228.017 99.7265L232.419 46.2882L178.994 9.54199L154.016 64.6188L144.363 75.5185L160.283 77.3368L170.165 85.9577L157.362 109.932L161.054 112.111Z" fill="#BC6A54"/>
<path d="M228.023 99.755L161.06 112.14L161.05 112.084L228.013 99.6991L228.046 99.7294L228.023 99.755ZM228.046 99.7294L228.044 99.7511L228.023 99.755L228.046 99.7294ZM232.448 46.2911L228.046 99.7294L227.99 99.7247L232.392 46.2864L232.436 46.2654L232.448 46.2911ZM232.436 46.2654L232.45 46.2747L232.448 46.2911L232.436 46.2654ZM179.011 9.51913L232.436 46.2654L232.404 46.3121L178.979 9.56588L178.969 9.53074L179.011 9.51913ZM178.969 9.53074L178.983 9.5L179.011 9.51913L178.969 9.53074ZM153.992 64.6075L178.969 9.53074L179.021 9.55428L154.043 64.631L154.038 64.6382L153.992 64.6075ZM154.043 64.631L154.041 64.6349L154.038 64.6382L154.043 64.631ZM144.343 75.5001L153.996 64.6004L154.038 64.6382L144.385 75.5379L144.361 75.5472L144.343 75.5001ZM144.361 75.5472L144.306 75.541L144.343 75.5001L144.361 75.5472ZM160.281 77.3655L144.361 75.5472L144.367 75.4908L160.287 77.3092L160.302 77.3159L160.281 77.3655ZM160.287 77.3092L160.296 77.3102L160.302 77.3159L160.287 77.3092ZM170.148 85.9797L160.265 77.3588L160.302 77.3159L170.185 85.9368L170.191 85.9716L170.148 85.9797ZM170.185 85.9368L170.202 85.9517L170.191 85.9716L170.185 85.9368ZM157.338 109.919L170.141 85.9448L170.191 85.9716L157.388 109.946L157.349 109.957L157.338 109.919ZM157.349 109.957L157.325 109.943L157.338 109.919L157.349 109.957ZM161.041 112.136L157.349 109.957L157.377 109.908L161.07 112.087L161.06 112.14L161.041 112.136ZM161.06 112.14L161.05 112.142L161.041 112.136L161.06 112.14Z" fill="#BC6A54"/>
<path fill-rule="evenodd" clip-rule="evenodd" d="M89.4583 104.82L105.225 92.8429L108.731 79.0742L108.754 78.9111L86.271 76.0469L75.7327 86.6332L83.148 109.613L89.4583 104.82Z" fill="#E8C48A"/>
<path d="M105.245 92.8683L89.478 104.845L89.4434 104.8L105.211 92.8229L105.255 92.8526L105.245 92.8683ZM105.255 92.8526L105.253 92.8623L105.245 92.8683L105.255 92.8526ZM108.761 79.0838L105.255 92.8526L105.2 92.8386L108.706 79.0699L108.762 79.0808L108.761 79.0838ZM108.762 79.0808L108.762 79.0819L108.761 79.0838L108.762 79.0808ZM108.785 78.9177L108.762 79.0808L108.705 79.0729L108.728 78.9099L108.76 78.8855L108.785 78.9177ZM108.76 78.8855L108.788 78.8892L108.785 78.9177L108.76 78.8855ZM86.277 76.0213L108.76 78.8855L108.753 78.942L86.2698 76.0778L86.2531 76.0295L86.277 76.0213ZM86.2531 76.0295L86.2631 76.0195L86.277 76.0213L86.2531 76.0295ZM75.7148 86.6158L86.2531 76.0295L86.2936 76.0696L75.7553 86.6559L75.7079 86.6446L75.7148 86.6158ZM75.7079 86.6446L75.7026 86.6281L75.7148 86.6158L75.7079 86.6446ZM83.1233 109.625L75.7079 86.6446L75.7622 86.6271L83.1776 109.607L83.1677 109.638L83.1233 109.625ZM83.1677 109.638L83.1356 109.663L83.1233 109.625L83.1677 109.638ZM89.478 104.845L83.1677 109.638L83.1331 109.593L89.4434 104.8L89.478 104.845Z" fill="#E8C48A"/>
<path fill-rule="evenodd" clip-rule="evenodd" d="M170.24 85.9576L158.905 71.1309L136.016 75.3631L141.269 100.388L157.436 109.932L170.24 85.9576Z" fill="#E8C48A"/>
<path d="M158.928 71.1145L170.263 85.9412L170.218 85.9758L158.883 71.1491L158.901 71.1038L158.928 71.1145ZM158.901 71.1038L158.918 71.1006L158.928 71.1145L158.901 71.1038ZM136.011 75.3361L158.901 71.1038L158.911 71.1598L136.022 75.3921L135.989 75.3699L136.011 75.3361ZM135.989 75.3699L135.983 75.3413L136.011 75.3361L135.989 75.3699ZM141.243 100.395L135.989 75.3699L136.045 75.3582L141.298 100.383L141.256 100.414L141.243 100.395ZM141.256 100.414L141.245 100.407L141.243 100.395L141.256 100.414ZM157.423 109.957L141.256 100.414L141.285 100.365L157.452 109.908L157.463 109.946L157.423 109.957ZM157.463 109.946L157.449 109.972L157.423 109.957L157.463 109.946ZM170.266 85.9719L157.463 109.946L157.412 109.919L170.215 85.9452L170.263 85.9412L170.266 85.9719ZM170.263 85.9412L170.274 85.9558L170.266 85.9719L170.263 85.9412Z" fill="#E8C48A"/>
<path fill-rule="evenodd" clip-rule="evenodd" d="M18.6958 64.9746L29.0734 71.1181L41.4085 48.9605L31.5674 42.7529L18.6958 64.9746Z" fill="#BD9977"/>
<path d="M29.0591 71.1422L18.6815 64.9988L18.7103 64.9498L29.0879 71.0932L29.0982 71.1316L29.0591 71.1422ZM29.0982 71.1316L29.084 71.157L29.0591 71.1422L29.0982 71.1316ZM41.4333 48.974L29.0982 71.1316L29.0487 71.1039L41.3838 48.9463L41.4236 48.9361L41.4333 48.974ZM41.4236 48.9361L41.4463 48.9504L41.4333 48.974L41.4236 48.9361ZM31.5825 42.7286L41.4236 48.9361L41.3935 48.9841L31.5524 42.7766L31.5429 42.7383L31.5825 42.7286ZM31.5429 42.7383L31.5577 42.7129L31.5825 42.7286L31.5429 42.7383ZM18.6714 64.96L31.5429 42.7383L31.5919 42.7669L18.7204 64.9885L18.6815 64.9988L18.6714 64.96ZM18.6815 64.9988L18.6572 64.9844L18.6714 64.96L18.6815 64.9988Z" fill="#BD9977"/>
<path fill-rule="evenodd" clip-rule="evenodd" d="M197.257 22.0523L203.128 14.0293L222.857 28.6407L218.07 36.3674L197.257 22.0523Z" fill="#BD9977"/>
<path d="M203.151 14.0468L197.28 22.0698L197.235 22.0361L203.105 14.0131L203.145 14.0071L203.151 14.0468ZM203.105 14.0131L203.122 13.9902L203.145 14.0071L203.105 14.0131ZM222.84 28.6642L203.111 14.0528L203.145 14.0071L222.874 28.6186L222.881 28.6563L222.84 28.6642ZM222.874 28.6186L222.895 28.6342L222.881 28.6563L222.874 28.6186ZM218.046 36.353L222.833 28.6264L222.881 28.6563L218.094 36.383L218.054 36.3915L218.046 36.353ZM218.094 36.383L218.079 36.4083L218.054 36.3915L218.094 36.383ZM197.274 22.0295L218.086 36.3445L218.054 36.3915L197.242 22.0764L197.235 22.0361L197.274 22.0295ZM197.242 22.0764L197.218 22.0598L197.235 22.0361L197.242 22.0764Z" fill="#BD9977"/>
<path fill-rule="evenodd" clip-rule="evenodd" d="M146.179 83.082C148.973 83.082 151.238 85.1829 151.238 87.7745C151.238 90.3661 148.973 92.467 146.179 92.467C143.385 92.467 141.12 90.3661 141.12 87.7745C141.12 85.1829 143.385 83.082 146.179 83.082Z" fill="#532124"/>
<path d="M151.268 87.7766H151.211L151.204 87.5367L151.185 87.2999L151.153 87.0666L151.109 86.837L151.053 86.6114L150.985 86.3902L150.906 86.1735L150.816 85.9618L150.715 85.7552L150.604 85.5542L150.483 85.3588L150.352 85.1697L150.212 84.9868L150.063 84.8106L149.905 84.6413L149.738 84.4793L149.564 84.3249L149.381 84.1782L149.191 84.0397L148.994 83.9096L148.79 83.7883L148.579 83.6758L148.362 83.5728L148.139 83.4793L147.911 83.3958L147.677 83.3223L147.438 83.2595L147.195 83.2074L146.947 83.1663L146.695 83.1367L146.44 83.1186L146.181 83.1125V83.0557L146.442 83.0617L146.701 83.08L146.955 83.11L147.206 83.1515L147.452 83.2041L147.693 83.2677L147.929 83.3419L148.16 83.4263L148.386 83.5209L148.605 83.625L148.818 83.7386L149.024 83.8614L149.224 83.9929L149.416 84.133L149.601 84.2813L149.777 84.4376L149.946 84.6016L150.106 84.7728L150.257 84.9511L150.399 85.1362L150.531 85.3278L150.654 85.5255L150.766 85.7291L150.868 85.9383L150.959 86.1527L151.039 86.3721L151.108 86.5962L151.165 86.8248L151.209 87.0574L151.242 87.2937L151.261 87.5336L151.268 87.7766ZM146.181 92.4975V92.4407L146.44 92.4346L146.695 92.4165L146.947 92.3869L147.195 92.3458L147.438 92.2937L147.677 92.2309L147.911 92.1574L148.139 92.0739L148.362 91.9804L148.579 91.8773L148.79 91.7649L148.994 91.6436L149.191 91.5135L149.381 91.375L149.564 91.2283L149.738 91.0739L149.905 90.9118L150.063 90.7426L150.212 90.5663L150.352 90.3834L150.483 90.1943L150.604 89.999L150.715 89.7979L150.816 89.5914L150.906 89.3796L150.985 89.163L151.053 88.9417L151.109 88.7162L151.153 88.4866L151.185 88.2533L151.204 88.0165L151.211 87.7766H151.268L151.261 88.0196L151.242 88.2595L151.209 88.4958L151.165 88.7284L151.108 88.9569L151.039 89.1811L150.959 89.4004L150.868 89.6149L150.766 89.824L150.654 90.0277L150.531 90.2253L150.399 90.4169L150.257 90.602L150.106 90.7804L149.946 90.9515L149.777 91.1155L149.601 91.2719L149.416 91.4201L149.224 91.5602L149.024 91.6917L148.818 91.8146L148.605 91.9281L148.386 92.0323L148.16 92.1269L147.929 92.2113L147.693 92.2855L147.452 92.3491L147.206 92.4017L146.955 92.4432L146.701 92.4732L146.442 92.4915L146.181 92.4975ZM141.094 87.7766H141.151L141.157 88.0165L141.176 88.2533L141.208 88.4866L141.253 88.7162L141.309 88.9417L141.377 89.163L141.456 89.3796L141.546 89.5914L141.646 89.7979L141.757 89.999L141.878 90.1943L142.009 90.3834L142.149 90.5663L142.299 90.7426L142.457 90.9118L142.623 91.0739L142.798 91.2284L142.98 91.375L143.17 91.5135L143.368 91.6436L143.572 91.7649L143.782 91.8773L143.999 91.9804L144.222 92.0739L144.451 92.1574L144.684 92.2309L144.923 92.2937L145.167 92.3458L145.414 92.3869L145.666 92.4165L145.922 92.4346L146.181 92.4407V92.4975L145.919 92.4915L145.661 92.4732L145.406 92.4432L145.156 92.4017L144.91 92.3491L144.668 92.2855L144.432 92.2113L144.201 92.1269L143.976 92.0323L143.757 91.9281L143.544 91.8146L143.337 91.6917L143.138 91.5602L142.945 91.4201L142.761 91.2718L142.584 91.1155L142.416 90.9515L142.256 90.7804L142.105 90.602L141.963 90.4169L141.831 90.2253L141.708 90.0277L141.596 89.824L141.494 89.6149L141.402 89.4004L141.322 89.1811L141.254 88.9569L141.197 88.7284L141.152 88.4958L141.12 88.2595L141.1 88.0196L141.094 87.7766ZM146.181 83.0557V83.1125L145.922 83.1186L145.666 83.1367L145.414 83.1663L145.167 83.2074L144.923 83.2595L144.684 83.3223L144.451 83.3958L144.222 83.4793L143.999 83.5728L143.782 83.6758L143.572 83.7883L143.368 83.9096L143.17 84.0397L142.98 84.1782L142.798 84.3248L142.623 84.4793L142.457 84.6413L142.299 84.8106L142.149 84.9868L142.009 85.1697L141.878 85.3588L141.757 85.5542L141.646 85.7552L141.546 85.9618L141.456 86.1735L141.377 86.3902L141.309 86.6114L141.253 86.837L141.208 87.0666L141.176 87.2999L141.157 87.5367L141.151 87.7766H141.094L141.1 87.5336L141.12 87.2937L141.152 87.0574L141.197 86.8248L141.254 86.5962L141.322 86.3721L141.402 86.1527L141.494 85.9383L141.596 85.7291L141.708 85.5255L141.831 85.3278L141.963 85.1362L142.105 84.9511L142.256 84.7728L142.416 84.6016L142.584 84.4376L142.761 84.2814L142.945 84.133L143.138 83.9929L143.337 83.8614L143.544 83.7386L143.757 83.625L143.976 83.5209L144.201 83.4263L144.432 83.3419L144.668 83.2677L144.91 83.2041L145.156 83.1515L145.406 83.11L145.661 83.08L145.919 83.0617L146.181 83.0557Z" fill="#532124"/>
<path fill-rule="evenodd" clip-rule="evenodd" d="M96.355 85.6416C98.7643 85.6416 100.717 87.4533 100.717 89.6882C100.717 91.923 98.7643 93.7347 96.355 93.7347C93.9458 93.7347 91.9927 91.923 91.9927 89.6882C91.9927 87.4533 93.9458 85.6416 96.355 85.6416Z" fill="#532124"/>
<path d="M100.747 89.6903H100.69L100.685 89.4835L100.668 89.2796L100.64 89.0786L100.602 88.8808L100.554 88.6866L100.496 88.496L100.428 88.3093L100.35 88.1269L100.263 87.949L100.168 87.7757L100.063 87.6075L99.9508 87.4445L99.8299 87.2869L99.7013 87.1351L99.5651 86.9893L99.4217 86.8496L99.2712 86.7166L99.1139 86.5903L98.9503 86.471L98.7803 86.3588L98.6045 86.2543L98.4229 86.1575L98.236 86.0686L98.044 85.9881L97.8472 85.9161L97.6458 85.8528L97.44 85.7987L97.2303 85.7538L97.0167 85.7184L96.7998 85.6929L96.5796 85.6774L96.3564 85.6721V85.6152L96.5823 85.6205L96.8051 85.6362L97.0247 85.6621L97.241 85.6979L97.4533 85.7433L97.6616 85.7982L97.8656 85.8623L98.0649 85.9351L98.2594 86.0167L98.4487 86.1067L98.6325 86.2048L98.8107 86.3106L98.9828 86.4242L99.1487 86.5451L99.308 86.6732L99.4606 86.808L99.606 86.9496L99.7441 87.0973L99.8744 87.2512L99.9969 87.411L100.111 87.5764L100.217 87.7471L100.314 87.9227L100.402 88.1033L100.481 88.2885L100.55 88.4779L100.609 88.6714L100.658 88.8686L100.697 89.0693L100.725 89.2734L100.742 89.4805L100.747 89.6903ZM96.3564 93.7652V93.7084L96.5796 93.7031L96.7998 93.6875L97.0167 93.662L97.2303 93.6266L97.44 93.5817L97.6458 93.5276L97.8472 93.4643L98.044 93.3923L98.236 93.3118L98.4229 93.223L98.6045 93.1262L98.7803 93.0216L98.9503 92.9095L99.1139 92.7902L99.2712 92.6638L99.4217 92.5308L99.5651 92.3912L99.7013 92.2453L99.8299 92.0935L99.9508 91.936L100.063 91.773L100.168 91.6048L100.263 91.4315L100.35 91.2535L100.428 91.0712L100.496 90.8845L100.554 90.6939L100.602 90.4997L100.64 90.3018L100.668 90.1009L100.685 89.897L100.69 89.6903H100.747L100.742 89.9L100.725 90.1071L100.697 90.3111L100.658 90.5119L100.609 90.7091L100.55 90.9026L100.481 91.092L100.402 91.2771L100.314 91.4576L100.217 91.6334L100.111 91.804L99.9969 91.9694L99.8744 92.1292L99.7441 92.2831L99.606 92.4309L99.4606 92.5724L99.308 92.7072L99.1487 92.8353L98.9828 92.9562L98.8107 93.0698L98.6325 93.1757L98.4487 93.2737L98.2594 93.3637L98.0649 93.4453L97.8656 93.5181L97.6616 93.5822L97.4533 93.6371L97.241 93.6825L97.0247 93.7184L96.8051 93.7442L96.5823 93.7599L96.3564 93.7652ZM91.9656 89.6903H92.0226L92.0283 89.897L92.0449 90.1009L92.0725 90.3018L92.1106 90.4997L92.1588 90.6939L92.2173 90.8845L92.2853 91.0712L92.3628 91.2535L92.4495 91.4315L92.5453 91.6048L92.6495 91.773L92.7622 91.936L92.883 92.0935L93.0115 92.2453L93.1478 92.3912L93.2913 92.5308L93.4417 92.6638L93.5989 92.7902L93.7626 92.9095L93.9326 93.0216L94.1084 93.1262L94.29 93.223L94.4768 93.3118L94.6688 93.3923L94.8658 93.4643L95.0671 93.5276L95.2728 93.5817L95.4826 93.6266L95.6961 93.662L95.9131 93.6875L96.1333 93.7031L96.3564 93.7084V93.7652L96.1306 93.7599L95.9078 93.7442L95.6881 93.7184L95.4719 93.6825L95.2596 93.6371L95.0512 93.5822L94.8473 93.5181L94.648 93.4453L94.4535 93.3637L94.2642 93.2737L94.0804 93.1757L93.9022 93.0698L93.7301 92.9562L93.5642 92.8353L93.4049 92.7072L93.2523 92.5724L93.107 92.4309L92.9689 92.2831L92.8384 92.1292L92.716 91.9694L92.6018 91.804L92.496 91.6334L92.3989 91.4576L92.3109 91.2771L92.2322 91.092L92.1632 90.9026L92.1039 90.7091L92.0548 90.5119L92.0162 90.3111L91.9882 90.1071L91.9713 89.9L91.9656 89.6903ZM96.3564 85.6152V85.6721L96.1333 85.6774L95.9131 85.6929L95.6961 85.7184L95.4826 85.7538L95.2728 85.7987L95.0671 85.8528L94.8658 85.9161L94.6688 85.9881L94.4768 86.0686L94.29 86.1575L94.1084 86.2543L93.9326 86.3588L93.7626 86.471L93.5989 86.5903L93.4417 86.7166L93.2913 86.8496L93.1478 86.9893L93.0115 87.1351L92.883 87.2869L92.7622 87.4445L92.6495 87.6075L92.5453 87.7757L92.4495 87.949L92.3628 88.1269L92.2853 88.3093L92.2173 88.496L92.1588 88.6866L92.1106 88.8808L92.0725 89.0786L92.0449 89.2796L92.0283 89.4835L92.0226 89.6903H91.9656L91.9713 89.4805L91.9882 89.2734L92.0162 89.0693L92.0548 88.8686L92.1039 88.6714L92.1632 88.4779L92.2322 88.2885L92.3109 88.1033L92.3989 87.9227L92.496 87.7471L92.6018 87.5764L92.716 87.411L92.8384 87.2512L92.9689 87.0973L93.107 86.9496L93.2523 86.808L93.4049 86.6732L93.5642 86.5451L93.7301 86.4242L93.9022 86.3106L94.0804 86.2048L94.2642 86.1067L94.4535 86.0167L94.648 85.9351L94.8473 85.8623L95.0512 85.7982L95.2596 85.7433L95.4719 85.6979L95.6881 85.6621L95.9078 85.6362L96.1306 85.6205L96.3564 85.6152Z" fill="#532124"/>
<path fill-rule="evenodd" clip-rule="evenodd" d="M135.942 75.3642L138.96 63.0295L148.858 62.6862L154.017 64.6197L178.995 9.54289L182.869 1L44.3162 24.8854L51.1259 31.3701L90.1583 68.5399L94.858 65.808L104.999 65.1369L108.682 78.9134L108.659 79.0764L109.53 75.6564L135.942 75.3642Z" fill="#D9937B"/>
<path d="M135.942 75.3642L138.96 63.0295L148.858 62.6862L154.017 64.6197L178.995 9.54289L182.869 1L44.3162 24.8854L51.1259 31.3701L90.1583 68.5399L94.858 65.808L104.999 65.1369L108.682 78.9134L108.659 79.0764L109.53 75.6564L135.942 75.3642Z" stroke="#D9937B" stroke-width="0.0762" stroke-miterlimit="22.9256"/>
<path fill-rule="evenodd" clip-rule="evenodd" d="M228.092 99.7275L161.13 112.112L181.979 124.419L165.093 164.674L145.465 158.894L141.906 200.374L225.867 169.129L241.963 97.1621L228.092 99.7275Z" fill="#A65C49"/>
<path d="M161.124 112.084L228.087 99.6991L228.097 99.755L161.135 112.14L161.115 112.136L161.124 112.084ZM161.115 112.136L161.05 112.098L161.124 112.084L161.115 112.136ZM181.964 124.443L161.115 112.136L161.144 112.087L181.993 124.394L182.005 124.43L181.964 124.443ZM181.993 124.394L182.014 124.407L182.005 124.43L181.993 124.394ZM165.067 164.662L181.952 124.407L182.005 124.43L165.119 164.684L165.085 164.7L165.067 164.662ZM165.119 164.684L165.11 164.708L165.085 164.7L165.119 164.684ZM145.473 158.866L165.101 164.646L165.085 164.7L145.457 158.921L145.437 158.891L145.473 158.866ZM145.437 158.891L145.44 158.856L145.473 158.866L145.437 158.891ZM141.877 200.371L145.437 158.891L145.493 158.896L141.934 200.376L141.915 200.4L141.877 200.371ZM141.915 200.4L141.874 200.416L141.877 200.371L141.915 200.4ZM225.877 169.155L141.915 200.4L141.896 200.347L225.857 169.101L225.894 169.134L225.877 169.155ZM225.894 169.134L225.891 169.149L225.877 169.155L225.894 169.134ZM241.991 97.1679L225.894 169.134L225.839 169.122L241.935 97.1554L241.958 97.1337L241.991 97.1679ZM241.958 97.1337L242 97.126L241.991 97.1679L241.958 97.1337ZM228.087 99.6991L241.958 97.1337L241.968 97.1896L228.097 99.755L228.087 99.6991Z" fill="#A65C49"/>
<path fill-rule="evenodd" clip-rule="evenodd" d="M83.1505 109.615L75.7351 86.6354L86.2735 76.0491L82.0813 74.6899L82.5911 72.9819L90.2327 68.5398L51.2004 31.3701L1 121.546L73.1051 141.261L66.9383 121.93L83.1505 109.615Z" fill="#A65C49"/>
<path d="M83.1505 109.615L75.7351 86.6354L86.2735 76.0491L82.0813 74.6899L82.5911 72.9819L90.2327 68.5398L51.2004 31.3701L1 121.546L73.1051 141.261L66.9383 121.93L83.1505 109.615Z" stroke="#A65C49" stroke-width="0.0762" stroke-miterlimit="22.9256"/>
<path fill-rule="evenodd" clip-rule="evenodd" d="M17.8437 126.101L5.125 163.779L87.1288 216.024L140.933 210.936L141.904 200.372L145.163 162.387L76.0894 150.619L73.1034 141.259L17.8437 126.101Z" fill="#BC6A54"/>
<path d="M5.0999 163.772L17.8186 126.094L17.8723 126.112L5.15354 163.79L5.11151 163.805L5.0999 163.772ZM5.11151 163.805L5.09277 163.793L5.0999 163.772L5.11151 163.805ZM87.1153 216.05L5.11151 163.805L5.14193 163.757L87.1458 216.002L87.1332 216.054L87.1153 216.05ZM87.1332 216.054L87.1236 216.055L87.1153 216.05L87.1332 216.054ZM140.937 210.967L87.1332 216.054L87.1279 215.998L140.932 210.91L140.962 210.941L140.937 210.967ZM140.962 210.941L140.96 210.964L140.937 210.967L140.962 210.941ZM141.934 200.377L140.962 210.941L140.906 210.936L141.878 200.371L141.934 200.376V200.377ZM141.934 200.376V200.377L141.934 200.38L141.934 200.376ZM145.193 162.391L141.934 200.376L141.878 200.372L145.137 162.386L145.17 162.361L145.193 162.391ZM145.17 162.361L145.196 162.365L145.193 162.391L145.17 162.361ZM76.0958 150.593L145.17 162.361L145.16 162.417L76.0864 150.649L76.0641 150.63L76.0958 150.593ZM76.0864 150.649L76.0694 150.646L76.0641 150.63L76.0864 150.649ZM73.1321 141.253L76.1181 150.613L76.0641 150.63L73.0781 141.27L73.1126 141.234L73.1321 141.253ZM73.1126 141.234L73.1275 141.238L73.1321 141.253L73.1126 141.234ZM17.8529 126.075L73.1126 141.234L73.0977 141.289L17.838 126.13L17.8186 126.094L17.8529 126.075ZM17.8186 126.094L17.8272 126.068L17.8529 126.075L17.8186 126.094Z" fill="#BC6A54"/>
<path fill-rule="evenodd" clip-rule="evenodd" d="M84.527 66.4909L82.0801 74.6893L107.675 82.9887L112.397 64.6465L84.527 66.4909Z" fill="#532124"/>
<path d="M82.0541 74.682L84.501 66.4836L84.5556 66.4999L82.1087 74.6983L82.0726 74.7172L82.0541 74.682ZM82.0726 74.7172L82.0461 74.7086L82.0541 74.682L82.0726 74.7172ZM107.668 83.0166L82.0726 74.7172L82.0901 74.6631L107.685 82.9624L107.704 82.9966L107.668 83.0166ZM107.704 82.9966L107.697 83.0259L107.668 83.0166L107.704 82.9966ZM112.426 64.6544L107.704 82.9966L107.649 82.9824L112.371 64.6402L112.397 64.6189L112.426 64.6544ZM112.397 64.6189L112.436 64.6162L112.426 64.6544L112.397 64.6189ZM84.5263 66.4633L112.397 64.6189L112.4 64.6757L84.5302 66.5201L84.501 66.4836L84.5263 66.4633ZM84.501 66.4836L84.5066 66.4646L84.5263 66.4633L84.501 66.4836Z" fill="#532124"/>
<path fill-rule="evenodd" clip-rule="evenodd" d="M136.974 79.4058L133.724 63.2089L160.668 62.2744L163.039 69.5692L136.974 79.4058Z" fill="#532124"/>
<path d="M133.754 63.205L137.005 79.402L136.949 79.4133L133.698 63.2164L133.725 63.1823L133.754 63.205ZM133.698 63.2164L133.691 63.1835L133.725 63.1823L133.698 63.2164ZM160.672 62.3046L133.727 63.2391L133.725 63.1823L160.67 62.2478L160.698 62.2674L160.672 62.3046ZM160.67 62.2478L160.691 62.2471L160.698 62.2674L160.67 62.2478ZM163.014 69.5798L160.643 62.285L160.698 62.2674L163.068 69.5622L163.051 69.5977L163.014 69.5798ZM163.068 69.5622L163.077 69.588L163.051 69.5977L163.068 69.5622ZM136.967 79.381L163.031 69.5443L163.051 69.5977L136.987 79.4343L136.949 79.4133L136.967 79.381ZM136.987 79.4343L136.955 79.4461L136.949 79.4133L136.987 79.4343Z" fill="#532124"/>
<path fill-rule="evenodd" clip-rule="evenodd" d="M137.228 141.725L123.433 151.791C110.837 135.659 80.2102 137.524 94.6878 121.358C95.8759 122.02 96.8652 120.466 98.0502 121.035L99.3432 115.957L105.228 92.8447L83.1507 109.615L66.9385 121.93L76.0912 150.62L99.2887 163.08L111.321 166.594L122.486 161.745L132.428 171.26L148.169 167.399L148.154 169.022L165.094 164.673L181.979 124.418L157.438 109.932L141.271 100.389L143.181 118.162L153.284 132.792L137.228 141.725Z" fill="#EDCFA5"/>
<path d="M137.228 141.725L123.433 151.791C110.837 135.659 80.2102 137.524 94.6878 121.358C95.8759 122.02 96.8652 120.466 98.0502 121.035L99.3432 115.957L105.228 92.8447L83.1507 109.615L66.9385 121.93L76.0912 150.62L99.2887 163.08L111.321 166.595L122.486 161.745L132.428 171.26L148.169 167.399L148.154 169.022L165.094 164.673L181.979 124.418L157.438 109.932L141.271 100.389L143.181 118.162L153.284 132.792L137.228 141.725V141.725Z" stroke="#EDCFA5" stroke-width="0.0762" stroke-miterlimit="22.9256"/>
<path fill-rule="evenodd" clip-rule="evenodd" d="M96.7817 126.011L122.286 133.111L145.957 122.719L141.269 100.389L136.016 75.3643L109.603 75.6565L96.7817 126.011Z" fill="#D69F4B"/>
<path d="M122.28 133.139L96.7751 126.039L96.7905 125.984L122.295 133.084L122.299 133.138L122.28 133.139ZM122.299 133.138L122.29 133.142L122.28 133.139L122.299 133.138ZM145.97 122.745L122.299 133.138L122.276 133.086L145.947 122.693L145.986 122.713L145.97 122.745ZM145.986 122.713L145.991 122.736L145.97 122.745L145.986 122.713ZM141.298 100.384L145.986 122.713L145.93 122.725L141.243 100.396L141.298 100.384ZM136.045 75.3588L141.298 100.384L141.243 100.396L135.989 75.3704L136.016 75.3362L136.045 75.3588ZM136.016 75.3362L136.04 75.3359L136.045 75.3588L136.016 75.3362ZM109.604 75.6284L136.016 75.3362L136.017 75.393L109.605 75.6852L109.577 75.6498L109.604 75.6284ZM109.577 75.6498L109.582 75.6286L109.604 75.6284L109.577 75.6498ZM96.7552 126.005L109.577 75.6498L109.632 75.6638L96.8104 126.019L96.7751 126.039L96.7552 126.005ZM96.7751 126.039L96.7483 126.032L96.7552 126.005L96.7751 126.039Z" fill="#D69F4B"/>
<path fill-rule="evenodd" clip-rule="evenodd" d="M97.7634 86.9902C98.6892 86.9902 99.4397 87.7407 99.4397 88.6666C99.4397 89.5923 98.6892 90.3428 97.7634 90.3428C96.8376 90.3428 96.0872 89.5923 96.0872 88.6666C96.0872 87.7407 96.8376 86.9902 97.7634 86.9902Z" fill="#FEFEFE"/>
<path d="M97.7634 86.9902C98.6892 86.9902 99.4397 87.7407 99.4397 88.6666C99.4397 89.5923 98.6892 90.3428 97.7634 90.3428C96.8376 90.3428 96.0872 89.5923 96.0872 88.6666C96.0872 87.7407 96.8376 86.9902 97.7634 86.9902Z" stroke="#FEFEFE" stroke-width="0.0762" stroke-miterlimit="22.9256"/>
<path fill-rule="evenodd" clip-rule="evenodd" d="M147.176 84.4746C148.218 84.4746 149.062 85.3191 149.062 86.3608C149.062 87.4026 148.218 88.2471 147.176 88.2471C146.134 88.2471 145.29 87.4026 145.29 86.3608C145.29 85.3191 146.134 84.4746 147.176 84.4746Z" fill="#FEFEFE"/>
<path d="M147.176 84.4746C148.218 84.4746 149.062 85.3191 149.062 86.3608C149.062 87.4026 148.218 88.2471 147.176 88.2471C146.134 88.2471 145.29 87.4026 145.29 86.3608C145.29 85.3191 146.134 84.4746 147.176 84.4746Z" stroke="#FEFEFE" stroke-width="0.0762" stroke-miterlimit="22.9256"/>
<path fill-rule="evenodd" clip-rule="evenodd" d="M126.897 134.702L127.839 139.795L144.78 133.538L142.741 129.027L126.897 134.702Z" fill="#D8DFD8"/>
<path d="M127.811 139.8L126.869 134.707L126.926 134.697L127.867 139.789L127.849 139.821L127.811 139.8ZM127.849 139.821L127.817 139.833L127.811 139.8L127.849 139.821ZM144.79 133.564L127.849 139.821L127.829 139.768L144.77 133.511L144.806 133.526L144.79 133.564ZM144.806 133.526L144.818 133.554L144.79 133.564L144.806 133.526ZM142.767 129.015L144.806 133.526L144.754 133.549L142.715 129.039L142.731 129L142.767 129.015ZM142.731 129L142.756 128.991L142.767 129.015L142.731 129ZM126.888 134.675L142.731 129L142.75 129.054L126.907 134.728L126.869 134.707L126.888 134.675ZM126.869 134.707L126.865 134.683L126.888 134.675L126.869 134.707Z" fill="#D8DFD8"/>
<path fill-rule="evenodd" clip-rule="evenodd" d="M122.485 161.746L111.389 165.689L101.803 158.58L97.9621 162.424L95.6589 164.729L110.887 175.78L134.676 176.549L144.597 171.483L148.366 169.559L148.391 166.827L148.406 165.204L131.825 170.73L122.485 161.746Z" fill="#CFAB78"/>
<path d="M111.38 165.662L122.476 161.719L122.495 161.773L111.399 165.716L111.373 165.712L111.38 165.662ZM111.399 165.716L111.385 165.721L111.373 165.712L111.399 165.716ZM101.82 158.557L111.407 165.666L111.373 165.712L101.787 158.603L101.784 158.56L101.82 158.557ZM101.784 158.56L101.801 158.543L101.82 158.557L101.784 158.56ZM97.9425 162.404L101.784 158.56L101.824 158.6L97.9825 162.444L97.9425 162.404ZM95.6393 164.709L97.9425 162.404L97.9825 162.444L95.6793 164.749L95.6427 164.752L95.6393 164.709ZM95.6427 164.752L95.6157 164.732L95.6393 164.709L95.6427 164.752ZM110.871 175.804L95.6427 164.752L95.6758 164.706L110.904 175.758L110.887 175.809L110.871 175.804ZM110.887 175.809L110.878 175.809L110.871 175.804L110.887 175.809ZM134.676 176.577L110.887 175.809L110.888 175.752L134.678 176.521L134.69 176.574L134.676 176.577ZM134.69 176.574L134.683 176.578L134.676 176.577L134.69 176.574ZM144.61 171.509L134.69 176.574L134.664 176.524L144.585 171.458L144.61 171.509ZM148.379 169.584L144.61 171.509L144.585 171.458L148.354 169.534L148.395 169.559L148.379 169.584ZM148.395 169.559L148.395 169.577L148.379 169.584L148.395 169.559ZM148.419 166.828L148.395 169.559L148.338 169.559L148.363 166.827L148.419 166.828ZM148.434 165.205L148.419 166.828L148.363 166.827L148.378 165.204L148.397 165.177L148.434 165.205ZM148.397 165.177L148.435 165.165L148.434 165.205L148.397 165.177ZM131.817 170.703L148.397 165.177L148.415 165.231L131.835 170.757L131.806 170.75L131.817 170.703ZM131.835 170.757L131.818 170.762L131.806 170.75L131.835 170.757ZM122.505 161.726L131.845 170.709L131.806 170.75L122.466 161.767L122.476 161.719L122.505 161.726ZM122.476 161.719L122.493 161.713L122.505 161.726L122.476 161.719Z" fill="#CFAB78"/>
<path d="M121.372 161.64L122.449 150.347L124.675 150.558L123.599 161.851L121.71 162.549L121.372 161.64ZM121.71 162.549L121.321 162.176L121.372 161.64L121.71 162.549ZM131.049 171.533L121.71 162.549L123.262 160.942L132.602 169.926L132.188 171.785L131.049 171.533ZM132.188 171.785L131.542 172.007L131.049 171.533L132.188 171.785ZM151.608 165.138L132.188 171.785L131.463 169.674L150.882 163.026L151.608 165.138ZM111.014 164.637L122.11 160.694L122.861 162.797L111.765 166.74L110.721 166.583L111.014 164.637ZM111.765 166.74L111.201 166.941L110.721 166.583L111.765 166.74ZM90.6832 148.878L112.058 164.794L110.721 166.583L89.3457 150.667L90.6832 148.878Z" fill="#532124"/>
<path fill-rule="evenodd" clip-rule="evenodd" d="M93.0059 118.337L86.7625 132.18C100.438 140.013 109.02 145.377 123.449 151.791L159.022 132.431C155.64 127.145 152.259 121.86 148.877 116.574C129.846 127.055 113.159 128.389 93.0059 118.337Z" fill="#532124"/>
<path d="M86.6957 132.15L92.9391 118.308L93.0743 118.369L86.8308 132.212L86.7265 132.246L86.6957 132.15ZM86.7265 132.246L86.6677 132.212L86.6957 132.15L86.7265 132.246ZM123.414 151.727L123.485 151.858L123.419 151.86L122.083 151.262L120.779 150.669L119.505 150.081L118.26 149.497L117.04 148.916L115.845 148.339L114.673 147.764L113.52 147.19L112.386 146.618L111.268 146.046L110.164 145.473L109.072 144.9L107.991 144.325L106.918 143.748L105.851 143.168L104.788 142.584L103.728 141.996L102.668 141.404L101.606 140.806L100.54 140.202L99.4683 139.591L98.3891 138.973L97.2999 138.347L96.199 137.712L95.0843 137.068L93.9538 136.414L92.8054 135.75L91.6373 135.074L90.4473 134.386L89.2336 133.686L87.994 132.973L86.7265 132.246L86.8 132.116L88.0676 132.844L89.3074 133.557L90.5213 134.257L91.7113 134.945L92.8794 135.621L94.0278 136.285L95.1583 136.939L96.2728 137.583L97.3737 138.218L98.4626 138.844L99.5417 139.462L100.613 140.072L101.678 140.676L102.74 141.274L103.8 141.866L104.86 142.453L105.922 143.037L106.988 143.616L108.061 144.193L109.141 144.768L110.232 145.341L111.335 145.913L112.453 146.485L113.586 147.057L114.738 147.63L115.91 148.205L117.104 148.782L118.323 149.362L119.567 149.945L120.841 150.533L122.144 151.126L123.479 151.724L123.414 151.727ZM123.485 151.858L123.453 151.875L123.419 151.86L123.485 151.858ZM159.058 132.497L123.485 151.858L123.414 151.727L158.987 132.366L159.085 132.391L159.058 132.497ZM159.085 132.391L159.128 132.459L159.058 132.497L159.085 132.391ZM148.914 116.641L148.843 116.51L148.941 116.535L149.258 117.031L149.575 117.526L149.892 118.022L150.209 118.517L150.526 119.013L150.843 119.508L151.16 120.004L151.477 120.499L151.794 120.995L152.111 121.49L152.428 121.986L152.745 122.481L153.062 122.977L153.379 123.472L153.696 123.968L154.013 124.463L154.33 124.959L154.647 125.454L154.964 125.95L155.281 126.445L155.598 126.941L155.915 127.436L156.232 127.932L156.549 128.427L156.866 128.923L157.183 129.418L157.5 129.914L157.817 130.409L158.134 130.905L158.451 131.4L158.768 131.896L159.085 132.391L158.96 132.472L158.643 131.976L158.326 131.481L158.009 130.985L157.692 130.49L157.375 129.994L157.058 129.499L156.741 129.003L156.424 128.508L156.107 128.012L155.79 127.517L155.473 127.021L155.156 126.526L154.839 126.03L154.522 125.535L154.205 125.039L153.888 124.544L153.571 124.048L153.254 123.553L152.937 123.057L152.62 122.562L152.303 122.066L151.986 121.571L151.669 121.075L151.352 120.58L151.035 120.084L150.718 119.589L150.401 119.093L150.084 118.598L149.767 118.102L149.45 117.607L149.133 117.111L148.816 116.616L148.914 116.641ZM148.843 116.51L148.903 116.477L148.941 116.535L148.843 116.51ZM93.0743 118.369L92.9391 118.308L93.0397 118.272L94.9175 119.18L96.7758 120.022L98.616 120.798L100.439 121.509L102.246 122.154L104.037 122.735L105.815 123.252L107.58 123.705L109.332 124.095L111.074 124.421L112.807 124.685L114.53 124.887L116.246 125.028L117.956 125.106L119.66 125.125L121.36 125.082L123.056 124.98L124.751 124.818L126.444 124.596L128.137 124.316L129.831 123.977L131.528 123.581L133.227 123.126L134.931 122.615L136.64 122.046L138.356 121.422L140.079 120.741L141.81 120.004L143.551 119.212L145.303 118.366L147.066 117.465L148.843 116.51L148.914 116.641L147.135 117.597L145.369 118.499L143.614 119.348L141.87 120.141L140.135 120.879L138.408 121.561L136.689 122.187L134.976 122.757L133.268 123.27L131.564 123.725L129.863 124.123L128.164 124.463L126.466 124.744L124.767 124.966L123.068 125.128L121.366 125.231L119.661 125.274L117.952 125.256L116.237 125.176L114.516 125.036L112.787 124.833L111.05 124.568L109.303 124.241L107.545 123.85L105.776 123.396L103.994 122.878L102.198 122.295L100.387 121.648L98.5604 120.936L96.7166 120.159L94.8547 119.315L92.9737 118.405L93.0743 118.369ZM92.9391 118.308L92.9708 118.237L93.0397 118.272L92.9391 118.308Z" fill="#532124"/>
<path fill-rule="evenodd" clip-rule="evenodd" d="M127.514 133.213L128.48 138.763L145.87 131.945L143.777 127.029L127.514 133.213Z" fill="#FEFEFE"/>
<path d="M128.408 138.776L127.442 133.226L127.588 133.201L128.554 138.751L128.508 138.833L128.408 138.776ZM128.508 138.833L128.423 138.866L128.408 138.776L128.508 138.833ZM145.899 132.014L128.508 138.833L128.454 138.694L145.845 131.876L145.94 131.916L145.899 132.014ZM145.94 131.916L145.97 131.987L145.899 132.014L145.94 131.916ZM143.846 127L145.94 131.916L145.803 131.974L143.71 127.059L143.752 126.96L143.846 127ZM143.752 126.96L143.818 126.935L143.846 127L143.752 126.96ZM127.489 133.144L143.752 126.96L143.805 127.099L127.541 133.283L127.442 133.226L127.489 133.144ZM127.442 133.226L127.431 133.166L127.489 133.144L127.442 133.226Z" fill="#FEFEFE"/>
<path fill-rule="evenodd" clip-rule="evenodd" d="M153.251 175.023H209.721L223.083 189.101V274.579H153.251V175.023Z" fill="#FEFEFE"/>
<path fill-rule="evenodd" clip-rule="evenodd" d="M224.184 189.689L209.801 175.107L209.722 189.654L223.084 189.686V274.579H172.856L172.923 276.649H224.233L224.184 189.689Z" fill="#C5C6C6"/>
<path d="M211.278 198.744H165.056C164.063 198.744 163.257 199.17 163.257 199.695V200.477C163.257 201.003 164.063 201.429 165.056 201.429H211.278C212.272 201.429 213.077 201.003 213.077 200.477V199.695C213.077 199.17 212.272 198.744 211.278 198.744Z" fill="#B2B3B3"/>
<path d="M204.999 259.704H184.712C184.276 259.704 183.922 260.13 183.922 260.655V261.437C183.922 261.963 184.276 262.389 184.712 262.389H204.999C205.435 262.389 205.788 261.963 205.788 261.437V260.655C205.788 260.13 205.435 259.704 204.999 259.704Z" fill="#B2B3B3"/>
<path d="M211.278 221.272H165.056C164.063 221.272 163.257 221.698 163.257 222.224V223.006C163.257 223.531 164.063 223.957 165.056 223.957H211.278C212.272 223.957 213.077 223.531 213.077 223.006V222.224C213.077 221.698 212.272 221.272 211.278 221.272Z" fill="#B2B3B3"/>
<path d="M211.278 206.254H165.056C164.063 206.254 163.257 206.68 163.257 207.205V207.987C163.257 208.513 164.063 208.939 165.056 208.939H211.278C212.272 208.939 213.077 208.513 213.077 207.987V207.205C213.077 206.68 212.272 206.254 211.278 206.254Z" fill="#B2B3B3"/>
<path d="M211.278 228.782H165.056C164.063 228.782 163.257 229.208 163.257 229.733V230.516C163.257 231.041 164.063 231.467 165.056 231.467H211.278C212.272 231.467 213.077 231.041 213.077 230.516V229.733C213.077 229.208 212.272 228.782 211.278 228.782Z" fill="#B2B3B3"/>
<path d="M211.278 213.764H165.056C164.063 213.764 163.257 214.19 163.257 214.715V215.497C163.257 216.022 164.063 216.448 165.056 216.448H211.278C212.272 216.448 213.077 216.022 213.077 215.497V214.715C213.077 214.19 212.272 213.764 211.278 213.764Z" fill="#B2B3B3"/>
<path fill-rule="evenodd" clip-rule="evenodd" d="M229.321 205.691L212.502 206.419L207.777 250.32L228.944 250.886L229.321 205.691Z" fill="#BD9977"/>
<path d="M229.321 205.691L212.502 206.419L207.777 250.32L228.944 250.886L229.321 205.691Z" stroke="#BD9977" stroke-width="0.0762" stroke-miterlimit="22.9256"/>
<path d="M170.408 262.712C174.582 262.712 177.964 259.33 177.964 255.157C177.964 250.983 174.582 247.601 170.408 247.601C166.235 247.601 162.853 250.983 162.853 255.157C162.853 259.33 166.235 262.712 170.408 262.712Z" fill="#91200C"/>
<path d="M170.409 261.313C173.809 261.313 176.565 258.556 176.565 255.156C176.565 251.756 173.809 249 170.409 249C167.009 249 164.252 251.756 164.252 255.156C164.252 258.556 167.009 261.313 170.409 261.313Z" fill="#FEFEFE"/>
<path d="M170.409 259.999C173.083 259.999 175.252 257.83 175.252 255.156C175.252 252.481 173.083 250.312 170.409 250.312C167.734 250.312 165.565 252.481 165.565 255.156C165.565 257.83 167.734 259.999 170.409 259.999Z" fill="#91200C"/>
</svg>
