<svg width="81" height="70" viewBox="0 0 81 70" fill="none" xmlns="http://www.w3.org/2000/svg">
<path d="M67.1229 10.0381C67.1474 10.0136 67.0983 10.0136 67 10.0873C67 10.1119 67.0246 10.0873 67.1229 10.0381Z" fill="#7D88A3"/>
<path d="M67.1719 10.0107C67.1968 9.98584 67.2217 9.98584 67.2466 9.96094C67.2217 9.98584 67.1968 9.98584 67.1719 10.0107Z" fill="#7D88A3"/>
<path d="M66.875 10.1854C66.9733 10.1362 67.047 10.0871 67.0716 10.0625C67.0224 10.1116 66.9487 10.1362 66.875 10.1854C66.875 10.1854 66.8996 10.1854 66.875 10.1854Z" fill="#7D88A3"/>
<path d="M67.0977 10.0654C67.1226 10.0405 67.1475 10.0405 67.1724 10.0156C67.1475 10.0156 67.1475 10.0405 67.1226 10.0405C67.1226 10.0405 67.0977 10.0654 67.0977 10.0654Z" fill="#7D88A3"/>
<path d="M45.1781 9.22671C45.1781 9.25128 45.1535 9.25128 45.1535 9.25128L45.1289 9.27585C45.2272 9.15298 45.2764 9.07926 45.3009 9.05469C45.2764 9.07926 45.2518 9.10384 45.2272 9.15298C45.2026 9.17756 45.1781 9.20213 45.1781 9.22671Z" fill="#7D88A3"/>
<path d="M60.0698 8.36946C60.0452 8.34489 60.0207 8.34489 59.9961 8.32031C60.1927 8.49233 60.2418 8.51691 60.2173 8.49233C60.1681 8.46776 60.1435 8.41861 60.0944 8.39403C60.0944 8.39403 60.0698 8.36946 60.0698 8.36946Z" fill="#7D88A3"/>
<path d="M37.9528 56.3125C37.8299 56.3616 37.7562 56.3862 37.707 56.4108C37.7562 56.3862 37.8299 56.3616 37.879 56.3371C37.9036 56.3371 37.9282 56.3371 37.9528 56.3125Z" fill="#7D88A3"/>
<path d="M21.7812 46.3585C21.8795 45.9161 21.8304 46.0882 21.8058 46.2602V46.2847C21.8058 46.3093 21.8058 46.3339 21.7812 46.3585Z" fill="#7D88A3"/>
<path d="M22.5929 43.4062C22.5192 43.6028 22.4455 43.9715 22.5929 43.4062V43.4062Z" fill="#7D88A3"/>
<path d="M35.1748 32.8203C35.0028 32.8695 34.5605 33.1152 35.1748 32.8203V32.8203Z" fill="#7D88A3"/>
<path d="M7.57831 62.3074C9.1019 62.9955 10.6501 63.4869 12.3211 63.5115C13.7218 63.5361 15.0488 63.1921 16.3267 62.6269C17.9977 61.8896 19.3739 60.6118 20.6026 59.2848C21.1186 59.9483 21.6838 60.4889 22.3719 61.005C23.0108 61.4719 23.748 61.8405 24.5344 62.0862L26.7215 63.5115H43.2107H50.288L48.961 59.9729L46.1104 57.4417C46.1104 57.4417 45.4961 57.3189 44.7834 57.2451C46.5773 55.525 47.8306 53.3379 47.806 50.733C47.7815 48.2756 46.5036 45.6216 45.0783 43.6803C44.5623 42.8693 43.653 42.3533 42.7929 42.0092C41.982 41.6898 41.0727 41.5915 40.2126 41.5423C39.3526 41.4932 38.4187 41.5178 37.6078 41.7635C35.9613 42.2795 34.1429 43.6311 34.1429 43.6311L38.001 46.236C38.001 46.236 40.0161 45.597 40.483 45.6708C40.9007 45.7199 41.2448 46.1377 41.3431 46.236C41.3431 46.236 41.3431 46.236 41.3676 46.2605C41.3676 46.2851 41.3922 46.2851 41.3922 46.3097C41.7117 46.752 42.0066 47.1944 42.3014 47.6613C42.5472 48.0544 42.8175 48.6197 42.8912 48.8162C42.9158 48.9145 42.9649 49.0128 42.9895 49.1111C43.0632 49.3077 43.1124 49.5043 43.1615 49.7009C43.2107 49.8729 43.2353 50.0449 43.2844 50.217C43.2844 50.2415 43.2844 50.2661 43.2844 50.2907V50.3153C43.309 50.6347 43.309 50.9542 43.2844 51.2736C43.2598 51.4457 43.2107 51.6177 43.1615 51.7897C43.1124 51.9126 43.0878 52.06 43.0387 52.1829C42.8912 52.4778 42.7438 52.7481 42.5472 53.043C42.5226 53.0921 42.4243 53.1904 42.3752 53.2641C42.3506 53.2887 42.326 53.3133 42.326 53.3133C42.1048 53.559 41.8837 53.8048 41.6379 54.0259C41.4413 54.198 41.2448 54.37 41.0236 54.542C40.8761 54.6403 40.7287 54.7632 40.5813 54.8615C40.0652 55.2055 39.5491 55.5004 39.0085 55.7953C38.7628 55.9181 38.4925 56.0656 38.2222 56.1639C38.1484 56.1885 38.0747 56.2376 38.001 56.2622C38.0501 56.2376 38.0993 56.213 38.173 56.1885C38.0993 56.213 38.0256 56.2376 37.9518 56.2868C37.9518 56.2868 37.9518 56.2868 37.9273 56.2868C37.9027 56.2868 37.9027 56.3113 37.8781 56.3113C37.7552 56.3605 37.6078 56.4096 37.7552 56.3605C37.0426 56.6308 36.3299 56.9011 35.5682 57.0731C34.1674 57.3926 32.7667 57.712 31.366 57.9578C30.9728 58.0315 30.5796 58.0807 30.1864 58.1544C30.1373 58.1544 30.0881 58.1544 30.0636 58.179C29.8915 58.2035 29.7195 58.2281 29.5475 58.2281C29.2035 58.2527 28.8594 58.2773 28.4908 58.2773C28.3434 58.2773 28.2205 58.2773 28.0731 58.2773C27.2621 58.1052 26.4266 57.9086 25.6402 57.6138C25.3699 57.4909 25.0996 57.3434 24.8539 57.1714C24.6327 56.9748 24.4115 56.7537 24.2149 56.5325C23.9692 56.1639 23.748 55.7707 23.5514 55.3529C23.5269 55.2546 23.4531 55.1318 23.4286 55.0335C22.7651 53.2396 22.1753 51.3719 21.8804 49.4797C21.8558 49.234 21.8313 48.9883 21.8067 48.7425C21.7575 48.2019 21.7575 47.6613 21.7821 47.1206C21.7821 46.8503 21.8067 46.6046 21.8313 46.3343C21.8313 46.3588 21.8313 46.3834 21.8067 46.408C21.8067 46.3588 21.8313 46.3097 21.8313 46.2605V46.236C21.8558 46.1131 21.8558 46.0148 21.8804 45.8919C21.9787 45.4005 22.1016 44.909 22.249 44.4175C22.3227 44.1718 22.3965 43.9506 22.4948 43.7048C22.5439 43.582 22.5931 43.4837 22.6422 43.3608C22.6422 43.3854 22.6422 43.3854 22.6422 43.41C22.6422 43.41 22.6422 43.41 22.6422 43.3854C23.06 42.4516 23.6006 41.5669 24.1904 40.7314C24.2641 40.6331 24.3132 40.5594 24.387 40.4611C24.5344 40.2645 24.7064 40.0679 24.8539 39.8959C25.2225 39.4781 25.5911 39.0849 25.9843 38.6917C26.3283 38.3723 26.6478 38.0528 27.0164 37.7333C27.213 37.5613 27.4096 37.3893 27.6062 37.2419C27.7536 37.119 28.5645 36.5292 27.9502 36.9716C28.8103 36.3818 29.6458 35.7429 30.555 35.2022C31.3906 34.6862 32.2261 34.2193 33.0862 33.7769C33.5039 33.5803 33.9217 33.3592 34.3394 33.1871C34.536 33.0889 34.7572 33.0151 34.9538 32.9168C35.0521 32.8677 35.1504 32.8431 35.2487 32.794C35.2241 32.794 35.2241 32.8185 35.1995 32.8185C36.5757 32.2533 40.5813 30.8035 42.4735 30.5332C44.9063 33.0889 48.0763 34.8582 51.443 36.0132C52.2785 36.3081 56.1858 36.5538 56.1858 36.5538L54.5639 31.7127C54.5639 31.7127 52.1802 31.5161 51.0007 31.0492C50.8778 31.0001 50.7549 30.9263 50.632 30.8772C50.3617 30.7543 50.0914 30.6314 49.8457 30.484C49.3542 30.2383 48.8873 29.9434 48.4204 29.6485C48.2238 29.5256 48.0272 29.3782 47.8306 29.2553C47.7077 29.1816 47.6094 29.0833 47.4866 29.0096C47.118 28.6901 46.7493 28.3952 46.4053 28.0757C46.0367 27.7317 45.7172 27.3877 45.3732 27.0191C45.2258 26.847 45.1029 26.6996 44.9554 26.5276C44.9063 26.4539 44.8326 26.3556 44.7834 26.2818C44.2428 25.5446 43.8005 24.7337 43.4073 23.8982C43.3581 23.7999 43.2844 23.6278 43.2353 23.505C43.1861 23.3821 43.137 23.2347 43.0878 23.1118C42.9404 22.694 42.7929 22.2517 42.6946 21.8339C42.5718 21.3916 42.498 20.9738 42.3997 20.5315C42.3506 20.2858 42.2769 19.4994 42.3752 20.4086C42.3506 20.1875 42.326 19.9663 42.3014 19.7206C42.2277 18.8359 42.2277 17.9512 42.2769 17.0911C42.3014 16.8946 42.3014 16.698 42.326 16.5014C42.326 16.4276 42.3506 16.3294 42.3506 16.2556C42.4243 15.8624 42.4735 15.4693 42.5718 15.0761C42.7683 14.2406 43.0141 13.405 43.309 12.5941C43.3827 12.3729 43.7267 11.6849 43.3336 12.4712C43.4318 12.2746 43.5056 12.078 43.6039 11.8815C43.7759 11.5128 43.9725 11.1442 44.1691 10.8002C44.3657 10.4316 44.5868 10.0875 44.8326 9.74351C44.9309 9.59606 45.0537 9.42405 45.152 9.2766C45.1275 9.30117 45.1029 9.35032 45.0537 9.39947C45.1029 9.35032 45.152 9.2766 45.2012 9.22745C45.2749 9.12916 45.3978 8.98171 45.324 9.08001C45.8155 8.49023 46.3562 7.92503 46.9214 7.43355C47.0688 7.31068 47.1917 7.21238 47.3391 7.08951C46.651 7.67929 47.2654 7.13866 47.462 7.01579C47.7815 6.79462 48.1255 6.57346 48.4695 6.40144C48.6907 6.27857 48.9119 6.1557 49.1576 6.0574C49.1576 6.0574 49.1576 6.0574 49.1822 6.0574C49.5016 5.93453 49.8211 5.81166 50.1651 5.71336C50.5583 5.59049 50.9761 5.51677 51.3693 5.44305C51.3693 5.44305 51.3693 5.44305 51.3938 5.44305C51.615 5.41848 51.8116 5.3939 52.0328 5.3939C52.4505 5.36933 52.8683 5.3939 53.286 5.41848C53.4826 5.44305 53.6792 5.46762 53.8758 5.46762C52.9666 5.41848 53.7775 5.46762 54.0233 5.51677C54.4656 5.59049 54.9079 5.71336 55.3503 5.83623C55.5714 5.90996 55.7926 5.98368 56.0138 6.0574C56.1858 6.13112 56.4807 6.25399 56.6527 6.32772C57.4882 6.74547 58.2991 7.16323 59.0855 7.67929C59.3067 7.82673 59.5278 7.97418 59.749 8.12162C59.8473 8.19534 59.921 8.26907 60.0193 8.31821C59.9948 8.29364 59.9702 8.26907 59.9456 8.24449C59.9948 8.29364 60.0439 8.31821 60.0931 8.36736L60.1176 8.39194C60.1668 8.44108 60.2405 8.49023 60.2405 8.49023C60.7811 8.93256 61.2972 9.3749 61.8132 9.86638C61.4446 10.7265 61.1743 11.6111 60.9286 12.4712C60.1668 15.2727 60.2159 18.6885 62.6488 20.6544C64.4181 22.1043 66.7772 22.6203 69.038 22.3991C70.1684 22.2763 71.5937 21.5636 71.5937 21.5636L72.7978 17.4843C72.7978 17.4843 70.6845 17.6809 70.4879 17.7055C70.2667 17.7301 69.2837 17.8284 69.0626 17.8529C68.4974 17.9021 67.9076 17.9267 67.3178 17.8529C66.9492 17.7792 66.5806 17.7055 66.212 17.5826C66.1628 17.5581 66.1137 17.5335 66.0645 17.5089C65.9171 17.4352 65.7697 17.3123 65.6222 17.214C65.5485 17.1403 65.4748 17.0666 65.401 16.9929C65.3519 16.9191 65.3273 16.87 65.2782 16.7963C65.229 16.7225 65.2045 16.6734 65.1799 16.5997C65.1799 16.5751 65.1799 16.5751 65.1553 16.5505C65.1062 16.3785 65.057 16.2065 65.0324 16.0345C65.0079 15.6413 65.0079 15.2481 65.0324 14.8549C65.1062 14.4372 65.1799 14.0194 65.3028 13.6262C65.4256 13.1839 65.5731 12.7415 65.7205 12.2992C65.7942 12.1026 65.868 11.9306 65.9171 11.734V11.7094C66.0645 11.3654 66.2366 11.0214 66.4332 10.7019C66.5069 10.6036 66.5806 10.5053 66.6297 10.407C66.6297 10.407 66.6297 10.407 66.6543 10.3824C66.728 10.3087 66.8263 10.2104 66.9001 10.1367C66.8755 10.1613 66.8509 10.1613 66.8018 10.1858C66.8263 10.1613 66.8755 10.1367 66.9001 10.1367C66.9246 10.1121 66.9738 10.0875 66.9984 10.063C66.9984 10.0384 67.0967 9.98925 67.2195 9.9401C67.2441 9.9401 67.2441 9.9401 67.2687 9.9401C67.2932 9.91553 67.3178 9.91553 67.3424 9.89095C67.3178 9.91553 67.2932 9.91553 67.2687 9.9401C67.3424 9.91553 67.4161 9.91553 67.4898 9.89095C67.6864 9.86638 67.883 9.89095 68.0796 9.89095C68.1779 9.91553 68.3499 9.91553 68.4728 9.9401C69.038 10.063 69.6032 10.2104 70.1684 10.3824C71.4463 10.751 74.6409 11.2917 74.6409 11.2917L76.6805 7.16323C76.6805 7.16323 71.2497 5.83623 69.1609 5.54135C68.055 5.3939 66.9246 5.32018 65.868 5.68879C65.401 5.86081 64.9833 6.0574 64.5901 6.32772C61.4201 3.42798 57.6111 1.19174 53.2615 0.872276C49.3788 0.601962 45.5698 2.273 42.8912 5.02529C40.2372 7.75301 38.4925 11.4391 37.9518 15.1989C37.3866 19.1308 37.8781 23.1364 39.6966 26.675C38.2713 26.9453 35.7156 27.7809 34.364 28.3215C32.3981 29.0833 30.4813 29.9925 28.6628 31.0738C24.7556 33.3837 20.9957 36.5538 18.9315 40.7068C17.6782 43.2134 17.0393 45.9902 17.2605 48.8162C17.3834 50.8805 17.8994 52.9201 18.5383 54.886C18.2434 55.1809 17.9731 55.4758 17.7028 55.7707C17.3588 56.1393 17.0393 56.5079 16.6707 56.852C16.3021 57.2206 15.8106 57.5155 15.4912 57.9086C15.3683 58.0069 15.2454 58.0807 15.1225 58.1544C14.8768 58.3018 14.6065 58.4493 14.3607 58.5967C14.3362 58.5967 14.3116 58.6213 14.287 58.6213C14.3116 58.6213 14.3607 58.5967 14.3853 58.5967C14.2379 58.6459 14.0904 58.695 13.943 58.7442C13.6481 58.8425 13.3532 58.9162 13.0337 58.9653C13.0337 58.9653 13.0337 58.9653 13.0092 58.9653C12.8372 58.9899 12.6651 58.9899 12.4931 58.9899C12.3211 58.9899 12.1737 58.9899 12.0016 58.9899C11.9279 58.9899 11.8296 58.9653 11.7805 58.9653C11.633 58.9162 11.4364 58.9162 11.3136 58.8916C11.117 58.8425 10.9204 58.7933 10.7238 58.7442C10.5272 58.6704 10.306 58.6213 10.1094 58.5476C10.0357 58.523 9.96199 58.4984 9.88827 58.4738C9.8637 58.4738 9.8637 58.4738 9.83912 58.4493C9.54423 58.3018 9.27392 58.1544 9.0036 58.0069C8.88073 57.9332 8.73329 57.7858 8.61042 57.7366C8.41383 57.5646 8.21723 57.368 8.02064 57.1714C7.94692 57.0977 7.8732 57.024 7.82405 56.9257C7.79948 56.9011 7.79948 56.8765 7.70118 56.7537C7.45544 56.4342 7.25885 56.0656 7.13598 55.697C7.13598 55.6724 7.13598 55.6724 7.1114 55.6478C7.06225 55.5495 7.03768 55.4512 7.01311 55.3529C6.93938 55.1072 6.86566 54.886 6.79194 54.6403C6.74279 54.3946 6.66907 54.1734 6.6445 53.9276C6.61992 53.8294 6.61992 53.7311 6.59535 53.6328C6.59535 53.6082 6.59535 53.559 6.57077 53.5099C6.57077 53.4853 6.57077 53.4607 6.57077 53.4362C6.57077 53.3379 6.5462 53.2396 6.5462 53.1413C6.52162 52.9201 6.52163 52.7235 6.49705 52.5024C6.47248 51.9617 6.4479 50.9542 6.4479 50.561C6.4479 50.4381 6.61992 49.0374 6.66907 48.9145C6.89024 48.3739 7.1114 47.735 7.94692 46.8995C8.09436 47.1206 8.41383 48.1036 8.41383 48.1036L11.9033 49.0866L12.3457 44.8844L10.5272 42.7219L8.26638 42.3533C8.26638 42.3533 7.72575 42.3778 7.48001 42.3533C7.28342 42.3533 7.08683 42.3778 6.91481 42.427H6.89024C6.79194 42.4516 6.69364 42.4761 6.59535 42.5253C6.34961 42.6236 6.05472 42.7465 5.80898 42.8939C5.56324 43.0413 5.3175 43.2379 5.1209 43.41C5.04718 43.4837 4.94889 43.5574 4.87516 43.6311C4.67857 43.8523 4.50655 44.098 4.33453 44.3192C4.26081 44.3929 4.21166 44.4912 4.16252 44.5895C4.16252 44.5895 4.16252 44.5895 4.16252 44.6141C4.13794 44.6632 4.08879 44.7124 4.03965 44.7861C3.91678 44.9581 3.30242 45.9657 3.00754 46.6783C2.71265 47.391 2 48.9145 2 50.2907C2 50.6839 2.07372 54.2717 2.58978 56.0656C3.25328 58.695 4.99803 61.0787 7.57831 62.3074ZM43.2598 50.2907C43.2353 50.1432 43.2353 50.0695 43.2598 50.2907V50.2907ZM43.2844 50.4873C43.2598 50.4381 43.2598 50.3644 43.2598 50.3153C43.2598 50.389 43.2598 50.4381 43.2844 50.4873Z" fill="#7D88A3"/>
<path d="M14.2858 58.5938C13.8188 58.7412 14.0892 58.6675 14.2858 58.5938V58.5938Z" fill="#7D88A3"/>
<path d="M57.1211 52.1094C57.244 52.2077 57.3423 52.2568 57.1211 52.1094V52.1094Z" fill="#7D88A3"/>
<path d="M55.0057 49.8942C54.9811 49.8696 54.9565 49.7959 54.8828 49.6484C54.8828 49.6484 54.8828 49.6484 54.8828 49.673C54.9074 49.7467 54.9565 49.8205 55.0057 49.8942Z" fill="#7D88A3"/>
<path d="M54.8097 49.4342C54.8097 49.4097 54.8097 49.3851 54.7852 49.3359C54.7852 49.3605 54.7852 49.3605 54.7852 49.3851C54.8097 49.4097 54.8097 49.4342 54.8097 49.4342Z" fill="#7D88A3"/>
<path d="M52.0184 49.551C52.215 52.2541 54.2792 54.2692 56.3189 55.8419C57.179 56.5054 58.0636 57.0706 58.9975 57.6358C59.1449 57.7833 59.3169 57.9307 59.5135 58.0536C63.1505 60.0195 66.9349 61.7151 70.8176 63.1404C70.8667 63.165 70.8913 63.165 70.9404 63.1896C71.137 63.3862 71.2599 63.509 71.2599 63.509H74.7494H78.0178C78.0178 63.509 76.4696 58.029 76.0519 57.9062L73.6682 57.3901C73.6682 57.3901 72.0954 57.8324 70.965 58.3239C70.4244 58.1273 69.8838 57.9062 69.3677 57.7096C69.122 57.6113 68.8762 57.513 68.6059 57.3901C68.5568 57.3655 68.3847 57.2918 68.311 57.2672C67.8687 57.0706 67.4264 56.874 67.0086 56.6775C65.5342 56.014 64.1089 55.3013 62.659 54.5395C61.4057 53.8514 60.177 53.1142 59.022 52.2787C58.9237 52.205 58.8254 52.1067 58.7026 52.0575C58.7517 52.1067 58.8009 52.1313 58.85 52.1558C58.7763 52.1067 58.7026 52.0575 58.678 52.033C58.4814 51.8855 58.3094 51.7135 58.1128 51.5415C57.7196 51.1974 57.4001 50.7797 57.0315 50.4111C56.9824 50.3374 56.9332 50.2636 56.8841 50.1899C56.8349 50.0916 56.7858 49.9933 56.7367 49.9196C56.7612 49.9933 56.6629 49.8459 56.6138 49.6984C56.5892 49.6493 56.5646 49.6247 56.5401 49.5756C56.5646 49.6247 56.5892 49.6493 56.5892 49.6739C56.5646 49.6001 56.5401 49.5264 56.5155 49.4527C56.5401 49.6001 56.5155 49.5264 56.5155 49.4035V49.379C56.5155 49.3544 56.5155 49.3298 56.5155 49.3052C56.5155 49.3052 56.5155 49.3052 56.5155 49.2807C56.5155 49.3052 56.5155 49.3298 56.5155 49.3298C56.5155 49.3052 56.5155 49.2561 56.5155 49.2315C56.5155 49.1824 56.5155 49.1332 56.5401 49.0595C56.5401 49.0595 56.5401 49.0595 56.5401 49.0349C56.5892 48.8138 56.6629 48.6172 56.7367 48.4206V48.396C56.7858 48.2731 56.8349 48.1748 56.9087 48.052C57.0315 47.8062 57.1544 47.5851 57.3019 47.3639C57.4739 47.0936 57.6705 46.7987 57.8671 46.5529C57.9408 46.4301 58.0391 46.3318 58.1128 46.2089L58.1374 46.1843C58.6043 45.6191 59.0466 45.0785 59.5381 44.5379C61.4303 42.4737 65.4359 38.5664 65.4359 38.5664L65.0427 32.5703C65.0427 32.5703 57.9899 39.5002 56.024 41.7119C54.2055 43.7515 52.1167 46.2581 52.0184 49.1332C52.0184 49.1578 52.0184 49.1824 52.0184 49.2315V49.2561V49.2807C51.9939 49.3544 51.9939 49.4527 52.0184 49.551ZM57.0561 50.4356C57.0561 50.4111 57.0315 50.4111 57.0315 50.3865C57.1544 50.5339 57.2527 50.706 57.0561 50.4356Z" fill="#7D88A3"/>
<path d="M81 66H0V70H81V66Z" fill="#7D88A3"/>
</svg>
