<svg width="199" height="283" viewBox="0 0 199 283" fill="none" xmlns="http://www.w3.org/2000/svg">
<path fill-rule="evenodd" clip-rule="evenodd" d="M139.626 230.82L131.774 271.695L184.201 265.507L179.174 224.958L159.184 227.318L158.344 220.546L153.554 222.483L154.226 227.903L141.835 229.365L141.853 230.412L139.626 230.82ZM141.693 221.006L144.361 220.692L143.233 217.56L141.651 218.52L141.693 221.006V221.006Z" fill="#82493E"/>
<path d="M131.75 271.689L139.602 230.814L139.648 230.823L131.796 271.698L131.776 271.717L131.75 271.689ZM131.776 271.717L131.744 271.721L131.75 271.689L131.776 271.717ZM184.203 265.529L131.776 271.717L131.77 271.67L184.197 265.483L184.223 265.503L184.203 265.529V265.529ZM184.223 265.503L184.226 265.526L184.203 265.529L184.223 265.503V265.503ZM179.196 224.954L184.223 265.503L184.177 265.509L179.149 224.96L179.17 224.934L179.196 224.954V224.954ZM179.17 224.934L179.193 224.931L179.196 224.954L179.17 224.934ZM159.18 227.293L179.17 224.934L179.175 224.98L159.185 227.34L159.159 227.319L159.18 227.293V227.293ZM159.185 227.34L159.162 227.342L159.159 227.319L159.185 227.34ZM158.366 220.542L159.206 227.314L159.159 227.319L158.32 220.548L158.334 220.523L158.366 220.542ZM158.334 220.523L158.362 220.512L158.366 220.542L158.334 220.523ZM153.544 222.46L158.334 220.523L158.352 220.567L153.562 222.504L153.53 222.485L153.544 222.46V222.46ZM153.53 222.485L153.527 222.467L153.544 222.46L153.53 222.485V222.485ZM154.202 227.905L153.53 222.485L153.576 222.479L154.248 227.899L154.228 227.925L154.202 227.905V227.905ZM154.248 227.899L154.251 227.922L154.228 227.925L154.248 227.899V227.899ZM141.831 229.341L154.222 227.878L154.228 227.925L141.837 229.387L141.811 229.364L141.831 229.341ZM141.811 229.364L141.81 229.343L141.831 229.341L141.811 229.364V229.364ZM141.828 230.412L141.811 229.364L141.858 229.364L141.875 230.411L141.856 230.434L141.828 230.412V230.412ZM141.875 230.411L141.876 230.431L141.856 230.434L141.875 230.411V230.411ZM139.621 230.796L141.848 230.388L141.856 230.434L139.629 230.842L139.602 230.814L139.621 230.796ZM139.602 230.814L139.605 230.799L139.621 230.796L139.602 230.814ZM144.362 220.714L141.695 221.028L141.689 220.982L144.357 220.667L144.382 220.683L144.362 220.714V220.714ZM144.382 220.683L144.392 220.71L144.362 220.714L144.382 220.683V220.683ZM143.254 217.55L144.382 220.683L144.337 220.698L143.21 217.566L143.219 217.538L143.254 217.55V217.55ZM143.219 217.538L143.244 217.523L143.254 217.55L143.219 217.538V217.538ZM141.638 218.499L143.219 217.538L143.244 217.578L141.662 218.539L141.627 218.519L141.638 218.499ZM141.627 218.519L141.626 218.506L141.638 218.499L141.627 218.519ZM141.669 221.006L141.627 218.519L141.674 218.518L141.716 221.005L141.695 221.028L141.669 221.006V221.006ZM141.695 221.028L141.669 221.031L141.669 221.006L141.695 221.028Z" fill="#82493E"/>
<path fill-rule="evenodd" clip-rule="evenodd" d="M129.28 274.837L98.8418 275.401L99.6214 282L128.471 281.989L129.28 274.837Z" fill="#BD9977"/>
<path d="M129.28 274.837L98.8418 275.401L99.6214 282L128.471 281.989L129.28 274.837Z" stroke="#BD9977" stroke-width="0.0762" stroke-miterlimit="22.9256"/>
<path fill-rule="evenodd" clip-rule="evenodd" d="M87.4057 273.819L52.7793 271.848L53.2654 281.207L85.3692 281.983L87.4057 273.819Z" fill="#BD9977"/>
<path d="M87.4057 273.819L52.7793 271.848L53.2654 281.207L85.3692 281.983L87.4057 273.819Z" stroke="#BD9977" stroke-width="0.0762" stroke-miterlimit="22.9256"/>
<path fill-rule="evenodd" clip-rule="evenodd" d="M90.039 273.969L95.7478 235.896L85.1308 224.915L50.1418 225.737L49.1797 271.642L90.039 273.969Z" fill="#2B2C44"/>
<path d="M90.039 273.969L95.7478 235.896L85.1308 224.915L50.1418 225.737L49.1797 271.642L90.039 273.969Z" stroke="#2B2C44" stroke-width="0.0762" stroke-miterlimit="22.9256"/>
<path fill-rule="evenodd" clip-rule="evenodd" d="M107.534 226.351L96.7598 235.407L96.5664 275.443L132.245 274.807L139.751 230.525L107.534 226.351Z" fill="#2B2C44"/>
<path d="M96.7428 235.389L107.517 226.332L107.55 226.367L96.7758 235.424L96.7346 235.406L96.7428 235.389V235.389ZM96.7346 235.406L96.7346 235.396L96.7428 235.389L96.7346 235.406ZM96.5411 275.442L96.7346 235.406L96.784 235.407L96.5906 275.442L96.5663 275.465L96.5411 275.442V275.442ZM96.5663 275.465L96.541 275.466L96.5411 275.442L96.5663 275.465V275.465ZM132.245 274.83L96.5663 275.465L96.5654 275.418L132.244 274.783L132.269 274.81L132.245 274.83ZM132.269 274.81L132.265 274.829L132.245 274.83L132.269 274.81V274.81ZM139.775 230.528L132.269 274.81L132.22 274.803L139.726 230.521L139.754 230.501L139.775 230.528V230.528ZM139.754 230.501L139.779 230.505L139.775 230.528L139.754 230.501ZM107.537 226.327L139.754 230.501L139.747 230.548L107.531 226.373L107.517 226.332L107.537 226.327V226.327ZM107.517 226.332L107.526 226.325L107.537 226.327L107.517 226.332Z" fill="#2B2C44"/>
<path fill-rule="evenodd" clip-rule="evenodd" d="M47.9982 218.988L50.3849 209.26L25.0874 199.464L22.2295 210.054L47.9982 218.988Z" fill="#BD9977"/>
<path d="M50.4067 209.264L48.0201 218.993L47.9744 218.982L50.3611 209.253L50.3925 209.237L50.4067 209.264ZM50.3925 209.237L50.4117 209.244L50.4067 209.264L50.3925 209.237ZM25.095 199.441L50.3925 209.237L50.3754 209.28L25.0779 199.485L25.0638 199.457L25.095 199.441ZM25.0638 199.457L25.0706 199.432L25.095 199.441L25.0638 199.457V199.457ZM22.2058 210.047L25.0638 199.457L25.1092 199.469L22.2512 210.059L22.2208 210.075L22.2058 210.047ZM22.2208 210.075L22.2002 210.068L22.2058 210.047L22.2208 210.075ZM47.9895 219.009L22.2208 210.075L22.2363 210.031L48.005 218.965L48.0201 218.993L47.9895 219.009ZM48.0201 218.993L48.014 219.018L47.9895 219.009L48.0201 218.993Z" fill="#BD9977"/>
<path fill-rule="evenodd" clip-rule="evenodd" d="M25.089 199.465L50.3865 209.26L60.1404 169.501L41.9697 158.03L20.2441 197.582L25.089 199.465Z" fill="#2B2C44"/>
<path d="M50.3762 209.281L25.0787 199.485L25.0958 199.442L50.3932 209.237L50.4075 209.265L50.3762 209.281ZM50.4075 209.265L50.4011 209.291L50.3762 209.281L50.4075 209.265V209.265ZM60.1614 169.505L50.4075 209.265L50.3619 209.254L60.1158 169.494L60.1512 169.48L60.1614 169.505V169.505ZM60.1512 169.48L60.1654 169.489L60.1614 169.505L60.1512 169.48V169.48ZM41.9805 158.009L60.1512 169.48L60.126 169.519L41.9553 158.049L41.9473 158.018L41.9805 158.009V158.009ZM41.9473 158.018L41.9593 157.996L41.9805 158.009L41.9473 158.018ZM20.2218 197.57L41.9473 158.018L41.9885 158.04L20.263 197.592L20.2338 197.603L20.2218 197.57ZM20.2338 197.603L20.209 197.593L20.2218 197.57L20.2338 197.603ZM25.0787 199.485L20.2338 197.603L20.2509 197.559L25.0958 199.442L25.0787 199.485Z" fill="#2B2C44"/>
<path fill-rule="evenodd" clip-rule="evenodd" d="M166.791 203.255L143.233 217.559L144.361 220.691L146.093 225.5L153.555 222.483L158.345 220.546L170.865 215.483L166.791 203.255Z" fill="#BD9977"/>
<path d="M143.22 217.538L166.778 203.234L166.802 203.274L143.245 217.578L143.211 217.566L143.22 217.538V217.538ZM143.211 217.566L143.204 217.548L143.22 217.538L143.211 217.566V217.566ZM144.338 220.698L143.211 217.566L143.255 217.55L144.382 220.683L144.338 220.698ZM146.07 225.507L144.338 220.698L144.382 220.683L146.114 225.491L146.101 225.521L146.07 225.507ZM146.101 225.521L146.078 225.53L146.07 225.507L146.101 225.521ZM153.563 222.504L146.101 225.521L146.083 225.478L153.545 222.46L153.563 222.504ZM158.353 220.567L153.563 222.504L153.545 222.46L158.335 220.523L158.353 220.567ZM170.873 215.504L158.353 220.567L158.335 220.523L170.855 215.46L170.887 215.475L170.873 215.504ZM170.887 215.475L170.894 215.495L170.873 215.504L170.887 215.475V215.475ZM166.813 203.247L170.887 215.475L170.842 215.489L166.768 203.261L166.778 203.234L166.813 203.247V203.247ZM166.778 203.234L166.803 203.219L166.813 203.247L166.778 203.234V203.234Z" fill="#BD9977"/>
<path fill-rule="evenodd" clip-rule="evenodd" d="M92.7647 187.949L82.6367 223.432L96.149 238.037L113.238 222.915L104.864 188.125L92.7647 187.949Z" fill="#BA2308"/>
<path d="M82.614 223.424L92.7419 187.942L92.787 187.955L82.6591 223.437L82.6193 223.447L82.614 223.424V223.424ZM82.6193 223.447L82.6104 223.437L82.614 223.424L82.6193 223.447V223.447ZM96.1315 238.052L82.6193 223.447L82.6538 223.415L96.166 238.021L96.1644 238.054L96.1315 238.052ZM96.1644 238.054L96.1471 238.069L96.1315 238.052L96.1644 238.054V238.054ZM113.253 222.931L96.1644 238.054L96.1332 238.019L113.222 222.896L113.261 222.908L113.253 222.931V222.931ZM113.261 222.908L113.264 222.922L113.253 222.931L113.261 222.908ZM104.887 188.119L113.261 222.908L113.215 222.919L104.841 188.13L104.864 188.101L104.887 188.119V188.119ZM104.864 188.101L104.883 188.102L104.887 188.119L104.864 188.101ZM92.7648 187.925L104.864 188.101L104.864 188.148L92.7642 187.972L92.7419 187.942L92.7648 187.925V187.925ZM92.7419 187.942L92.7468 187.925L92.7648 187.925L92.7419 187.942Z" fill="#BA2308"/>
<path fill-rule="evenodd" clip-rule="evenodd" d="M87.1895 207.488L89.4395 199.606L78.4079 175.132L70.2692 175.895L67.4191 174.096L58.9258 192.929L72.5556 199.95L87.1895 207.488Z" fill="#7D88A3"/>
<path d="M89.4603 199.611L87.2103 207.494L87.1652 207.481L89.4152 199.598L89.4591 199.595L89.4603 199.611ZM89.4591 199.595L89.4626 199.603L89.4603 199.611L89.4591 199.595ZM78.4275 175.122L89.4591 199.595L89.4163 199.614L78.3848 175.141L78.4039 175.108L78.4275 175.122V175.122ZM78.4039 175.108L78.4206 175.106L78.4275 175.122L78.4039 175.108V175.108ZM70.2652 175.871L78.4039 175.108L78.4084 175.155L70.2696 175.917L70.2548 175.914L70.2652 175.871V175.871ZM70.2696 175.917L70.2616 175.918L70.2548 175.914L70.2696 175.917V175.917ZM67.4299 174.075L70.28 175.874L70.2548 175.914L67.4048 174.114L67.396 174.085L67.4299 174.075V174.075ZM67.396 174.085L67.407 174.061L67.4299 174.075L67.396 174.085ZM58.9027 192.918L67.396 174.085L67.4387 174.104L58.9454 192.937L58.9133 192.948L58.9027 192.918V192.918ZM58.9133 192.948L58.8936 192.938L58.9027 192.918L58.9133 192.948ZM72.5431 199.969L58.9133 192.948L58.9348 192.907L72.5646 199.928L72.5431 199.969ZM87.177 207.508L72.5431 199.969L72.5646 199.928L87.1985 207.466L87.2103 207.494L87.177 207.508V207.508ZM87.2103 207.494L87.2025 207.521L87.177 207.508L87.2103 207.494Z" fill="#7D88A3"/>
<path fill-rule="evenodd" clip-rule="evenodd" d="M78.4062 175.131L89.4378 199.605L92.7648 187.949L88.4657 187.886L91.388 173.915L78.4062 175.131Z" fill="#FEFEFE"/>
<path d="M89.4161 199.614L78.3845 175.141L78.4273 175.122L89.4589 199.595L89.46 199.611L89.4161 199.614ZM89.46 199.611L89.4425 199.672L89.4161 199.614L89.46 199.611ZM92.787 187.955L89.46 199.611L89.4149 199.598L92.7419 187.943L92.7648 187.926L92.787 187.955ZM92.7648 187.926L92.7954 187.926L92.787 187.955L92.7648 187.926ZM88.4657 187.863L92.7648 187.926L92.7641 187.972L88.465 187.91L88.4424 187.882L88.4657 187.863ZM88.465 187.91L88.4366 187.909L88.4424 187.882L88.465 187.91ZM91.4106 173.92L88.4883 187.891L88.4424 187.882L91.3647 173.91L91.3855 173.892L91.4106 173.92V173.92ZM91.3855 173.892L91.4171 173.889L91.4106 173.92L91.3855 173.892V173.892ZM78.4037 175.108L91.3855 173.892L91.3899 173.938L78.4081 175.154L78.3845 175.141L78.4037 175.108ZM78.3845 175.141L78.3711 175.111L78.4037 175.108L78.3845 175.141V175.141Z" fill="#FEFEFE"/>
<path fill-rule="evenodd" clip-rule="evenodd" d="M91.3891 173.916L88.4668 187.887L92.7659 187.95L104.866 188.126L106.218 188.146L105.344 172.608L91.3891 173.916Z" fill="#91200C"/>
<path d="M88.4423 187.882L91.3646 173.91L91.4105 173.92L88.4882 187.891L88.4649 187.91L88.4423 187.882ZM88.4649 187.91L88.4365 187.909L88.4423 187.882L88.4649 187.91ZM92.764 187.972L88.4649 187.91L88.4656 187.863L92.7647 187.926L92.764 187.972ZM104.864 188.149L92.764 187.972L92.7647 187.926L104.864 188.102L104.864 188.149ZM106.216 188.168L104.864 188.149L104.864 188.102L106.217 188.122L106.24 188.144L106.216 188.168ZM106.24 188.144L106.241 188.169L106.216 188.168L106.24 188.144V188.144ZM105.366 172.606L106.24 188.144L106.193 188.146L105.319 172.609L105.34 172.584L105.366 172.606ZM105.34 172.584L105.365 172.582L105.366 172.606L105.34 172.584ZM91.3854 173.892L105.34 172.584L105.345 172.631L91.3898 173.938L91.3646 173.91L91.3854 173.892ZM91.3646 173.91L91.3682 173.893L91.3854 173.892L91.3646 173.91Z" fill="#91200C"/>
<path fill-rule="evenodd" clip-rule="evenodd" d="M105.345 172.609L106.219 188.146L104.866 188.127L107.8 200.316L124.733 159.749L116.252 162.876L115.436 171.663L105.345 172.609Z" fill="#FEFEFE"/>
<path d="M106.194 188.146L105.32 172.609L105.367 172.606L106.241 188.144L106.217 188.168L106.194 188.146ZM106.241 188.144L106.242 188.169L106.217 188.168L106.241 188.144V188.144ZM104.865 188.102L106.218 188.122L106.217 188.168L104.864 188.149L104.842 188.131L104.865 188.102ZM104.842 188.131L104.835 188.101L104.865 188.102L104.842 188.131ZM107.776 200.32L104.842 188.131L104.888 188.12L107.822 200.309L107.82 200.323L107.776 200.32V200.32ZM107.82 200.323L107.793 200.39L107.776 200.32L107.82 200.323V200.323ZM124.753 159.757L107.82 200.323L107.777 200.305L124.71 159.739L124.723 159.726L124.753 159.757V159.757ZM124.723 159.726L124.773 159.707L124.753 159.757L124.723 159.726V159.726ZM116.242 162.853L124.723 159.726L124.739 159.769L116.258 162.897L116.227 162.873L116.242 162.853V162.853ZM116.227 162.873L116.228 162.858L116.242 162.853L116.227 162.873ZM115.411 171.66L116.227 162.873L116.273 162.877L115.458 171.664L115.437 171.685L115.411 171.66V171.66ZM115.458 171.664L115.456 171.683L115.437 171.685L115.458 171.664ZM105.341 172.584L115.432 171.639L115.437 171.685L105.346 172.631L105.32 172.609L105.341 172.584ZM105.32 172.609L105.319 172.586L105.341 172.584L105.32 172.609Z" fill="#FEFEFE"/>
<path fill-rule="evenodd" clip-rule="evenodd" d="M124.731 159.748L107.799 200.315L109.815 208.691L121.218 197.85L135.097 184.656L126.029 159.27L124.731 159.748Z" fill="#7D88A3"/>
<path d="M107.776 200.305L124.709 159.738L124.752 159.756L107.82 200.323L107.775 200.319L107.776 200.305ZM107.775 200.319L107.773 200.312L107.776 200.305L107.775 200.319V200.319ZM109.791 208.695L107.775 200.319L107.821 200.308L109.837 208.684L109.83 208.707L109.791 208.695ZM109.83 208.707L109.801 208.735L109.791 208.695L109.83 208.707ZM121.234 197.866L109.83 208.707L109.798 208.673L121.201 197.832L121.234 197.866ZM135.112 184.671L121.234 197.866L121.201 197.832L135.08 184.638L135.118 184.647L135.112 184.671V184.671ZM135.118 184.647L135.123 184.661L135.112 184.671L135.118 184.647ZM126.051 159.261L135.118 184.647L135.074 184.662L126.006 159.276L126.02 159.246L126.051 159.261ZM126.02 159.246L126.043 159.238L126.051 159.261L126.02 159.246ZM124.722 159.725L126.02 159.246L126.037 159.29L124.739 159.769L124.709 159.738L124.722 159.725V159.725ZM124.709 159.738L124.713 159.729L124.722 159.725L124.709 159.738V159.738Z" fill="#7D88A3"/>
<path fill-rule="evenodd" clip-rule="evenodd" d="M126.029 159.27L135.097 184.656L121.218 197.85L127.678 208.827C119.533 212.492 117.316 213.49 111.59 216.067L113.239 222.915L109.024 226.645L110.059 236.229L139.626 230.82L141.853 230.412L141.835 229.365L141.693 221.006L141.651 218.52L140.555 153.914L126.029 159.27V159.27Z" fill="#41415B"/>
<path d="M135.074 184.662L126.007 159.276L126.051 159.261L135.118 184.647L135.112 184.671L135.074 184.662ZM135.118 184.647L135.123 184.661L135.112 184.671L135.118 184.647ZM121.201 197.832L135.08 184.637L135.112 184.671L121.234 197.866L121.197 197.861L121.201 197.832V197.832ZM121.197 197.861L121.188 197.845L121.201 197.832L121.197 197.861ZM127.657 208.837L121.197 197.861L121.238 197.837L127.698 208.813L127.687 208.846L127.657 208.837V208.837ZM127.698 208.813L127.711 208.835L127.687 208.846L127.698 208.813V208.813ZM111.612 216.06L111.567 216.071L111.58 216.044L112.107 215.807L112.615 215.578L113.106 215.357L113.581 215.143L114.043 214.936L114.493 214.733L114.932 214.535L115.364 214.341L115.788 214.15L116.208 213.961L116.624 213.774L117.039 213.587L117.454 213.4L117.87 213.213L118.291 213.024L118.717 212.832L119.149 212.637L119.591 212.439L120.043 212.235L120.508 212.026L120.986 211.811L121.481 211.588L121.992 211.358L122.523 211.119L123.075 210.871L123.649 210.612L124.248 210.343L124.873 210.061L125.526 209.768L126.208 209.461L126.921 209.14L127.668 208.804L127.687 208.846L126.941 209.182L126.227 209.503L125.545 209.81L124.892 210.104L124.267 210.385L123.669 210.655L123.094 210.913L122.542 211.162L122.011 211.401L121.5 211.631L121.006 211.853L120.527 212.069L120.063 212.278L119.61 212.481L119.169 212.68L118.736 212.875L118.31 213.066L117.89 213.256L117.473 213.443L117.058 213.63L116.643 213.817L116.227 214.004L115.808 214.193L115.383 214.384L114.952 214.578L114.512 214.776L114.062 214.978L113.6 215.186L113.125 215.4L112.634 215.621L112.126 215.85L111.599 216.087L111.612 216.06V216.06ZM111.567 216.071L111.562 216.052L111.58 216.044L111.567 216.071V216.071ZM113.215 222.919L111.567 216.071L111.612 216.06L113.261 222.908L113.254 222.931L113.215 222.919V222.919ZM113.261 222.908L113.264 222.922L113.254 222.931L113.261 222.908ZM109.008 226.625L113.222 222.896L113.254 222.931L109.039 226.66L109 226.645L109.008 226.625ZM109 226.645L108.999 226.633L109.008 226.625L109 226.645ZM110.035 236.229L109 226.645L109.047 226.64L110.082 236.224L110.063 236.25L110.035 236.229V236.229ZM110.063 236.25L110.038 236.254L110.035 236.229L110.063 236.25V236.25ZM139.63 230.841L110.063 236.25L110.054 236.204L139.621 230.795L139.63 230.841V230.841ZM141.856 230.433L139.63 230.841L139.621 230.795L141.848 230.387L141.876 230.41L141.856 230.433ZM141.876 230.41L141.876 230.43L141.856 230.433L141.876 230.41V230.41ZM141.858 229.363L141.876 230.41L141.829 230.411L141.811 229.364L141.858 229.363ZM141.716 221.004L141.858 229.363L141.811 229.364L141.669 221.005L141.716 221.004ZM141.674 218.517L141.716 221.004L141.669 221.005L141.627 218.518L141.674 218.517ZM140.578 153.912L141.674 218.517L141.627 218.518L140.531 153.913L140.546 153.89L140.578 153.912V153.912ZM140.546 153.89L140.577 153.879L140.578 153.912L140.546 153.89ZM126.021 159.246L140.546 153.89L140.562 153.934L126.037 159.29L126.007 159.276L126.021 159.246V159.246ZM126.007 159.276L125.999 159.254L126.021 159.246L126.007 159.276V159.276Z" fill="#41415B"/>
<path fill-rule="evenodd" clip-rule="evenodd" d="M58.9251 192.928L67.4184 174.095L60.1392 169.5L47.9986 218.988L46.4727 225.242L52.4834 226.055L82.7703 230.153L84.0108 224.916L82.6378 223.432L83.7559 219.515L83.4607 219.324L66.2112 208.18L72.5549 199.949L58.9251 192.928Z" fill="#41415B"/>
<path d="M67.4385 174.104L58.9452 192.937L58.9025 192.918L67.3958 174.085L67.4297 174.075L67.4385 174.104ZM67.4297 174.075L67.4468 174.085L67.4385 174.104L67.4297 174.075ZM60.1505 169.479L67.4297 174.075L67.4045 174.114L60.1253 169.519L60.1151 169.494L60.1505 169.479V169.479ZM60.1151 169.494L60.1228 169.462L60.1505 169.479L60.1151 169.494V169.494ZM47.9745 218.982L60.1151 169.494L60.1607 169.505L48.0201 218.993L47.9745 218.982V218.982V218.982ZM47.9745 218.982V218.982L47.9775 218.969L47.9745 218.982V218.982ZM46.4485 225.235L47.9745 218.982L48.0201 218.993L46.4942 225.246L46.4682 225.264L46.4485 225.235ZM46.4682 225.264L46.4424 225.26L46.4485 225.235L46.4682 225.264V225.264ZM52.479 226.077L46.4682 225.264L46.4745 225.218L52.4853 226.031L52.479 226.077ZM82.7659 230.175L52.479 226.077L52.4853 226.031L82.7722 230.129L82.7919 230.158L82.7659 230.175ZM82.7919 230.158L82.787 230.178L82.7659 230.175L82.7919 230.158V230.158ZM84.0323 224.92L82.7919 230.158L82.7462 230.147L83.9867 224.91L84.0267 224.899L84.0323 224.92V224.92ZM84.0267 224.899L84.0352 224.908L84.0323 224.92L84.0267 224.899V224.899ZM82.6538 223.415L84.0267 224.899L83.9922 224.931L82.6193 223.447L82.614 223.425L82.6538 223.415ZM82.6193 223.447L82.6104 223.437L82.614 223.425L82.6193 223.447V223.447ZM83.7772 219.52L82.6591 223.437L82.614 223.425L83.7321 219.507L83.7674 219.494L83.7772 219.52ZM83.7674 219.494L83.7819 219.504L83.7772 219.52L83.7674 219.494V219.494ZM83.4722 219.303L83.7674 219.494L83.7418 219.533L83.4466 219.343L83.4722 219.303ZM66.2226 208.16L83.4722 219.303L83.4466 219.343L66.1971 208.199L66.1912 208.165L66.2226 208.16ZM66.1971 208.199L66.1758 208.185L66.1912 208.165L66.1971 208.199V208.199ZM72.5722 199.962L66.2285 208.193L66.1912 208.165L72.535 199.934L72.5644 199.928L72.5722 199.962V199.962ZM72.5644 199.928L72.5893 199.94L72.5722 199.962L72.5644 199.928ZM58.9346 192.906L72.5644 199.928L72.5428 199.969L58.9131 192.948L58.9025 192.918L58.9346 192.906V192.906ZM58.9131 192.948L58.8933 192.938L58.9025 192.918L58.9131 192.948Z" fill="#41415B"/>
<path fill-rule="evenodd" clip-rule="evenodd" d="M140.555 153.914L141.651 218.52L143.233 217.559L166.79 203.255L170.599 200.942L151.215 149.983L140.555 153.914Z" fill="#2B2C44"/>
<path d="M141.627 218.519L140.531 153.913L140.577 153.912L141.674 218.518L141.662 218.538L141.627 218.519V218.519ZM141.662 218.538L141.627 218.559L141.627 218.519L141.662 218.538ZM143.244 217.578L141.662 218.538L141.638 218.498L143.22 217.538L143.244 217.578ZM166.802 203.274L143.244 217.578L143.22 217.538L166.777 203.234L166.802 203.274ZM170.611 200.961L166.802 203.274L166.777 203.234L170.587 200.921L170.621 200.932L170.611 200.961ZM170.621 200.932L170.628 200.951L170.611 200.961L170.621 200.932ZM151.236 149.974L170.621 200.932L170.577 200.949L151.192 149.99L151.206 149.96L151.236 149.974ZM151.206 149.96L151.228 149.952L151.236 149.974L151.206 149.96V149.96ZM140.546 153.891L151.206 149.96L151.222 150.004L140.562 153.935L140.531 153.913L140.546 153.891ZM140.531 153.913L140.53 153.897L140.546 153.891L140.531 153.913Z" fill="#2B2C44"/>
<path fill-rule="evenodd" clip-rule="evenodd" d="M87.1886 207.489L72.5547 199.95L66.2109 208.181L83.4605 219.325L83.7557 219.516L87.1886 207.489Z" fill="#2B2C44"/>
<path d="M72.5644 199.928L87.1983 207.466L87.1768 207.508L72.5429 199.969L72.535 199.934L72.5644 199.928ZM72.535 199.934L72.5469 199.919L72.5644 199.928L72.535 199.934ZM66.1913 208.165L72.535 199.934L72.5722 199.963L66.2285 208.194L66.1971 208.199L66.1913 208.165V208.165ZM66.1971 208.199L66.1758 208.185L66.1913 208.165L66.1971 208.199V208.199ZM83.4466 219.343L66.1971 208.199L66.2227 208.16L83.4722 219.304L83.4466 219.343ZM83.7418 219.534L83.4466 219.343L83.4722 219.304L83.7674 219.495L83.7772 219.521L83.7418 219.534V219.534ZM83.7772 219.521L83.7685 219.551L83.7418 219.534L83.7772 219.521V219.521ZM87.2101 207.493L83.7772 219.521L83.7321 219.508L87.165 207.481L87.1983 207.466L87.2101 207.493V207.493ZM87.1983 207.466L87.2154 207.475L87.2101 207.493L87.1983 207.466Z" fill="#2B2C44"/>
<path fill-rule="evenodd" clip-rule="evenodd" d="M121.219 197.85L109.815 208.691L111.591 216.066C117.316 213.489 119.533 212.492 127.679 208.826L121.219 197.85V197.85Z" fill="#2B2C44"/>
<path d="M109.798 208.673L121.201 197.832L121.233 197.866L109.83 208.707L109.791 208.695L109.798 208.673V208.673ZM109.791 208.695L109.788 208.682L109.798 208.673L109.791 208.695V208.695ZM111.566 216.071L109.791 208.695L109.837 208.685L111.612 216.06L111.599 216.087L111.566 216.071ZM111.599 216.087L111.573 216.098L111.566 216.071L111.599 216.087V216.087ZM127.657 208.837L127.697 208.813L127.687 208.846L126.94 209.182L126.227 209.503L125.545 209.81L124.892 210.104L124.267 210.385L123.668 210.655L123.094 210.913L122.542 211.162L122.011 211.401L121.5 211.631L121.005 211.853L120.527 212.069L120.062 212.278L119.61 212.481L119.168 212.68L118.736 212.875L118.31 213.066L117.889 213.256L117.473 213.443L117.058 213.63L116.643 213.817L116.227 214.004L115.807 214.193L115.383 214.384L114.951 214.578L114.512 214.776L114.062 214.978L113.6 215.186L113.125 215.4L112.634 215.621L112.126 215.85L111.599 216.087L111.58 216.044L112.106 215.807L112.614 215.578L113.105 215.358L113.581 215.144L114.043 214.936L114.492 214.733L114.932 214.535L115.363 214.341L115.788 214.15L116.208 213.961L116.624 213.774L117.038 213.587L117.453 213.401L117.87 213.213L118.291 213.024L118.716 212.832L119.149 212.637L119.591 212.439L120.043 212.235L120.508 212.026L120.986 211.811L121.48 211.588L121.992 211.358L122.523 211.119L123.075 210.871L123.649 210.612L124.248 210.343L124.873 210.062L125.525 209.768L126.208 209.461L126.921 209.14L127.668 208.804L127.657 208.837V208.837ZM127.697 208.813L127.711 208.836L127.687 208.846L127.697 208.813V208.813ZM121.238 197.837L127.697 208.813L127.657 208.837L121.197 197.861L121.201 197.832L121.238 197.837ZM121.201 197.832L121.223 197.812L121.238 197.837L121.201 197.832Z" fill="#2B2C44"/>
<path fill-rule="evenodd" clip-rule="evenodd" d="M132.097 92.0095L186.944 81.8656L190.55 38.0959L146.791 7.99805L126.333 53.1098L118.426 62.0374L131.465 63.5268L139.56 70.5879L129.073 90.2243L132.097 92.0095Z" fill="#BC6A54"/>
<path d="M186.948 81.8881L132.101 92.032L132.092 91.9863L186.939 81.8424L186.967 81.8672L186.948 81.8881V81.8881ZM186.967 81.8672L186.965 81.8849L186.948 81.8881L186.967 81.8672V81.8672ZM190.572 38.0974L186.967 81.8672L186.92 81.8634L190.526 38.0936L190.563 38.0764L190.572 38.0974V38.0974ZM190.563 38.0764L190.574 38.084L190.572 38.0974L190.563 38.0764V38.0764ZM146.803 7.97857L190.563 38.0764L190.536 38.1147L146.777 8.01686L146.769 7.98807L146.803 7.97857ZM146.769 7.98807L146.781 7.96289L146.803 7.97857L146.769 7.98807ZM126.311 53.0998L146.769 7.98807L146.812 8.00735L126.353 53.1191L126.349 53.1249L126.311 53.0998V53.0998ZM126.353 53.1191L126.351 53.1223L126.349 53.1249L126.353 53.1191ZM118.408 62.0216L126.315 53.094L126.349 53.1249L118.442 62.0526L118.422 62.0602L118.408 62.0216V62.0216ZM118.422 62.0602L118.378 62.0551L118.408 62.0216L118.422 62.0602V62.0602ZM131.462 63.5496L118.422 62.0602L118.428 62.014L131.467 63.5034L131.48 63.5089L131.462 63.5496ZM131.467 63.5034L131.474 63.5042L131.48 63.5089L131.467 63.5034ZM139.544 70.6052L131.449 63.5441L131.48 63.5089L139.574 70.57L139.579 70.5985L139.544 70.6052ZM139.574 70.57L139.588 70.5822L139.579 70.5985L139.574 70.57V70.57ZM129.052 90.213L139.539 70.5766L139.579 70.5985L129.093 90.2349L129.061 90.2441L129.052 90.213V90.213ZM129.061 90.2441L129.041 90.2327L129.052 90.213L129.061 90.2441ZM132.085 92.0292L129.061 90.2441L129.084 90.2039L132.108 91.9891L132.101 92.032L132.085 92.0292ZM132.101 92.032L132.092 92.0336L132.085 92.0292L132.101 92.032V92.032Z" fill="#BC6A54"/>
<path fill-rule="evenodd" clip-rule="evenodd" d="M73.456 86.0388L86.3705 76.2288L89.2421 64.9513L89.2606 64.8177L70.8455 62.4717L62.2139 71.1425L68.2876 89.9649L73.456 86.0388Z" fill="#E8C48A"/>
<path d="M86.384 76.2465L73.4695 86.0565L73.4412 86.0194L86.3557 76.2094L86.3925 76.2338L86.384 76.2465ZM86.3925 76.2338L86.3906 76.2416L86.384 76.2465L86.3925 76.2338V76.2338ZM89.2641 64.9562L86.3925 76.2338L86.3471 76.2222L89.2187 64.9447L89.2645 64.9537L89.2641 64.9562V64.9562ZM89.2645 64.9537L89.2644 64.9553L89.2641 64.9562L89.2645 64.9537ZM89.283 64.8201L89.2645 64.9537L89.2183 64.9472L89.2367 64.8137L89.2628 64.7937L89.283 64.8201ZM89.2628 64.7937L89.2862 64.7968L89.283 64.8201L89.2628 64.7937V64.7937ZM70.8477 62.4477L89.2628 64.7937L89.2569 64.84L70.8418 62.494L70.8282 62.4544L70.8477 62.4477V62.4477ZM70.8282 62.4544L70.8363 62.4463L70.8477 62.4477L70.8282 62.4544V62.4544ZM62.1966 71.1253L70.8282 62.4544L70.8614 62.4873L62.2297 71.1582L62.1909 71.1489L62.1966 71.1253V71.1253ZM62.1909 71.1489L62.1865 71.1354L62.1966 71.1253L62.1909 71.1489V71.1489ZM68.2646 89.9712L62.1909 71.1489L62.2354 71.1346L68.3092 89.9569L68.301 89.9826L68.2646 89.9712V89.9712ZM68.301 89.9826L68.2747 90.0026L68.2646 89.9712L68.301 89.9826V89.9826ZM73.4695 86.0565L68.301 89.9826L68.2727 89.9455L73.4412 86.0194L73.4695 86.0565Z" fill="#E8C48A"/>
<path fill-rule="evenodd" clip-rule="evenodd" d="M139.622 70.5875L130.338 58.4434L111.59 61.9099L115.893 82.4073L129.135 90.2239L139.622 70.5875Z" fill="#E8C48A"/>
<path d="M130.355 58.4284L139.639 70.5725L139.602 70.6009L130.317 58.4567L130.332 58.4196L130.355 58.4284ZM130.332 58.4196L130.346 58.417L130.355 58.4284L130.332 58.4196V58.4196ZM111.584 61.8862L130.332 58.4196L130.34 58.4655L111.593 61.9321L111.565 61.9139L111.584 61.8862V61.8862ZM111.565 61.9139L111.561 61.8905L111.584 61.8862L111.565 61.9139ZM115.869 82.4113L111.565 61.9139L111.611 61.9044L115.914 82.4017L115.88 82.4266L115.869 82.4113ZM115.88 82.4266L115.871 82.4214L115.869 82.4113L115.88 82.4266V82.4266ZM129.122 90.2432L115.88 82.4266L115.904 82.3865L129.145 90.203L129.154 90.2341L129.122 90.2432ZM129.154 90.2341L129.143 90.2556L129.122 90.2432L129.154 90.2341ZM139.641 70.5977L129.154 90.2341L129.113 90.2122L139.599 70.5758L139.639 70.5725L139.641 70.5977V70.5977ZM139.639 70.5725L139.648 70.5844L139.641 70.5977L139.639 70.5725Z" fill="#E8C48A"/>
<path fill-rule="evenodd" clip-rule="evenodd" d="M15.4951 53.4013L23.9951 58.4332L34.0984 40.2845L26.0378 35.2002L15.4951 53.4013Z" fill="#BD9977"/>
<path d="M23.9818 58.4516L15.4818 53.4197L15.5054 53.3795L24.0054 58.4115L24.0138 58.4429L23.9818 58.4516V58.4516ZM24.0138 58.4429L24.0022 58.4638L23.9818 58.4516L24.0138 58.4429ZM34.1171 40.2942L24.0138 58.4429L23.9733 58.4202L34.0766 40.2715L34.1092 40.2632L34.1171 40.2942ZM34.1092 40.2632L34.1278 40.2749L34.1171 40.2942L34.1092 40.2632V40.2632ZM26.0486 35.1789L34.1092 40.2632L34.0845 40.3026L26.024 35.2182L26.0162 35.1869L26.0486 35.1789ZM26.0162 35.1869L26.0283 35.166L26.0486 35.1789L26.0162 35.1869V35.1869ZM15.4735 53.3879L26.0162 35.1869L26.0564 35.2102L15.5136 53.4113L15.4818 53.4197L15.4735 53.3879V53.3879ZM15.4818 53.4197L15.4619 53.4079L15.4735 53.3879L15.4818 53.4197Z" fill="#BD9977"/>
<path fill-rule="evenodd" clip-rule="evenodd" d="M161.75 18.2452L166.558 11.6738L182.718 23.6416L178.797 29.9702L161.75 18.2452Z" fill="#BD9977"/>
<path d="M166.576 11.6859L161.767 18.2573L161.73 18.2297L166.538 11.6584L166.571 11.6535L166.576 11.6859ZM166.538 11.6584L166.552 11.6396L166.571 11.6535L166.538 11.6584ZM182.703 23.6587L166.543 11.6909L166.571 11.6535L182.73 23.6213L182.736 23.6523L182.703 23.6587V23.6587ZM182.73 23.6213L182.747 23.6341L182.736 23.6523L182.73 23.6213V23.6213ZM178.776 29.9563L182.697 23.6277L182.736 23.6523L178.815 29.9808L178.783 29.9878L178.776 29.9563V29.9563ZM178.815 29.9808L178.803 30.0016L178.783 29.9878L178.815 29.9808ZM161.762 18.2243L178.809 29.9494L178.783 29.9878L161.736 18.2627L161.73 18.2297L161.762 18.2243ZM161.736 18.2627L161.716 18.2492L161.73 18.2297L161.736 18.2627V18.2627Z" fill="#BD9977"/>
<path fill-rule="evenodd" clip-rule="evenodd" d="M119.915 68.2334C122.203 68.2334 124.058 69.9542 124.058 72.0769C124.058 74.1996 122.203 75.9204 119.915 75.9204C117.627 75.9204 115.771 74.1996 115.771 72.0769C115.771 69.9542 117.627 68.2334 119.915 68.2334Z" fill="#532124"/>
<path d="M124.081 72.0768H124.034L124.029 71.8803L124.013 71.6864L123.987 71.4953L123.95 71.3072L123.904 71.1225L123.849 70.9413L123.784 70.7638L123.711 70.5904L123.628 70.4212L123.537 70.2565L123.438 70.0966L123.331 69.9416L123.216 69.7918L123.094 69.6475L122.964 69.5088L122.828 69.3761L122.685 69.2496L122.535 69.1294L122.38 69.016L122.218 68.9094L122.051 68.8101L121.878 68.718L121.701 68.6336L121.518 68.557L121.331 68.4886L121.14 68.4285L120.944 68.377L120.745 68.3344L120.542 68.3006L120.335 68.2764L120.126 68.2616L119.914 68.2567V68.21L120.128 68.2149L120.34 68.23L120.548 68.2545L120.753 68.2885L120.955 68.3316L121.153 68.3837L121.346 68.4444L121.535 68.5136L121.72 68.591L121.9 68.6763L122.074 68.7694L122.243 68.87L122.406 68.9777L122.564 69.0924L122.715 69.2139L122.86 69.3419L122.998 69.4762L123.129 69.6165L123.253 69.7625L123.369 69.9141L123.477 70.071L123.578 70.233L123.67 70.3997L123.753 70.5711L123.828 70.7467L123.893 70.9265L123.95 71.11L123.996 71.2972L124.033 71.4877L124.059 71.6813L124.075 71.8778L124.081 72.0768V72.0768ZM119.914 75.9437V75.897L120.126 75.892L120.335 75.8772L120.542 75.853L120.745 75.8193L120.944 75.7766L121.14 75.7251L121.331 75.665L121.518 75.5966L121.701 75.52L121.878 75.4356L122.051 75.3435L122.218 75.2442L122.38 75.1376L122.535 75.0242L122.685 74.904L122.828 74.7774L122.964 74.6448L123.094 74.5062L123.216 74.3618L123.331 74.2121L123.438 74.057L123.537 73.8971L123.628 73.7324L123.711 73.5632L123.784 73.3898L123.849 73.2123L123.904 73.0312L123.95 72.8464L123.987 72.6583L124.013 72.4672L124.029 72.2733L124.034 72.0768H124.081L124.075 72.2758L124.059 72.4723L124.033 72.6659L123.996 72.8564L123.95 73.0436L123.893 73.2272L123.828 73.4069L123.753 73.5825L123.67 73.7539L123.578 73.9206L123.477 74.0826L123.369 74.2395L123.253 74.3911L123.129 74.5371L122.998 74.6774L122.86 74.8117L122.715 74.9397L122.564 75.0612L122.406 75.1759L122.243 75.2837L122.074 75.3842L121.9 75.4773L121.72 75.5626L121.535 75.64L121.346 75.7092L121.153 75.77L120.955 75.822L120.753 75.8652L120.548 75.8991L120.34 75.9237L120.128 75.9387L119.914 75.9437V75.9437ZM115.747 72.0768H115.794L115.799 72.2733L115.815 72.4672L115.841 72.6583L115.878 72.8464L115.923 73.0312L115.979 73.2123L116.044 73.3898L116.117 73.5632L116.2 73.7324L116.291 73.8971L116.39 74.057L116.497 74.2121L116.612 74.3618L116.734 74.5062L116.864 74.6448L117 74.7774L117.143 74.904L117.293 75.0242L117.448 75.1376L117.61 75.2442L117.777 75.3435L117.95 75.4356L118.127 75.52L118.31 75.5966L118.497 75.665L118.688 75.7251L118.884 75.7766L119.083 75.8193L119.286 75.853L119.492 75.8772L119.702 75.892L119.914 75.897V75.9437L119.7 75.9387L119.488 75.9237L119.28 75.8991L119.075 75.8652L118.873 75.822L118.675 75.77L118.482 75.7092L118.293 75.64L118.108 75.5626L117.928 75.4773L117.754 75.3842L117.585 75.2837L117.421 75.1759L117.264 75.0612L117.113 74.9397L116.968 74.8117L116.83 74.6774L116.699 74.5371L116.575 74.3911L116.459 74.2395L116.351 74.0826L116.25 73.9206L116.158 73.7539L116.075 73.5825L116 73.4069L115.935 73.2272L115.878 73.0436L115.832 72.8564L115.795 72.6659L115.769 72.4723L115.753 72.2758L115.747 72.0768V72.0768ZM119.914 68.21V68.2567L119.702 68.2616L119.492 68.2764L119.286 68.3006L119.083 68.3344L118.884 68.377L118.688 68.4285L118.497 68.4886L118.31 68.557L118.127 68.6336L117.95 68.718L117.777 68.8101L117.61 68.9094L117.448 69.016L117.293 69.1294L117.143 69.2496L117 69.3761L116.864 69.5088L116.734 69.6475L116.612 69.7918L116.497 69.9416L116.39 70.0966L116.291 70.2565L116.2 70.4212L116.117 70.5904L116.044 70.7638L115.979 70.9413L115.923 71.1225L115.878 71.3072L115.841 71.4953L115.815 71.6864L115.799 71.8803L115.794 72.0768H115.747L115.753 71.8778L115.769 71.6813L115.795 71.4877L115.832 71.2972L115.878 71.11L115.935 70.9265L116 70.7467L116.075 70.5711L116.158 70.3997L116.25 70.233L116.351 70.071L116.459 69.9141L116.575 69.7625L116.699 69.6165L116.83 69.4762L116.968 69.3419L117.113 69.2139L117.264 69.0924L117.421 68.9777L117.585 68.87L117.754 68.7694L117.928 68.6763L118.108 68.591L118.293 68.5136L118.482 68.4444L118.675 68.3837L118.873 68.3316L119.075 68.2885L119.28 68.2545L119.488 68.23L119.7 68.2149L119.914 68.21V68.21Z" fill="#532124"/>
<path fill-rule="evenodd" clip-rule="evenodd" d="M79.1043 70.3291C81.0777 70.3291 82.6774 71.813 82.6774 73.6435C82.6774 75.474 81.0777 76.9579 79.1043 76.9579C77.131 76.9579 75.5312 75.474 75.5312 73.6435C75.5312 71.813 77.131 70.3291 79.1043 70.3291Z" fill="#532124"/>
<path d="M82.6998 73.6434H82.653L82.6484 73.4741L82.6347 73.3071L82.6121 73.1424L82.581 72.9804L82.5414 72.8213L82.4936 72.6652L82.4379 72.5123L82.3743 72.3629L82.3033 72.2172L82.2249 72.0753L82.1395 71.9375L82.0472 71.8039L81.9483 71.675L81.843 71.5506L81.7314 71.4312L81.6139 71.3169L81.4907 71.2078L81.3619 71.1043L81.2278 71.0066L81.0886 70.9148L80.9446 70.8291L80.7959 70.7499L80.6429 70.6771L80.4855 70.6112L80.3243 70.5522L80.1594 70.5004L79.9909 70.456L79.8191 70.4193L79.6442 70.3903L79.4665 70.3693L79.2861 70.3566L79.1033 70.3523V70.3057L79.2883 70.3101L79.4708 70.3229L79.6507 70.3441L79.8278 70.3734L80.0017 70.4106L80.1724 70.4556L80.3394 70.508L80.5027 70.5678L80.662 70.6345L80.817 70.7081L80.9676 70.7885L81.1135 70.8753L81.2545 70.9683L81.3904 71.0674L81.5209 71.1721L81.6458 71.2826L81.7649 71.3985L81.878 71.5196L81.9848 71.6457L82.0851 71.7765L82.1787 71.9119L82.2653 72.0518L82.3449 72.1957L82.4169 72.3436L82.4814 72.4953L82.5379 72.6504L82.5865 72.8089L82.6266 72.9704L82.6583 73.1348L82.6813 73.302L82.6951 73.4716L82.6998 73.6434V73.6434ZM79.1033 76.9811V76.9345L79.2861 76.9302L79.4665 76.9175L79.6442 76.8965L79.8191 76.8675L79.9909 76.8308L80.1594 76.7864L80.3243 76.7346L80.4855 76.6756L80.6429 76.6097L80.7959 76.5369L80.9446 76.4576L81.0886 76.372L81.2278 76.2802L81.3619 76.1825L81.4907 76.0789L81.6139 75.9699L81.7314 75.8556L81.843 75.7362L81.9483 75.6118L82.0472 75.4828L82.1395 75.3492L82.2249 75.2115L82.3033 75.0696L82.3743 74.9238L82.4379 74.7745L82.4936 74.6216L82.5414 74.4655L82.581 74.3064L82.6121 74.1443L82.6347 73.9797L82.6484 73.8127L82.653 73.6434H82.6998L82.6951 73.8152L82.6813 73.9848L82.6583 74.1519L82.6266 74.3164L82.5865 74.4779L82.5379 74.6364L82.4814 74.7915L82.4169 74.9431L82.3449 75.0911L82.2653 75.235L82.1787 75.3748L82.0851 75.5102L81.9848 75.6411L81.878 75.7671L81.7649 75.8882L81.6458 76.0042L81.5209 76.1146L81.3904 76.2194L81.2545 76.3185L81.1135 76.4115L80.9676 76.4983L80.817 76.5786L80.662 76.6523L80.5027 76.719L80.3394 76.7788L80.1724 76.8312L80.0017 76.8762L79.8278 76.9134L79.6507 76.9427L79.4708 76.9639L79.2883 76.9767L79.1033 76.9811V76.9811ZM75.5068 73.6434H75.5536L75.5582 73.8127L75.5719 73.9797L75.5945 74.1443L75.6256 74.3064L75.6653 74.4655L75.7131 74.6216L75.7688 74.7745L75.8323 74.9238L75.9033 75.0696L75.9817 75.2115L76.0672 75.3492L76.1594 75.4828L76.2583 75.6118L76.3637 75.7362L76.4752 75.8556L76.5927 75.9699L76.7159 76.0789L76.8447 76.1825L76.9789 76.2802L77.118 76.372L77.262 76.4576L77.4107 76.5369L77.5638 76.6097L77.7211 76.6756L77.8824 76.7346L78.0473 76.7864L78.2158 76.8308L78.3876 76.8675L78.5625 76.8965L78.7402 76.9175L78.9206 76.9302L79.1033 76.9345V76.9811L78.9183 76.9767L78.7359 76.9639L78.5559 76.9427L78.3788 76.9134L78.2049 76.8762L78.0343 76.8312L77.8673 76.7788L77.7039 76.719L77.5446 76.6523L77.3896 76.5786L77.2391 76.4983L77.0931 76.4115L76.9521 76.3185L76.8163 76.2194L76.6858 76.1146L76.5609 76.0042L76.4418 75.8882L76.3287 75.7671L76.2218 75.6411L76.1215 75.5102L76.0279 75.3748L75.9413 75.235L75.8618 75.0911L75.7897 74.9431L75.7253 74.7915L75.6687 74.6364L75.6201 74.4779L75.58 74.3164L75.5483 74.1519L75.5254 73.9848L75.5115 73.8152L75.5068 73.6434V73.6434ZM79.1033 70.3057V70.3523L78.9206 70.3566L78.7402 70.3693L78.5625 70.3903L78.3876 70.4193L78.2158 70.456L78.0473 70.5004L77.8824 70.5522L77.7211 70.6112L77.5638 70.6771L77.4107 70.7499L77.262 70.8291L77.118 70.9148L76.9789 71.0066L76.8447 71.1043L76.7159 71.2078L76.5927 71.3169L76.4752 71.4312L76.3637 71.5506L76.2583 71.675L76.1594 71.8039L76.0672 71.9375L75.9817 72.0753L75.9033 72.2172L75.8323 72.3629L75.7688 72.5123L75.7131 72.6652L75.6653 72.8213L75.6256 72.9804L75.5945 73.1424L75.5719 73.3071L75.5582 73.4741L75.5536 73.6434H75.5068L75.5115 73.4716L75.5254 73.302L75.5483 73.1348L75.58 72.9704L75.6201 72.8089L75.6687 72.6504L75.7253 72.4953L75.7897 72.3436L75.8618 72.1957L75.9413 72.0518L76.0279 71.9119L76.1215 71.7765L76.2218 71.6457L76.3287 71.5196L76.4418 71.3985L76.5609 71.2826L76.6858 71.1721L76.8163 71.0674L76.9521 70.9683L77.0931 70.8753L77.2391 70.7885L77.3896 70.7081L77.5446 70.6345L77.7039 70.5678L77.8673 70.508L78.0343 70.4556L78.2049 70.4106L78.3788 70.3734L78.5559 70.3441L78.7359 70.3229L78.9183 70.3101L79.1033 70.3057V70.3057Z" fill="#532124"/>
<path fill-rule="evenodd" clip-rule="evenodd" d="M111.528 61.9095L113.999 51.8065L122.106 51.5254L126.333 53.109L146.791 7.99725L149.964 1L36.4795 20.5638L42.0571 25.8752L74.0274 56.32L77.8768 54.0823L86.1827 53.5327L89.1996 64.8166L89.1811 64.9501L89.8945 62.1489L111.528 61.9095Z" fill="#D9937B"/>
<path d="M111.528 61.9095L113.999 51.8065L122.106 51.5254L126.333 53.109L146.791 7.99725L149.964 1L36.4795 20.5638L42.0571 25.8752L74.0274 56.32L77.8768 54.0823L86.1827 53.5327L89.1996 64.8166L89.1811 64.9501L89.8945 62.1489L111.528 61.9095Z" stroke="#D9937B" stroke-width="0.0762" stroke-miterlimit="22.9256"/>
<path fill-rule="evenodd" clip-rule="evenodd" d="M187.006 81.8659L132.159 92.0098L149.236 102.09L135.405 135.061L119.328 130.327L116.413 164.302L185.183 138.71L198.367 79.7646L187.006 81.8659Z" fill="#A65C49"/>
<path d="M132.154 91.9859L187.001 81.842L187.009 81.8877L132.162 92.0317L132.146 92.0289L132.154 91.9859ZM132.146 92.0289L132.093 91.9972L132.154 91.9859L132.146 92.0289V92.0289ZM149.223 102.109L132.146 92.0289L132.17 91.9888L149.246 102.069L149.256 102.098L149.223 102.109ZM149.246 102.069L149.264 102.079L149.256 102.098L149.246 102.069V102.069ZM135.383 135.051L149.213 102.08L149.256 102.098L135.426 135.069L135.398 135.083L135.383 135.051V135.051ZM135.426 135.069L135.418 135.089L135.398 135.083L135.426 135.069ZM119.334 130.304L135.411 135.038L135.398 135.083L119.321 130.349L119.304 130.324L119.334 130.304V130.304ZM119.304 130.324L119.307 130.296L119.334 130.304L119.304 130.324ZM116.389 164.3L119.304 130.324L119.35 130.328L116.435 164.303L116.42 164.323L116.389 164.3ZM116.42 164.323L116.386 164.336L116.389 164.3L116.42 164.323V164.323ZM185.19 138.731L116.42 164.323L116.404 164.28L185.174 138.687L185.205 138.714L185.19 138.731V138.731ZM185.205 138.714L185.202 138.727L185.19 138.731L185.205 138.714ZM198.389 79.7687L185.205 138.714L185.16 138.704L198.343 79.7585L198.362 79.7407L198.389 79.7687V79.7687ZM198.362 79.7407L198.396 79.7344L198.389 79.7687L198.362 79.7407V79.7407ZM187.001 81.842L198.362 79.7407L198.37 79.7865L187.009 81.8877L187.001 81.842Z" fill="#A65C49"/>
<path fill-rule="evenodd" clip-rule="evenodd" d="M68.2872 89.9636L62.2134 71.1413L70.8451 62.4704L67.4114 61.357L67.829 59.958L74.088 56.3197L42.1177 25.875L1 99.7357L60.0592 115.883L55.0082 100.05L68.2872 89.9636Z" fill="#A65C49"/>
<path d="M68.2872 89.9636L62.2134 71.1413L70.8451 62.4704L67.4114 61.357L67.829 59.958L74.088 56.3197L42.1177 25.875L1 99.7357L60.0592 115.883L55.0082 100.05L68.2872 89.9636Z" stroke="#A65C49" stroke-width="0.0762" stroke-miterlimit="22.9256"/>
<path fill-rule="evenodd" clip-rule="evenodd" d="M14.7984 103.468L4.38086 134.329L71.5478 177.121L115.617 172.954L116.413 164.301L119.082 133.189L62.5058 123.55L60.06 115.884L14.7984 103.468Z" fill="#BC6A54"/>
<path d="M4.35838 134.321L14.7759 103.46L14.8198 103.475L4.40231 134.336L4.36789 134.348L4.35838 134.321V134.321ZM4.36789 134.348L4.35254 134.339L4.35838 134.321L4.36789 134.348ZM71.5348 177.141L4.36789 134.348L4.39281 134.309L71.5598 177.102L71.5495 177.144L71.5348 177.141V177.141ZM71.5495 177.144L71.5416 177.145L71.5348 177.141L71.5495 177.144ZM115.619 172.977L71.5495 177.144L71.5451 177.098L115.614 172.931L115.64 172.956L115.619 172.977ZM115.64 172.956L115.638 172.975L115.619 172.977L115.64 172.956ZM116.435 164.303L115.64 172.956L115.593 172.952L116.389 164.299L116.435 164.303V164.303V164.303ZM116.435 164.303V164.303L116.435 164.306L116.435 164.303ZM119.105 133.19L116.435 164.303L116.389 164.299L119.059 133.186L119.086 133.166L119.105 133.19ZM119.086 133.166L119.107 133.169L119.105 133.19L119.086 133.166ZM62.5092 123.527L119.086 133.166L119.078 133.211L62.5014 123.573L62.4832 123.557L62.5092 123.527ZM62.5014 123.573L62.4875 123.571L62.4832 123.557L62.5014 123.573V123.573ZM60.0816 115.876L62.5274 123.543L62.4832 123.557L60.0374 115.891L60.0656 115.861L60.0816 115.876V115.876ZM60.0656 115.861L60.0778 115.864L60.0816 115.876L60.0656 115.861V115.861ZM14.804 103.445L60.0656 115.861L60.0534 115.906L14.7918 103.49L14.7759 103.46L14.804 103.445ZM14.7759 103.46L14.7829 103.439L14.804 103.445L14.7759 103.46V103.46Z" fill="#BC6A54"/>
<path fill-rule="evenodd" clip-rule="evenodd" d="M112.58 116.264L101.281 124.509C90.964 111.295 65.8783 112.823 77.7365 99.5822C78.7096 100.124 79.5199 98.8512 80.4905 99.317L81.5496 95.1578L86.3697 76.2275L68.2868 89.9636L55.0078 100.05L62.5046 123.55L81.5049 133.755L91.3602 136.634L100.505 132.662L108.648 140.455L121.541 137.293L121.529 138.622L135.404 135.06L149.234 102.089L129.133 90.2233L115.891 82.4066L117.456 96.9643L125.731 108.947L112.58 116.264V116.264Z" fill="#EDCFA5"/>
<path d="M112.58 116.264L101.281 124.509C90.964 111.295 65.8783 112.823 77.7365 99.5822C78.7096 100.124 79.5199 98.8512 80.4905 99.317L81.5496 95.1578L86.3697 76.2275L68.2868 89.9636L55.0078 100.05L62.5046 123.55L81.5049 133.755L91.3602 136.634L100.505 132.662L108.648 140.455L121.541 137.293L121.529 138.622L135.404 135.06L149.234 102.089L129.133 90.2233L115.891 82.4066L117.456 96.9643L125.731 108.947L112.58 116.264V116.264Z" stroke="#EDCFA5" stroke-width="0.0762" stroke-miterlimit="22.9256"/>
<path fill-rule="evenodd" clip-rule="evenodd" d="M79.4531 103.393L100.343 109.208L119.731 100.696L115.892 82.4065L111.588 61.9092L89.955 62.1485L79.4531 103.393Z" fill="#D69F4B"/>
<path d="M100.337 109.231L79.4468 103.415L79.4594 103.37L100.35 109.186L100.353 109.23L100.337 109.231V109.231ZM100.353 109.23L100.345 109.233L100.337 109.231L100.353 109.23V109.23ZM119.741 100.717L100.353 109.23L100.334 109.187L119.722 100.674L119.754 100.691L119.741 100.717ZM119.754 100.691L119.758 100.71L119.741 100.717L119.754 100.691ZM115.915 82.4019L119.754 100.691L119.708 100.701L115.869 82.4114L115.915 82.4019ZM111.611 61.9045L115.915 82.4019L115.869 82.4114L111.566 61.9141L111.588 61.8859L111.611 61.9045ZM111.588 61.8859L111.607 61.8857L111.611 61.9045L111.588 61.8859ZM89.9548 62.1252L111.588 61.8859L111.589 61.9326L89.9553 62.1719L89.9324 62.1428L89.9548 62.1252ZM89.9324 62.1428L89.9368 62.1254L89.9548 62.1252L89.9324 62.1428ZM79.4304 103.387L89.9324 62.1428L89.9778 62.1543L79.4758 103.399L79.4468 103.415L79.4304 103.387V103.387ZM79.4468 103.415L79.4248 103.409L79.4304 103.387L79.4468 103.415V103.415Z" fill="#D69F4B"/>
<path fill-rule="evenodd" clip-rule="evenodd" d="M80.2558 71.4326C81.0141 71.4326 81.6288 72.0473 81.6288 72.8056C81.6288 73.5639 81.0141 74.1786 80.2558 74.1786C79.4975 74.1786 78.8828 73.5639 78.8828 72.8056C78.8828 72.0473 79.4975 71.4326 80.2558 71.4326Z" fill="#FEFEFE"/>
<path d="M80.2558 71.4326C81.0141 71.4326 81.6288 72.0473 81.6288 72.8056C81.6288 73.5639 81.0141 74.1786 80.2558 74.1786C79.4975 74.1786 78.8828 73.5639 78.8828 72.8056C78.8828 72.0473 79.4975 71.4326 80.2558 71.4326Z" stroke="#FEFEFE" stroke-width="0.0762" stroke-miterlimit="22.9256"/>
<path fill-rule="evenodd" clip-rule="evenodd" d="M120.729 69.3721C121.582 69.3721 122.273 70.0637 122.273 70.917C122.273 71.7703 121.582 72.4619 120.729 72.4619C119.875 72.4619 119.184 71.7703 119.184 70.917C119.184 70.0637 119.875 69.3721 120.729 69.3721Z" fill="#FEFEFE"/>
<path d="M120.729 69.3721C121.582 69.3721 122.273 70.0637 122.273 70.917C122.273 71.7703 121.582 72.4619 120.729 72.4619C119.875 72.4619 119.184 71.7703 119.184 70.917C119.184 70.0637 119.875 69.3721 120.729 69.3721Z" stroke="#FEFEFE" stroke-width="0.0762" stroke-miterlimit="22.9256"/>
<path fill-rule="evenodd" clip-rule="evenodd" d="M104.12 110.512L104.891 114.684L118.767 109.559L117.097 105.864L104.12 110.512Z" fill="#D8DFD8"/>
<path d="M104.867 114.687L104.096 110.515L104.142 110.507L104.913 114.678L104.898 114.704L104.867 114.687V114.687ZM104.898 114.704L104.872 114.714L104.867 114.687L104.898 114.704ZM118.774 109.58L104.898 114.704L104.882 114.661L118.758 109.536L118.788 109.548L118.774 109.58V109.58ZM118.788 109.548L118.798 109.571L118.774 109.58L118.788 109.548V109.548ZM117.117 105.854L118.788 109.548L118.745 109.567L117.075 105.873L117.088 105.841L117.117 105.854V105.854ZM117.088 105.841L117.108 105.834L117.117 105.854L117.088 105.841ZM104.111 110.489L117.088 105.841L117.104 105.885L104.127 110.533L104.096 110.515L104.111 110.489V110.489ZM104.096 110.515L104.093 110.496L104.111 110.489L104.096 110.515Z" fill="#D8DFD8"/>
<path fill-rule="evenodd" clip-rule="evenodd" d="M100.506 132.663L91.4176 135.893L83.5658 130.07L80.4197 133.219L78.5332 135.106L91.0063 144.159L110.491 144.788L118.617 140.639L121.704 139.063L121.724 136.825L121.736 135.496L108.156 140.022L100.506 132.663Z" fill="#CFAB78"/>
<path d="M91.4094 135.87L100.498 132.641L100.513 132.684L91.4249 135.914L91.4034 135.911L91.4094 135.87ZM91.4249 135.914L91.4133 135.918L91.4034 135.911L91.4249 135.914V135.914ZM83.5791 130.051L91.4309 135.874L91.4034 135.911L83.5516 130.088L83.549 130.053L83.5791 130.051V130.051ZM83.549 130.053L83.5631 130.039L83.5791 130.051L83.549 130.053V130.053ZM80.4028 133.202L83.549 130.053L83.5817 130.086L80.4356 133.234L80.4028 133.202ZM78.5163 135.089L80.4028 133.202L80.4356 133.234L78.5491 135.122L78.5192 135.125L78.5163 135.089ZM78.5192 135.125L78.4971 135.109L78.5163 135.089L78.5192 135.125V135.125ZM90.9922 144.177L78.5192 135.125L78.5463 135.087L91.0194 144.139L91.0051 144.181L90.9922 144.177ZM91.0051 144.181L90.9979 144.181L90.9922 144.177L91.0051 144.181V144.181ZM110.49 144.81L91.0051 144.181L91.0065 144.135L110.492 144.764L110.501 144.808L110.49 144.81V144.81ZM110.501 144.808L110.496 144.811L110.49 144.81L110.501 144.808ZM118.627 140.659L110.501 144.808L110.48 144.767L118.606 140.618L118.627 140.659ZM121.714 139.083L118.627 140.659L118.606 140.618L121.693 139.041L121.727 139.062L121.714 139.083ZM121.727 139.062L121.727 139.076L121.714 139.083L121.727 139.062ZM121.747 136.825L121.727 139.062L121.68 139.062L121.701 136.824L121.747 136.825ZM121.759 135.495L121.747 136.825L121.701 136.824L121.713 135.495L121.729 135.473L121.759 135.495V135.495ZM121.729 135.473L121.76 135.463L121.759 135.495L121.729 135.473ZM108.148 139.999L121.729 135.473L121.743 135.517L108.163 140.043L108.139 140.038L108.148 139.999V139.999ZM108.163 140.043L108.15 140.048L108.139 140.038L108.163 140.043ZM100.522 132.646L108.172 140.004L108.139 140.038L100.489 132.679L100.498 132.641L100.522 132.646V132.646ZM100.498 132.641L100.511 132.636L100.522 132.646L100.498 132.641Z" fill="#CFAB78"/>
<path d="M99.5933 132.576L100.475 123.326L102.299 123.499L101.417 132.749L99.8695 133.321L99.5933 132.576ZM99.8695 133.321L99.5515 133.015L99.5933 132.576L99.8695 133.321ZM107.52 140.679L99.8695 133.321L101.141 132.004L108.791 139.363L108.452 140.886L107.52 140.679V140.679ZM108.452 140.886L107.923 141.067L107.52 140.679L108.452 140.886V140.886ZM124.358 135.441L108.452 140.886L107.858 139.156L123.764 133.712L124.358 135.441ZM91.1096 135.031L100.198 131.802L100.812 133.524L91.7242 136.754L90.8692 136.625L91.1096 135.031ZM91.7242 136.754L91.2621 136.918L90.8692 136.625L91.7242 136.754ZM74.4568 122.123L91.9646 135.16L90.8692 136.625L73.3613 123.588L74.4568 122.123Z" fill="#532124"/>
<path fill-rule="evenodd" clip-rule="evenodd" d="M76.361 97.1082L71.2471 108.446C82.4487 114.862 89.4773 119.256 101.296 124.509L130.433 108.652C127.663 104.322 124.893 99.9933 122.124 95.6641C106.536 104.249 92.8678 105.341 76.361 97.1082V97.1082Z" fill="#532124"/>
<path d="M71.1909 108.421L76.3048 97.0829L76.4155 97.1332L71.3015 108.471L71.2161 108.499L71.1909 108.421V108.421ZM71.2161 108.499L71.168 108.472L71.1909 108.421L71.2161 108.499ZM101.266 124.455L101.324 124.563L101.27 124.565L100.176 124.075L99.1076 123.589L98.0643 123.107L97.0441 122.629L96.0454 122.154L95.0666 121.681L94.106 121.21L93.1619 120.74L92.2329 120.271L91.3171 119.802L90.413 119.333L89.5189 118.864L88.6332 118.393L87.7542 117.92L86.8803 117.445L86.01 116.967L85.1414 116.486L84.273 116L83.4032 115.511L82.5303 115.016L81.6526 114.516L80.7686 114.009L79.8765 113.497L78.9748 112.977L78.0617 112.449L77.1358 111.914L76.1952 111.369L75.2384 110.816L74.2638 110.252L73.2696 109.679L72.2543 109.095L71.2161 108.499L71.2763 108.393L72.3146 108.989L73.3301 109.573L74.3243 110.147L75.299 110.71L76.2558 111.263L77.1964 111.808L78.1223 112.343L79.0352 112.871L79.9369 113.391L80.8288 113.903L81.7127 114.41L82.5901 114.91L83.4627 115.404L84.3323 115.894L85.2003 116.379L86.0685 116.86L86.9384 117.338L87.8118 117.812L88.6903 118.285L89.5755 118.756L90.469 119.225L91.3726 119.694L92.2877 120.162L93.2162 120.63L94.1596 121.1L95.1195 121.571L96.0978 122.043L97.0958 122.518L98.1153 122.996L99.158 123.478L100.226 123.963L101.319 124.453L101.266 124.455V124.455ZM101.324 124.563L101.298 124.577L101.27 124.565L101.324 124.563ZM130.461 108.705L101.324 124.563L101.266 124.455L130.403 108.598L130.483 108.618L130.461 108.705ZM130.483 108.618L130.518 108.674L130.461 108.705L130.483 108.618V108.618ZM122.152 95.7174L122.094 95.6104L122.174 95.6309L122.434 96.0368L122.693 96.4426L122.953 96.8485L123.213 97.2543L123.472 97.6602L123.732 98.0661L123.992 98.472L124.251 98.8777L124.511 99.2836L124.771 99.6895L125.03 100.095L125.29 100.501L125.549 100.907L125.809 101.313L126.069 101.719L126.328 102.125L126.588 102.531L126.848 102.936L127.107 103.342L127.367 103.748L127.627 104.154L127.886 104.56L128.146 104.966L128.406 105.372L128.665 105.777L128.925 106.183L129.185 106.589L129.444 106.995L129.704 107.401L129.964 107.807L130.223 108.213L130.483 108.618L130.381 108.684L130.121 108.279L129.861 107.873L129.602 107.467L129.342 107.061L129.083 106.655L128.823 106.249L128.563 105.843L128.304 105.438L128.044 105.032L127.784 104.626L127.525 104.22L127.265 103.814L127.005 103.408L126.746 103.002L126.486 102.597L126.226 102.191L125.967 101.785L125.707 101.379L125.447 100.973L125.188 100.567L124.928 100.161L124.668 99.7555L124.409 99.3496L124.149 98.9438L123.889 98.5379L123.63 98.132L123.37 97.7262L123.11 97.3203L122.851 96.9145L122.591 96.5086L122.331 96.1027L122.072 95.6968L122.152 95.7174V95.7174ZM122.094 95.6104L122.143 95.583L122.174 95.6309L122.094 95.6104V95.6104ZM76.4155 97.1332L76.3048 97.0829L76.3871 97.0533L77.9252 97.7973L79.4473 98.4869L80.9545 99.1226L82.4476 99.7047L83.9275 100.233L85.3949 100.709L86.851 101.133L88.2964 101.504L89.7321 101.823L91.1589 102.09L92.5777 102.307L93.9895 102.472L95.3952 102.587L96.7954 102.652L98.1912 102.666L99.5834 102.632L100.973 102.548L102.361 102.415L103.748 102.234L105.135 102.004L106.522 101.727L107.912 101.402L109.304 101.03L110.699 100.611L112.099 100.145L113.504 99.6333L114.915 99.0756L116.334 98.4723L117.76 97.8239L119.195 97.1305L120.639 96.3926L122.094 95.6104L122.152 95.7174L120.695 96.5008L119.248 97.2399L117.811 97.9346L116.382 98.5842L114.961 99.1887L113.547 99.7476L112.139 100.261L110.736 100.727L109.337 101.147L107.941 101.52L106.548 101.846L105.156 102.124L103.765 102.354L102.374 102.536L100.982 102.669L99.5886 102.754L98.1921 102.788L96.792 102.774L95.3874 102.709L93.9776 102.593L92.5616 102.428L91.1386 102.211L89.7078 101.942L88.2682 101.622L86.819 101.25L85.3594 100.826L83.8884 100.349L82.4052 99.8192L80.909 99.2358L79.3988 98.5989L77.8737 97.908L76.3331 97.1627L76.4155 97.1332V97.1332ZM76.3048 97.0829L76.3307 97.0252L76.3871 97.0533L76.3048 97.0829V97.0829Z" fill="#532124"/>
<path fill-rule="evenodd" clip-rule="evenodd" d="M104.625 109.293L105.416 113.838L119.66 108.254L117.946 104.228L104.625 109.293Z" fill="#FEFEFE"/>
<path d="M105.356 113.849L104.564 109.303L104.684 109.282L105.475 113.828L105.438 113.895L105.356 113.849ZM105.438 113.895L105.368 113.922L105.356 113.849L105.438 113.895ZM119.682 108.31L105.438 113.895L105.393 113.781L119.638 108.197L119.716 108.229L119.682 108.31V108.31ZM119.716 108.229L119.74 108.287L119.682 108.31L119.716 108.229ZM118.001 104.203L119.716 108.229L119.604 108.277L117.889 104.251L117.924 104.17L118.001 104.203ZM117.924 104.17L117.978 104.149L118.001 104.203L117.924 104.17ZM104.603 109.235L117.924 104.17L117.967 104.284L104.646 109.349L104.564 109.303L104.603 109.235V109.235ZM104.564 109.303L104.556 109.253L104.603 109.235L104.564 109.303Z" fill="#FEFEFE"/>
<path fill-rule="evenodd" clip-rule="evenodd" d="M69.4173 54.6435L67.4131 61.3586L88.3773 68.1564L92.245 53.1328L69.4173 54.6435Z" fill="#532124"/>
<path d="M67.3893 61.351L69.3935 54.6359L69.4383 54.6493L67.4342 61.3644L67.4046 61.3799L67.3893 61.351ZM67.4046 61.3799L67.3828 61.3729L67.3893 61.351L67.4046 61.3799V61.3799ZM88.3688 68.1777L67.4046 61.3799L67.4189 61.3355L88.3831 68.1333L88.3986 68.1613L88.3688 68.1777ZM88.3986 68.1613L88.3924 68.1854L88.3688 68.1777L88.3986 68.1613V68.1613ZM92.2663 53.1377L88.3986 68.1613L88.3534 68.1497L92.2211 53.1261L92.2421 53.1086L92.2663 53.1377V53.1377ZM92.2421 53.1086L92.2744 53.1064L92.2663 53.1377L92.2421 53.1086ZM69.4143 54.6194L92.2421 53.1086L92.2453 53.1552L69.4175 54.6659L69.3935 54.6359L69.4143 54.6194ZM69.3935 54.6359L69.3981 54.6204L69.4143 54.6194L69.3935 54.6359Z" fill="#532124"/>
<path fill-rule="evenodd" clip-rule="evenodd" d="M112.257 65.2341L109.595 51.9677L131.664 51.2021L133.606 57.1772L112.257 65.2341Z" fill="#532124"/>
<path d="M109.617 51.9625L112.279 65.2289L112.233 65.2383L109.571 51.9718L109.593 51.9438L109.617 51.9625V51.9625ZM109.571 51.9718L109.565 51.9448L109.593 51.9438L109.571 51.9718V51.9718ZM131.664 51.225L109.595 51.9905L109.593 51.9438L131.663 51.1783L131.686 51.1945L131.664 51.225V51.225ZM131.663 51.1783L131.68 51.1777L131.686 51.1945L131.663 51.1783ZM133.583 57.1839L131.641 51.2089L131.686 51.1945L133.627 57.1695L133.613 57.1985L133.583 57.1839ZM133.627 57.1695L133.634 57.1907L133.613 57.1985L133.627 57.1695ZM112.248 65.2118L133.597 57.1549L133.613 57.1985L112.265 65.2554L112.233 65.2383L112.248 65.2118V65.2118ZM112.265 65.2554L112.239 65.2652L112.233 65.2383L112.265 65.2554Z" fill="#532124"/>
</svg>
