<svg width="619" height="612" viewBox="0 0 619 612" fill="none" xmlns="http://www.w3.org/2000/svg">
<path fill-rule="evenodd" clip-rule="evenodd" d="M309.5 0C394.959 0 472.34 34.2501 528.344 89.6253C584.356 145 619 221.501 619 306C619 390.499 584.356 467.001 528.344 522.375C472.34 577.75 394.959 612 309.5 612C224.033 612 146.66 577.75 90.6472 522.375C34.6435 467.001 0 390.499 0 306C0 221.501 34.6435 145 90.6472 89.6253C146.66 34.2501 224.033 0 309.5 0ZM361.018 212.151C359.753 218.06 357.857 223.899 355.829 227.995C380.104 228.904 403.466 230.516 425.537 232.745C464.509 236.678 505.026 242.764 542.725 253.645C575.121 226.951 588.544 204.614 582.53 190.608C575.56 174.37 542.101 170.927 488.687 179.257C452.279 184.936 408.496 196.092 361.018 212.151ZM346.725 473.577C344.424 467.777 340.377 455.933 337.901 449.488C330.658 452.13 322.107 455.358 312.687 458.167V605.67C351.316 605.277 388.207 597.739 422.078 584.334L374.529 473.583L346.725 473.577ZM306.304 460.019C280.3 467.369 248.738 474.917 219.38 475.213C186.141 475.55 154.825 467.361 139.452 443.987C137.029 444.4 134.623 444.794 132.253 445.164C91.4988 451.52 59.1556 450.984 39.7619 442.854C54.2392 470.687 72.9919 495.991 95.1599 517.916C149.32 571.458 223.866 604.831 306.304 605.67V460.019ZM133.008 432.314C124.404 411.767 128.583 391.409 140.356 372.323C122.973 369.485 106.81 366.22 92.131 362.591C86.6351 361.234 81.3498 359.82 76.2666 358.355C43.8706 385.051 29.0686 406.746 35.0825 420.753C45.5739 445.194 113.43 435.486 133.008 432.314ZM144.166 366.555C170.417 329.304 224.296 297.461 265.419 279.433C261.968 271.425 258.632 262.636 255.726 253.515C189.6 283.091 132.815 315.572 92.807 345.42C89.146 348.147 85.6342 350.844 82.2717 353.508C85.9679 354.52 89.7693 355.513 93.6761 356.479C108.979 360.261 125.905 363.643 144.166 366.555ZM252.17 241.29C251.609 239.148 251.082 236.998 250.581 234.848C189.898 237.776 135.668 245.142 93.6761 255.521C39.7443 268.851 6.38266 286.732 6.38266 306C6.38266 321.936 29.2002 336.924 67.6189 349.174C73.0445 344.626 78.8916 340.018 85.125 335.366C126.16 304.752 184.429 271.467 252.17 241.29ZM249.238 228.599C246.095 212.762 244.664 196.511 248.79 180.706L185.201 32.5869C151.453 47.607 120.989 68.5524 95.1599 94.0869C44.0814 144.59 11.1498 213.038 6.86547 289.044C19.7097 273.496 49.9636 259.831 92.131 249.408C134.272 238.992 188.555 231.586 249.238 228.599ZM255.524 164.185C266.595 145.285 284.865 137.268 306.304 137.523V6.32866C267.684 6.72274 230.793 14.2606 196.913 27.6662L255.524 164.185ZM312.687 137.924C345.004 141.363 361.79 167.36 362.888 198.245C408.777 183.026 451.164 172.385 486.738 166.835C527.501 160.481 559.836 161.014 579.229 169.144C564.752 141.31 546.008 116.008 523.84 94.0869C469.68 40.5441 395.125 7.17064 312.687 6.32866V137.924ZM325.373 211.404C326.927 208.788 327.621 204.458 327.586 200.569C327.471 189.057 324.723 177.021 312.687 172.97V216.213C316.866 214.607 321.264 212.943 325.373 211.404ZM306.304 171.716C305.742 171.673 305.172 171.647 304.583 171.626C276.165 172.39 280.036 207.998 284.628 227.378C291.897 224.383 299.123 221.484 306.304 218.681V171.716ZM288.263 239.522C293.337 253.837 300.282 268.433 306.304 282.459V233.448C305.268 233.451 304.232 233.455 303.196 233.456C298.236 235.432 293.258 237.452 288.263 239.519V239.522ZM358.375 403.73C375.31 396.932 394.406 388.304 411.718 380.556C391.982 382.277 371.333 383.515 349.991 384.21L358.375 403.73ZM440.884 377.584L450.488 399.966C426.327 411.483 399.831 423.509 371.939 435.321L433.799 579.412C467.547 564.393 498.011 543.448 523.84 517.916C574.919 467.411 607.841 398.965 612.135 322.959C599.282 338.507 569.028 352.171 526.86 362.591C502.023 368.731 472.972 373.825 440.884 377.584ZM596.455 209.215C590.836 223.696 577.157 240.358 556.938 258.07C583.435 266.985 602.591 277.493 612.135 289.044C610.563 261.255 605.164 234.476 596.455 209.215ZM551.381 262.827C525.578 284.432 496.071 303.291 466.941 320.082C432.719 339.804 393.255 359.53 350.394 377.886C418.364 375.641 479.206 367.877 525.315 356.479C579.256 343.148 612.617 325.267 612.617 306C612.617 290.063 589.791 275.076 551.381 262.827ZM313.196 393.12L312.687 393.319V421.489C317.006 420.023 320.764 418.596 323.802 417.284C320.351 409.356 316.796 401.275 313.196 393.12ZM306.304 395.787C266.455 411.079 228.229 423.339 193.498 432.275C222.654 443.209 274.883 433.284 306.304 423.555V395.787ZM22.5454 402.791C28.1642 388.308 41.8426 371.645 62.0615 353.93C35.5566 345.016 16.4087 334.506 6.86547 322.958C8.4282 350.749 13.8275 377.529 22.5454 402.791ZM186.817 372.222C223.436 376.196 263.821 378.444 306.304 378.551V377.569C296.55 355.578 286.665 333.414 277.64 312.581C250.854 323.903 208.888 346.697 186.817 372.222ZM179.021 422.922C215.596 414.091 256.63 401.267 299.685 384.825C257.877 384.501 218.177 382.11 182.172 378.051C173.296 390.223 169.407 402.852 174.157 415.031C175.325 418.009 176.975 420.623 179.021 422.922ZM342.783 367.423C385.977 349.038 425.704 329.25 460.049 309.482C486.572 294.218 512.734 277.482 536.72 258.492C500.25 248.481 461.743 242.702 424.15 238.938C389.691 235.489 352.089 233.548 312.687 233.448V297.323L342.783 367.423Z" fill="#7D88A3"/>
</svg>
