<svg width="18" height="22" viewBox="0 0 18 22" fill="none" xmlns="http://www.w3.org/2000/svg">
<path d="M6.36541 10.8076L5.04937 7.96026C4.91439 7.67904 4.94813 7.01114 5.35306 6.69477C5.64281 6.46839 6.87157 5.64016 7.37775 5.00741C7.72675 4.57113 7.3393 2.80343 7.27651 2.47641C7.17528 1.94912 6.77035 1.3164 5.85924 1.21094C5.13035 1.12658 3.73331 1.00001 3.53085 1C2.5185 0.999974 1 1.97416 1 3.8474C0.999993 11.8622 6.87158 18.8225 12.9456 20.8262C14.9703 21.4941 15.9827 20.088 16.3876 19.1388C16.7925 18.1897 16.995 16.5024 16.995 16.5024C16.995 16.186 17.0962 15.3423 16.3876 14.9205C15.679 14.4987 14.4642 13.8659 13.958 13.9714C13.4518 14.0768 12.0345 15.3423 12.0345 15.3423C11.7308 15.5884 11.0829 16.0384 10.516 15.4478C9.9491 14.8572 8.42384 13.4792 7.78269 12.8113" stroke="white"/>
</svg>
