<svg width="39" height="70" viewBox="0 0 39 70" fill="none" xmlns="http://www.w3.org/2000/svg">
<path fill-rule="evenodd" clip-rule="evenodd" d="M37.1344 67.3166H1.5783C1.00006 67.3166 0.530925 67.7583 0.530925 68.3105V69.0062C0.530925 69.5472 1.00006 70 1.5783 70H37.1344C37.7127 70 38.1818 69.5583 38.1818 69.0062V68.3105C38.1818 67.7694 37.7127 67.3166 37.1344 67.3166ZM14.6923 13.936L16.1979 25.6634C16.5797 23.1898 17.2125 17.558 17.8126 15.8022C17.5289 15.4599 17.3544 15.0181 17.3544 14.5323C17.3544 14.3224 17.3871 14.1237 17.4416 13.936H21.2602C21.3147 14.1237 21.3475 14.3224 21.3475 14.5323C21.3475 15.0181 21.1729 15.4599 20.8892 15.8022C21.4893 17.558 22.1221 23.1787 22.5039 25.6634L23.9332 13.936C24.806 13.936 25.6788 13.9139 26.5516 13.9139C27.3262 13.9028 27.9699 14.0574 28.3191 15.3826L33.5341 35.1491C33.8178 36.2092 33.2068 37.3687 32.1158 37.6558C31.5812 37.7993 30.7193 38.1085 30.1956 38.0975C29.2901 38.1196 28.4609 37.5122 28.21 36.5846L28.1336 36.2865V64.1253C28.1336 64.8099 27.5772 65.362 26.9116 65.362H21.1838C20.4638 65.362 19.8746 64.8762 19.8746 64.1253V43.8066H18.8381V64.1253C18.8381 64.8099 18.2817 65.362 17.6162 65.362H11.8884C11.1683 65.362 10.5792 64.8762 10.5792 64.1253V42.3821V36.2865V18.8831H1.52375C0.421824 18.8831 -0.243695 17.9776 0.0836094 17.0831L4.68769 4.22937C4.70951 4.15207 4.74224 4.08582 4.78588 4.0306C5.08045 3.52264 5.70233 3.2797 6.25875 3.48951L8.56079 4.3398C9.19358 4.5717 9.52088 5.28948 9.29177 5.92996L6.43331 13.9249C9.89183 13.9249 11.2447 13.947 14.6923 13.947V13.936ZM19.3946 0C16.1215 0 13.4813 2.584 13.4813 5.90787C13.4813 9.16548 16.1215 11.8599 19.3618 11.8157C22.5912 11.8599 25.2424 9.16548 25.2424 5.90787C25.2424 2.63922 22.624 0 19.4055 0H19.3946ZM30.5229 40.1073V39.4226C30.5229 39.1466 30.752 38.9147 31.0248 38.9147H31.8103C32.0831 38.9147 32.3122 39.1466 32.3122 39.4226V40.1073C33.0213 40.1073 33.6105 40.6042 33.6105 41.3441V55.6113C33.6105 56.2959 33.0541 56.8481 32.3885 56.8481H30.4574C29.781 56.8481 29.2355 56.2849 29.2355 55.6113V41.3441C29.2355 40.6042 29.8247 40.1073 30.5338 40.1073H30.5229Z" fill="#7D88A3"/>
</svg>
