<svg width="37" height="70" viewBox="0 0 37 70" fill="none" xmlns="http://www.w3.org/2000/svg">
<path fill-rule="evenodd" clip-rule="evenodd" d="M19.384 4.51646V13.2361H23.6325C23.9352 12.9431 24.349 12.7613 24.8031 12.7613C25.7416 12.7613 26.4984 13.5191 26.4984 14.4587C26.4984 15.3984 25.7416 16.1562 24.8031 16.1562C24.349 16.1562 23.9352 15.9743 23.6325 15.6813H20.2721H16.0539H12.6935C12.3908 15.9743 11.977 16.1562 11.5229 16.1562C10.5844 16.1562 9.82756 15.3984 9.82756 14.4587C9.82756 13.5191 10.5844 12.7613 11.5229 12.7613C11.977 12.7613 12.3908 12.9431 12.6935 13.2361H16.9419V4.51646C16.2255 4.09209 15.7411 3.31409 15.7411 2.42494C15.7411 1.08112 16.8309 0 18.163 0C19.5051 0 20.5849 1.09122 20.5849 2.42494C20.5849 3.32419 20.1005 4.10219 19.384 4.51646ZM34.5614 21.0162C29.2029 20.1472 23.9049 19.056 18.7079 17.5505C18.5364 17.5101 18.3547 17.4899 18.163 17.4899C17.9813 17.4899 17.7997 17.5101 17.6181 17.5505C12.421 19.056 7.113 20.1371 1.76461 21.0162C0.826114 21.289 0.129813 22.1074 0.0289003 23.1077C-0.415117 39.7286 4.22689 51.8938 16.0539 57.7237V62.6848C16.0539 62.8565 16.9924 66.2919 17.1135 66.8476L17.6988 69.5655C17.7593 69.8282 17.8502 70 18.1731 70C18.496 70 18.5868 69.8181 18.6474 69.5554L19.2327 66.8476C19.3538 66.2919 20.2923 62.8565 20.2923 62.6848V57.7237C32.1193 51.8938 36.7613 39.7387 36.3172 23.1077C36.2163 22.1074 35.52 21.289 34.5815 21.0162H34.5614ZM16.0539 22.9056V52.6617V54.935C16.5786 55.0765 17.1034 55.2281 17.6181 55.3796C17.7896 55.42 17.9713 55.4402 18.163 55.4402C18.3446 55.4402 18.5263 55.42 18.7079 55.3796L20.2721 54.935V52.6617V22.9056V20.7333V20.6322L19.8987 20.5312L18.7079 20.1978C18.5364 20.1573 18.3547 20.1371 18.163 20.1371C17.9813 20.1371 17.7997 20.1573 17.6181 20.1978C17.0933 20.3493 16.5786 20.4908 16.0539 20.6423V20.7434V22.9157V22.9056Z" fill="#7D88A3"/>
</svg>
