<svg width="80" height="49" viewBox="0 0 80 49" fill="none" xmlns="http://www.w3.org/2000/svg">
<path fill-rule="evenodd" clip-rule="evenodd" d="M48.1918 20.5984C45.4408 20.5984 43.2165 18.381 43.2165 15.6385C43.2165 12.8959 45.4408 10.6785 48.1918 10.6785C50.9428 10.6785 53.1671 12.8959 53.1671 15.6385C53.1671 18.381 50.9428 20.5984 48.1918 20.5984ZM25.9397 27.7174C22.9935 23.8953 12.1748 11.9914 9.15059 8.25687C8.9945 8.10126 8.77988 8.01373 8.54575 8.01373H7.98969H0.877988C0.643858 8.01373 0.429239 8.11099 0.273152 8.25687C0.10731 8.4611 0 8.60698 0 8.88902V9.50172C0 9.97827 0.390217 10.377 0.877988 10.377H7.78483L24.4861 29.7014C24.6715 29.9153 24.9251 30.0807 25.2178 30.0807H66.3076C69.1952 34.8169 69.4294 35.0601 72.317 39.7964L68.9904 42.0916C68.5904 42.4611 68.6197 43.2294 68.8343 43.5309C69.0489 43.8324 69.0782 43.7935 69.2245 43.881L73.9071 46.254L78.1214 48.3839C78.6092 48.627 79.0189 48.8215 79.5457 48.4617C80.0725 48.1019 80.0238 47.7031 79.9652 47.1682L79.4384 42.4319L78.8629 37.2289C78.8433 37.0635 78.8824 37.0441 78.6775 36.7426C78.4629 36.4411 77.7507 36.1396 77.2727 36.3827L74.1412 38.5418C71.2146 33.5526 70.9317 33.115 67.9075 28.1648C67.6539 27.7563 67.2734 27.7271 66.8539 27.7271H25.9494L25.9397 27.7174ZM28.4858 19.9176H26.9055H25.8129H25.6373C25.0324 19.9176 24.5446 19.4216 24.5446 18.8284V16.1247H23.1496H22.057H21.8814C21.2766 16.1247 20.7888 15.6287 20.7888 15.0355V1.08925C20.7888 0.48627 21.2863 0 21.8814 0H22.057H23.1496H57.8106H58.9033H59.0789C59.6837 0 60.1715 0.495996 60.1715 1.08925V3.79291H61.5665H62.6591H62.8347C63.4395 3.79291 63.9273 4.2889 63.9273 4.88215V7.58582H65.5077H66.6003H66.7759C67.3807 7.58582 67.8685 8.08181 67.8685 8.67506V22.6213C67.8685 23.2243 67.371 23.7105 66.7759 23.7105H66.6003H65.5077H30.8467H29.754H29.5784C28.9736 23.7105 28.4858 23.2145 28.4858 22.6213V19.9176ZM61.5665 7.57609V6.14646H60.1715H57.8009H26.9152V13.7517V16.115V17.5446H28.4956V8.66534C28.4956 8.06236 28.9931 7.57609 29.5882 7.57609H29.7638H30.8564H61.5665ZM24.5349 13.7517V4.87243C24.5349 4.26945 25.0324 3.78318 25.6275 3.78318H25.8031H26.8957H57.7814V2.35355H23.1204V13.7517H24.5154H24.5349ZM63.3517 21.3375H33.0319C33.0319 20.1413 32.0563 19.1785 30.8662 19.1785V12.1081C32.0661 12.1081 33.0319 11.1356 33.0319 9.94909H63.3517C63.3517 11.1453 64.3273 12.1081 65.5174 12.1081V19.1785C64.3175 19.1785 63.3517 20.151 63.3517 21.3375Z" fill="#7D88A3"/>
</svg>
