<svg width="87" height="70" viewBox="0 0 87 70" fill="none" xmlns="http://www.w3.org/2000/svg">
<path fill-rule="evenodd" clip-rule="evenodd" d="M28.0267 10.0023V66.1542H37.1409V58.8582H49.7227V66.1542H58.8369V10.0023H28.0426H28.0267ZM61.4456 0H25.4022C24.8136 0 24.3364 0.633054 24.3364 1.42437V2.42143C24.3364 3.19693 24.8136 3.84581 25.4022 3.84581H61.4456C62.0341 3.84581 62.5113 3.21275 62.5113 2.42143V1.42437C62.5113 0.648881 62.0341 0 61.4456 0ZM24.1615 62.3242H15.1745V22.062H24.1615V24.8474H19.1828C18.4034 24.8474 17.7513 25.4804 17.7513 26.2718V27.2688C17.7513 28.0443 18.3875 28.6932 19.1828 28.6932H24.1615V32.539H19.1828C18.4034 32.539 17.7513 33.1721 17.7513 33.9634V34.9604C17.7513 35.7359 18.3875 36.3848 19.1828 36.3848H24.1615V40.2306H19.1828C18.4034 40.2306 17.7513 40.8637 17.7513 41.655V42.6521C17.7513 43.4275 18.3875 44.0764 19.1828 44.0764H24.1615V47.9222H19.1828C18.4034 47.9222 17.7513 48.5553 17.7513 49.3466V50.3437C17.7513 51.1192 18.3875 51.768 19.1828 51.768H24.1615V55.6138H19.1828C18.4034 55.6138 17.7513 56.2469 17.7513 57.0382V58.0353C17.7513 58.8108 18.3875 59.4596 19.1828 59.4596H24.1615V62.3084V62.3242ZM11.2934 62.3242H1.43156C0.652153 62.3242 0 62.9573 0 63.7486V64.7457C0 65.5211 0.636247 66.17 1.43156 66.17H11.2934H15.1586H24.1456V67.9426V68.2275C24.1456 69.2087 24.9568 70 25.9271 70H60.8729C61.8591 70 62.6544 69.1929 62.6544 68.2275V67.9426V67.5944V66.1542H71.6414H75.5066H85.3684C86.1479 66.1542 86.8 65.5211 86.8 64.7298V63.7328C86.8 62.9573 86.1638 62.3084 85.3684 62.3084H75.5066V22.0461V21.1598V20.2736V19.9887C75.5066 19.0075 74.6954 18.2161 73.7251 18.2161H62.6544V10.0181V9.13181V8.24553V7.96066C62.6544 6.97943 61.8432 6.18811 60.8729 6.18811H25.9271C24.9409 6.18811 24.1456 6.99525 24.1456 7.96066V8.24553V18.2161H13.0749C12.0887 18.2161 11.2934 19.0233 11.2934 19.9887V20.2736V21.1598V22.0461V62.3084V62.3242ZM62.6862 62.3242H71.6732V22.062H62.6862V24.8474H67.6649C68.4443 24.8474 69.0964 25.4804 69.0964 26.2718V27.2688C69.0964 28.0443 68.4602 28.6932 67.6649 28.6932H62.6862V32.539H67.6649C68.4443 32.539 69.0964 33.1721 69.0964 33.9634V34.9604C69.0964 35.7359 68.4602 36.3848 67.6649 36.3848H62.6862V40.2306H67.6649C68.4443 40.2306 69.0964 40.8637 69.0964 41.655V42.6521C69.0964 43.4275 68.4602 44.0764 67.6649 44.0764H62.6862V47.9222H67.6649C68.4443 47.9222 69.0964 48.5553 69.0964 49.3466V50.3437C69.0964 51.1192 68.4602 51.768 67.6649 51.768H62.6862V55.6138H67.6649C68.4443 55.6138 69.0964 56.2469 69.0964 57.0382V58.0353C69.0964 58.8108 68.4602 59.4596 67.6649 59.4596H62.6862V62.3084V62.3242ZM32.035 51.2774H54.8127C55.5921 51.2774 56.2442 51.9105 56.2442 52.7018V53.6988C56.2442 54.4743 55.608 55.1232 54.8127 55.1232H32.035C31.2556 55.1232 30.6035 54.4902 30.6035 53.6988V52.7018C30.6035 51.9263 31.2397 51.2774 32.035 51.2774ZM32.035 28.1868H54.8127C55.5921 28.1868 56.2442 28.8198 56.2442 29.6111V30.6082C56.2442 31.3837 55.608 32.0326 54.8127 32.0326H32.035C31.2556 32.0326 30.6035 31.3995 30.6035 30.6082V29.6111C30.6035 28.8356 31.2397 28.1868 32.035 28.1868ZM32.035 43.57H54.8127C55.5921 43.57 56.2442 44.203 56.2442 44.9944V45.9914C56.2442 46.7669 55.608 47.4158 54.8127 47.4158H32.035C31.2556 47.4158 30.6035 46.7827 30.6035 45.9914V44.9944C30.6035 44.2189 31.2397 43.57 32.035 43.57ZM32.035 20.4793H54.8127C55.5921 20.4793 56.2442 21.1124 56.2442 21.9037V22.9007C56.2442 23.6762 55.608 24.3251 54.8127 24.3251H32.035C31.2556 24.3251 30.6035 23.6921 30.6035 22.9007V21.9037C30.6035 21.1282 31.2397 20.4793 32.035 20.4793ZM32.035 35.8625H54.8127C55.5921 35.8625 56.2442 36.4956 56.2442 37.2869V38.284C56.2442 39.0595 55.608 39.7083 54.8127 39.7083H32.035C31.2556 39.7083 30.6035 39.0753 30.6035 38.284V37.2869C30.6035 36.5114 31.2397 35.8625 32.035 35.8625ZM32.035 12.7719H54.8127C55.5921 12.7719 56.2442 13.4049 56.2442 14.1962V15.1933C56.2442 15.9688 55.608 16.6177 54.8127 16.6177H32.035C31.2556 16.6177 30.6035 15.9846 30.6035 15.1933V14.1962C30.6035 13.4208 31.2397 12.7719 32.035 12.7719Z" fill="#7D88A3"/>
</svg>
