<svg width="69" height="70" viewBox="0 0 69 70" fill="none" xmlns="http://www.w3.org/2000/svg">
<path fill-rule="evenodd" clip-rule="evenodd" d="M39.2447 68.3443V68.5754C39.2447 69.3583 38.5535 70 37.7215 70H1.5232C0.678399 70 0 69.3583 0 68.5754V68.3443V20.4969V20.2659C0 19.4829 0.691199 18.8412 1.5232 18.8412H17.856V1.74551C17.856 1.20645 17.7664 0.744408 18.1504 0.3337C18.4704 0 18.7776 0 19.1744 0C19.4176 0 19.6608 0 19.8912 0C23.488 0 27.0719 0 30.6687 0C30.8607 0 31.0655 0 31.2575 0C31.4367 0.0513385 31.5903 0.141181 31.7311 0.282362C33.3055 1.91236 34.8927 3.55519 36.4671 5.18519C44.4159 5.18519 52.3775 5.18519 60.3263 5.18519C60.9151 5.18519 61.4015 5.6729 61.4015 6.26329C61.4015 6.94353 61.4015 7.62376 61.4015 8.304C61.4015 8.74037 61.4015 9.17675 61.4015 9.62596C63.5007 9.62596 65.6127 9.62596 67.7119 9.62596C69.2991 9.62596 68.7359 11.949 68.5055 12.8731C66.2271 21.8574 63.9359 30.8287 61.6575 39.813C61.4399 40.6729 61.2095 41.9692 60.0959 41.9949C59.3663 41.9949 58.6239 41.9949 57.8943 41.9949H39.2575V68.37L39.2447 68.3443ZM26.5983 18.8412H37.7215C38.5663 18.8412 39.2447 19.4829 39.2447 20.2659V20.4969V38.8632H58.6751C60.8895 30.1485 63.1039 21.4338 65.3183 12.7191C52.9407 12.7191 40.5631 12.7191 28.1855 12.7191L26.5983 18.8284V18.8412ZM48.6015 59.6553H56.5247C57.1519 59.6553 57.6639 60.1687 57.6639 60.7976V61.6062C57.6639 62.2351 57.1519 62.7484 56.5247 62.7484H48.6015C47.9743 62.7484 47.4623 62.2351 47.4623 61.6062V60.7976C47.4623 60.1687 47.9743 59.6553 48.6015 59.6553ZM48.6015 55.3172H56.5247C57.1519 55.3172 57.6639 55.8306 57.6639 56.4595V57.2681C57.6639 57.897 57.1519 58.4103 56.5247 58.4103H48.6015C47.9743 58.4103 47.4623 57.897 47.4623 57.2681V56.4595C47.4623 55.8306 47.9743 55.3172 48.6015 55.3172ZM48.6015 50.9791H56.5247C57.1519 50.9791 57.6639 51.4925 57.6639 52.1214V52.93C57.6639 53.5589 57.1519 54.0722 56.5247 54.0722H48.6015C47.9743 54.0722 47.4623 53.5589 47.4623 52.93V52.1214C47.4623 51.4925 47.9743 50.9791 48.6015 50.9791ZM45.7215 48.4892V66.9197H59.4047V48.4892H45.7215ZM62.4767 68.3443V68.5754C62.4767 69.3583 61.8367 70 61.0559 70H44.0703C43.2895 70 42.6495 69.3583 42.6495 68.5754V68.3443V47.0645V46.8335C42.6495 46.0506 43.2895 45.4089 44.0703 45.4089H61.0559C61.8367 45.4089 62.4767 46.0506 62.4767 46.8335V47.0645V68.3443ZM25.1775 57.4606V63.8009H31.5007V57.4606H25.1775ZM16.4096 57.4606V63.8009H22.7328V57.4606H16.4096ZM13.9776 57.4606H7.65439V63.8009H13.9776V57.4606ZM13.9776 54.9065V48.5662H7.65439V54.9065H13.9776ZM22.7456 54.9065V48.5662H16.4224V54.9065H22.7456ZM31.5135 48.5662H25.1903V54.9065H31.5135V48.5662ZM25.1903 39.5948V45.9351H31.5135V39.5948H25.1903ZM16.4224 39.5948V44.8442V45.9351H22.7456V39.5948H17.1648H16.4224ZM12.4032 39.5948H7.65439V40.6344V45.4089V45.9351H13.9776V45.4089V39.5948H12.3904H12.4032ZM7.65439 25.143V36.3476H12.4032H17.1648H31.6031V25.143H17.1648H12.4032H7.65439Z" fill="#7D88A3"/>
</svg>
