<svg width="76" height="44" viewBox="0 0 76 44" fill="none" xmlns="http://www.w3.org/2000/svg">
<path fill-rule="evenodd" clip-rule="evenodd" d="M53.2679 0.0135892H53.7429C54.435 0.0135892 54.9643 0.557156 54.9643 1.2502V3.66908H64.315C64.9121 3.66908 65.3193 3.72344 65.6993 4.23982L75.43 17.6795C75.6607 18.0057 76 18.5356 76 18.9297V34.7204C76 35.3862 75.4571 35.9434 74.7786 35.9434H64.1521C64.1521 39.9522 60.9086 43.2 56.905 43.2C53.7021 43.2 50.9879 41.1209 50.0379 38.2535H37.1314C36.1679 41.1344 33.4536 43.2 30.2643 43.2C27.0614 43.2 24.3471 41.1209 23.3971 38.2535H13.1779C12.5671 38.2535 11.4814 37.9546 11.4814 37.1936V30.5621H6.29714C5.63214 30.5621 5.07571 30.0185 5.07571 29.339V28.4829C5.07571 27.817 5.61857 27.2599 6.29714 27.2599H11.4814V20.574H1.22143C0.556429 20.574 0 20.0305 0 19.351V18.4949C0 17.829 0.542857 17.2718 1.22143 17.2718H11.4814V9.98805H6.29714C5.63214 9.98805 5.07571 9.44448 5.07571 8.76502V7.9089C5.07571 7.24303 5.61857 6.68588 6.29714 6.68588H11.4814V1.23662C11.4814 0.298962 12.3907 0 13.1779 0H53.2679V0.0135892ZM34.8921 37.6013C35.0414 37.1392 35.1229 36.6636 35.1229 36.1472C35.1229 33.5517 33.0193 31.4318 30.4136 31.4318C27.8214 31.4318 25.7043 33.5381 25.7043 36.1472C25.7043 36.65 25.7857 37.1392 25.935 37.6013C26.5457 39.4902 28.3236 40.8627 30.4136 40.8627C32.5036 40.8627 34.2814 39.4902 34.8921 37.6013ZM52.3857 36.1472C52.3857 36.65 52.4671 37.1392 52.6164 37.6013C52.915 38.5117 53.485 39.3135 54.2314 39.8842L54.2993 39.9386L54.3671 39.993C54.4893 40.0745 54.625 40.1696 54.7471 40.2376L54.8286 40.2783L54.91 40.3191L54.9914 40.3599L55.0729 40.4006L55.1543 40.4414L55.2357 40.4822L55.3171 40.5229L55.3986 40.5501L55.48 40.5773L55.5614 40.6045L55.6564 40.6316L55.7514 40.6588L55.8464 40.686L55.9414 40.7132L56.0364 40.7404L56.1314 40.7539L56.2264 40.7675L56.3214 40.7811L56.4164 40.7947L56.5114 40.8083L56.6064 40.8219L56.7014 40.8355L56.7964 40.8491H56.8914H56.9864H57.0814C59.6736 40.8491 61.7907 38.7427 61.7907 36.1336V36.12V36.1064V36.0929V36.0793V36.0657V36.0521V36.0385V36.0249V36.0113V35.9977V35.9841V35.9706V35.957V35.9434V35.9298V35.9162V35.9026V35.889V35.8754V35.8618V35.8483V35.8347V35.8211V35.8075V35.7939V35.7803V35.7667V35.7531V35.7395V35.726V35.7124V35.6988V35.6852V35.6716V35.658V35.6444V35.6308V35.6172V35.6036V35.5901V35.5765V35.5629V35.5493V35.5357V35.5221V35.5085V35.4949V35.4813V35.4678V35.4542V35.4406V35.427V35.4134V35.3998V35.3862V35.3726V35.359V35.3455V35.3319V35.3183V35.3047V35.2911V35.2775V35.2639C61.4107 33.0489 59.4836 31.3638 57.1493 31.3638C54.5571 31.3638 52.44 33.4701 52.44 36.0793L52.3857 36.1472ZM54.9779 6.97125H63.3921L72.7429 19.7858V32.6548H63.4057C62.2114 30.3039 59.7686 28.7003 56.9457 28.7003C56.2671 28.7003 55.6021 28.7955 54.9779 28.9721V6.98484V6.97125Z" fill="#7D88A3"/>
</svg>
