<svg width="69" height="70" viewBox="0 0 69 70" fill="none" xmlns="http://www.w3.org/2000/svg">
<path fill-rule="evenodd" clip-rule="evenodd" d="M47.9115 3.85877V24.5399C46.2709 23.8383 44.4551 23.4556 42.5597 23.4556C35.0257 23.4556 28.9253 29.5626 28.9253 37.1048C28.9253 44.6469 35.0257 50.754 42.5597 50.754C44.4551 50.754 46.2709 50.3713 47.9115 49.6697V66.1572H3.85458V3.87472H47.9115V3.85877ZM20.2445 26.6765C20.0852 26.8519 19.8622 26.9795 19.6233 27.0592L19.3844 27.139H24.4495C25.2459 27.139 25.899 27.7927 25.899 28.59V29.6105C25.899 30.4077 25.2459 31.0615 24.4495 31.0615C20.0215 31.0615 15.5139 31.0615 11.054 31.0615H10.0347C9.23825 31.0615 8.5852 30.4077 8.5852 29.6105V28.59V18.2415V16.7904V15.7699C8.5852 14.9727 9.23825 14.3189 10.0347 14.3189H11.054C11.8504 14.3189 12.5035 14.9727 12.5035 15.7699C12.5035 19.5809 12.5035 18.7517 12.5035 27.139H17.3775C17.1385 26.9636 16.9474 26.7084 16.8518 26.3895L14.6856 19.262C14.4467 18.4966 14.8927 17.6834 15.6413 17.4601L16.6129 17.1572C17.3775 16.918 18.1898 17.3645 18.4128 18.1139L19.3844 21.287L26.3927 14.3827C26.9661 13.8246 27.7944 13.6333 28.4156 14.1276L29.2279 14.7494C29.8491 15.2437 30.0243 16.2005 29.4828 16.7745L20.2445 26.6606V26.6765ZM12.4876 41.2506H21.9647V50.1481H12.4876V41.2506ZM11.0381 37.328H10.0187H9.98687H9.95501H9.92316H9.8913H9.85944H9.82759H9.79573H9.76388H9.73202L9.70016 37.344L9.66831 37.3599L9.63645 37.3759L9.6046 37.3918L9.57274 37.4077L9.54088 37.4237L9.50903 37.4396L9.47717 37.4556L9.44532 37.4715L9.41346 37.4875L9.3816 37.5034L9.34975 37.5194L9.31789 37.5353L9.28604 37.5513L9.25418 37.5672L9.22232 37.5831L9.19047 37.5991L9.15861 37.615L9.12676 37.631L9.0949 37.6469L9.06304 37.6629L9.03119 37.6788L8.99933 37.7107L8.96748 37.7426L8.95155 37.7745L8.93562 37.8064L8.91969 37.8383L8.90376 37.8702L8.88784 37.9021L8.87191 37.9339L8.85598 37.9658L8.84005 37.9977L8.82412 38.0296L8.8082 38.0615L8.79227 38.0934L8.77634 38.1253L8.76041 38.1572L8.74448 38.1891L8.72856 38.221L8.71263 38.2528L8.6967 38.2847L8.68077 38.3166L8.66484 38.3485L8.64892 38.3804L8.63299 38.4123L8.61706 38.4442V38.4761V38.508V38.5399V38.5718V38.6036V38.6355V38.6674V38.6993V38.7312V39.7517V41.2027V51.5513V52.5718C8.61706 53.369 9.27011 54.0228 10.0665 54.0228H11.0859H23.462H24.4814H24.5132H24.5451H24.5769H24.6088H24.6406H24.6725H24.7044H24.7362H24.7681L24.7999 54.0068L24.8318 53.9909L24.8636 53.9749L24.8955 53.959L24.9274 53.9431L24.9592 53.9271L24.9911 53.9112L25.0229 53.8952L25.0548 53.8793L25.0866 53.8633L25.1185 53.8474L25.1503 53.8314L25.1822 53.8155L25.2141 53.7995L25.2459 53.7836L25.2778 53.7677L25.3096 53.7517L25.3415 53.7358L25.3733 53.7198L25.4052 53.7039L25.437 53.6879L25.4689 53.672L25.5008 53.6401L25.5326 53.6082L25.5485 53.5763L25.5645 53.5444L25.5804 53.5125L25.5963 53.4806L25.6123 53.4487L25.6282 53.4169L25.6441 53.385L25.66 53.3531L25.676 53.3212L25.6919 53.2893L25.7078 53.2574L25.7238 53.2255L25.7397 53.1936L25.7556 53.1617L25.7715 53.1298L25.7875 53.0979L25.8034 53.0661L25.8193 53.0342L25.8352 53.0023L25.8512 52.9704L25.8671 52.9385L25.883 52.9066V52.8747V52.8428V52.8109V52.779V52.7472V52.7153V52.6834V52.6515V52.6196V51.5991V50.1481V39.7995V38.779C25.883 37.9818 25.23 37.328 24.4336 37.328H23.4142H11.0381ZM47.9911 28.9886C48.0389 29.0205 48.1026 29.0683 48.1504 29.1002L48.1663 29.1162C48.23 29.164 48.2778 29.1959 48.3415 29.2437L48.3734 29.2597C48.4212 29.3075 48.4849 29.3394 48.5327 29.3872L48.5645 29.4032C48.6123 29.451 48.676 29.4829 48.7238 29.5308L48.7397 29.5467L48.7557 29.5626C48.8035 29.6105 48.8672 29.6583 48.915 29.6902L48.9309 29.7062C48.9787 29.754 49.0264 29.8018 49.0742 29.8337L49.0902 29.8497C49.1379 29.8975 49.2017 29.9453 49.2494 29.9932L49.2654 30.0091C49.3132 30.0569 49.3609 30.1048 49.4087 30.1526L49.4246 30.1686C49.4724 30.2164 49.5202 30.2642 49.568 30.328L49.5839 30.344C49.6317 30.3918 49.6636 30.4396 49.7114 30.4875L49.7432 30.5194C49.791 30.5672 49.8228 30.615 49.8706 30.6629L49.9025 30.7107C49.9343 30.7585 49.9821 30.8064 50.014 30.8542L50.0458 30.9021C50.0777 30.9499 50.1255 30.9977 50.1573 31.0296L50.1892 31.0615C50.237 31.1093 50.2688 31.1572 50.3007 31.221L50.3325 31.2688C50.3644 31.3166 50.3963 31.3485 50.4281 31.3964L50.46 31.4442C50.4918 31.492 50.5237 31.5399 50.5555 31.5877L50.6033 31.6515C50.6352 31.6993 50.667 31.7472 50.6989 31.795L50.7148 31.8269C50.7467 31.8747 50.7785 31.9226 50.8104 31.9704L50.8582 32.0501C50.89 32.0979 50.9219 32.1458 50.9378 32.1936L50.9697 32.2415C51.0015 32.2893 51.0174 32.3371 51.0493 32.385L51.0812 32.4487C51.113 32.4966 51.1289 32.5604 51.1608 32.6082L51.1927 32.656C51.2245 32.7039 51.2404 32.7517 51.2723 32.7995L51.3042 32.8633C51.336 32.9112 51.3519 32.959 51.3679 33.0228L51.3997 33.1025L51.4634 33.246L51.4953 33.3098L51.559 33.4533L51.5909 33.533L51.6546 33.6765L51.6864 33.7563C52.0528 34.7927 52.2598 35.9089 52.2598 37.0569C52.2598 38.221 52.0528 39.3371 51.6864 40.3736L51.6546 40.4374L51.5909 40.5968L51.559 40.6765C51.5431 40.7244 51.5112 40.7722 51.4953 40.82L51.4634 40.8838C51.4475 40.9317 51.4156 40.9795 51.3997 41.0273L51.3679 41.0911C51.336 41.139 51.3201 41.2027 51.2882 41.2506L51.2564 41.2984C51.2245 41.3462 51.2086 41.3941 51.1767 41.4579L51.1449 41.5057C51.113 41.5535 51.0971 41.6173 51.0652 41.6651L51.0334 41.7289C51.0015 41.7768 50.9856 41.8246 50.9537 41.8724L50.9219 41.9203L50.8422 42.0638L50.8104 42.1276L50.7148 42.2711L50.683 42.3189C50.6511 42.3667 50.6193 42.4146 50.5874 42.4624L50.5396 42.5262C50.5078 42.574 50.4759 42.6219 50.444 42.6697L50.4122 42.7175C50.3803 42.7654 50.3485 42.8132 50.3166 42.8451L50.2848 42.8929C50.2529 42.9408 50.2051 43.0046 50.1733 43.0524L50.1414 43.0843C50.1096 43.1321 50.0777 43.18 50.0299 43.2118L49.9981 43.2597C49.9662 43.3075 49.9184 43.3554 49.8866 43.4032L49.8547 43.451C49.8069 43.4989 49.7751 43.5467 49.7273 43.5945L49.6954 43.6264C49.6476 43.6743 49.6158 43.7221 49.568 43.7699L49.5521 43.8018C49.5043 43.8497 49.4565 43.8975 49.4087 43.9453L49.3928 43.9613C49.345 44.0091 49.2972 44.0569 49.2494 44.1048L49.2335 44.1207C49.1857 44.1686 49.1379 44.2164 49.0742 44.2642L49.0424 44.2802C48.9946 44.328 48.9468 44.3599 48.899 44.4077L48.8672 44.4396C48.8194 44.4875 48.7716 44.5194 48.7238 44.5672L48.7079 44.5831L48.692 44.5991C48.6442 44.6469 48.5805 44.6788 48.5327 44.7267L48.5008 44.7426C48.453 44.7904 48.3893 44.8223 48.3415 44.8702L48.3097 44.8861C48.246 44.9339 48.1982 44.9658 48.1345 45.0137L48.1185 45.0296C48.0708 45.0615 48.0071 45.1093 47.9593 45.1412C46.3983 46.1936 44.5347 46.7995 42.5278 46.7995C37.1441 46.7995 32.7799 42.4305 32.7799 37.041C32.7799 31.6515 37.1441 27.2825 42.5278 27.2825C44.5347 27.2825 46.4143 27.8884 47.9593 28.9408L47.9911 28.9886ZM51.7661 27.0273V2.07289V1.78588C51.7661 0.797266 50.9697 0 49.9821 0H1.78394C0.796401 0 0 0.797266 0 1.78588V2.07289V67.9271V68.2141C0 69.2027 0.796401 70 1.78394 70H49.9821C50.9697 70 51.7661 69.2027 51.7661 68.2141V67.9271V48.7608L62.5493 59.6196C65.0182 62.1071 70.1629 56.7813 67.28 54.4214L54.426 43.8497C55.5569 41.8565 56.1941 39.5604 56.1941 37.1048C56.1941 33.1185 54.4898 29.5308 51.7661 27.0433V27.0273Z" fill="#7D88A3"/>
</svg>
