<svg width="338" height="237" viewBox="0 0 338 237" fill="none" xmlns="http://www.w3.org/2000/svg">
<path d="M237.5 86C293.005 86 338 76.8218 338 65.5C338 54.1782 293.005 45 237.5 45C181.995 45 137 54.1782 137 65.5C137 76.8218 181.995 86 237.5 86Z" fill="#D8E4F0"/>
<path d="M161 58C216.781 58 262 48.598 262 37C262 25.402 216.781 16 161 16C105.219 16 60 25.402 60 37C60 48.598 105.219 58 161 58Z" fill="#D8E4F0"/>
<path d="M85.183 86.7521C132.228 86.7521 170.366 78.9339 170.366 69.2896C170.366 59.6454 132.228 51.8271 85.183 51.8271C38.1377 51.8271 0 59.6454 0 69.2896C0 78.9339 38.1377 86.7521 85.183 86.7521Z" fill="#D8E4F0"/>
<path d="M267.652 203.684H18.665V216.563H267.652V203.684Z" fill="#7D8EAD" stroke="#7D8EAD" stroke-width="0.0762" stroke-miterlimit="22.9256"/>
<path d="M273.785 216.562H12.5322V236.494H273.785V216.562Z" fill="#A7B7D4" stroke="#A7B7D4" stroke-width="0.0762" stroke-miterlimit="22.9256"/>
<path d="M273.785 76.124H12.5322V96.0553H273.785V76.124Z" fill="#7D8EAD" stroke="#7D8EAD" stroke-width="0.0762" stroke-miterlimit="22.9256"/>
<path fill-rule="evenodd" clip-rule="evenodd" d="M143.159 1L255.387 76.1245H30.9316L143.159 1Z" fill="#A7B7D4" stroke="#A7B7D4" stroke-width="0.0762" stroke-miterlimit="22.9256"/>
<path fill-rule="evenodd" clip-rule="evenodd" d="M143.159 15.7183L233.399 76.1244H52.9189L143.159 15.7183Z" fill="#687999" stroke="#687999" stroke-width="0.0762" stroke-miterlimit="22.9256"/>
<path d="M254.16 96.0537H32.1572V203.682H254.16V96.0537Z" fill="#A7B7D4" stroke="#A7B7D4" stroke-width="0.0762" stroke-miterlimit="22.9256"/>
<path fill-rule="evenodd" clip-rule="evenodd" d="M243.438 96.0557H208.175V101.88H211.318V110.312H216.071V198.928H211.931V203.684H216.071H235.542H239.681V198.928H235.542V110.312H240.295V101.88H243.438V96.0557Z" fill="#EEF6F8" stroke="#EEF6F8" stroke-width="0.0762" stroke-miterlimit="22.9256"/>
<path fill-rule="evenodd" clip-rule="evenodd" d="M188.55 96.0557H153.287V101.88H156.43V110.312H161.183V198.928H157.043V203.684H161.183H180.654H184.794V198.928H180.654V110.312H185.407V101.88H188.55V96.0557Z" fill="#EEF6F8" stroke="#EEF6F8" stroke-width="0.0762" stroke-miterlimit="22.9256"/>
<path fill-rule="evenodd" clip-rule="evenodd" d="M133.662 96.0557H98.3994V101.88H101.542V110.312H106.295V198.928H102.156V203.684H106.295H125.766H129.906V198.928H125.766V110.312H130.519V101.88H133.662V96.0557Z" fill="#EEF6F8" stroke="#EEF6F8" stroke-width="0.0762" stroke-miterlimit="22.9256"/>
<path fill-rule="evenodd" clip-rule="evenodd" d="M78.7746 96.0557H43.5117V101.88H46.6547V110.312H51.4077V198.928H47.268V203.684H51.4077H70.8786H75.0183V198.928H70.8786V110.312H75.6316V101.88H78.7746V96.0557Z" fill="#EEF6F8" stroke="#EEF6F8" stroke-width="0.0762" stroke-miterlimit="22.9256"/>
<path fill-rule="evenodd" clip-rule="evenodd" d="M137.216 66.03H142.213V36.4783H141.673V35.5621H127.414L131.141 43.235L135.609 52.4341H135.79L134.244 56.0161H119.101L117.555 52.4341H117.736L122.204 43.235L125.931 35.5621H125.433V34.0361H141.673V30.4133H144.644V34.0361H160.885V35.5621H160.386L164.113 43.235L168.581 52.4341H168.763L167.216 56.0161H152.074L150.527 52.4341H150.709L155.177 43.235L158.904 35.5621H144.644V36.4783H144.105V66.03H149.102V67.6582H150.73V70.2634H135.588V67.6582H137.216V66.03ZM159.645 35.5621L157.358 40.2703L155.918 43.235L153.631 47.9432L152.191 50.9081L151.45 52.4341H167.84L167.099 50.9081L165.56 47.739L163.372 43.235L161.833 40.0659L159.645 35.5621ZM126.673 35.5621L124.386 40.2703L122.946 43.235L120.659 47.9432L119.219 50.9081L118.478 52.4341H134.868L134.126 50.9081L132.587 47.739L130.4 43.235L128.86 40.0659L126.673 35.5621Z" fill="#EEF6F8"/>
</svg>
