<svg width="72" height="70" viewBox="0 0 72 70" fill="none" xmlns="http://www.w3.org/2000/svg">
<path fill-rule="evenodd" clip-rule="evenodd" d="M34.2538 62.6185V15.6577H15.3631H15.3506H15.3381H15.3256H15.3131H15.3006H15.2881H15.2755H15.263H15.2505H15.238H15.2255H15.213H15.2005H15.188H15.1755H15.1629H15.1504H15.1379H15.1254H15.1129H15.1004H15.0879H15.0754H15.0629H15.0504H15.0378H15.0253H15.0128H15.0003H14.9878H14.9753C14.8877 15.695 14.8127 15.7447 14.7376 15.7944H14.7251L14.6876 15.8193L14.675 15.8317L14.6625 15.8441L14.65 15.8566C14.4874 16.0057 14.3998 16.2666 14.4749 16.4655L22.3439 37.6158H25.9719C26.0595 38.61 26.0345 39.629 25.8844 40.6231C24.9711 46.8738 19.5541 51.6829 13.0112 51.6829C6.46821 51.6829 1.0512 46.8862 0.137944 40.6231C-0.0121808 39.629 -0.0372016 38.6224 0.0503713 37.6158H3.67839L12.7484 13.2221C12.9236 12.8244 13.3239 12.551 13.7743 12.551H57.5983C58.0611 12.551 58.449 12.8244 58.6241 13.2221L67.6942 37.6158H71.3222C71.4098 38.61 71.3847 39.629 71.2346 40.6231C70.3214 46.8738 64.9043 51.6829 58.3614 51.6829C51.8185 51.6829 46.4014 46.8862 45.4882 40.6231C45.3381 39.629 45.313 38.6224 45.4006 37.6158H49.0286L56.8977 16.4655C56.9727 16.2542 56.8852 16.0057 56.7225 15.8566L56.71 15.8441L56.6975 15.8317L56.685 15.8193L56.6475 15.7944H56.635C56.5599 15.7323 56.4848 15.695 56.3973 15.6577H56.3848H56.3722H56.3597H56.3472H56.3347H56.3222H56.3097H56.2972H56.2847H56.2722H56.2596H56.2471H56.2346H56.2221H56.2096H56.1971H56.1846H56.1721H56.1596H56.1471H56.1345H56.122H56.1095H56.097H56.0845H56.072H56.0595H56.047H56.0345H56.0219H56.0094H37.1187V62.6185H46.7893C47.4023 62.6185 47.9027 63.1156 47.9027 63.7245V64.5074C47.9027 65.1163 47.4023 65.6133 46.7893 65.6133H24.4081C23.7951 65.6133 23.2947 65.1163 23.2947 64.5074V63.7245C23.2947 63.1156 23.7951 62.6185 24.4081 62.6185H34.0787H34.2538ZM29.6625 7.54305H41.8727C42.4857 7.54305 42.9861 8.04012 42.9861 8.64903V9.43192C42.9861 10.0408 42.4857 10.5379 41.8727 10.5379H29.6625C29.0495 10.5379 28.5491 10.0408 28.5491 9.43192V8.64903C28.5491 8.04012 29.0495 7.54305 29.6625 7.54305ZM16.8769 67.0051H54.6583C55.2713 67.0051 55.7717 67.5022 55.7717 68.1111V68.894C55.7717 69.5029 55.2713 70 54.6583 70H16.8769C16.2639 70 15.7634 69.5029 15.7634 68.894V68.1111C15.7634 67.5022 16.2639 67.0051 16.8769 67.0051ZM32.7651 2.98243C32.7651 4.63519 34.1037 5.96485 35.7676 5.96485C37.4315 5.96485 38.7701 4.63519 38.7701 2.98243C38.7701 1.32966 37.4315 0 35.7676 0C34.1037 0 32.7651 1.32966 32.7651 2.98243ZM58.4615 21.2746L52.3564 37.6904H64.5791L58.474 21.2746H58.4615ZM13.0862 21.2746L19.1913 37.6904H6.96863L13.0737 21.2746H13.0862Z" fill="#7D88A3"/>
</svg>
