<svg width="60" height="70" viewBox="0 0 60 70" fill="none" xmlns="http://www.w3.org/2000/svg">
<path fill-rule="evenodd" clip-rule="evenodd" d="M2.93335 13.2569V55.8263H26.9456L24.3517 49.1435C24.1699 48.6007 24.182 48.4077 24.182 47.7805C24.182 47.1894 24.6668 46.6948 25.2729 46.6948H31.9275V13.2449H2.94548L2.93335 13.2569ZM41.8548 65.959H35.6124C35.6366 66.1399 35.6609 66.3209 35.6609 66.5018C35.6609 68.4198 34.0972 69.9759 32.1699 69.9759C30.2426 69.9759 28.679 68.4198 28.679 66.5018C28.679 64.5838 30.2426 63.0277 32.1699 63.0277H45.2973C45.3821 62.6417 45.6731 61.5078 45.77 61.1339H32.0366H29.7214C29.3457 61.1339 29.0184 60.9409 28.8123 60.6514L28.0729 58.7575H1.35759C0.618186 58.7575 0 58.1544 0 57.4065V57.1894V11.918V11.7008C0 10.965 0.606065 10.3498 1.35759 10.3498H5.38186V6.52594C5.38186 5.79011 5.98792 5.17491 6.73944 5.17491H10.7637V1.35103C10.7637 0.615199 11.3698 0 12.1213 0H44.2549C44.9943 0 45.6124 0.603136 45.6124 1.35103V46.7069H49.1155L50.4125 41.1701L51.067 38.3715C51.2004 37.7925 51.7822 37.4306 52.364 37.5633H58.3277C58.9216 37.5633 59.4186 38.0458 59.4186 38.649V39.4089C59.4186 40 58.9338 40.4946 58.3277 40.4946H53.6004L53.2852 41.8456C51.661 48.8058 49.6367 57.2497 48.0003 64.2581C48.5216 64.8613 48.8367 65.6574 48.8367 66.5259C48.8367 68.4439 47.2731 70 45.3458 70C43.4185 70 41.8548 68.4439 41.8548 66.5259C41.8548 66.3329 41.867 66.152 41.9033 65.9711L41.867 65.9831L41.8548 65.959ZM34.8487 46.7069H37.2972C37.2972 34.234 37.2972 20.5549 37.2972 8.09409C27.6366 8.09409 17.9759 8.09409 8.31521 8.09409V10.3498H33.5033C34.2427 10.3498 34.8609 10.953 34.8609 11.7008V11.918V46.7069H34.8487ZM40.2185 6.52594C40.2185 5.79011 39.6124 5.17491 38.8609 5.17491C30.4608 5.17491 22.0729 5.17491 13.6728 5.17491V2.91918C23.3335 2.91918 32.9942 2.91918 42.6549 2.91918C42.6549 17.1049 42.6549 32.5211 42.6549 46.7069H40.2063C40.2063 33.7153 40.2063 19.5175 40.2063 6.52594H40.2185ZM7.76975 36.4536H27.0547C27.6487 36.4536 28.1335 36.9361 28.1335 37.5271V38.2871C28.1335 38.8782 27.6487 39.3607 27.0547 39.3607H7.76975C7.17581 39.3607 6.69096 38.8782 6.69096 38.2871V37.5271C6.69096 36.9361 7.17581 36.4536 7.76975 36.4536ZM7.76975 24.7889H27.0547C27.6487 24.7889 28.1335 25.2714 28.1335 25.8625V26.6224C28.1335 27.2135 27.6487 27.696 27.0547 27.696H7.76975C7.17581 27.696 6.69096 27.2135 6.69096 26.6224V25.8625C6.69096 25.2714 7.17581 24.7889 7.76975 24.7889ZM7.76975 30.6273H27.0547C27.6487 30.6273 28.1335 31.1098 28.1335 31.7008V32.4608C28.1335 33.0519 27.6487 33.5344 27.0547 33.5344H7.76975C7.17581 33.5344 6.69096 33.0519 6.69096 32.4608V31.7008C6.69096 31.1098 7.17581 30.6273 7.76975 30.6273ZM7.76975 18.9626H27.0547C27.6487 18.9626 28.1335 19.4451 28.1335 20.0362V20.7961C28.1335 21.3872 27.6487 21.8697 27.0547 21.8697H7.76975C7.17581 21.8697 6.69096 21.3872 6.69096 20.7961V20.0362C6.69096 19.4451 7.17581 18.9626 7.76975 18.9626Z" fill="#7D88A3"/>
</svg>
