<svg width="76" height="48" viewBox="0 0 76 48" fill="none" xmlns="http://www.w3.org/2000/svg">
<path fill-rule="evenodd" clip-rule="evenodd" d="M16.4907 2.82523C18.1301 3.45798 19.1592 4.18624 21.1815 4.28175C26.3629 4.52053 28.0502 -1.01903 35.1821 2.18054L32.2743 4.30563C25.9082 2.93268 24.5441 9.60641 17.113 6.27551L10.9982 22.0465L14.5163 25.7714L12.4102 27.7532L8.1143 23.2165L8.10233 23.2046L8.09037 23.1926L8.0784 23.1807L8.06643 23.1688L8.05447 23.1568L8.0425 23.1449L8.03054 23.133L8.01857 23.121L8.0066 23.1091L7.99464 23.0971L7.98267 23.0852L7.9707 23.0733L7.95874 23.0613L7.94677 23.0494L7.93481 23.0374L7.92284 23.0255L7.91087 23.0136L7.89891 23.0016L7.88694 22.9897L7.87497 22.9777L7.86301 22.9658L7.85104 22.9539L7.83907 22.9419L7.82711 22.93L7.81514 22.9181L7.80318 22.9061V22.8822V22.8584V22.8345V22.8106V22.7867V22.7629V22.739V22.7151V22.6912V22.6673V22.6435V22.6196V22.5957V22.5718V22.548V22.5241V22.5002V22.4763V22.4524V22.4166C7.80318 22.3808 7.81514 22.345 7.81514 22.2972V22.2734V22.2495V22.2256V22.2017V22.1779V22.154V22.1301V22.1062L7.82711 22.0823L7.83907 22.0585L7.85104 22.0346L15.0787 3.39829C15.2941 2.84911 15.9163 2.57452 16.4668 2.78942L16.4907 2.82523ZM63.2432 11.1346C65.445 13.9402 67.6348 16.7457 69.8366 19.5513C70.04 19.814 70.2674 20.017 70.4947 20.196C71.7033 21.0795 73.247 20.793 74.4915 19.8259C75.2334 19.2529 75.736 18.5724 75.9275 17.8322V17.8202C76.1189 17.0562 75.9394 16.2204 75.2932 15.3967L75.2813 15.3728L64.7988 1.98952L64.1526 1.16575C62.8842 -0.434032 60.9815 -0.254952 59.4977 0.903102C58.2891 1.84626 57.6908 3.06401 58.1455 4.34145C58.2652 4.66379 58.4447 4.99807 58.6959 5.33236C60.2157 7.26643 61.7234 9.20049 63.2432 11.1465V11.1346ZM56.8292 5.15328C55.9437 5.69052 54.4359 6.64561 53.335 6.43072C52.3538 6.2397 47.6271 3.46992 46.4065 2.83717C45.4851 2.34768 44.3603 1.57167 43.4509 1.21351C41.7157 0.724021 40.3755 1.08218 39.131 1.92983L38.9754 2.03728C33.5667 5.83378 28.1818 9.23631 23.2756 13.6298L23.2637 13.6417C21.9713 14.8117 22.1867 16.2443 23.2756 17.4501C24.3406 18.6321 26.4467 19.623 27.751 18.4769L36.9651 11.3495C37.1326 11.1943 37.3121 11.0749 37.4797 10.9794C38.5447 10.3824 39.8729 10.8719 40.7704 11.7076L41.285 12.2807C47.0886 18.7037 51.5401 23.7776 57.3438 30.2007C60.8738 28.6009 66.845 23.8731 69.2981 20.8527L56.8292 5.15328ZM29.534 42.4975L36.1394 37.3639L36.1634 37.3519C37.5395 36.2655 37.4198 34.8329 36.4266 33.5554C35.4454 32.3019 33.9257 31.7527 32.5495 32.8152L31.8555 33.3525L25.2501 38.4861L25.2261 38.4981C23.85 39.5845 23.9697 41.0171 24.9629 42.2946C25.9441 43.5481 27.4638 44.0973 28.84 43.0348L29.534 42.4975ZM19.8293 32.1228L22.3901 30.141C23.7663 29.0545 23.6466 27.6219 22.6534 26.3445C21.6721 25.0909 20.1524 24.5417 18.7763 25.6043L15.5334 28.1233L15.5215 28.1353C14.1453 29.2217 14.265 30.6543 15.2582 31.9318C16.2394 33.1853 17.7592 33.7345 19.1353 32.672L19.8293 32.1347V32.1228ZM25.6091 36.5879L29.4862 33.5793L29.4981 33.5674C30.8742 32.4809 30.7546 31.0483 29.7614 29.7709C28.7801 28.5173 27.2604 27.9681 25.8843 29.0307L25.1902 29.5679L21.3132 32.5765L21.3012 32.5884C19.9251 33.6748 20.0447 35.1075 21.0379 36.3849C22.0192 37.6385 23.5389 38.1876 24.915 37.1251L25.6091 36.5879ZM5.8407 3.04013C3.96199 8.38866 2.09524 13.7253 0.216527 19.0738L0.204561 19.0977C-0.465554 21.0556 0.575517 22.4047 2.38243 23.0374C4.16541 23.6583 6.02019 23.2285 6.71424 21.2944C8.71262 15.6235 10.699 9.95263 12.6854 4.28175L12.6974 4.25787C13.3675 2.29993 12.3264 0.950856 10.5195 0.318106C8.73655 -0.302707 6.88177 0.127086 6.18772 2.06115L5.8407 3.05207V3.04013ZM35.7685 39.2502L31.8914 42.2587L31.8794 42.2707C30.5033 43.3571 30.623 44.7897 31.6162 46.0672C32.5974 47.3207 34.1171 47.8699 35.4932 46.8074L36.1873 46.2701L40.0644 43.2616L40.0764 43.2497C41.4525 42.1632 41.3328 40.7306 40.3396 39.4531C39.3584 38.1996 37.8386 37.6504 36.4625 38.7129L35.7685 39.2502ZM47.4117 39.8113L40.9978 32.1825C40.9978 32.1825 40.9978 32.1825 40.9858 32.1705C40.6029 31.7169 39.9208 31.6691 39.4661 32.0392L38.8797 32.5287C38.425 32.9107 38.3652 33.5912 38.7481 34.0569C39.9447 35.4776 44.7791 40.456 44.7791 41.9841C44.7791 42.9154 44.3244 43.4765 43.6543 44.0376C42.7927 44.7539 41.967 45.1598 40.8183 44.7539L38.2335 46.5567C41.1055 48.5863 43.4987 47.3924 45.7245 45.518C46.4903 44.8853 47.0168 44.0495 47.304 43.1422C49.6015 43.966 51.3008 43.19 53.0239 41.7454C54.2684 40.7067 55.0582 39.7874 55.2736 38.0802C56.6976 38.2951 58.1575 37.8653 59.3661 36.9341C61.3884 35.4059 62.944 33.4838 61.7952 30.1171L59.3661 31.8124C59.761 33.054 59.1866 33.8897 58.2771 34.6419C57.248 35.5014 56.0275 35.7999 54.8548 34.9523C53.6821 34.0927 50.0563 29.4127 48.4288 27.4309C48.2374 27.204 47.7348 26.6071 47.5074 26.44C47.1125 26.1534 46.5621 26.1654 46.1672 26.4877L45.5809 26.9772C45.2578 27.2518 45.1261 27.6816 45.2219 28.0636C45.2817 28.3024 45.4373 28.4457 45.6048 28.6248L51.8871 36.0984C53.0239 37.4474 52.6051 38.8323 51.3606 39.8829C50.14 40.9097 48.5365 41.1246 47.4117 39.7994V39.8113Z" fill="#7D88A3"/>
</svg>
