<svg width="605" height="400" viewBox="0 0 605 400" fill="none" xmlns="http://www.w3.org/2000/svg">
<path fill-rule="evenodd" clip-rule="evenodd" d="M309.5 -106C394.959 -106 472.34 -71.7499 528.344 -16.3747C584.356 39.0004 619 115.501 619 200C619 284.499 584.356 361.001 528.344 416.375C472.34 471.75 394.959 506 309.5 506C224.033 506 146.66 471.75 90.6472 416.375C34.6435 361.001 0 284.499 0 200C0 115.501 34.6435 39.0004 90.6472 -16.3747C146.66 -71.7499 224.033 -106 309.5 -106ZM361.018 106.151C359.753 112.06 357.857 117.899 355.829 121.995C380.104 122.904 403.466 124.516 425.537 126.745C464.509 130.678 505.026 136.764 542.725 147.645C575.121 120.951 588.544 98.614 582.53 84.6077C575.56 68.3697 542.101 64.9271 488.687 73.2575C452.279 78.9361 408.496 90.0918 361.018 106.151ZM346.725 367.577C344.424 361.777 340.377 349.933 337.901 343.488C330.658 346.13 322.107 349.358 312.687 352.167V499.67C351.316 499.277 388.207 491.739 422.078 478.334L374.529 367.583L346.725 367.577ZM306.304 354.019C280.3 361.369 248.738 368.917 219.38 369.213C186.141 369.55 154.825 361.361 139.452 337.987C137.029 338.4 134.623 338.794 132.253 339.164C91.4988 345.52 59.1556 344.984 39.7619 336.854C54.2392 364.687 72.9919 389.991 95.1599 411.916C149.32 465.458 223.866 498.831 306.304 499.67V354.019ZM133.008 326.314C124.404 305.767 128.583 285.409 140.356 266.323C122.973 263.485 106.81 260.22 92.131 256.591C86.6351 255.234 81.3498 253.82 76.2666 252.355C43.8706 279.051 29.0686 300.746 35.0825 314.753C45.5739 339.194 113.43 329.486 133.008 326.314ZM144.166 260.555C170.417 223.304 224.296 191.461 265.419 173.434C261.968 165.425 258.632 156.636 255.726 147.515C189.6 177.091 132.815 209.572 92.807 239.42C89.146 242.147 85.6342 244.844 82.2717 247.508C85.9679 248.52 89.7693 249.513 93.6761 250.479C108.979 254.261 125.905 257.643 144.166 260.555ZM252.171 135.29C251.609 133.148 251.082 130.998 250.581 128.848C189.898 131.776 135.668 139.142 93.6761 149.521C39.7443 162.851 6.38266 180.732 6.38266 200C6.38266 215.936 29.2002 230.924 67.6189 243.174C73.0445 238.626 78.8916 234.018 85.125 229.366C126.16 198.752 184.429 165.467 252.171 135.29ZM249.238 122.599C246.095 106.762 244.664 90.511 248.79 74.7062L185.201 -73.4131C151.453 -58.393 120.989 -37.4476 95.1599 -11.9131C44.0814 38.5898 11.1498 107.038 6.86547 183.044C19.7097 167.496 49.9636 153.831 92.131 143.408C134.272 132.992 188.555 125.586 249.238 122.599ZM255.524 58.1853C266.595 39.2851 284.865 31.2681 306.304 31.5233V-99.6713C267.684 -99.2773 230.793 -91.7394 196.913 -78.3338L255.524 58.1853ZM312.687 31.9243C345.004 35.3625 361.79 61.3605 362.888 92.2453C408.777 77.0264 451.164 66.3845 486.738 60.8353C527.501 54.4806 559.836 55.0144 579.229 63.1442C564.752 35.3104 546.008 10.0078 523.84 -11.9131C469.68 -65.4559 395.125 -98.8294 312.687 -99.6713V31.9243ZM325.373 105.404C326.927 102.788 327.621 98.4577 327.586 94.569C327.471 83.0574 324.723 71.0215 312.687 66.9696V110.213C316.866 108.607 321.264 106.943 325.373 105.404ZM306.304 65.7162C305.742 65.6728 305.172 65.6467 304.583 65.6259C276.165 66.3897 280.036 101.998 284.628 121.378C291.897 118.383 299.123 115.484 306.304 112.681V65.7162ZM288.263 133.522C293.337 147.837 300.282 162.433 306.304 176.459V127.448C305.268 127.451 304.232 127.455 303.196 127.456C298.236 129.432 293.258 131.452 288.263 133.519V133.522ZM358.375 297.73C375.31 290.932 394.406 282.304 411.718 274.556C391.982 276.277 371.333 277.515 349.991 278.21L358.375 297.73ZM440.884 271.584L450.488 293.966C426.327 305.483 399.831 317.509 371.939 329.321L433.799 473.412C467.547 458.393 498.011 437.448 523.84 411.916C574.919 361.411 607.841 292.965 612.135 216.959C599.281 232.507 569.028 246.171 526.86 256.591C502.023 262.731 472.972 267.825 440.884 271.584ZM596.455 103.215C590.836 117.696 577.157 134.358 556.938 152.07C583.435 160.985 602.591 171.493 612.135 183.044C610.563 155.255 605.164 128.476 596.455 103.215ZM551.381 156.827C525.578 178.432 496.071 197.291 466.941 214.082C432.719 233.804 393.255 253.53 350.394 271.886C418.364 269.641 479.206 261.877 525.315 250.479C579.256 237.148 612.617 219.267 612.617 200C612.617 184.063 589.791 169.076 551.381 156.827ZM313.196 287.12L312.687 287.319V315.489C317.006 314.023 320.764 312.596 323.802 311.284C320.351 303.356 316.796 295.275 313.196 287.12ZM306.304 289.787C266.455 305.079 228.229 317.339 193.498 326.275C222.654 337.209 274.883 327.284 306.304 317.555V289.787ZM22.5454 296.791C28.1642 282.308 41.8426 265.645 62.0615 247.93C35.5566 239.016 16.4087 228.506 6.86547 216.958C8.4282 244.749 13.8275 271.529 22.5454 296.791ZM186.817 266.222C223.436 270.196 263.821 272.444 306.304 272.551V271.569C296.55 249.578 286.665 227.414 277.64 206.581C250.854 217.903 208.888 240.697 186.817 266.222ZM179.021 316.922C215.596 308.091 256.63 295.267 299.685 278.825C257.877 278.501 218.177 276.11 182.172 272.051C173.296 284.223 169.407 296.852 174.157 309.031C175.325 312.009 176.975 314.623 179.021 316.922ZM342.783 261.423C385.977 243.038 425.704 223.25 460.049 203.482C486.572 188.218 512.734 171.482 536.72 152.492C500.25 142.481 461.743 136.702 424.15 132.938C389.691 129.489 352.089 127.548 312.687 127.448V191.323L342.783 261.423Z" fill="#7D88A3"/>
</svg>
