<svg width="276" height="39" viewBox="0 0 276 39" fill="none" xmlns="http://www.w3.org/2000/svg">
<path fill-rule="evenodd" clip-rule="evenodd" d="M39.933 19.3555C39.6941 24.229 39.5266 27.1722 34.9355 30.574L33.6958 28.8434C37.4666 25.9796 37.6641 23.7284 37.8319 18.9048L38.1628 8.83533H47.0559V29.9667H44.6333V11.0517H40.3401L39.933 19.3555ZM51.3919 29.9667V8.83533H60.5305V11.0517H53.8145V18.1259H59.641V20.3422H53.8145V27.7504H60.5305V29.9667H51.3919ZM70.9997 18.8849C71.9402 19.1682 72.5787 19.7401 72.9162 20.6003C73.2537 21.4606 73.4222 22.508 73.4222 23.7427C73.4222 25.9287 72.9672 27.5129 72.0577 28.4942C71.1482 29.4756 69.7316 29.9667 67.8102 29.9667H63.7012V8.83533H68.2092C70.0487 8.83533 71.3472 9.32112 72.1037 10.2927C72.8596 11.2642 73.2382 12.6406 73.2382 14.4218C73.2382 15.535 73.0747 16.4206 72.7477 17.0784C72.4202 17.7362 71.8377 18.2979 70.9997 18.7635V18.8849ZM71.0917 23.4998C71.0917 22.3461 70.8717 21.4552 70.4322 20.828C69.9932 20.2009 69.1486 19.8868 67.9022 19.8868H66.1237V27.8111H68.0247C68.6997 27.8111 69.2362 27.6946 69.6347 27.4619C70.0337 27.2292 70.3407 26.9151 70.5547 26.5207C70.7691 26.1264 70.9132 25.6703 70.9842 25.1545C71.0557 24.6387 71.0917 24.0868 71.0917 23.4998ZM70.9077 14.4066C70.9077 13.3187 70.6672 12.4888 70.1867 11.9119C69.7062 11.3402 68.9031 11.0517 67.7797 11.0517H66.1237V17.7919H67.7492C68.8732 17.7919 69.6807 17.4984 70.1717 16.9165C70.6622 16.3295 70.9077 15.4945 70.9077 14.4066ZM78.1679 29.9667V11.0517H74.4785V8.83533H80.5904V17.3669H82.3384C83.5039 17.3669 84.45 17.5192 85.1749 17.8222C85.9004 18.1253 86.4679 18.5459 86.8769 19.0924C87.2859 19.6389 87.5619 20.2865 87.7049 21.0304C87.8479 21.7793 87.9194 22.5991 87.9194 23.4846C87.9194 24.4764 87.8429 25.367 87.6894 26.1665C87.5364 26.961 87.2549 27.6441 86.8464 28.2108C86.4374 28.7776 85.8848 29.2082 85.1904 29.5113C84.496 29.8144 83.6048 29.9667 82.5224 29.9667H78.1679ZM80.5904 27.6896H82.3079C83.0234 27.6896 83.5959 27.5828 84.0249 27.3708C84.4539 27.1588 84.7814 26.8648 85.0064 26.4904C85.2314 26.116 85.3794 25.6757 85.4509 25.1697C85.5224 24.6637 85.5584 24.1273 85.5584 23.5605C85.5584 23.014 85.5274 22.5024 85.4664 22.0273C85.4055 21.5522 85.2564 21.1311 85.0214 20.7672C84.787 20.4035 84.4494 20.1145 84.0099 19.902C83.5699 19.6895 82.9813 19.5832 82.2464 19.5832H80.5904V27.6896Z" fill="white"/>
<path fill-rule="evenodd" clip-rule="evenodd" d="M190.831 20.391V18.3568H198.232V20.391H190.831ZM208.813 29.9283L207.832 25.2224H203.078L202.127 29.9283H199.796L204.336 8.79688H206.605L211.206 29.9283H208.813ZM205.378 13.1386L204.489 18.0571L203.477 23.0061H207.403L206.36 17.9964L205.501 13.1386H205.378ZM217.612 20.6074L220.433 8.79688H222.764L218.47 25.0403C218.164 26.2344 217.837 27.1705 217.489 27.8486C217.141 28.5266 216.783 29.0329 216.415 29.3666C216.048 29.7005 215.669 29.9135 215.281 30.0043C214.892 30.0951 214.493 30.151 214.084 30.1712H212.919V28.3192H214.023C214.453 28.3192 214.857 28.1014 215.235 27.6664C215.613 27.2316 215.925 26.543 216.17 25.612L216.507 24.3368L211.876 8.82725H214.269L217.489 20.6378L217.612 20.6074ZM224.529 33.9664H222.382V27.9852L223.302 27.8334C223.568 27.6715 223.804 27.4432 224.007 27.1503C224.211 26.8574 224.391 26.4668 224.544 25.9814C224.697 25.4961 224.816 24.8828 224.897 24.1445C224.978 23.4064 225.04 22.5202 225.081 21.488L225.449 8.79688H234.497V27.8638H235.57V33.9664H233.423V29.9283H224.529V33.9664ZM232.074 27.8638V10.8919H227.596L227.259 21.6398C227.218 23.1578 227.105 24.4133 226.921 25.4045C226.738 26.3957 226.431 27.216 226.001 27.8638H232.074ZM247.342 15.0816L241.943 29.9283H239.674V8.79688H242.005V23.7346L242.127 23.765L247.464 8.79688H249.765V29.9283H247.433V15.0816H247.342ZM258.85 11.0132V29.9283H256.427V11.0132H252.808V8.79688H262.469V11.0132H258.85Z" fill="white"/>
<path fill-rule="evenodd" clip-rule="evenodd" d="M110.714 0C116.108 0 120.993 2.16741 124.529 5.67164C128.064 9.17588 130.251 14.017 130.251 19.3642C130.251 24.7114 128.064 29.5527 124.529 33.0568C120.993 36.561 116.108 38.7284 110.714 38.7284C105.318 38.7284 100.434 36.561 96.8981 33.0568C93.3627 29.5527 91.1758 24.7114 91.1758 19.3642C91.1758 14.017 93.3627 9.17588 96.8981 5.67164C100.434 2.16741 105.318 0 110.714 0ZM113.966 13.4253C113.886 13.7992 113.766 14.1687 113.638 14.4279C115.171 14.4854 116.645 14.5874 118.039 14.7285C120.499 14.9774 123.057 15.3625 125.436 16.0511C127.481 14.3618 128.329 12.9483 127.949 12.062C127.509 11.0344 125.397 10.8166 122.025 11.3437C119.727 11.7031 116.963 12.409 113.966 13.4253ZM113.063 29.9688C112.918 29.6017 112.663 28.8523 112.506 28.4444C112.049 28.6116 111.509 28.8158 110.915 28.9936V38.3279C113.353 38.303 115.682 37.826 117.82 36.9777L114.819 29.9691L113.063 29.9688ZM110.512 29.1108C108.87 29.576 106.878 30.0536 105.025 30.0723C102.926 30.0936 100.949 29.5754 99.979 28.0963C99.826 28.1224 99.6741 28.1473 99.5245 28.1707C96.9518 28.573 94.9101 28.539 93.6858 28.0246C94.5997 29.7859 95.7835 31.3872 97.1829 32.7746C100.602 36.1628 105.308 38.2748 110.512 38.3279V29.1108ZM99.5722 27.3576C99.029 26.0573 99.2928 24.7691 100.036 23.5613C98.9387 23.3817 97.9184 23.1751 96.9917 22.9454C96.6448 22.8595 96.3112 22.7701 95.9903 22.6773C93.9452 24.3667 93.0108 25.7396 93.3904 26.626C94.0527 28.1727 98.3363 27.5583 99.5722 27.3576ZM100.277 23.1963C101.934 20.8389 105.335 18.8239 107.931 17.683C107.713 17.1763 107.502 16.62 107.319 16.0429C103.145 17.9145 99.56 19.9699 97.0344 21.8588C96.8033 22.0314 96.5816 22.202 96.3694 22.3706C96.6027 22.4347 96.8427 22.4975 97.0893 22.5586C98.0553 22.798 99.1238 23.012 100.277 23.1963ZM107.095 15.2693C107.059 15.1337 107.026 14.9976 106.994 14.8616C103.163 15.0469 99.7401 15.513 97.0893 16.1698C93.6847 17.0133 91.5787 18.1449 91.5787 19.3642C91.5787 20.3727 93.0191 21.3211 95.4444 22.0964C95.7869 21.8085 96.156 21.5169 96.5495 21.2225C99.1399 19.2852 102.818 17.1789 107.095 15.2693ZM106.909 14.4661C106.711 13.464 106.621 12.4356 106.881 11.4354L102.867 2.06216C100.737 3.01266 98.8135 4.33811 97.1829 5.95398C93.9585 9.14989 91.8796 13.4814 91.6092 18.2912C92.42 17.3073 94.3298 16.4426 96.9917 15.783C99.652 15.1238 103.079 14.6552 106.909 14.4661ZM107.306 10.3899C108.005 9.19389 109.158 8.68656 110.512 8.70271V0.400489C108.074 0.425427 105.745 0.902433 103.606 1.75076L107.306 10.3899ZM110.915 8.72809C112.955 8.94567 114.015 10.5909 114.084 12.5453C116.981 11.5822 119.656 10.9088 121.902 10.5576C124.475 10.1555 126.517 10.1893 127.741 10.7037C126.827 8.94237 125.644 7.34117 124.244 5.95398C120.825 2.5657 116.119 0.45377 110.915 0.400489V8.72809ZM111.716 13.378C111.814 13.2125 111.858 12.9384 111.855 12.6924C111.848 11.9639 111.675 11.2022 110.915 10.9458V13.6824C111.179 13.5807 111.456 13.4754 111.716 13.378ZM110.512 10.8665C110.476 10.8638 110.44 10.8621 110.403 10.8608C108.609 10.9091 108.854 13.1624 109.144 14.3889C109.602 14.1994 110.059 14.0159 110.512 13.8385V10.8665ZM109.373 15.1574C109.693 16.0632 110.132 16.9869 110.512 17.8745V14.773C110.446 14.7732 110.381 14.7734 110.316 14.7735C110.003 14.8985 109.688 15.0264 109.373 15.1572V15.1574ZM113.799 25.5487C114.868 25.1186 116.073 24.5726 117.166 24.0822C115.92 24.1912 114.617 24.2695 113.27 24.3135L113.799 25.5487ZM119.007 23.8942L119.614 25.3106C118.089 26.0394 116.416 26.8004 114.655 27.5479L118.56 36.6662C120.691 35.7158 122.614 34.3903 124.244 32.7746C127.469 29.5786 129.547 25.2472 129.818 20.4374C129.007 21.4213 127.097 22.286 124.435 22.9454C122.867 23.3339 121.033 23.6563 119.007 23.8942ZM128.828 13.2395C128.473 14.1559 127.61 15.2103 126.334 16.3311C128.006 16.8953 129.216 17.5603 129.818 18.2912C129.719 16.5326 129.378 14.8381 128.828 13.2395ZM125.983 16.6322C124.354 17.9994 122.491 19.1928 120.652 20.2553C118.492 21.5034 116.001 22.7517 113.295 23.9133C117.586 23.7712 121.427 23.2799 124.337 22.5586C127.742 21.715 129.849 20.5835 129.849 19.3642C129.849 18.3557 128.408 17.4073 125.983 16.6322ZM110.947 24.8773L110.915 24.8899V26.6725C111.187 26.5798 111.425 26.4895 111.616 26.4065C111.399 25.9048 111.174 25.3934 110.947 24.8773ZM110.512 25.0461C107.996 26.0138 105.583 26.7896 103.391 27.3551C105.231 28.047 108.528 27.419 110.512 26.8033V25.0461ZM92.599 25.4893C92.9537 24.5728 93.8172 23.5183 95.0935 22.3973C93.4204 21.8332 92.2116 21.1681 91.6092 20.4373C91.7078 22.196 92.0487 23.8907 92.599 25.4893ZM102.969 23.5548C105.281 23.8064 107.83 23.9486 110.512 23.9554V23.8932C109.896 22.5016 109.272 21.099 108.702 19.7807C107.011 20.4971 104.362 21.9396 102.969 23.5548ZM102.477 26.7632C104.786 26.2044 107.376 25.3928 110.094 24.3524C107.455 24.3319 104.949 24.1806 102.676 23.9237C102.115 24.694 101.87 25.4931 102.17 26.2639C102.244 26.4523 102.348 26.6178 102.477 26.7632ZM112.815 23.2512C115.541 22.0877 118.049 20.8355 120.217 19.5846C121.892 18.6186 123.543 17.5596 125.057 16.3578C122.755 15.7243 120.324 15.3586 117.951 15.1204C115.776 14.9022 113.402 14.7793 110.915 14.773V18.8151L112.815 23.2512Z" fill="white"/>
<path fill-rule="evenodd" clip-rule="evenodd" d="M139.745 19.3555C139.506 24.229 139.338 27.1722 134.747 30.574L133.508 28.8434C137.278 25.9796 137.476 23.7284 137.644 18.9048L137.975 8.83533H146.868V29.9667H144.445V11.0517H140.152L139.745 19.3555ZM151.204 29.9667V8.83533H160.342V11.0517H153.626V18.1259H159.453V20.3422H153.626V27.7504H160.342V29.9667H151.204ZM170.811 18.8849C171.752 19.1682 172.391 19.7401 172.728 20.6003C173.065 21.4606 173.234 22.508 173.234 23.7427C173.234 25.9287 172.779 27.5129 171.869 28.4942C170.96 29.4756 169.543 29.9667 167.622 29.9667H163.513V8.83533H168.021C169.861 8.83533 171.159 9.32112 171.915 10.2927C172.672 11.2642 173.05 12.6406 173.05 14.4218C173.05 15.535 172.886 16.4206 172.559 17.0784C172.232 17.7362 171.649 18.2979 170.811 18.7635V18.8849ZM170.903 23.4998C170.903 22.3461 170.683 21.4552 170.244 20.828C169.805 20.2009 168.96 19.8868 167.714 19.8868H165.935V27.8111H167.837C168.511 27.8111 169.048 27.6946 169.447 27.4619C169.845 27.2292 170.152 26.9151 170.367 26.5207C170.581 26.1264 170.725 25.6703 170.796 25.1545C170.867 24.6387 170.903 24.0868 170.903 23.4998ZM170.719 14.4066C170.719 13.3187 170.479 12.4888 169.999 11.9119C169.518 11.3402 168.715 11.0517 167.591 11.0517H165.935V17.7919H167.561C168.685 17.7919 169.493 17.4984 169.983 16.9165C170.474 16.3295 170.719 15.4945 170.719 14.4066ZM177.98 29.9667V11.0517H174.291V8.83533H180.402V17.3669H182.15C183.316 17.3669 184.262 17.5192 184.987 17.8222C185.712 18.1253 186.28 18.5459 186.689 19.0924C187.098 19.6389 187.374 20.2865 187.517 21.0304C187.66 21.7793 187.732 22.5991 187.732 23.4846C187.732 24.4764 187.655 25.367 187.502 26.1665C187.348 26.961 187.067 27.6441 186.658 28.2108C186.249 28.7776 185.697 29.2082 185.002 29.5113C184.308 29.8144 183.417 29.9667 182.334 29.9667H177.98ZM180.402 27.6896H182.12C182.835 27.6896 183.408 27.5828 183.837 27.3708C184.266 27.1588 184.593 26.8648 184.818 26.4904C185.043 26.116 185.191 25.6757 185.263 25.1697C185.335 24.6637 185.37 24.1273 185.37 23.5605C185.37 23.014 185.339 22.5024 185.278 22.0273C185.218 21.5522 185.068 21.1311 184.834 20.7672C184.599 20.4035 184.261 20.1145 183.822 19.902C183.382 19.6895 182.793 19.5832 182.058 19.5832H180.402V27.6896Z" fill="white"/>
<path fill-rule="evenodd" clip-rule="evenodd" d="M275.699 10.9598H265.93V10.5563H275.699V10.9598ZM275.699 19.7945H265.93V18.9338H275.699V19.7945ZM275.699 36.5769H265.93V36.1735H275.699V36.5769ZM275.699 28.1726H265.93V27.7692H275.699V28.1726ZM275.699 2.55482H265.93V2.15137H275.699V2.55482Z" fill="white"/>
<path fill-rule="evenodd" clip-rule="evenodd" d="M15.1959 10.9598H5.427V10.5563H15.1959V10.9598ZM15.1959 19.7945H5.427V18.9338H15.1959V19.7945ZM15.1959 36.5769H5.427V36.1735H15.1959V36.5769ZM15.1959 28.1726H5.427V27.7692H15.1959V28.1726ZM15.1959 2.55482H5.427V2.15137H15.1959V2.55482Z" fill="white"/>
<path fill-rule="evenodd" clip-rule="evenodd" d="M0.487877 4.45011V9.06509H0.0436153V4.04639H2.08291V4.45011H0.487877ZM3.83895 4.04639C4.09151 4.04639 4.30261 4.07994 4.4702 4.14729C4.63891 4.21452 4.77003 4.31191 4.86464 4.4394C4.96052 4.56673 5.02736 4.7206 5.0661 4.90083C5.10506 5.08111 5.1244 5.28187 5.1244 5.5029C5.1244 5.71444 5.10506 5.91153 5.0661 6.09417C5.02736 6.27697 4.95814 6.43435 4.86098 6.56656C4.76383 6.69878 4.62793 6.80204 4.45557 6.87658C4.28199 6.95112 4.06479 6.98836 3.80137 6.98836H3.26722V9.06509H2.82285V4.04639H3.83895ZM3.26722 6.58452H3.77704C3.9616 6.58452 4.11201 6.55936 4.22862 6.50888C4.34506 6.45835 4.43734 6.38507 4.5054 6.29136C4.57345 6.19754 4.61945 6.08461 4.64367 5.95118C4.66811 5.81897 4.68025 5.67236 4.68025 5.51378C4.68025 5.36469 4.66928 5.22408 4.64733 5.09434C4.62555 4.96328 4.58193 4.85154 4.51626 4.75783C4.45069 4.66412 4.35964 4.58837 4.24314 4.53306C4.12659 4.4778 3.97612 4.45011 3.79162 4.45011H3.26722V6.58452ZM6.89856 7.13986L7.6779 4.04639H8.10758L7.05158 7.97627C6.98352 8.23104 6.91197 8.43296 6.83676 8.58193C6.76145 8.73095 6.68374 8.84273 6.60372 8.91727C6.52352 8.99181 6.4385 9.03982 6.34878 9.06141C6.25888 9.08316 6.16782 9.09629 6.07555 9.10112H5.84982V8.74062H6.06103C6.1727 8.74062 6.27712 8.69014 6.37416 8.58912C6.47131 8.48822 6.5514 8.3175 6.61458 8.07718L6.6874 7.78874L5.55846 4.05358H6.00283L6.87672 7.13986H6.89856ZM10.5591 9.06509V4.46457H9.22622V9.06509H8.78195V4.04639H11.0034V9.06509H10.5591ZM13.7536 9.06509V4.46457H12.4208V9.06509H11.9764V4.04639H14.1978V9.06509H13.7536ZM17.0863 9.06509L16.8169 7.85362H15.5569L15.2948 9.06509H14.8723L15.9648 4.04639H16.4163L17.5308 9.06509H17.0863ZM16.1759 4.78184L15.9356 5.99326L15.6297 7.43549H16.7369L16.4309 5.97887L16.1978 4.78184H16.1759ZM0.0436153 17.6041V12.5854H0.487877V14.8063H0.895781C0.973482 14.8063 1.05479 14.7979 1.1398 14.7811C1.22476 14.7642 1.3074 14.7282 1.38737 14.6728C1.46751 14.6175 1.54045 14.5418 1.6059 14.4433C1.67146 14.3448 1.72378 14.215 1.76252 14.0516L2.11927 12.5854H2.52717L2.19952 14.0395C2.14133 14.2847 2.05753 14.4902 1.94824 14.6585C1.839 14.8267 1.70422 14.9373 1.54399 14.9901C1.75282 15.0479 1.90939 15.1632 2.0138 15.3363C2.11811 15.5093 2.19703 15.7221 2.25051 15.972L2.61457 17.6041H2.16316L1.82077 16.0321C1.78192 15.8638 1.7322 15.7281 1.67146 15.6247C1.61078 15.5213 1.54283 15.4409 1.46751 15.3831C1.39225 15.3254 1.30978 15.287 1.22 15.2677C1.13016 15.2485 1.03905 15.239 0.946824 15.239H0.487877V17.6041H0.0436153ZM5.51778 16.3638C5.51778 16.7868 5.4219 17.1077 5.23131 17.3264C5.03955 17.5452 4.75058 17.6545 4.36341 17.6545C3.97623 17.6545 3.6897 17.5511 3.50276 17.3445C3.31704 17.1378 3.22349 16.8493 3.22349 16.4792V13.84C3.22349 13.6621 3.24306 13.4939 3.28191 13.3352C3.32065 13.1766 3.38499 13.0384 3.47367 12.9206C3.56345 12.8029 3.68244 12.7103 3.82925 12.643C3.97745 12.5757 4.15818 12.542 4.37067 12.542C4.58797 12.542 4.77131 12.5722 4.91934 12.6322C5.0661 12.6923 5.18398 12.7788 5.27127 12.8918C5.35756 13.0047 5.42063 13.1393 5.45948 13.2956C5.49833 13.4518 5.51778 13.6261 5.51778 13.8184V16.3638ZM5.07341 13.7535C5.07341 13.6478 5.06133 13.5468 5.037 13.4507C5.01284 13.3545 4.97399 13.2692 4.92178 13.1946C4.86824 13.1202 4.79669 13.06 4.70813 13.0144C4.61829 12.9687 4.50789 12.9459 4.37798 12.9459C4.23837 12.9459 4.12177 12.9759 4.02954 13.0361C3.93849 13.096 3.86572 13.1718 3.81224 13.2631C3.76014 13.3545 3.72245 13.4542 3.70067 13.5624C3.67884 13.6705 3.66786 13.7727 3.66786 13.8688V16.4864C3.66786 16.5825 3.68122 16.6763 3.70793 16.7676C3.73454 16.8589 3.77588 16.9406 3.83047 17.0128C3.88639 17.0849 3.95921 17.1425 4.04778 17.1858C4.13751 17.2292 4.24563 17.2507 4.37067 17.2507C4.62671 17.2507 4.80767 17.169 4.91446 17.0056C5.0201 16.8421 5.07341 16.645 5.07341 16.4142V13.7535ZM9.20006 13.8112C9.17589 13.8688 9.14181 13.9542 9.09814 14.0672C9.05452 14.1801 9.00946 14.2991 8.96346 14.4241C8.91724 14.549 8.87118 14.668 8.82496 14.7811C8.77891 14.894 8.74615 14.9794 8.72659 15.037C8.72182 15.0514 8.70597 15.0935 8.67943 15.1632C8.65271 15.2329 8.61979 15.3159 8.58105 15.4119C8.5422 15.5081 8.49964 15.6115 8.45364 15.7221C8.40742 15.8326 8.36496 15.936 8.32611 16.0321C8.28721 16.1283 8.25323 16.2111 8.22408 16.2809C8.19498 16.3506 8.17803 16.3926 8.17315 16.407H7.92547C7.90125 16.3445 7.86362 16.2508 7.81257 16.1258C7.76164 16.0008 7.70816 15.8687 7.65246 15.7293C7.5966 15.5898 7.54317 15.4576 7.49218 15.3326C7.44125 15.2076 7.40345 15.1139 7.37929 15.0514L6.91319 13.8256H6.88398V17.6041H6.43972V12.5854H6.89124C6.92045 12.6575 6.96407 12.7681 7.02248 12.917C7.08068 13.066 7.14136 13.2234 7.20443 13.3893C7.26756 13.5552 7.32835 13.7126 7.38655 13.8616C7.44485 14.0107 7.48608 14.1212 7.51042 14.1934L8.04213 15.5922H8.06397C8.08819 15.525 8.12454 15.4264 8.17315 15.2966C8.2217 15.1668 8.2739 15.0298 8.32966 14.8855C8.38558 14.7414 8.43906 14.6031 8.48999 14.4709C8.54098 14.3387 8.57856 14.239 8.60289 14.1717C8.60765 14.1573 8.62589 14.1092 8.65748 14.0275C8.68907 13.9457 8.72659 13.8497 8.77037 13.739C8.8141 13.6285 8.86143 13.5083 8.91231 13.3785C8.96346 13.2487 9.00946 13.1286 9.05081 13.018C9.09209 12.9074 9.12845 12.8125 9.16004 12.7332C9.19163 12.6538 9.20975 12.6045 9.21463 12.5854H9.67352V17.6041H9.22915V13.8112H9.20006ZM12.4163 17.6041V13.0035H11.0834V17.6041H10.6391V12.5854H12.8606V17.6041H12.4163ZM15.7491 17.6041L15.4797 16.3926H14.2197L13.9575 17.6041H13.5351L14.6276 12.5854H15.0791L16.1935 17.6041H15.7491ZM14.8387 13.3208L14.5984 14.5322L14.2925 15.9745H15.3996L15.0937 14.5178L14.8606 13.3208H14.8387ZM18.6814 17.6041V15.2317H17.2902V17.6041H16.8459V12.5854H17.2902V14.8423H18.6814V12.5854H19.1256V17.6041H18.6814ZM21.9996 13.6598L20.5065 17.6041H20.0914V12.5854H20.5356V16.5369L20.5648 16.5441L22.0361 12.5854H22.4657V17.6041H22.0215V13.6598H21.9996ZM23.985 11.6119C24.0044 11.7369 24.0639 11.8522 24.1635 11.958C24.263 12.0637 24.3855 12.1166 24.5312 12.1166C24.6866 12.1166 24.8141 12.0661 24.9136 11.9652C25.0131 11.8643 25.0702 11.7465 25.0848 11.6119H25.4489C25.4392 11.7032 25.4148 11.7981 25.3761 11.8967C25.3372 11.9952 25.2802 12.0865 25.205 12.1706C25.1296 12.2548 25.0361 12.3233 24.9245 12.3762C24.8129 12.4291 24.6818 12.4556 24.5312 12.4556C24.371 12.4556 24.2339 12.4291 24.1197 12.3762C24.0056 12.3233 23.9121 12.2548 23.8394 12.1706C23.7665 12.0865 23.7118 11.9952 23.6755 11.8967C23.6391 11.7981 23.6185 11.7032 23.6135 11.6119H23.985ZM25.3105 13.6598L23.8174 17.6041H23.4023V12.5854H23.8466V16.5369L23.8757 16.5441L25.347 12.5854H25.7767V17.6041H25.3324V13.6598H25.3105ZM2.29413 24.9028C2.29413 25.3258 2.1983 25.6467 2.00771 25.8654C1.816 26.0842 1.52709 26.1935 1.1398 26.1935C0.752627 26.1935 0.466096 26.0901 0.279159 25.8834C0.0935518 25.6768 0 25.3882 0 25.0182V22.379C0 22.2011 0.0193969 22.0329 0.0582476 21.8742C0.0971537 21.7156 0.161387 21.5774 0.250062 21.4596C0.339845 21.3419 0.45878 21.2492 0.605759 21.182C0.75379 21.1147 0.934631 21.081 1.14706 21.081C1.36437 21.081 1.54771 21.1111 1.69574 21.1712C1.8426 21.2313 1.96038 21.3178 2.04778 21.4307C2.13407 21.5437 2.19703 21.6783 2.23599 21.8346C2.27473 21.9908 2.29413 22.1651 2.29413 22.3573V24.9028ZM1.84987 22.2925C1.84987 22.1867 1.83784 22.0858 1.8134 21.9896C1.78923 21.8934 1.75033 21.8081 1.69812 21.7336C1.64475 21.6591 1.57309 21.599 1.48453 21.5534C1.39463 21.5077 1.28429 21.4849 1.15432 21.4849C1.01488 21.4849 0.898164 21.5149 0.806053 21.575C0.71494 21.6351 0.642116 21.7108 0.588634 21.8021C0.536537 21.8934 0.498961 21.9931 0.477014 22.1014C0.455233 22.2095 0.444259 22.3117 0.444259 22.4078V25.0254C0.444259 25.1214 0.457616 25.2153 0.484329 25.3066C0.510987 25.398 0.552277 25.4796 0.606978 25.5518C0.662733 25.6239 0.735557 25.6815 0.824287 25.7248C0.914015 25.7681 1.02214 25.7898 1.14706 25.7898C1.40311 25.7898 1.58406 25.708 1.69086 25.5446C1.79649 25.381 1.84987 25.184 1.84987 24.9532V22.2925ZM4.3087 21.081C4.66307 21.081 4.93741 21.1772 5.13166 21.3694C5.32586 21.5618 5.42301 21.8334 5.42301 22.1844L4.97138 22.2708C4.97637 22.0112 4.92045 21.8153 4.80401 21.6831C4.6874 21.5509 4.51981 21.4849 4.30144 21.4849C4.17519 21.4849 4.06956 21.5088 3.9846 21.5569C3.89958 21.605 3.83036 21.6687 3.77704 21.7493C3.72356 21.8286 3.68482 21.9187 3.66049 22.0196C3.63616 22.1218 3.62402 22.2251 3.62402 22.331V25.0157C3.62402 25.1119 3.63616 25.2069 3.66049 25.3018C3.68482 25.3955 3.72356 25.4784 3.77704 25.5506C3.83036 25.6239 3.89958 25.6815 3.9846 25.7248C4.06956 25.7681 4.17519 25.7898 4.30144 25.7898C4.50052 25.7898 4.66058 25.7284 4.78206 25.6058C4.90354 25.4833 4.96656 25.2825 4.97138 25.0038L5.43027 25.083C5.42063 25.4532 5.315 25.7308 5.11343 25.9159C4.91197 26.1009 4.64367 26.1935 4.3087 26.1935C3.93965 26.1935 3.65927 26.0938 3.46751 25.8943C3.2757 25.6947 3.17976 25.4075 3.17976 25.0326V22.3862C3.17976 22.2083 3.19916 22.0401 3.23801 21.8814C3.27692 21.7228 3.33993 21.5846 3.42733 21.4668C3.51484 21.3491 3.63012 21.2553 3.77339 21.1856C3.91654 21.1159 4.09511 21.081 4.3087 21.081ZM8.05671 26.143V23.7707H6.66551V26.143H6.22125V21.1244H6.66551V23.3813H8.05671V21.1244H8.50086V26.143H8.05671ZM11.7317 24.9028C11.7317 25.3258 11.6359 25.6467 11.4453 25.8654C11.2535 26.0842 10.9646 26.1935 10.5774 26.1935C10.1902 26.1935 9.90364 26.0901 9.71675 25.8834C9.53103 25.6768 9.43748 25.3882 9.43748 25.0182V22.379C9.43748 22.2011 9.45699 22.0329 9.49584 21.8742C9.53458 21.7156 9.59898 21.5774 9.68766 21.4596C9.77744 21.3419 9.89637 21.2492 10.0432 21.182C10.1914 21.1147 10.3721 21.081 10.5847 21.081C10.802 21.081 10.9853 21.1111 11.1333 21.1712C11.2801 21.2313 11.398 21.3178 11.4852 21.4307C11.5715 21.5437 11.6346 21.6783 11.6735 21.8346C11.7123 21.9908 11.7317 22.1651 11.7317 22.3573V24.9028ZM11.2873 22.2925C11.2873 22.1867 11.2753 22.0858 11.251 21.9896C11.2268 21.8934 11.1879 21.8081 11.1357 21.7336C11.0822 21.6591 11.0107 21.599 10.9221 21.5534C10.8322 21.5077 10.7218 21.4849 10.5919 21.4849C10.4523 21.4849 10.3358 21.5149 10.2435 21.575C10.1524 21.6351 10.0797 21.7108 10.0262 21.8021C9.97408 21.8934 9.93644 21.9931 9.91461 22.1014C9.89277 22.2095 9.88185 22.3117 9.88185 22.4078V25.0254C9.88185 25.1214 9.89521 25.2153 9.92187 25.3066C9.94847 25.398 9.98982 25.4796 10.0444 25.5518C10.1003 25.6239 10.1732 25.6815 10.2617 25.7248C10.3515 25.7681 10.4596 25.7898 10.5847 25.7898C10.8407 25.7898 11.0217 25.708 11.1285 25.5446C11.2341 25.381 11.2873 25.184 11.2873 24.9532V22.2925ZM14.3799 23.5111C14.6032 23.5784 14.7574 23.7166 14.8423 23.9257C14.9272 24.1348 14.9698 24.3836 14.9698 24.672C14.9698 25.196 14.8606 25.5722 14.642 25.8005C14.4235 26.0289 14.1007 26.143 13.6734 26.143H12.661V21.1244H13.7244C13.9429 21.1244 14.1286 21.1532 14.2815 21.2108C14.4345 21.2685 14.5583 21.3527 14.6531 21.4632C14.7476 21.5738 14.8157 21.7096 14.8569 21.8707C14.8981 22.0317 14.9187 22.2132 14.9187 22.4151C14.9187 22.6747 14.88 22.8909 14.8023 23.064C14.7246 23.2371 14.5838 23.3765 14.3799 23.4823V23.5111ZM14.5328 24.636C14.5328 24.3331 14.4733 24.1 14.3543 23.9365C14.2354 23.7731 14.0302 23.6913 13.739 23.6913H13.1052V25.7392H13.7025C13.8773 25.7392 14.0192 25.7103 14.1286 25.6527C14.2378 25.595 14.3216 25.5157 14.3799 25.4147C14.438 25.3138 14.4782 25.196 14.5 25.0615C14.5218 24.9268 14.5328 24.7849 14.5328 24.636ZM14.4818 22.4078C14.4818 22.1242 14.4187 21.9067 14.2925 21.7552C14.1662 21.6039 13.9501 21.5281 13.6443 21.5281H13.1052V23.302H13.7025C13.989 23.302 14.1904 23.2251 14.307 23.0712C14.4235 22.9174 14.4818 22.6963 14.4818 22.4078ZM17.7782 26.143L17.5088 24.9316H16.2488L15.9866 26.143H15.5641L16.6567 21.1244H17.1082L18.2226 26.143H17.7782ZM16.8678 21.8598L16.6274 23.0712L16.3216 24.5134H17.4287L17.1228 23.0568L16.8896 21.8598H16.8678ZM20.7105 26.143V23.7707H19.3193V26.143H18.875V21.1244H19.3193V23.3813H20.7105V21.1244H21.1547V26.143H20.7105ZM24.0506 26.143L23.7811 24.9316H22.5211L22.2588 26.143H21.8364L22.929 21.1244H23.3804L24.4948 26.143H24.0506ZM23.1401 21.8598L22.8997 23.0712L22.5938 24.5134H23.701L23.395 23.0568L23.1619 21.8598H23.1401ZM1.76252 32.0501C1.98587 32.1173 2.14 32.2556 2.22501 32.4647C2.30987 32.6738 2.35243 32.9225 2.35243 33.211C2.35243 33.735 2.24325 34.1112 2.02472 34.3395C1.80614 34.5678 1.48331 34.682 1.05601 34.682H0.0436153V29.6633H1.1071C1.32552 29.6633 1.51135 29.6922 1.66415 29.7499C1.81722 29.8075 1.94092 29.8916 2.03569 30.0022C2.13035 30.1128 2.1983 30.2486 2.23954 30.4096C2.28082 30.5707 2.30144 30.7522 2.30144 30.9541C2.30144 31.2137 2.26265 31.4299 2.18494 31.603C2.10724 31.7761 1.96647 31.9155 1.76252 32.0213V32.0501ZM1.91543 33.1749C1.91543 32.8721 1.85596 32.639 1.73697 32.4755C1.61815 32.312 1.41298 32.2303 1.12168 32.2303H0.487877V34.2781H1.0851C1.25996 34.2781 1.40195 34.2493 1.51135 34.1917C1.62053 34.134 1.70422 34.0547 1.76252 33.9537C1.82077 33.8528 1.86084 33.735 1.88267 33.6004C1.90446 33.4658 1.91543 33.3239 1.91543 33.1749ZM1.86444 30.9468C1.86444 30.6632 1.80137 30.4457 1.67512 30.2942C1.54887 30.1428 1.33278 30.0671 1.02691 30.0671H0.487877V31.841H1.0851C1.37163 31.841 1.57309 31.764 1.6897 31.6102C1.80614 31.4564 1.86444 31.2353 1.86444 30.9468ZM5.84261 34.682V30.132L5.08522 30.7017V30.2258L5.82798 29.6633H6.28682V34.682H5.84261ZM8.07555 31.6522C8.07555 31.8013 8.12648 31.9191 8.22718 32.0069C8.32922 32.0933 8.4568 32.1366 8.61092 32.1366C8.70315 32.1366 8.78207 32.1186 8.85001 32.0824C8.9168 32.0464 8.97266 31.9996 9.01633 31.9407C9.06006 31.883 9.09154 31.817 9.11349 31.7424C9.13527 31.6678 9.14613 31.5934 9.14613 31.5212V30.501C9.14613 30.3471 9.09642 30.2281 8.9981 30.1428C8.89856 30.0587 8.77231 30.0167 8.61818 30.0167C8.46406 30.0167 8.33542 30.0587 8.2309 30.1428C8.1277 30.2281 8.07555 30.3471 8.07555 30.501V31.6522ZM8.89856 32.389C8.85001 32.4322 8.78683 32.4683 8.70924 32.4972C8.63154 32.526 8.5514 32.5404 8.46893 32.5404C8.17747 32.5404 7.96509 32.4538 7.83169 32.2809C7.69807 32.1078 7.63129 31.8914 7.63129 31.6318V30.5358C7.63129 30.382 7.658 30.2474 7.71143 30.132C7.7648 30.0167 7.83524 29.9205 7.92502 29.8435C8.01492 29.7666 8.11922 29.7089 8.2371 29.6705C8.35604 29.632 8.4798 29.6128 8.61092 29.6128C8.90582 29.6128 9.14253 29.6897 9.32221 29.8435C9.50061 29.9974 9.5905 30.2281 9.5905 30.5358V31.4155C9.5905 31.6079 9.57715 31.7689 9.55032 31.8986C9.52494 32.0285 9.49218 32.1438 9.45333 32.2448L8.50041 34.682H8.04651C8.14361 34.432 8.24198 34.1772 8.34152 33.9176C8.44106 33.6581 8.532 33.4213 8.61447 33.2074C8.6971 32.9935 8.76633 32.8132 8.82203 32.6666C8.87795 32.52 8.9107 32.4322 8.92034 32.4034L8.89856 32.389ZM10.9494 31.6522C10.9494 31.8013 11.0005 31.9191 11.1012 32.0069C11.2032 32.0933 11.3307 32.1366 11.4848 32.1366C11.577 32.1366 11.656 32.1186 11.7239 32.0824C11.7907 32.0464 11.8466 31.9996 11.8902 31.9407C11.934 31.883 11.9654 31.817 11.9873 31.7424C12.0093 31.6678 12.0201 31.5934 12.0201 31.5212V30.501C12.0201 30.3471 11.9703 30.2281 11.872 30.1428C11.7725 30.0587 11.6462 30.0167 11.4921 30.0167C11.3379 30.0167 11.2093 30.0587 11.1049 30.1428C11.0016 30.2281 10.9494 30.3471 10.9494 30.501V31.6522ZM11.7725 32.389C11.7239 32.4322 11.6607 32.4683 11.5831 32.4972C11.5055 32.526 11.4253 32.5404 11.3428 32.5404C11.0514 32.5404 10.839 32.4538 10.7056 32.2809C10.572 32.1078 10.5052 31.8914 10.5052 31.6318V30.5358C10.5052 30.382 10.5319 30.2474 10.5854 30.132C10.6387 30.0167 10.7091 29.9205 10.799 29.8435C10.8889 29.7666 10.9932 29.7089 11.111 29.6705C11.2299 29.632 11.3537 29.6128 11.4848 29.6128C11.7797 29.6128 12.0165 29.6897 12.1961 29.8435C12.3745 29.9974 12.4644 30.2281 12.4644 30.5358V31.4155C12.4644 31.6079 12.451 31.7689 12.4243 31.8986C12.3988 32.0285 12.3661 32.1438 12.3273 32.2448L11.3743 34.682H10.9204C11.0175 34.432 11.1159 34.1772 11.2154 33.9176C11.3149 33.6581 11.406 33.4213 11.4884 33.2074C11.571 32.9935 11.6402 32.8132 11.6959 32.6666C11.7518 32.52 11.7846 32.4322 11.7942 32.4034L11.7725 32.389ZM14.4644 34.682V30.132L13.7069 30.7017V30.2258L14.4498 29.6633H14.9085V34.682H14.4644ZM18.2675 30.0671V34.682H17.8233V29.6633H19.8626V30.0671H18.2675ZM22.853 33.4417C22.853 33.8647 22.7572 34.1856 22.5666 34.4044C22.3748 34.6232 22.0859 34.7325 21.6987 34.7325C21.3115 34.7325 21.0249 34.6291 20.8381 34.4224C20.6523 34.2157 20.5588 33.9273 20.5588 33.5571V30.9179C20.5588 30.7401 20.5783 30.5718 20.6171 30.4132C20.6559 30.2546 20.7203 30.1164 20.809 29.9986C20.8987 29.8809 21.0177 29.7883 21.1645 29.721C21.3127 29.6537 21.4935 29.62 21.706 29.62C21.9233 29.62 22.1066 29.6501 22.2546 29.7101C22.4015 29.7703 22.5193 29.8568 22.6066 29.9697C22.6928 30.0827 22.7559 30.2173 22.7947 30.3736C22.8336 30.5298 22.853 30.704 22.853 30.8963V33.4417ZM22.4088 30.8314C22.4088 30.7257 22.3967 30.6248 22.3723 30.5286C22.3481 30.4324 22.3092 30.3471 22.257 30.2726C22.2036 30.1981 22.132 30.138 22.0434 30.0923C21.9535 30.0466 21.8431 30.0238 21.7132 30.0238C21.5736 30.0238 21.4571 30.0538 21.3648 30.114C21.2738 30.174 21.201 30.2498 21.1475 30.3411C21.0954 30.4324 21.0577 30.5322 21.0359 30.6404C21.0141 30.7485 21.0032 30.8507 21.0032 30.9468V33.5644C21.0032 33.6605 21.0165 33.7542 21.0432 33.8456C21.0699 33.9369 21.1111 34.0185 21.1657 34.0908C21.2216 34.1628 21.2945 34.2205 21.3831 34.2638C21.4728 34.3071 21.581 34.3287 21.706 34.3287C21.962 34.3287 22.143 34.2469 22.2498 34.0835C22.3553 33.92 22.4088 33.7229 22.4088 33.4922V30.8314ZM23.8261 35.6339H23.4255V34.3071L23.6804 34.2781C23.7532 34.2061 23.8163 34.128 23.8697 34.0439C23.9232 33.9597 23.9656 33.8528 23.9972 33.7229C24.0288 33.5932 24.0531 33.4333 24.07 33.2434C24.0869 33.0536 24.1003 32.8192 24.11 32.5404L24.1829 29.6633H26.3532V34.2926H26.6228V35.6339H26.2222V34.682H23.8261V35.6339ZM25.909 34.2926V30.0671H24.5908L24.5252 32.5428C24.5155 32.9562 24.4888 33.3011 24.4451 33.58C24.4014 33.8588 24.3188 34.0955 24.1974 34.2926H25.909ZM28.3459 32.7568L29.1253 29.6633H29.555L28.4989 33.5932C28.4309 33.8479 28.3593 34.0499 28.2841 34.1989C28.2089 34.3479 28.1312 34.4596 28.051 34.5342C27.9708 34.6088 27.8858 34.6567 27.7962 34.6784C27.7063 34.7001 27.6152 34.7132 27.523 34.7181H27.2972V34.3576H27.5084C27.6201 34.3576 27.7245 34.3071 27.8216 34.2061C27.9187 34.1052 27.9988 33.9345 28.0619 33.6941L28.1348 33.4057L27.0059 29.6705H27.4501L28.3241 32.7568H28.3459Z" fill="white"/>
</svg>
