<?xml version="1.0" encoding="UTF-8"?>
<!DOCTYPE svg PUBLIC "-//W3C//DTD SVG 1.1//EN" "http://www.w3.org/Graphics/SVG/1.1/DTD/svg11.dtd">
<!-- Creator: CorelDRAW X7 -->
<svg xmlns="http://www.w3.org/2000/svg" xml:space="preserve" width="2268px" height="1276px" version="1.1" style="shape-rendering:geometricPrecision; text-rendering:geometricPrecision; image-rendering:optimizeQuality; fill-rule:evenodd; clip-rule:evenodd"
viewBox="0 0 2268 1276"
 xmlns:xlink="http://www.w3.org/1999/xlink">
 <defs>
  <style type="text/css">
   <![CDATA[
    .fil4 {fill:black}
    .fil1 {fill:#E83A66}
    .fil0 {fill:white}
    .fil3 {fill:black;fill-rule:nonzero}
    .fil2 {fill:#E83A66;fill-rule:nonzero}
   ]]>
  </style>
 </defs>
 <g id="Слой_x0020_1">
  <metadata id="CorelCorpID_0Corel-Layer"/>
  <rect class="fil0" transform="matrix(2.03891E-014 -0.76985 3.13415 8.30064E-014 0.000521754 1275.75)" width="1657" height="724"/>
  <path class="fil1" d="M1134 529c60,0 109,49 109,109 0,60 -49,109 -109,109 -60,0 -109,-49 -109,-109 0,-60 49,-109 109,-109z"/>
  <path class="fil2" d="M1017 350c266,-110 520,-178 715,-200 196,-22 334,4 366,83 33,78 -46,193 -200,317 -154,123 -381,254 -647,364 -266,110 -520,178 -715,200 -196,21 -334,-4 -366,-83 -33,-78 46,-193 200,-317 154,-123 381,-254 647,-364zm716 -195c-195,21 -448,90 -714,199 -265,110 -493,241 -646,364 -152,122 -230,235 -199,312 32,76 167,101 361,79 195,-21 449,-90 714,-200 265,-110 493,-240 646,-363 152,-122 230,-235 199,-312 -32,-76 -167,-101 -361,-79z"/>
  <g id="_977810032">
   <path class="fil3" d="M1078 506l0 0c140,-60 274,-99 376,-114 103,-16 174,-7 190,30 15,36 -28,94 -111,157 -82,62 -203,131 -343,191l0 0c-141,59 -274,99 -376,114 -103,16 -174,7 -190,-30 -15,-37 28,-94 110,-157 82,-63 203,-131 344,-191zm1 2c-140,60 -261,128 -343,191 -82,62 -125,119 -110,154 16,36 86,44 187,29 102,-16 235,-55 376,-115l0 0c140,-59 261,-128 343,-190 81,-63 124,-119 109,-154 -15,-36 -85,-44 -187,-29 -102,16 -235,55 -375,114l0 0z"/>
   <g>
    <path class="fil3" d="M745 638c-1,27 -2,44 -28,63l-7 -10c21,-16 22,-29 23,-56l2 -56 50 0 0 119 -14 0 0 -107 -24 0 -2 47zm61 60l0 -119 51 0 0 12 -38 0 0 40 33 0 0 12 -33 0 0 42 38 0 0 13 -51 0zm106 -63c6,2 9,5 11,10 2,5 3,11 3,18 0,12 -3,21 -8,26 -5,6 -13,9 -23,9l-23 0 0 -119 25 0c10,0 17,2 22,8 4,5 6,13 6,23 0,6 -1,11 -3,15 -2,4 -5,7 -10,9l0 1zm1 26c0,-6 -1,-11 -4,-15 -2,-3 -7,-5 -14,-5l-10 0 0 44 11 0c4,0 7,0 9,-2 2,-1 4,-3 5,-5 1,-2 2,-5 2,-8 1,-2 1,-6 1,-9zm-1 -51c0,-6 -1,-11 -4,-14 -3,-3 -7,-5 -14,-5l-9 0 0 38 9 0c7,0 11,-2 14,-5 3,-3 4,-8 4,-14zm39 88l0 -107 -21 0 0 -12 34 0 0 48 10 0c7,0 12,0 16,2 4,2 7,4 10,7 2,3 3,7 4,11 1,4 1,9 1,14 0,6 0,11 -1,15 -1,5 -2,9 -5,12 -2,3 -5,5 -9,7 -4,2 -9,3 -15,3l-24 0zm13 -13l10 0c4,0 7,-1 10,-2 2,-1 4,-3 5,-5 1,-2 2,-5 3,-7 0,-3 0,-6 0,-10 0,-3 0,-5 0,-8 -1,-3 -1,-5 -3,-7 -1,-2 -3,-4 -5,-5 -3,-1 -6,-2 -10,-2l-10 0 0 46z"/>
    <path class="fil3" d="M1134 528c30,0 58,12 78,32 20,20 32,47 32,78 0,30 -12,58 -32,78 -20,20 -48,32 -78,32 -31,0 -58,-12 -78,-32 -20,-20 -32,-48 -32,-78 0,-31 12,-58 32,-78 20,-20 47,-32 78,-32zm18 76c0,2 -1,4 -2,6 9,0 17,1 25,1 14,2 28,4 42,8 11,-10 16,-18 14,-23 -2,-6 -14,-7 -33,-4 -13,2 -29,6 -46,12zm-5 93c-1,-2 -2,-5 -3,-7 -3,1 -6,2 -9,3l0 53c14,0 27,-3 39,-8l-17 -41 -10 0zm-14 -4c-20,6 -49,10 -60,-5 -1,0 -1,0 -2,0 -15,2 -26,2 -33,-1 5,10 12,19 19,27 20,19 46,32 76,32l0 -53zm-62 -10c-3,-7 -2,-14 3,-21 -7,-1 -12,-2 -18,-4 -2,0 -3,-1 -5,-1 -12,9 -17,17 -15,22 4,9 28,6 35,4zm4 -23c9,-14 28,-25 43,-32 -1,-3 -2,-6 -3,-9 -24,11 -44,22 -58,33 -2,1 -3,2 -4,3 1,0 3,1 4,1 5,1 11,3 18,4zm38 -45c0,-1 0,-2 0,-3 -22,1 -41,4 -56,8 -19,4 -31,11 -31,18 0,6 8,11 22,15 2,-1 4,-3 6,-5 15,-11 35,-23 59,-33zm-1 -5c-1,-6 -1,-12 0,-17l-22 -54c-12,6 -23,13 -33,22 -18,19 -29,43 -31,71 5,-6 15,-11 30,-15 15,-3 35,-6 56,-7zm3 -23c4,-7 10,-10 18,-10l0 -47c-14,0 -27,3 -39,8l21 49zm20 -10c11,2 17,11 18,22 16,-5 31,-9 44,-11 14,-3 26,-2 33,1 -5,-10 -12,-20 -20,-28 -19,-19 -46,-31 -75,-31l0 47zm4 27c1,-1 1,-3 1,-4 0,-4 -1,-9 -5,-10l0 15c1,0 3,-1 4,-1zm-6 -15c-1,0 -1,0 -1,0 -10,1 -9,14 -7,21 3,-2 5,-3 8,-4l0 -17zm-7 25c2,5 5,10 7,15l0 -17c-1,0 -1,0 -1,0 -2,0 -4,1 -6,2zm25 59c6,-2 13,-5 19,-8 -7,0 -14,1 -22,1l3 7zm30 -9l3 8c-9,4 -18,8 -28,12l22 52c12,-5 23,-13 32,-22 18,-18 30,-43 32,-70 -5,6 -16,10 -31,14 -9,2 -19,4 -30,6zm55 -61c-2,5 -7,11 -14,18 9,3 16,7 20,11 -1,-10 -3,-20 -6,-29zm-16 19c-9,8 -20,15 -30,21 -12,7 -26,14 -42,21 25,-1 46,-4 63,-8 19,-5 31,-11 31,-18 0,-6 -8,-11 -22,-16zm-85 47l0 0 0 10c2,0 3,-1 4,-1 -1,-3 -3,-6 -4,-9zm-2 1c-15,6 -28,10 -40,13 10,4 28,1 40,-3l0 -10zm-101 3c2,-5 6,-11 14,-18 -10,-3 -17,-7 -20,-11 1,10 3,20 6,29zm58 -11c13,1 28,2 43,2l0 0c-4,-8 -7,-16 -11,-24 -9,4 -24,13 -32,22zm-3 18c13,-3 28,-8 43,-14 -15,0 -29,-1 -42,-2 -3,4 -4,9 -2,13 0,1 1,2 1,3zm59 -20c15,-7 29,-14 41,-21 10,-5 19,-11 28,-18 -13,-4 -27,-6 -40,-7 -13,-2 -26,-2 -40,-2l0 23 11 25z"/>
    <path class="fil3" d="M1554 654l0 -11 44 0 0 11 -44 0zm103 43l-5 -26 -27 0 -5 26 -13 0 25 -119 13 0 26 119 -14 0zm-19 -94l-5 27 -5 28 22 0 -6 -28 -5 -27 -1 0zm67 42l16 -67 13 0 -24 92c-2,7 -4,12 -6,16 -2,3 -4,6 -6,8 -2,2 -4,3 -6,4 -2,0 -4,1 -7,1l-6 0 0 -11 6 0c2,0 5,-1 7,-3 2,-3 4,-7 5,-12l2 -7 -26 -88 13 0 18 67 1 0zm36 75l-12 0 0 -34 5 0c1,-1 3,-3 4,-4 1,-2 2,-4 3,-7 1,-3 1,-6 2,-10 0,-4 1,-9 1,-15l2 -72 50 0 0 108 6 0 0 34 -12 0 0 -23 -49 0 0 23zm42 -34l0 -96 -25 0 -2 61c0,8 -1,15 -2,21 -1,5 -3,10 -5,14l34 0zm77 -72l-30 83 -12 0 0 -119 13 0 0 84 0 1 30 -85 13 0 0 119 -13 0 0 -83 -1 0zm60 -23l0 106 -13 0 0 -106 -21 0 0 -13 54 0 0 13 -20 0z"/>
    <path class="fil3" d="M1281 638c-2,27 -3,44 -28,63l-7 -10c21,-16 22,-29 23,-56l2 -56 49 0 0 119 -13 0 0 -107 -24 0 -2 47zm61 60l0 -119 51 0 0 12 -38 0 0 40 33 0 0 12 -33 0 0 42 38 0 0 13 -51 0zm106 -63c5,2 9,5 11,10 2,5 3,11 3,18 0,12 -3,21 -8,26 -5,6 -13,9 -24,9l-23 0 0 -119 26 0c10,0 17,2 21,8 5,5 7,13 7,23 0,6 -1,11 -3,15 -2,4 -5,7 -10,9l0 1zm1 26c0,-6 -2,-11 -4,-15 -3,-3 -7,-5 -14,-5l-10 0 0 44 11 0c3,0 6,0 8,-2 3,-1 4,-3 6,-5 1,-2 2,-5 2,-8 0,-2 1,-6 1,-9zm-1 -51c0,-6 -2,-11 -4,-14 -3,-3 -8,-5 -14,-5l-9 0 0 38 9 0c6,0 11,-2 13,-5 3,-3 5,-8 5,-14zm39 88l0 -107 -21 0 0 -12 34 0 0 48 10 0c6,0 12,0 16,2 4,2 7,4 9,7 3,3 4,7 5,11 1,4 1,9 1,14 0,6 0,11 -1,15 -1,5 -3,9 -5,12 -2,3 -5,5 -9,7 -4,2 -9,3 -15,3l-24 0zm13 -13l10 0c4,0 7,-1 9,-2 3,-1 5,-3 6,-5 1,-2 2,-5 2,-7 1,-3 1,-6 1,-10 0,-3 0,-5 -1,-8 0,-3 -1,-5 -2,-7 -1,-2 -3,-4 -6,-5 -2,-1 -5,-2 -10,-2l-9 0 0 46z"/>
    <path class="fil3" d="M532 554l0 26 -2 0 0 -28 11 0 0 2 -9 0zm19 -2c2,0 3,0 4,0 1,0 1,1 2,2 0,0 1,1 1,2 0,1 0,2 0,4 0,1 0,2 0,3 0,1 -1,2 -1,3 -1,0 -1,1 -2,1 -1,1 -3,1 -4,1l-3 0 0 12 -3 0 0 -28 6 0zm-3 14l3 0c1,0 2,0 2,-1 1,0 2,0 2,-1 0,0 1,-1 1,-2 0,0 0,-1 0,-2 0,-1 0,-2 0,-3 0,0 -1,-1 -1,-1 0,-1 -1,-1 -2,-2 0,0 -1,0 -2,0l-3 0 0 12zm20 3l5 -17 2 0 -6 22c0,1 -1,2 -1,3 -1,1 -1,2 -1,2 -1,0 -1,1 -2,1 0,0 -1,0 -1,0l-2 0 0 -2 2 0c0,0 1,0 1,-1 1,0 1,-1 2,-3l0 -1 -6 -21 2 0 5 17 0 0zm21 11l0 -26 -8 0 0 26 -2 0 0 -28 12 0 0 28 -2 0zm18 0l0 -26 -8 0 0 26 -2 0 0 -28 12 0 0 28 -2 0zm18 0l-1 -7 -7 0 -2 7 -2 0 6 -28 2 0 7 28 -3 0zm-5 -24l-1 7 -2 8 6 0 -2 -9 -1 -6 0 0zm-90 72l0 -28 2 0 0 12 3 0c0,0 1,0 1,0 1,0 1,0 1,-1 1,0 1,0 2,-1 0,0 0,-1 1,-2l2 -8 2 0 -2 8c0,1 -1,2 -1,3 -1,1 -2,2 -3,2 2,1 2,1 3,2 1,1 1,2 1,4l2 9 -2 0 -2 -9c0,-1 -1,-2 -1,-2 0,-1 -1,-1 -1,-2 0,0 -1,0 -1,0 -1,0 -1,0 -2,0l-3 0 0 13 -2 0zm31 -7c0,2 -1,4 -2,5 -1,2 -3,2 -5,2 -2,0 -4,0 -5,-2 -1,-1 -1,-2 -1,-4l0 -15c0,-1 0,-2 0,-3 0,-1 1,-2 1,-2 1,-1 1,-2 2,-2 1,0 2,-1 3,-1 1,0 2,1 3,1 1,0 2,1 2,1 1,1 1,2 1,3 0,1 1,2 1,3l0 14zm-3 -15c0,0 0,-1 0,-1 0,-1 0,-1 -1,-2 0,0 0,-1 -1,-1 0,0 -1,0 -2,0 -1,0 -1,0 -2,0 0,1 -1,1 -1,1 0,1 0,2 -1,2 0,1 0,1 0,2l0 15c0,0 0,1 0,1 1,1 1,1 1,2 0,0 1,0 1,1 1,0 1,0 2,0 2,0 3,0 3,-1 1,-1 1,-2 1,-4l0 -15zm23 1c0,0 0,0 0,1 -1,1 -1,1 -1,2 0,1 -1,1 -1,2 0,1 0,1 -1,1 0,1 0,1 0,1 0,1 0,1 0,2 -1,0 -1,1 -1,1 0,1 -1,2 -1,2 0,1 0,1 0,1 -1,1 -1,1 -1,1l-1 0c0,0 0,-1 -1,-1 0,-1 0,-2 -1,-3 0,0 0,-1 0,-2 -1,-1 -1,-1 -1,-1l-3 -7 0 0 0 21 -2 0 0 -28 2 0c0,0 1,1 1,2 0,0 1,1 1,2 0,1 1,2 1,3 0,1 1,1 1,2l3 8 0 0c0,-1 0,-1 0,-2 1,-1 1,-2 1,-2 1,-1 1,-2 1,-3 0,0 1,-1 1,-1 0,0 0,-1 0,-1 0,-1 0,-1 1,-2 0,0 0,-1 0,-2 1,-1 1,-1 1,-2 1,-1 1,-1 1,-1 0,-1 0,-1 0,-1l3 0 0 28 -3 0 0 -21 0 0zm18 21l0 -26 -7 0 0 26 -3 0 0 -28 13 0 0 28 -3 0zm19 0l-2 -7 -7 0 -1 7 -3 0 6 -28 3 0 6 28 -2 0zm-5 -24l-2 7 -1 8 6 0 -2 -8 -1 -7 0 0zm21 24l0 -13 -8 0 0 13 -2 0 0 -28 2 0 0 12 8 0 0 -12 3 0 0 28 -3 0zm19 -22l-9 22 -2 0 0 -28 2 0 0 22 1 0 8 -22 2 0 0 28 -2 0 0 -22 0 0zm11 -12c0,1 0,2 1,2 0,1 1,1 2,1 1,0 1,0 2,-1 0,0 1,-1 1,-2l2 0c0,1 0,1 -1,2 0,0 0,1 -1,1 0,1 0,1 -1,1 -1,1 -1,1 -2,1 -1,0 -2,0 -3,-1 0,0 -1,0 -1,-1 -1,0 -1,-1 -1,-1 0,-1 0,-1 0,-2l2 0zm7 12l-8 22 -3 0 0 -28 3 0 0 22 0 0 8 -22 3 0 0 28 -3 0 0 -22 0 0zm-128 63c0,2 -1,4 -2,6 -1,1 -3,1 -5,1 -2,0 -4,0 -5,-1 -1,-2 -1,-3 -1,-5l0 -15c0,-1 0,-2 0,-3 0,-1 1,-2 1,-2 1,-1 1,-1 2,-2 1,0 2,0 3,0 1,0 2,0 3,0 1,0 2,1 2,2 1,0 1,1 1,2 0,1 1,2 1,3l0 14zm-3 -15c0,0 0,-1 0,-1 0,-1 0,-1 -1,-2 0,0 0,-1 -1,-1 0,0 -1,0 -2,0 -1,0 -1,0 -2,0 0,1 -1,1 -1,2 0,0 0,1 -1,1 0,1 0,2 0,2l0 15c0,0 0,1 0,1 1,1 1,1 1,2 0,0 1,0 1,1 1,0 1,0 2,0 2,0 3,0 3,-1 1,-1 1,-2 1,-4l0 -15zm14 -6c2,0 3,0 4,1 1,1 2,3 2,5l-3 0c1,-1 0,-2 0,-3 -1,-1 -2,-1 -3,-1 -1,0 -2,0 -2,0 0,1 -1,1 -1,1 0,1 -1,1 -1,2 0,0 0,1 0,2l0 15c0,0 0,1 0,1 0,1 1,1 1,2 0,0 1,0 1,1 0,0 1,0 2,0 1,0 2,0 2,-1 1,-1 1,-2 1,-3l3 0c0,2 -1,4 -2,5 -1,1 -2,1 -4,1 -2,0 -4,0 -5,-1 -1,-1 -2,-3 -2,-5l0 -15c0,-1 1,-2 1,-3 0,-1 0,-2 1,-2 0,-1 1,-1 2,-2 1,0 2,0 3,0zm21 28l0 -13 -8 0 0 13 -3 0 0 -28 3 0 0 13 8 0 0 -13 2 0 0 28 -2 0zm20 -7c0,2 0,4 -1,6 -1,1 -3,1 -5,1 -2,0 -4,0 -5,-1 -1,-2 -2,-3 -2,-5l0 -15c0,-1 1,-2 1,-3 0,-1 0,-2 1,-2 0,-1 1,-1 2,-2 1,0 2,0 3,0 1,0 2,0 3,0 1,0 1,1 2,2 0,0 1,1 1,2 0,1 0,2 0,3l0 14zm-2 -15c0,0 0,-1 0,-1 -1,-1 -1,-1 -1,-2 0,0 -1,-1 -1,-1 -1,0 -1,0 -2,0 -1,0 -2,0 -2,0 -1,1 -1,1 -1,2 -1,0 -1,1 -1,1 0,1 0,2 0,2l0 15c0,0 0,1 0,1 0,1 1,1 1,2 0,0 1,0 1,1 1,0 1,0 2,0 1,0 2,0 3,-1 0,-1 1,-2 1,-4l0 -15zm17 7c1,1 2,1 3,3 0,1 0,2 0,4 0,3 0,5 -2,6 -1,1 -3,2 -5,2l-6 0 0 -28 6 0c2,0 3,0 3,0 1,1 2,1 3,2 0,0 0,1 1,2 0,1 0,2 0,3 0,2 0,3 -1,4 0,1 -1,2 -2,2l0 0zm1 7c0,-2 0,-3 -1,-4 -1,-1 -2,-2 -4,-2l-3 0 0 12 3 0c1,0 2,0 3,-1 0,0 1,0 1,-1 0,-1 1,-1 1,-2 0,-1 0,-2 0,-2zm0 -13c0,-2 -1,-3 -1,-4 -1,0 -2,-1 -4,-1l-3 0 0 10 3 0c2,0 3,0 4,-1 0,-1 1,-2 1,-4zm18 21l-1 -7 -8 0 -1 7 -2 0 6 -28 2 0 6 28 -2 0zm-5 -24l-1 7 -2 8 6 0 -2 -8 -1 -7 0 0zm21 24l0 -13 -7 0 0 13 -3 0 0 -28 3 0 0 13 7 0 0 -13 3 0 0 28 -3 0zm19 0l-1 -7 -8 0 -1 7 -2 0 6 -28 2 0 7 28 -3 0zm-5 -24l-1 7 -2 8 6 0 -2 -8 -1 -7 0 0zm-119 57c1,1 2,2 2,3 1,1 1,2 1,4 0,3 -1,5 -2,6 -1,2 -3,2 -5,2l-6 0 0 -28 6 0c1,0 2,0 3,0 1,1 2,1 2,2 1,0 1,1 1,2 0,1 1,2 1,3 0,2 -1,3 -1,4 -1,1 -1,2 -2,2l0 0zm0 7c0,-2 0,-3 -1,-4 0,-1 -1,-2 -3,-2l-4 0 0 12 4 0c1,0 2,0 2,-1 1,0 1,0 2,-1 0,0 0,-1 0,-2 0,-1 0,-1 0,-2zm0 -13c0,-1 0,-3 -1,-3 -1,-1 -2,-2 -4,-2l-3 0 0 10 4 0c1,0 3,0 3,-1 1,-1 1,-2 1,-4zm22 21l0 -25 -4 3 0 -3 4 -3 3 0 0 28 -3 0zm13 -17c0,1 0,2 1,2 0,1 1,1 2,1 0,0 1,0 1,0 1,-1 1,-1 1,-1 0,-1 0,-1 1,-1 0,-1 0,-1 0,-2l0 -5c0,-1 0,-2 -1,-2 -1,-1 -1,-1 -2,-1 -1,0 -2,0 -2,1 -1,0 -1,1 -1,2l0 6zm4 4c0,1 0,1 -1,1 0,0 -1,0 -1,0 -2,0 -3,0 -4,-1 0,-1 -1,-2 -1,-4l0 -6c0,-1 0,-2 1,-2 0,-1 0,-2 1,-2 0,0 1,-1 2,-1 0,0 1,0 2,0 1,0 3,0 4,1 1,1 1,2 1,4l0 5c0,1 0,2 0,3 0,0 0,1 0,2l-6 13 -2 0c0,-1 1,-3 1,-4 1,-2 1,-3 2,-4 0,-1 1,-2 1,-3 0,-1 0,-1 1,-2l-1 0zm12 -4c0,1 0,2 1,2 0,1 1,1 2,1 0,0 1,0 1,0 1,-1 1,-1 1,-1 0,-1 1,-1 1,-1 0,-1 0,-1 0,-2l0 -5c0,-1 0,-2 -1,-2 -1,-1 -1,-1 -2,-1 -1,0 -2,0 -2,1 -1,0 -1,1 -1,2l0 6zm4 4c0,1 0,1 -1,1 0,0 0,0 -1,0 -2,0 -3,0 -3,-1 -1,-1 -2,-2 -2,-4l0 -6c0,-1 1,-2 1,-2 0,-1 1,-2 1,-2 1,0 1,-1 2,-1 0,0 1,0 2,0 2,0 3,0 4,1 1,1 1,2 1,4l0 5c0,1 0,2 0,3 0,0 0,1 0,2l-6 13 -2 0c0,-1 1,-3 1,-4 1,-2 1,-3 2,-4 0,-1 1,-2 1,-3 0,-1 1,-1 1,-2l-1 0zm16 13l0 -25 -5 3 0 -3 4 -3 3 0 0 28 -2 0zm21 -26l0 26 -3 0 0 -28 12 0 0 2 -9 0zm25 19c0,3 0,4 -1,6 -1,1 -3,2 -5,2 -2,0 -4,-1 -5,-2 -1,-1 -1,-3 -1,-5l0 -15c0,-1 0,-2 0,-3 0,-1 0,-1 1,-2 0,-1 1,-1 2,-2 1,0 2,0 3,0 1,0 2,0 3,0 1,1 1,1 2,2 0,0 1,1 1,2 0,1 0,2 0,3l0 14zm-2 -14c0,-1 0,-2 0,-2 0,-1 -1,-1 -1,-2 0,0 -1,0 -1,-1 -1,0 -1,0 -2,0 -1,0 -1,0 -2,0 0,1 -1,1 -1,2 0,0 -1,1 -1,1 0,1 0,2 0,2l0 15c0,0 0,1 0,2 0,0 1,0 1,1 0,0 1,1 1,1 1,0 1,0 2,0 1,0 2,0 3,-1 1,-1 1,-2 1,-3l0 -15zm8 27l-2 0 0 -8 1 0c0,0 1,-1 1,-1 0,-1 1,-1 1,-2 0,-1 0,-2 0,-3 0,-1 0,-2 0,-4l1 -16 12 0 0 26 1 0 0 8 -2 0 0 -6 -13 0 0 6zm11 -8l0 -24 -7 0 0 14c0,3 -1,4 -1,6 0,2 0,3 -1,4l9 0zm14 -9l4 -17 3 0 -6 22c0,2 -1,3 -1,4 -1,0 -1,1 -2,1 0,1 -1,1 -1,1 -1,0 -1,0 -2,0l-1 0 0 -2 1 0c1,0 2,0 2,0 1,-1 1,-2 1,-3l1 -2 -6 -21 2 0 5 17 0 0z"/>
    <g>
     <polygon class="fil3" points="1959,734 2007,734 2007,736 1959,736 "/>
     <polygon class="fil3" points="1959,685 2007,685 2007,687 1959,687 "/>
     <polygon class="fil3" points="1959,588 2007,588 2007,590 1959,590 "/>
     <polygon class="fil3" points="1959,540 2007,540 2007,542 1959,542 "/>
     <polygon class="fil3" points="1959,636 2007,636 2007,640 1959,640 "/>
    </g>
    <g>
     <polygon class="fil3" points="612,736 564,736 564,734 612,734 "/>
     <polygon class="fil3" points="612,687 564,687 564,685 612,685 "/>
     <polygon class="fil3" points="612,590 564,590 564,588 612,588 "/>
     <polygon class="fil3" points="612,542 564,542 564,540 612,540 "/>
     <polygon class="fil3" points="612,640 564,640 564,636 612,636 "/>
    </g>
   </g>
   <g>
    <path class="fil3" d="M1301 429c0,-23 -7,-42 -22,-56 -15,-13 -34,-20 -57,-20 -23,0 -42,7 -57,20 -14,14 -21,33 -21,56l0 52 -7 2 -13 6 0 -60c0,-16 2,-30 8,-42 5,-12 12,-22 21,-30 9,-8 20,-14 32,-17 11,-4 24,-6 37,-6 14,0 26,2 38,6 12,3 22,9 31,17 9,8 17,18 22,30 5,12 8,26 8,42l0 105c-7,-1 -13,-1 -20,-2l0 -103z"/>
    <path class="fil3" d="M1321 707l0 122c0,17 -3,32 -8,43 -5,12 -13,22 -22,30 -9,8 -19,14 -31,18 -12,4 -24,5 -38,5 -13,0 -26,-1 -37,-5 -12,-4 -23,-10 -32,-18 -9,-8 -16,-18 -21,-30 -6,-11 -8,-26 -8,-43l0 -34 20 -8 0 43c0,24 7,42 21,56 15,13 34,20 57,20 23,0 42,-7 57,-20 15,-14 22,-32 22,-56l0 -113 20 -10z"/>
   </g>
   <g>
    <path class="fil4" d="M1099 805l0 14c0,32 -8,57 -24,77 -16,20 -43,29 -81,29 -28,0 -59,-9 -76,-32 -17,-23 -25,-51 -25,-87 0,-15 1,-54 2,-71 7,1 14,2 22,3 -2,22 -3,53 -3,68 0,13 1,25 4,38 2,12 7,23 13,32 6,9 14,16 25,22 11,6 26,8 39,8 25,0 44,-6 60,-20 15,-13 23,-35 23,-66l0 -8 21 -7z"/>
    <path class="fil3" d="M1078 359l-180 0 0 -19 205 0 0 21 -77 122c7,1 13,3 19,5 13,4 23,11 31,20l2 -1 3 7c5,7 9,14 12,23l-14 6 -6 4c-3,-10 -8,-19 -15,-26 -10,-11 -25,-17 -43,-20 -2,0 -5,0 -7,0l-8 -19 78 -123z"/>
   </g>
   <polygon class="fil3" points="1342,1131 924,146 926,145 1344,1130 "/>
  </g>
  <path class="fil2" d="M260 511l-6 0 0 -113 -29 0 0 -6 64 0 0 6 -29 0 0 113zm74 -115c-8,0 -15,3 -20,8 -5,6 -8,13 -8,21l0 50c0,4 1,8 2,12 1,4 3,7 5,10 2,3 5,6 8,7 4,2 8,3 12,3 5,0 10,-1 14,-4 5,-3 8,-7 9,-13 1,-1 1,-4 1,-7 1,-3 1,-7 1,-11 0,-4 0,-8 0,-12 0,-4 0,-8 0,-12 0,-8 0,-14 0,-21 0,-6 -1,-10 -2,-13 -1,-7 -4,-11 -8,-14 -4,-3 -8,-4 -14,-4zm1 -5c3,0 6,0 10,1 3,1 6,2 9,4 2,3 5,6 6,9 2,4 4,8 4,13 0,6 1,10 1,15 0,5 0,9 0,14l0 5c0,9 0,17 0,25 0,7 -1,13 -3,18 -1,2 -2,4 -4,7 -1,2 -3,4 -5,5 -3,2 -5,3 -9,4 -3,1 -7,2 -11,2 -4,0 -8,-1 -11,-2 -3,-1 -5,-2 -7,-4 -2,-2 -4,-3 -5,-5 -1,-2 -2,-3 -3,-5l-1 0 0 61 -6 0 0 -166 6 0 0 12 1 0c2,-4 6,-7 11,-10 4,-2 10,-3 17,-3zm109 120l0 -107 -54 107 -6 0 0 -119 6 0 0 107 54 -107 6 0 0 119 -6 0zm23 31l-6 0 0 -37 7 0c4,-3 7,-9 9,-17 2,-9 3,-22 4,-38l2 -58 60 0 0 113 8 0 0 37 -7 0 0 -31 -77 0 0 31zm22 -144l-2 54c-1,13 -2,24 -3,33 -2,9 -4,16 -8,20l61 0 0 -107 -48 0zm143 113l-67 0 0 -119 6 0 0 113 52 0 0 -113 6 0 0 113 8 0 0 37 -5 0 0 -31zm49 -63c-8,0 -15,2 -20,7 -6,5 -8,13 -8,25 0,3 0,7 1,10 1,3 2,6 4,8 2,3 5,5 8,6 4,2 8,3 13,3 7,0 14,-2 19,-7 5,-4 8,-10 8,-18l0 -34 -25 0zm-31 -40c3,-6 6,-10 11,-13 5,-3 12,-5 20,-5 10,0 18,2 23,7 5,4 8,12 8,24l0 90 -6 0 0 -11 -1 0c-2,3 -4,5 -7,7 -2,1 -4,2 -7,3 -2,1 -5,2 -8,2 -2,0 -4,0 -6,0 -6,0 -11,-1 -14,-3 -4,-1 -7,-4 -10,-7 -2,-3 -4,-6 -5,-10 -1,-4 -1,-8 -1,-13 0,-4 0,-9 1,-13 1,-5 3,-9 6,-12 2,-4 6,-7 10,-9 4,-2 10,-3 16,-3l26 0 0 -20c0,-4 -1,-8 -1,-11 -1,-3 -2,-6 -4,-8 -2,-2 -4,-4 -7,-5 -4,-2 -8,-2 -13,-2 -6,0 -12,1 -16,4 -4,3 -7,6 -9,10l-6 -2zm108 103l-6 0 0 -113 -28 0 0 -6 63 0 0 6 -29 0 0 113zm67 -6c6,0 11,-1 15,-2 5,-2 8,-4 10,-6 3,-3 5,-6 6,-9 1,-3 1,-7 1,-11 0,-9 -3,-15 -8,-19 -5,-4 -13,-6 -24,-6l-21 0 0 53 21 0zm-27 6l0 -119 6 0 0 54 22 0c7,0 13,0 17,2 5,1 9,4 12,6 3,3 5,6 6,10 2,4 2,8 2,13 0,4 0,8 -1,12 -2,4 -4,8 -6,11 -3,3 -7,6 -12,8 -5,2 -11,3 -18,3l-28 0zm-503 74l-44 0 0 54c0,17 -2,30 -5,40 -3,11 -9,19 -18,24l-3 -5c4,-2 7,-5 9,-8 3,-3 5,-7 6,-12 2,-4 3,-10 4,-16 0,-7 1,-15 1,-25l0 -58 56 0 0 119 -6 0 0 -113zm58 -7c10,0 17,2 23,7 5,5 8,13 8,23l0 30 -58 0 0 7c0,3 1,6 1,9 0,4 0,7 0,10 0,3 0,6 1,9 0,3 0,5 1,6 1,4 4,8 7,11 4,3 9,4 16,4 4,0 8,0 11,-2 3,-1 6,-3 8,-5 2,-2 3,-5 4,-7 2,-3 2,-6 3,-10l5 2c-1,9 -4,16 -10,21 -5,4 -12,7 -21,7 -4,0 -9,-1 -12,-2 -4,-1 -7,-2 -9,-4 -2,-2 -4,-5 -6,-7 -1,-2 -2,-5 -3,-8 0,-2 -1,-4 -1,-7 0,-3 -1,-7 -1,-10 0,-4 0,-8 0,-11 0,-4 0,-8 0,-11 0,-4 0,-9 0,-13 0,-5 0,-9 0,-13 1,-4 1,-8 2,-11 0,-3 1,-6 1,-8 2,-5 6,-10 10,-13 5,-3 12,-4 20,-4zm-24 19c-1,3 -2,8 -2,14 0,6 0,14 -1,22l52 0 0 -25c0,-7 -2,-13 -6,-18 -4,-5 -10,-7 -19,-7 -5,0 -9,1 -13,3 -5,2 -8,6 -11,11zm100 101l-6 0 0 -113 -29 0 0 -6 64 0 0 6 -29 0 0 113z"/>
  <path class="fil2" d="M1484 764c11,0 19,3 24,9 6,6 8,14 8,25l-15 2 0 0c0,-7 -1,-12 -4,-16 -3,-4 -8,-6 -14,-6 -4,0 -7,1 -10,2 -3,2 -5,5 -7,9 -1,3 -2,8 -2,15 0,7 -1,16 -1,26 0,6 1,12 1,18 0,6 0,10 1,13 2,4 4,7 7,9 2,2 6,3 11,3 6,0 10,-1 13,-5 3,-3 5,-9 5,-16l15 2c0,22 -12,33 -34,33 -5,0 -9,-1 -13,-2 -3,-1 -6,-3 -9,-5 -3,-2 -5,-4 -6,-7 -2,-2 -3,-5 -3,-8 -1,-2 -1,-5 -2,-8 0,-3 0,-6 0,-9 0,-4 0,-7 0,-11 -1,-3 -1,-7 -1,-10 0,-4 0,-9 1,-13 0,-4 0,-9 0,-12 0,-4 1,-8 1,-11 1,-3 1,-6 2,-8 2,-6 6,-10 11,-14 5,-3 12,-5 21,-5zm106 121l0 -92 0 0 -44 92 -14 0 0 -119 15 0 0 92 0 0c7,-15 14,-31 21,-46 8,-16 15,-31 22,-46l15 0 0 119 -15 0zm27 -7c4,-2 6,-4 9,-7 2,-2 4,-5 5,-8 2,-4 3,-8 3,-12 1,-5 1,-11 1,-18l0 -68 62 0 0 120 -16 0 0 -106 -32 0 0 55c0,8 -1,15 -1,21 -1,6 -3,11 -5,15 -2,4 -4,8 -7,11 -3,4 -7,6 -12,9l-7 -12zm114 -7l14 0c5,0 9,0 13,-2 3,-1 6,-3 7,-5 2,-2 3,-4 4,-7 1,-3 1,-5 1,-8 0,-3 0,-6 -1,-9 -1,-2 -2,-4 -4,-6 -2,-2 -5,-3 -8,-5 -3,-1 -7,-1 -12,-1l-14 0 0 43zm-15 14l0 -120 15 0 0 49 14 0c8,0 15,1 20,3 5,1 9,4 12,7 3,3 5,7 6,11 1,4 2,9 2,13 0,6 -1,11 -2,15 -1,5 -3,9 -6,12 -3,3 -7,6 -12,8 -4,1 -11,2 -18,2l-31 0zm139 0l0 -54 -38 0 0 54 -15 0 0 -120 15 0 0 52 38 0 0 -52 15 0 0 120 -15 0zm52 -14l14 0c5,0 10,0 13,-2 3,-1 5,-3 7,-5 2,-2 3,-4 4,-7 0,-3 1,-5 1,-8 0,-3 -1,-6 -1,-9 -1,-2 -3,-4 -5,-6 -1,-2 -4,-3 -7,-5 -3,-1 -7,-1 -12,-1l-14 0 0 43zm64 14l0 -120 16 0 0 120 -16 0zm-79 0l0 -120 15 0 0 49 15 0c7,0 14,1 19,3 5,1 9,4 12,7 3,3 5,7 6,11 1,4 2,9 2,13 0,6 -1,11 -2,15 -1,5 -3,9 -6,12 -3,3 -7,6 -12,8 -5,1 -11,2 -19,2l-30 0zm135 -165c1,4 3,8 6,11 4,4 8,6 13,6 5,0 9,-2 12,-5 4,-4 6,-8 6,-12l12 0c0,3 -1,6 -2,9 -1,4 -3,7 -6,10 -2,2 -5,5 -9,6 -4,2 -8,3 -13,3 -6,0 -10,-1 -14,-3 -4,-1 -7,-4 -9,-6 -3,-3 -5,-6 -6,-10 -1,-3 -2,-6 -2,-9l12 0zm40 165l0 -92 0 0 -43 92 -15 0 0 -119 15 0 0 92 0 0c8,-15 15,-31 22,-46 7,-16 14,-31 21,-46l15 0 0 119 -15 0zm-561 188l0 -107 -39 0 0 107 -15 0 0 -120 69 0 0 120 -15 0zm70 -121c9,0 16,1 21,5 5,3 9,8 11,13 1,5 2,10 2,16 1,7 1,13 1,20l0 12c0,4 0,9 0,13 0,4 -1,9 -1,14 -1,6 -2,11 -5,15 -2,3 -5,6 -8,9 -4,2 -7,3 -11,4 -4,1 -8,2 -12,2 -10,0 -17,-3 -22,-7 -5,-4 -8,-9 -10,-16 0,-2 -1,-4 -1,-7 0,-3 -1,-6 -1,-10 0,-3 0,-7 0,-10 0,-4 0,-7 0,-11 0,-4 0,-8 0,-12 0,-5 0,-9 1,-13 0,-4 1,-7 1,-10 0,-3 1,-6 2,-8 2,-6 6,-11 11,-14 5,-4 12,-5 21,-5zm0 13c-4,0 -8,1 -11,3 -3,1 -6,4 -7,8 -2,3 -2,8 -3,14 0,6 0,13 0,21l0 8c0,7 0,12 0,18 0,5 1,9 2,12 2,8 9,12 19,12 4,0 8,-1 12,-4 3,-3 5,-7 6,-11 1,-3 1,-8 2,-13 0,-6 0,-12 0,-18 0,-3 0,-7 0,-11 0,-3 0,-7 0,-10 0,-4 0,-7 -1,-10 0,-2 -1,-4 -1,-6 -1,-4 -4,-7 -7,-10 -3,-2 -7,-3 -11,-3zm153 108l0 -107 -39 0 0 107 -15 0 0 -120 69 0 0 120 -15 0zm70 -107c-6,0 -11,2 -15,6 -3,4 -5,10 -5,17l0 48c0,6 1,12 4,16 4,5 9,7 15,7 10,0 16,-5 18,-14 1,-3 1,-8 2,-14 0,-7 0,-13 0,-21 0,-7 0,-14 0,-19 -1,-6 -1,-10 -2,-13 -1,-5 -3,-8 -6,-10 -3,-2 -7,-3 -11,-3zm4 -14c3,0 6,0 9,1 3,0 6,2 9,4 2,2 5,5 7,9 2,3 3,8 4,15 1,5 1,10 1,15 0,5 0,10 0,16 0,9 0,17 -1,25 0,7 -1,14 -3,19 -2,5 -5,10 -9,13 -4,4 -10,5 -18,5 -6,0 -11,-1 -14,-3 -4,-3 -7,-5 -9,-8l0 0 0 57 -15 0 0 -167 15 0 0 11 0 0c3,-4 6,-7 9,-9 4,-2 9,-3 15,-3zm48 22c3,-7 6,-12 12,-17 6,-3 13,-5 22,-5 10,0 19,2 24,7 6,4 9,13 9,25l0 89 -15 0 0 -11 0 0c-4,5 -8,9 -12,10 -5,2 -10,2 -15,2 -5,0 -9,-1 -13,-3 -3,-1 -6,-4 -8,-7 -3,-3 -4,-7 -5,-11 -1,-4 -2,-8 -2,-13 0,-4 1,-9 2,-13 1,-5 3,-9 5,-13 3,-3 6,-6 11,-9 4,-2 9,-3 16,-3l21 0 0 -18c0,-6 -1,-10 -4,-14 -2,-3 -7,-5 -15,-5 -4,0 -7,1 -11,3 -4,2 -6,6 -7,10l-15 -4zm34 41c-6,0 -11,2 -15,5 -5,4 -7,10 -7,20 0,6 2,11 5,15 2,3 7,5 14,5 6,0 12,-2 15,-5 4,-4 6,-9 6,-16l0 -24 -18 0zm69 -49l0 38 17 0c8,0 14,-2 17,-5 3,-3 5,-8 5,-14 0,-6 -2,-11 -5,-14 -4,-3 -10,-5 -18,-5l-16 0zm0 50l0 43 18 0c4,0 8,0 11,-1 3,-2 6,-3 7,-5 2,-2 3,-5 4,-8 0,-2 1,-6 1,-9 0,-6 -2,-11 -5,-15 -3,-3 -9,-5 -17,-5l-19 0zm-15 57l0 -120 32 0c13,0 22,3 28,9 6,5 9,13 9,23 0,6 -1,10 -3,15 -2,4 -5,7 -10,10l1 0c5,2 8,5 10,11 2,5 3,10 3,16 0,13 -3,22 -10,28 -6,5 -16,8 -28,8l-32 0zm120 -23c2,-7 4,-15 5,-24 2,-9 4,-17 6,-25l12 -48 15 0 -36 141c-1,3 -3,7 -4,10 -1,3 -3,6 -5,9 -2,2 -5,4 -8,6 -3,1 -7,2 -11,2l-6 0 0 -13 4 0c5,0 9,-2 11,-5 2,-4 4,-9 6,-16l4 -14 -32 -120 15 0c3,9 5,18 7,26 2,9 4,18 6,27 1,3 2,7 3,11 1,4 2,8 2,12 1,5 2,8 3,12 1,4 2,7 2,9l1 0z"/>
 </g>
</svg>
